<svg width="26" height="25" viewBox="0 0 26 25" fill="none" xmlns="http://www.w3.org/2000/svg">
<path d="M18.6614 1H7.19328C4.02645 1 1.45923 3.56722 1.45923 6.73405V18.2021C1.45923 21.369 4.02645 23.9362 7.19328 23.9362H18.6614C21.8282 23.9362 24.3954 21.369 24.3954 18.2021V6.73405C24.3954 3.56722 21.8282 1 18.6614 1Z" stroke="#3B4CB6" stroke-width="2" stroke-linecap="round" stroke-linejoin="round"/>
<path d="M17.5143 11.7456C17.6558 12.7 17.4928 13.6748 17.0484 14.5312C16.604 15.3876 15.9009 16.0821 15.039 16.5159C14.1772 16.9497 13.2005 17.1007 12.2479 16.9474C11.2953 16.7941 10.4152 16.3444 9.73298 15.6621C9.05072 14.9799 8.60096 14.0998 8.44767 13.1472C8.29438 12.1946 8.44537 11.2179 8.87917 10.3561C9.31296 9.49422 10.0075 8.7911 10.8639 8.34671C11.7203 7.90232 12.6951 7.7393 13.6495 7.88083C14.6231 8.0252 15.5244 8.47885 16.2203 9.17478C16.9162 9.87072 17.3699 10.772 17.5143 11.7456Z" stroke="#3B4CB6" stroke-width="2" stroke-linecap="round" stroke-linejoin="round"/>
<path d="M19.2349 6.16061H19.2478" stroke="#3B4CB6" stroke-width="2" stroke-linecap="round" stroke-linejoin="round"/>
</svg>
