<svg width="27" height="23" viewBox="0 0 27 23" fill="none" xmlns="http://www.w3.org/2000/svg">
<path d="M26.4593 0.928026C25.3433 1.75532 24.1076 2.38807 22.7999 2.80191C22.098 1.95378 21.1652 1.35264 20.1276 1.07981C19.09 0.806971 17.9977 0.875601 16.9984 1.27641C15.9992 1.67723 15.1412 2.39088 14.5404 3.32086C13.9397 4.25084 13.6252 5.35227 13.6396 6.47619V7.70095C11.5915 7.75676 9.56205 7.2794 7.73201 6.31139C5.90197 5.34338 4.32814 3.91477 3.15069 2.15279C3.15069 2.15279 -1.51104 13.1756 8.97784 18.0747C6.57767 19.7868 3.71844 20.6454 0.819824 20.5242C11.3087 26.648 24.1285 20.5242 24.1285 6.43945C24.1274 6.09829 24.0962 5.75798 24.0352 5.4229C25.2247 4.19017 26.064 2.63377 26.4593 0.928026V0.928026Z" fill="#3B4CB6"/>
</svg>
