<svg id="Layer_1" data-name="Layer 1" xmlns="http://www.w3.org/2000/svg" viewBox="0 0 60 60"><defs><style>.cls-1{fill:#30b0b3;}.cls-2{fill:#fff;}</style></defs><title>cyan-survey-icon</title><circle class="cls-1" cx="30" cy="30" r="30"/><path class="cls-2" d="M41.85,49.28h-24a3.06,3.06,0,0,1-3.06-3.06v-29a3.06,3.06,0,0,1,3.06-3.06h3.29v1.18H17.85A1.88,1.88,0,0,0,16,17.22v29a1.88,1.88,0,0,0,1.88,1.88h24a1.88,1.88,0,0,0,1.88-1.88v-29a1.88,1.88,0,0,0-1.88-1.88H38.57V14.16h3.28a3.06,3.06,0,0,1,3.06,3.06v29A3.06,3.06,0,0,1,41.85,49.28Z"/><path class="cls-2" d="M37.48,17.93H22.24a1.69,1.69,0,0,1-1.68-1.68V13.38a1.69,1.69,0,0,1,1.68-1.68h5.93v1.18H22.24a.5.5,0,0,0-.5.5v2.87a.5.5,0,0,0,.5.5H37.48a.5.5,0,0,0,.5-.5V13.38a.5.5,0,0,0-.5-.5H31.55V11.7h5.92a1.69,1.69,0,0,1,1.68,1.68v2.87A1.69,1.69,0,0,1,37.48,17.93Z"/><path class="cls-2" d="M29.86,14.57a2.29,2.29,0,1,1,2.29-2.29A2.29,2.29,0,0,1,29.86,14.57Zm0-3.39A1.11,1.11,0,1,0,31,12.29,1.11,1.11,0,0,0,29.86,11.18Z"/><path class="cls-2" d="M29.28,37l-5.49-5a.59.59,0,0,1,.8-.87l4.58,4.18,9.3-11.08a.59.59,0,0,1,.9.76Z"/></svg>