<svg id="Layer_1" data-name="Layer 1" xmlns="http://www.w3.org/2000/svg" viewBox="0 0 39 40"><defs><style>.cls-1{fill:#2eb4b5;}.cls-2{fill:none;stroke:#fff;stroke-miterlimit:10;stroke-width:0.82px;}.cls-3{fill:#fff;}.cls-4{fill:#e85211;}</style></defs><rect class="cls-1" x="0.48" y="0.5" width="38.09" height="38.91" rx="2.74"/><rect class="cls-2" x="0.48" y="0.5" width="38.09" height="38.91" rx="2.74"/><path class="cls-3" d="M33.71,7.48H21.11a.91.91,0,0,1,0-1.82h12.6a.91.91,0,1,1,0,1.82Z"/><path class="cls-3" d="M33.71,11.28H21.11a.92.92,0,0,1,0-1.83h12.6a.92.92,0,0,1,0,1.83Z"/><path class="cls-3" d="M33.71,15.07H21.11a.92.92,0,0,1,0-1.83h12.6a.92.92,0,0,1,0,1.83Z"/><path class="cls-3" d="M33.71,18.87H21.11a.92.92,0,0,1,0-1.83h12.6a.92.92,0,0,1,0,1.83Z"/><path class="cls-3" d="M33.71,22.66H6.43a.92.92,0,1,1,0-1.83H33.71a.92.92,0,0,1,0,1.83Z"/><path class="cls-3" d="M33.71,26.46H6.43a.92.92,0,1,1,0-1.83H33.71a.92.92,0,0,1,0,1.83Z"/><path class="cls-3" d="M33.71,30.25H6.43a.92.92,0,1,1,0-1.83H33.71a.92.92,0,0,1,0,1.83Z"/><path class="cls-3" d="M22.85,34H6.43a.91.91,0,1,1,0-1.82H22.85a.91.91,0,1,1,0,1.82Z"/><circle class="cls-4" cx="12.01" cy="11.79" r="5.98"/><path class="cls-3" d="M12,18.22a6.43,6.43,0,1,1,6.43-6.43A6.43,6.43,0,0,1,12,18.22ZM12,6.27a5.52,5.52,0,1,0,5.52,5.52A5.53,5.53,0,0,0,12,6.27Z"/><circle class="cls-3" cx="11.96" cy="10.36" r="2.3"/><path class="cls-3" d="M16.28,15.74A4.62,4.62,0,0,0,12,13.44,4.52,4.52,0,0,0,7.68,16L9.53,17.2l2.48.57,2.83-.88Z"/></svg>