<svg id="Layer_1" data-name="Layer 1" xmlns="http://www.w3.org/2000/svg" viewBox="0 0 27.53 36.68"><defs><style>.cls-1{fill:#2eb4b5;}.cls-2{fill:#e85211;}.cls-3{fill:none;stroke:#fff;stroke-miterlimit:10;stroke-width:0.85px;}.cls-4{fill:#fff;}</style></defs><rect class="cls-1" x="0.16" y="3.76" width="27.18" height="32.78" rx="2.54"/><polygon class="cls-2" points="20.26 20.1 16.03 20.1 16.03 15.59 11.89 15.59 11.89 20.1 7.48 20.1 7.48 24.24 11.89 24.24 11.89 28.38 16.03 28.38 16.03 24.24 20.26 24.24 20.26 20.1"/><polygon class="cls-3" points="20.26 20.1 16.03 20.1 16.03 15.59 11.89 15.59 11.89 20.1 7.48 20.1 7.48 24.24 11.89 24.24 11.89 28.38 16.03 28.38 16.03 24.24 20.26 24.24 20.26 20.1"/><circle class="cls-1" cx="14.01" cy="4.83" r="4.69"/><circle class="cls-4" cx="14" cy="4.84" r="2.05"/><path class="cls-4" d="M20.08,11H7.39a.85.85,0,1,1,0-1.69H20.08a.85.85,0,1,1,0,1.69Z"/></svg>