<?xml version="1.0" encoding="utf-8"?>
<!-- Generator: Adobe Illustrator 21.1.0, SVG Export Plug-In . SVG Version: 6.00 Build 0)  -->
<svg version="1.1" id="Layer_1" xmlns="http://www.w3.org/2000/svg" xmlns:xlink="http://www.w3.org/1999/xlink" x="0px" y="0px"
	 viewBox="0 0 76 69" style="enable-background:new 0 0 76 69;" xml:space="preserve">
<style type="text/css">
	.st0{fill:#FF5B00;}
	.st1{fill:#FF9D00;}
	.st2{fill:#FFD400;}
	.st3{fill:#B3ED00;}
	.st4{fill:#0FEAAC;}
	.st5{fill:#1CE3E8;}
	.st6{filter:url(#Adobe_OpacityMaskFilter);}
	.st7{fill:#FFFFFF;}
	.st8{mask:url(#mask-2);fill:#FF5B00;}
	.st9{filter:url(#Adobe_OpacityMaskFilter_1_);}
	.st10{mask:url(#mask-4);fill:#FF5B00;}
</style>
<title>LP icon</title>
<desc>Created with Sketch.</desc>
<g id="Symbols">
	<g id="top_opportunity-card" transform="translate(-253.000000, 0.000000)">
		<g id="top_opportunity">
			<g id="Group-3">
				<g id="LP-icon" transform="translate(253.000000, -52.000000)">
					<g id="Group-219">
						<path id="Fill-1" class="st0" d="M53.2,5.9c0-3.3,2.7-5.9,5.9-5.9c3.3,0,5.9,2.7,5.9,5.9s-2.7,5.9-5.9,5.9
							C55.9,11.9,53.2,9.2,53.2,5.9"/>
						<path id="Fill-3" class="st1" d="M54.4,19.4c0-2.6,2.1-4.7,4.7-4.7c2.6,0,4.7,2.1,4.7,4.7s-2.1,4.7-4.7,4.7
							C56.5,24.1,54.4,22,54.4,19.4"/>
						<path id="Fill-5" class="st2" d="M55.4,30.9c0-2.1,1.7-3.8,3.8-3.8c2.1,0,3.8,1.7,3.8,3.8s-1.7,3.8-3.8,3.8
							C57.1,34.7,55.4,33,55.4,30.9"/>
						<path id="Fill-7" class="st3" d="M56.4,40.7c0-1.5,1.2-2.7,2.7-2.7c1.5,0,2.7,1.2,2.7,2.7s-1.2,2.7-2.7,2.7
							C57.7,43.5,56.4,42.2,56.4,40.7"/>
						<path id="Fill-9" class="st4" d="M57.5,48.8c0-0.9,0.7-1.6,1.6-1.6c0.9,0,1.6,0.7,1.6,1.6s-0.7,1.6-1.6,1.6
							C58.3,50.4,57.5,49.7,57.5,48.8"/>
						<path id="Fill-11" class="st5" d="M58.5,55c0-0.4,0.3-0.7,0.7-0.7c0.4,0,0.7,0.3,0.7,0.7c0,0.4-0.3,0.7-0.7,0.7
							C58.8,55.7,58.5,55.3,58.5,55"/>
						<path id="Fill-13" class="st0" d="M35.1,11.2c-1.1-3.1,0.5-6.5,3.5-7.6c3.1-1.1,6.5,0.5,7.6,3.5c1.1,3.1-0.5,6.5-3.5,7.6
							C39.6,15.9,36.2,14.3,35.1,11.2"/>
						<path id="Fill-15" class="st1" d="M40.8,23.5c-0.9-2.5,0.4-5.2,2.8-6.1c2.5-0.9,5.2,0.4,6.1,2.8c0.9,2.5-0.4,5.2-2.8,6.1
							C44.4,27.2,41.7,25.9,40.8,23.5"/>
						<path id="Fill-17" class="st2" d="M45.6,34c-0.7-2,0.3-4.1,2.3-4.9c2-0.7,4.1,0.3,4.9,2.3c0.7,2-0.3,4.1-2.3,4.9
							C48.5,37,46.4,35.9,45.6,34"/>
						<path id="Fill-19" class="st3" d="M50,42.8c-0.5-1.4,0.2-3,1.6-3.5c1.4-0.5,3,0.2,3.5,1.6c0.5,1.4-0.2,3-1.6,3.5
							C52.1,45,50.5,44.2,50,42.8"/>
						<path id="Fill-21" class="st4" d="M53.8,50c-0.3-0.8,0.1-1.8,1-2.1c0.8-0.3,1.8,0.1,2.1,1c0.3,0.8-0.1,1.8-1,2.1
							C55,51.3,54.1,50.9,53.8,50"/>
						<path id="Fill-23" class="st5" d="M56.7,55.5c-0.1-0.4,0.1-0.8,0.4-0.9c0.4-0.1,0.8,0.1,0.9,0.4c0.1,0.4-0.1,0.8-0.4,0.9
							C57.3,56.1,56.9,55.9,56.7,55.5"/>
						<path id="Fill-25" class="st0" d="M19.9,22.4c-2.1-2.5-1.8-6.2,0.7-8.4s6.2-1.8,8.3,0.7c2.1,2.5,1.8,6.2-0.7,8.4
							C25.7,25.2,22,24.9,19.9,22.4"/>
						<path id="Fill-27" class="st1" d="M29.4,32c-1.7-2-1.4-5,0.6-6.7c2-1.7,5-1.4,6.7,0.6c1.7,2,1.4,5-0.6,6.7
							C34.1,34.2,31.1,34,29.4,32"/>
						<path id="Fill-29" class="st2" d="M37.5,40.2c-1.3-1.6-1.1-4,0.5-5.3c1.6-1.3,4-1.1,5.3,0.5c1.3,1.6,1.1,4-0.5,5.3
							C41.3,42,38.9,41.8,37.5,40.2"/>
						<path id="Fill-31" class="st3" d="M44.6,47c-1-1.2-0.8-2.9,0.3-3.9c1.2-1,2.9-0.8,3.8,0.3c1,1.2,0.8,2.9-0.3,3.9
							C47.3,48.3,45.6,48.2,44.6,47"/>
						<path id="Fill-33" class="st4" d="M50.7,52.5c-0.6-0.7-0.5-1.7,0.2-2.3s1.7-0.5,2.3,0.2c0.6,0.7,0.5,1.7-0.2,2.3
							C52.3,53.3,51.2,53.2,50.7,52.5"/>
						<path id="Fill-35" class="st5" d="M55.3,56.6c-0.3-0.3-0.2-0.7,0.1-1c0.3-0.3,0.7-0.2,1,0.1c0.3,0.3,0.2,0.7-0.1,1
							C56,57,55.6,56.9,55.3,56.6"/>
						<path id="Fill-37" class="st0" d="M9.4,38.2c-2.8-1.6-3.8-5.3-2.2-8.1c1.6-2.8,5.3-3.8,8.1-2.2c2.8,1.6,3.8,5.3,2.2,8.1
							C15.8,38.8,12.2,39.8,9.4,38.2"/>
						<path id="Fill-39" class="st1" d="M21.6,43.9c-2.3-1.3-3-4.2-1.7-6.5c1.3-2.3,4.2-3,6.5-1.7c2.3,1.3,3,4.2,1.7,6.5
							C26.8,44.4,23.9,45.2,21.6,43.9"/>
						<path id="Fill-41" class="st2" d="M32,48.8c-1.8-1-2.4-3.4-1.4-5.2c1-1.8,3.4-2.4,5.2-1.4c1.8,1,2.4,3.4,1.4,5.2
							C36.2,49.2,33.9,49.8,32,48.8"/>
						<path id="Fill-43" class="st3" d="M41.1,52.8c-1.3-0.8-1.8-2.4-1-3.7c0.8-1.3,2.4-1.8,3.7-1c1.3,0.8,1.8,2.4,1,3.7
							C44,53.1,42.4,53.5,41.1,52.8"/>
						<path id="Fill-45" class="st4" d="M48.6,55.9c-0.8-0.4-1-1.4-0.6-2.2c0.4-0.8,1.4-1,2.2-0.6c0.8,0.4,1,1.4,0.6,2.2
							C50.4,56,49.4,56.3,48.6,55.9"/>
						<path id="Fill-47" class="st5" d="M54.4,58.1c-0.3-0.2-0.5-0.6-0.3-1c0.2-0.3,0.6-0.5,1-0.3c0.3,0.2,0.5,0.6,0.3,1
							C55.1,58.2,54.7,58.3,54.4,58.1"/>
						<g id="Group-51" transform="translate(0.000000, 44.091288)">
							<g id="Clip-50">
							</g>
							<defs>
								<filter id="Adobe_OpacityMaskFilter" filterUnits="userSpaceOnUse" x="0" y="0.7" width="11.8" height="11.9">
									<feColorMatrix  type="matrix" values="1 0 0 0 0  0 1 0 0 0  0 0 1 0 0  0 0 0 1 0"/>
								</filter>
							</defs>
							<mask maskUnits="userSpaceOnUse" x="0" y="0.7" width="11.8" height="11.9" id="mask-2">
								<g class="st6">
									<polygon id="path-1" class="st7" points="0,0.7 11.8,0.7 11.8,12.5 0,12.5 									"/>
								</g>
							</mask>
							<path id="Fill-49" class="st8" d="M4.9,12.4c-3.2-0.6-5.4-3.6-4.8-6.9s3.6-5.4,6.9-4.8c3.2,0.6,5.4,3.6,4.8,6.9
								C11.2,10.9,8.1,13,4.9,12.4"/>
						</g>
						<path id="Fill-52" class="st1" d="M18.3,57.7c-2.6-0.5-4.3-2.9-3.8-5.5s2.9-4.3,5.5-3.8c2.6,0.5,4.3,2.9,3.8,5.5
							C23.4,56.4,20.9,58.2,18.3,57.7"/>
						<path id="Fill-54" class="st2" d="M29.8,58.8c-2.1-0.4-3.4-2.3-3.1-4.4c0.4-2.1,2.3-3.4,4.4-3.1c2.1,0.4,3.4,2.3,3.1,4.4
							C33.8,57.8,31.9,59.1,29.8,58.8"/>
						<path id="Fill-56" class="st3" d="M39.6,59.4c-1.5-0.3-2.5-1.7-2.2-3.2c0.3-1.5,1.7-2.5,3.2-2.2c1.5,0.3,2.5,1.7,2.2,3.2
							S41.1,59.7,39.6,59.4"/>
						<path id="Fill-58" class="st4" d="M47.8,59.7c-0.9-0.2-1.5-1-1.3-1.9c0.2-0.9,1-1.5,1.9-1.3c0.9,0.2,1.5,1,1.3,1.9
							C49.5,59.3,48.7,59.9,47.8,59.7"/>
						<path id="Fill-60" class="st5" d="M54,59.9c-0.4-0.1-0.6-0.4-0.6-0.8c0.1-0.4,0.4-0.6,0.8-0.6c0.4,0.1,0.6,0.4,0.6,0.8
							C54.7,59.7,54.4,60,54,59.9"/>
						<path id="Fill-62" class="st0" d="M6.9,75.3c-3.2,0.6-6.3-1.6-6.9-4.8c-0.6-3.2,1.6-6.3,4.8-6.9c3.2-0.6,6.3,1.6,6.9,4.8
							C12.3,71.7,10.2,74.8,6.9,75.3"/>
						<path id="Fill-64" class="st1" d="M20,71.8c-2.6,0.5-5-1.3-5.5-3.8c-0.5-2.6,1.3-5,3.8-5.5c2.6-0.5,5,1.3,5.5,3.8
							C24.3,68.9,22.5,71.4,20,71.8"/>
						<path id="Fill-66" class="st2" d="M31.1,68.9c-2.1,0.4-4-1-4.4-3.1c-0.4-2.1,1-4,3.1-4.4c2.1-0.4,4,1,4.4,3.1
							C34.6,66.6,33.2,68.5,31.1,68.9"/>
						<path id="Fill-68" class="st3" d="M40.6,66.2c-1.5,0.3-2.9-0.7-3.2-2.2c-0.3-1.5,0.7-2.9,2.2-3.2c1.5-0.3,2.9,0.7,3.2,2.2
							S42.1,65.9,40.6,66.2"/>
						<path id="Fill-70" class="st4" d="M48.3,63.7c-0.9,0.2-1.7-0.4-1.9-1.3c-0.2-0.9,0.4-1.7,1.3-1.9c0.9-0.2,1.7,0.4,1.9,1.3
							C49.8,62.7,49.2,63.5,48.3,63.7"/>
						<path id="Fill-72" class="st5" d="M54.2,61.7c-0.4,0.1-0.8-0.2-0.8-0.6c-0.1-0.4,0.2-0.8,0.6-0.8c0.4-0.1,0.8,0.2,0.8,0.6
							C54.9,61.3,54.6,61.6,54.2,61.7"/>
						<path id="Fill-74" class="st0" d="M15.3,92.3C12.5,94,8.8,93,7.2,90.2c-1.6-2.8-0.7-6.5,2.2-8.1c2.8-1.6,6.4-0.7,8.1,2.2
							C19.1,87.1,18.1,90.7,15.3,92.3"/>
						<path id="Fill-76" class="st1" d="M26.3,84.6c-2.3,1.3-5.2,0.5-6.5-1.7c-1.3-2.3-0.5-5.2,1.7-6.5c2.3-1.3,5.2-0.5,6.5,1.7
							C29.4,80.4,28.6,83.3,26.3,84.6"/>
						<path id="Fill-78" class="st2" d="M35.8,78c-1.8,1-4.1,0.4-5.2-1.4c-1-1.8-0.4-4.1,1.4-5.2c1.8-1,4.1-0.4,5.2,1.4
							C38.3,74.6,37.6,76.9,35.8,78"/>
						<path id="Fill-80" class="st3" d="M43.8,72.2c-1.3,0.8-3,0.3-3.7-1c-0.8-1.3-0.3-3,1-3.7c1.3-0.8,3-0.3,3.7,1
							S45.1,71.4,43.8,72.2"/>
						<path id="Fill-82" class="st4" d="M50.2,67.2c-0.8,0.4-1.8,0.2-2.2-0.6c-0.4-0.8-0.2-1.8,0.6-2.2c0.8-0.4,1.8-0.2,2.2,0.6
							C51.2,65.7,51,66.7,50.2,67.2"/>
						<path id="Fill-84" class="st5" d="M55.1,63.3c-0.3,0.2-0.8,0.1-1-0.3c-0.2-0.3-0.1-0.8,0.3-1c0.3-0.2,0.8-0.1,1,0.3
							S55.4,63.1,55.1,63.3"/>
						<path id="Fill-86" class="st0" d="M28.9,105.4c-2.1,2.5-5.8,2.8-8.3,0.7s-2.8-5.8-0.7-8.4c2.1-2.5,5.8-2.8,8.3-0.7
							C30.7,99.2,31.1,102.9,28.9,105.4"/>
						<path id="Fill-88" class="st1" d="M36.7,94.3c-1.7,2-4.7,2.3-6.7,0.6c-2-1.7-2.3-4.7-0.6-6.7c1.7-2,4.7-2.3,6.7-0.6
							C38.1,89.3,38.4,92.3,36.7,94.3"/>
						<path id="Fill-90" class="st2" d="M43.3,84.9c-1.3,1.6-3.7,1.8-5.3,0.5c-1.6-1.3-1.8-3.7-0.5-5.3c1.3-1.6,3.7-1.8,5.3-0.5
							C44.5,80.9,44.7,83.3,43.3,84.9"/>
						<path id="Fill-92" class="st3" d="M48.8,76.7c-1,1.2-2.7,1.3-3.8,0.3c-1.2-1-1.3-2.7-0.3-3.9c1-1.2,2.7-1.3,3.8-0.3
							C49.7,73.8,49.8,75.5,48.8,76.7"/>
						<path id="Fill-94" class="st4" d="M53.2,69.8c-0.6,0.7-1.6,0.8-2.3,0.2c-0.7-0.6-0.8-1.6-0.2-2.3c0.6-0.7,1.6-0.8,2.3-0.2
							C53.7,68.1,53.7,69.1,53.2,69.8"/>
						<path id="Fill-96" class="st5" d="M56.4,64.5c-0.3,0.3-0.7,0.3-1,0.1c-0.3-0.3-0.3-0.7-0.1-1c0.3-0.3,0.7-0.3,1-0.1
							C56.6,63.7,56.7,64.2,56.4,64.5"/>
						<path id="Fill-98" class="st0" d="M46.2,113c-1.1,3.1-4.5,4.7-7.6,3.5c-3.1-1.1-4.7-4.5-3.5-7.6c1.1-3.1,4.5-4.7,7.6-3.5
							C45.8,106.5,47.4,110,46.2,113"/>
						<path id="Fill-100" class="st1" d="M49.7,100c-0.9,2.5-3.6,3.7-6.1,2.8c-2.5-0.9-3.7-3.6-2.8-6.1c0.9-2.5,3.6-3.7,6.1-2.8
							C49.4,94.8,50.6,97.5,49.7,100"/>
						<path id="Fill-102" class="st2" d="M52.8,88.8c-0.7,2-2.9,3-4.9,2.3c-2-0.7-3-2.9-2.3-4.9c0.7-2,2.9-3,4.9-2.3
							C52.5,84.7,53.5,86.9,52.8,88.8"/>
						<path id="Fill-104" class="st3" d="M55.1,79.2c-0.5,1.4-2.1,2.2-3.5,1.6c-1.4-0.5-2.1-2.1-1.6-3.5c0.5-1.4,2.1-2.2,3.5-1.6
							C54.9,76.3,55.6,77.8,55.1,79.2"/>
						<path id="Fill-106" class="st4" d="M56.8,71.3c-0.3,0.8-1.2,1.3-2.1,1c-0.8-0.3-1.3-1.2-1-2.1c0.3-0.8,1.2-1.3,2.1-1
							C56.7,69.5,57.1,70.4,56.8,71.3"/>
						<path id="Fill-108" class="st5" d="M58.1,65.2c-0.1,0.4-0.5,0.6-0.9,0.4c-0.4-0.1-0.6-0.5-0.4-0.9c0.1-0.4,0.5-0.6,0.9-0.4
							C58,64.4,58.2,64.8,58.1,65.2"/>
						<path id="Fill-110" class="st0" d="M65.1,114.3c0,3.3-2.7,5.9-5.9,5.9c-3.3,0-5.9-2.7-5.9-5.9c0-3.3,2.7-5.9,5.9-5.9
							C62.4,108.3,65.1,111,65.1,114.3"/>
						<path id="Fill-112" class="st1" d="M63.9,100.8c0,2.6-2.1,4.7-4.7,4.7c-2.6,0-4.7-2.1-4.7-4.7c0-2.6,2.1-4.7,4.7-4.7
							C61.8,96.1,63.9,98.2,63.9,100.8"/>
						<path id="Fill-114" class="st2" d="M63,89.3c0,2.1-1.7,3.8-3.8,3.8c-2.1,0-3.8-1.7-3.8-3.8c0-2.1,1.7-3.8,3.8-3.8
							C61.3,85.5,63,87.2,63,89.3"/>
						<path id="Fill-116" class="st3" d="M61.9,79.5c0,1.5-1.2,2.7-2.7,2.7c-1.5,0-2.7-1.2-2.7-2.7s1.2-2.7,2.7-2.7
							C60.7,76.7,61.9,78,61.9,79.5"/>
						<path id="Fill-118" class="st4" d="M60.8,71.4c0,0.9-0.7,1.6-1.6,1.6c-0.9,0-1.6-0.7-1.6-1.6c0-0.9,0.7-1.6,1.6-1.6
							C60.1,69.8,60.8,70.5,60.8,71.4"/>
						<path id="Fill-120" class="st5" d="M59.9,65.2c0,0.4-0.3,0.7-0.7,0.7s-0.7-0.3-0.7-0.7c0-0.4,0.3-0.7,0.7-0.7
							S59.9,64.8,59.9,65.2"/>
						<path id="Fill-122" class="st0" d="M83.2,109c1.1,3.1-0.5,6.5-3.5,7.6c-3.1,1.1-6.5-0.5-7.6-3.5c-1.1-3.1,0.5-6.5,3.5-7.6
							C78.7,104.3,82.1,105.9,83.2,109"/>
						<path id="Fill-124" class="st1" d="M77.5,96.7c0.9,2.5-0.4,5.2-2.8,6.1c-2.5,0.9-5.2-0.4-6.1-2.8c-0.9-2.5,0.4-5.2,2.8-6.1
							C73.9,93,76.6,94.3,77.5,96.7"/>
						<path id="Fill-126" class="st2" d="M72.7,86.2c0.7,2-0.3,4.1-2.3,4.9c-2,0.7-4.1-0.3-4.9-2.3c-0.7-2,0.3-4.1,2.3-4.9
							C69.8,83.2,72,84.3,72.7,86.2"/>
						<path id="Fill-128" class="st3" d="M68.3,77.4c0.5,1.4-0.2,3-1.6,3.5c-1.4,0.5-3-0.2-3.5-1.6c-0.5-1.4,0.2-3,1.6-3.5
							C66.3,75.2,67.8,75.9,68.3,77.4"/>
						<path id="Fill-130" class="st4" d="M64.5,70.2c0.3,0.8-0.1,1.8-1,2.1c-0.8,0.3-1.8-0.1-2.1-1c-0.3-0.8,0.1-1.8,1-2.1
							C63.3,68.9,64.2,69.3,64.5,70.2"/>
						<path id="Fill-132" class="st5" d="M61.6,64.7c0.1,0.4-0.1,0.8-0.4,0.9c-0.4,0.1-0.8-0.1-0.9-0.4c-0.1-0.4,0.1-0.8,0.4-0.9
							C61,64.1,61.4,64.3,61.6,64.7"/>
						<path id="Fill-134" class="st0" d="M98.5,97.8c2.1,2.5,1.8,6.2-0.7,8.4c-2.5,2.1-6.2,1.8-8.3-0.7c-2.1-2.5-1.8-6.2,0.7-8.4
							C92.6,94.9,96.3,95.3,98.5,97.8"/>
						<path id="Fill-136" class="st1" d="M88.9,88.2c1.7,2,1.4,5-0.6,6.7c-2,1.7-5,1.4-6.7-0.6c-1.7-2-1.4-5,0.6-6.7
							C84.2,86,87.2,86.2,88.9,88.2"/>
						<path id="Fill-138" class="st2" d="M80.8,80c1.3,1.6,1.1,4-0.5,5.3c-1.6,1.3-4,1.1-5.3-0.5c-1.3-1.6-1.1-4,0.5-5.3
							C77.1,78.2,79.4,78.4,80.8,80"/>
						<path id="Fill-140" class="st3" d="M73.7,73.2c1,1.2,0.8,2.9-0.3,3.9c-1.2,1-2.9,0.8-3.8-0.3c-1-1.2-0.8-2.9,0.3-3.9
							C71,71.9,72.7,72,73.7,73.2"/>
						<path id="Fill-142" class="st4" d="M67.6,67.7c0.6,0.7,0.5,1.7-0.2,2.3c-0.7,0.6-1.7,0.5-2.3-0.2s-0.5-1.7,0.2-2.3
							C66.1,66.9,67.1,67,67.6,67.7"/>
						<path id="Fill-144" class="st5" d="M63,63.6c0.3,0.3,0.2,0.7-0.1,1c-0.3,0.3-0.7,0.2-1-0.1c-0.3-0.3-0.2-0.7,0.1-1
							C62.3,63.2,62.7,63.3,63,63.6"/>
						<path id="Fill-146" class="st0" d="M108.9,82c2.8,1.6,3.8,5.3,2.2,8.1c-1.6,2.8-5.3,3.8-8.1,2.2c-2.8-1.6-3.8-5.3-2.2-8.1
							C102.5,81.4,106.1,80.4,108.9,82"/>
						<path id="Fill-148" class="st1" d="M96.7,76.3c2.3,1.3,3,4.2,1.7,6.5c-1.3,2.3-4.2,3-6.5,1.7c-2.3-1.3-3-4.2-1.7-6.5
							C91.5,75.8,94.4,75,96.7,76.3"/>
						<path id="Fill-150" class="st2" d="M86.3,71.4c1.8,1,2.4,3.4,1.4,5.2c-1,1.8-3.4,2.4-5.2,1.4c-1.8-1-2.4-3.4-1.4-5.2
							C82.1,71,84.5,70.3,86.3,71.4"/>
						<path id="Fill-152" class="st3" d="M77.3,67.4c1.3,0.8,1.8,2.4,1,3.7c-0.8,1.3-2.4,1.8-3.7,1c-1.3-0.8-1.8-2.4-1-3.7
							C74.3,67.1,76,66.7,77.3,67.4"/>
						<path id="Fill-154" class="st4" d="M69.7,64.3c0.8,0.4,1,1.4,0.6,2.2c-0.4,0.8-1.4,1-2.2,0.6c-0.8-0.4-1-1.4-0.6-2.2
							C68,64.2,68.9,63.9,69.7,64.3"/>
						<path id="Fill-156" class="st5" d="M63.9,62c0.3,0.2,0.5,0.6,0.3,1c-0.2,0.3-0.6,0.5-1,0.3c-0.3-0.2-0.5-0.6-0.3-1
							C63.2,62,63.6,61.8,63.9,62"/>
						<g id="Group-160" transform="translate(106.184615, 63.346727)">
							<g id="Clip-159">
							</g>
							<defs>
								<filter id="Adobe_OpacityMaskFilter_1_" filterUnits="userSpaceOnUse" x="0.3" y="0.2" width="11.8" height="11.9">
									<feColorMatrix  type="matrix" values="1 0 0 0 0  0 1 0 0 0  0 0 1 0 0  0 0 0 1 0"/>
								</filter>
							</defs>
							<mask maskUnits="userSpaceOnUse" x="0.3" y="0.2" width="11.8" height="11.9" id="mask-4">
								<g class="st9">
									<polygon id="path-3" class="st7" points="0.3,0.2 12.1,0.2 12.1,12.1 0.3,12.1 									"/>
								</g>
							</mask>
							<path id="Fill-158" class="st10" d="M7.2,0.3C10.5,0.9,12.6,4,12,7.2c-0.6,3.2-3.6,5.4-6.9,4.8C2,11.4-0.2,8.3,0.4,5.1
								C1,1.9,4-0.3,7.2,0.3"/>
						</g>
						<path id="Fill-161" class="st1" d="M100,62.5c2.6,0.5,4.3,2.9,3.8,5.5c-0.5,2.6-2.9,4.3-5.5,3.8c-2.6-0.5-4.3-2.9-3.8-5.5
							C95,63.8,97.4,62,100,62.5"/>
						<path id="Fill-163" class="st2" d="M88.5,61.4c2.1,0.4,3.4,2.3,3.1,4.4c-0.4,2.1-2.3,3.4-4.4,3.1c-2.1-0.4-3.4-2.3-3.1-4.4
							C84.5,62.4,86.4,61.1,88.5,61.4"/>
						<path id="Fill-165" class="st3" d="M78.7,60.8c1.5,0.3,2.5,1.7,2.2,3.2s-1.7,2.5-3.2,2.2c-1.5-0.3-2.5-1.7-2.2-3.2
							C75.8,61.5,77.2,60.5,78.7,60.8"/>
						<path id="Fill-167" class="st4" d="M70.5,60.5c0.9,0.2,1.5,1,1.3,1.9c-0.2,0.9-1,1.5-1.9,1.3c-0.9-0.2-1.5-1-1.3-1.9
							C68.8,60.9,69.7,60.3,70.5,60.5"/>
						<path id="Fill-169" class="st5" d="M64.3,60.3c0.4,0.1,0.6,0.4,0.6,0.8c-0.1,0.4-0.4,0.6-0.8,0.6c-0.4-0.1-0.6-0.4-0.6-0.8
							C63.6,60.5,63.9,60.2,64.3,60.3"/>
						<path id="Fill-171" class="st0" d="M111.4,44.8c3.2-0.6,6.3,1.6,6.9,4.8c0.6,3.2-1.6,6.3-4.8,6.9c-3.2,0.6-6.3-1.6-6.9-4.8
							C106,48.5,108.2,45.4,111.4,44.8"/>
						<path id="Fill-173" class="st1" d="M98.3,48.3c2.6-0.5,5,1.3,5.5,3.8c0.5,2.6-1.3,5-3.8,5.5c-2.6,0.5-5-1.3-5.5-3.8
							C94.1,51.3,95.8,48.8,98.3,48.3"/>
						<path id="Fill-175" class="st2" d="M87.2,51.3c2.1-0.4,4,1,4.4,3.1c0.4,2.1-1,4-3.1,4.4c-2.1,0.4-4-1-4.4-3.1
							C83.7,53.6,85.1,51.6,87.2,51.3"/>
						<path id="Fill-177" class="st3" d="M77.7,54c1.5-0.3,2.9,0.7,3.2,2.2c0.3,1.5-0.7,2.9-2.2,3.2c-1.5,0.3-2.9-0.7-3.2-2.2
							C75.2,55.7,76.2,54.3,77.7,54"/>
						<path id="Fill-179" class="st4" d="M70,56.5c0.9-0.2,1.7,0.4,1.9,1.3c0.2,0.9-0.4,1.7-1.3,1.9c-0.9,0.2-1.7-0.4-1.9-1.3
							C68.5,57.5,69.1,56.7,70,56.5"/>
						<path id="Fill-181" class="st5" d="M64.1,58.5c0.4-0.1,0.8,0.2,0.8,0.6c0.1,0.4-0.2,0.8-0.6,0.8c-0.4,0.1-0.8-0.2-0.8-0.6
							C63.4,58.9,63.7,58.6,64.1,58.5"/>
						<path id="Fill-183" class="st0" d="M103,27.9c2.8-1.6,6.5-0.7,8.1,2.2c1.6,2.8,0.7,6.5-2.2,8.1c-2.8,1.6-6.5,0.7-8.1-2.2
							C99.2,33.1,100.2,29.5,103,27.9"/>
						<path id="Fill-185" class="st1" d="M92,35.6c2.3-1.3,5.2-0.5,6.5,1.7c1.3,2.3,0.5,5.2-1.7,6.5c-2.3,1.3-5.2,0.5-6.5-1.7
							C88.9,39.8,89.7,36.9,92,35.6"/>
						<path id="Fill-187" class="st2" d="M82.5,42.2c1.8-1,4.1-0.4,5.2,1.4c1,1.8,0.4,4.1-1.4,5.2c-1.8,1-4.1,0.4-5.2-1.4
							C80.1,45.6,80.7,43.2,82.5,42.2"/>
						<path id="Fill-189" class="st3" d="M74.5,48c1.3-0.8,3-0.3,3.7,1c0.8,1.3,0.3,3-1,3.7c-1.3,0.8-3,0.3-3.7-1
							C72.8,50.4,73.2,48.8,74.5,48"/>
						<path id="Fill-191" class="st4" d="M68.1,53c0.8-0.4,1.8-0.2,2.2,0.6c0.4,0.8,0.2,1.8-0.6,2.2C69,56.3,68,56,67.5,55.2
							C67.1,54.5,67.3,53.5,68.1,53"/>
						<path id="Fill-193" class="st5" d="M63.2,56.9c0.3-0.2,0.8-0.1,1,0.3c0.2,0.3,0.1,0.8-0.3,1c-0.3,0.2-0.8,0.1-1-0.3
							C62.8,57.5,62.9,57.1,63.2,56.9"/>
						<path id="Fill-195" class="st0" d="M89.4,14.8c2.1-2.5,5.8-2.8,8.3-0.7c2.5,2.1,2.8,5.8,0.7,8.4c-2.1,2.5-5.8,2.8-8.3,0.7
							C87.6,21,87.3,17.3,89.4,14.8"/>
						<path id="Fill-197" class="st1" d="M81.6,25.9c1.7-2,4.7-2.3,6.7-0.6c2,1.7,2.3,4.7,0.6,6.7c-1.7,2-4.7,2.3-6.7,0.6
							C80.2,30.9,80,27.9,81.6,25.9"/>
						<path id="Fill-199" class="st2" d="M75,35.3c1.3-1.6,3.7-1.8,5.3-0.5c1.6,1.3,1.8,3.7,0.5,5.3c-1.3,1.6-3.7,1.8-5.3,0.5
							C73.8,39.3,73.6,36.9,75,35.3"/>
						<path id="Fill-201" class="st3" d="M69.5,43.5c1-1.2,2.7-1.3,3.8-0.3c1.2,1,1.3,2.7,0.3,3.9c-1,1.2-2.7,1.3-3.8,0.3
							C68.7,46.4,68.5,44.6,69.5,43.5"/>
						<path id="Fill-203" class="st4" d="M65.2,50.4c0.6-0.7,1.6-0.8,2.3-0.2c0.7,0.6,0.8,1.6,0.2,2.3c-0.6,0.7-1.6,0.8-2.3,0.2
							S64.6,51.1,65.2,50.4"/>
						<path id="Fill-205" class="st5" d="M61.9,55.7c0.3-0.3,0.7-0.3,1-0.1c0.3,0.3,0.3,0.7,0.1,1c-0.3,0.3-0.7,0.3-1,0.1
							C61.7,56.4,61.6,56,61.9,55.7"/>
						<path id="Fill-207" class="st0" d="M72.1,7.2c1.1-3.1,4.5-4.7,7.6-3.5s4.7,4.5,3.5,7.6c-1.1,3.1-4.5,4.7-7.6,3.5
							C72.5,13.6,71,10.2,72.1,7.2"/>
						<path id="Fill-209" class="st1" d="M68.6,20.2c0.9-2.5,3.6-3.7,6.1-2.8c2.5,0.9,3.7,3.6,2.8,6.1c-0.9,2.5-3.6,3.7-6.1,2.8
							C69,25.4,67.7,22.7,68.6,20.2"/>
						<path id="Fill-211" class="st2" d="M65.5,31.4c0.7-2,2.9-3,4.9-2.3c2,0.7,3,2.9,2.3,4.9c-0.7,2-2.9,3-4.9,2.3
							C65.8,35.5,64.8,33.3,65.5,31.4"/>
						<path id="Fill-213" class="st3" d="M63.2,40.9c0.5-1.4,2.1-2.2,3.5-1.6c1.4,0.5,2.1,2.1,1.6,3.5c-0.5,1.4-2.1,2.2-3.5,1.6
							C63.4,43.9,62.7,42.4,63.2,40.9"/>
						<path id="Fill-215" class="st4" d="M61.5,48.9c0.3-0.8,1.2-1.3,2.1-1c0.8,0.3,1.3,1.2,1,2.1c-0.3,0.8-1.2,1.3-2.1,1
							C61.6,50.7,61.2,49.8,61.5,48.9"/>
						<path id="Fill-217" class="st5" d="M60.2,55c0.1-0.4,0.5-0.6,0.9-0.4c0.4,0.1,0.6,0.5,0.4,0.9c-0.1,0.4-0.5,0.6-0.9,0.4
							C60.3,55.8,60.1,55.4,60.2,55"/>
					</g>
				</g>
			</g>
		</g>
	</g>
</g>
</svg>
