<svg id="Layer_1" data-name="Layer 1" xmlns="http://www.w3.org/2000/svg" viewBox="0 0 50 50"><defs><style>.cls-1{fill:#f15e22;}.cls-2{fill:#f99d1c;}.cls-3{fill:#fed401;}.cls-4{fill:#b4d334;}.cls-5{fill:#63c29d;}.cls-6{fill:#5bc7d4;}</style></defs><title>icon-1</title><circle class="cls-1" cx="25.24" cy="3.66" r="2.34"/><circle class="cls-2" cx="25.24" cy="8.97" r="1.87"/><circle class="cls-3" cx="25.24" cy="13.52" r="1.5"/><circle class="cls-4" cx="25.24" cy="17.39" r="1.08"/><circle class="cls-5" cx="25.24" cy="20.58" r="0.64"/><circle class="cls-6" cx="25.24" cy="23.01" r="0.28"/><circle class="cls-1" cx="17.93" cy="4.95" r="2.34" transform="translate(-0.61 6.43) rotate(-20)"/><circle class="cls-2" cx="19.75" cy="9.94" r="1.87" transform="translate(-2.21 7.35) rotate(-20)"/><circle class="cls-3" cx="21.3" cy="14.21" r="1.5" transform="translate(-3.58 8.14) rotate(-20)"/><circle class="cls-4" cx="22.63" cy="17.85" r="1.08" transform="translate(-4.74 8.81) rotate(-20)"/><circle class="cls-5" cx="23.72" cy="20.85" r="0.64" transform="translate(-5.7 9.37) rotate(-20)"/><circle class="cls-6" cx="24.55" cy="23.13" r="0.28" transform="translate(-6.43 9.79) rotate(-20)"/><circle class="cls-1" cx="11.5" cy="8.66" r="2.34" transform="translate(-2.88 9.42) rotate(-40)"/><circle class="cls-2" cx="14.91" cy="12.73" r="1.87" transform="translate(-4.69 12.56) rotate(-40)"/><circle class="cls-3" cx="17.84" cy="16.21" r="1.5" transform="translate(-6.25 15.26) rotate(-40)"/><circle class="cls-4" cx="20.33" cy="19.18" r="1.08" transform="translate(-7.57 17.55) rotate(-40)"/><circle class="cls-5" cx="22.38" cy="21.62" r="0.64" transform="translate(-8.66 19.44) rotate(-40)"/><circle class="cls-6" cx="23.94" cy="23.48" r="0.28" transform="translate(-9.49 20.88) rotate(-40)"/><circle class="cls-1" cx="6.73" cy="14.35" r="2.34" transform="translate(-9.06 13) rotate(-60)"/><circle class="cls-2" cx="11.33" cy="17" r="1.87" transform="matrix(0.5, -0.87, 0.87, 0.5, -9.06, 18.31)"/><circle class="cls-3" cx="15.27" cy="19.28" r="1.5" transform="translate(-9.06 22.86) rotate(-60)"/><circle class="cls-4" cx="18.62" cy="21.21" r="1.08" transform="matrix(0.5, -0.87, 0.87, 0.5, -9.06, 26.74)"/><circle class="cls-5" cx="21.39" cy="22.81" r="0.64" transform="translate(-9.06 29.93) rotate(-60)"/><circle class="cls-6" cx="23.49" cy="24.02" r="0.28" transform="matrix(0.5, -0.87, 0.87, 0.5, -9.06, 32.36)"/><circle class="cls-1" cx="4.19" cy="21.33" r="2.34" transform="translate(-17.54 21.75) rotate(-80)"/><circle class="cls-2" cx="9.42" cy="22.25" r="1.87" transform="translate(-14.13 27.66) rotate(-80)"/><circle class="cls-3" cx="13.9" cy="23.04" r="1.5" transform="translate(-11.2 32.73) rotate(-80)"/><circle class="cls-4" cx="17.71" cy="23.71" r="1.08" transform="translate(-8.71 37.04) rotate(-80)"/><circle class="cls-5" cx="20.86" cy="24.27" r="0.64" transform="translate(-6.66 40.59) rotate(-80)"/><circle class="cls-6" cx="23.25" cy="24.69" r="0.28" transform="translate(-5.1 43.3) rotate(-80)"/><circle class="cls-1" cx="4.19" cy="28.75" r="2.34" transform="translate(-4.93 1.16) rotate(-10)"/><circle class="cls-2" cx="9.42" cy="27.83" r="1.87" transform="translate(-4.69 2.06) rotate(-10)"/><circle class="cls-3" cx="13.9" cy="27.04" r="1.5" transform="translate(-4.48 2.82) rotate(-10)"/><circle class="cls-4" cx="17.71" cy="26.37" r="1.08" transform="translate(-4.31 3.48) rotate(-10)"/><circle class="cls-5" cx="20.86" cy="25.81" r="0.64" transform="translate(-4.17 4.01) rotate(-10)"/><circle class="cls-6" cx="23.25" cy="25.39" r="0.28" transform="matrix(0.98, -0.17, 0.17, 0.98, -4.06, 4.42)"/><circle class="cls-1" cx="6.73" cy="35.73" r="2.34" transform="translate(-16.97 8.15) rotate(-30)"/><circle class="cls-2" cx="11.33" cy="33.08" r="1.87" transform="translate(-15.02 10.1) rotate(-30)"/><circle class="cls-3" cx="15.27" cy="30.8" r="1.5" transform="translate(-13.36 11.76) rotate(-30)"/><circle class="cls-4" cx="18.62" cy="28.87" r="1.08" transform="translate(-11.94 13.18) rotate(-30)"/><circle class="cls-5" cx="21.38" cy="27.27" r="0.64" transform="translate(-10.77 14.35) rotate(-30)"/><circle class="cls-6" cx="23.49" cy="26.06" r="0.28" transform="translate(-9.88 15.23) rotate(-30)"/><circle class="cls-1" cx="11.5" cy="41.42" r="2.34" transform="translate(-27.62 23.61) rotate(-50)"/><circle class="cls-2" cx="14.92" cy="37.35" r="1.87" transform="translate(-23.28 24.77) rotate(-50)"/><circle class="cls-3" cx="17.84" cy="33.86" r="1.5" transform="translate(-19.57 25.76) rotate(-50)"/><circle class="cls-4" cx="20.33" cy="30.9" r="1.08" transform="translate(-16.41 26.61) rotate(-50)"/><circle class="cls-5" cx="22.38" cy="28.45" r="0.64" transform="translate(-13.8 27.31) rotate(-50)"/><circle class="cls-6" cx="23.94" cy="26.59" r="0.28" transform="translate(-11.82 27.84) rotate(-50)"/><circle class="cls-1" cx="17.94" cy="45.13" r="2.34" transform="translate(-30.61 46.55) rotate(-70)"/><circle class="cls-2" cx="19.75" cy="40.14" r="1.87" transform="translate(-24.72 44.97) rotate(-70)"/><circle class="cls-3" cx="21.31" cy="35.86" r="1.5" transform="translate(-19.68 43.62) rotate(-70)"/><circle class="cls-4" cx="22.63" cy="32.23" r="1.08" transform="translate(-15.39 42.47) rotate(-70)"/><circle class="cls-5" cx="23.72" cy="29.23" r="0.64" transform="translate(-11.86 41.52) rotate(-70)"/><circle class="cls-6" cx="24.55" cy="26.94" r="0.28" transform="translate(-9.16 40.8) rotate(-70)"/><circle class="cls-1" cx="25.25" cy="46.42" r="2.34"/><circle class="cls-2" cx="25.25" cy="41.11" r="1.87"/><circle class="cls-3" cx="25.25" cy="36.56" r="1.5"/><circle class="cls-4" cx="25.25" cy="32.69" r="1.08"/><circle class="cls-5" cx="25.25" cy="29.5" r="0.64"/><circle class="cls-6" cx="25.25" cy="27.07" r="0.28"/><circle class="cls-1" cx="32.55" cy="45.13" r="2.34" transform="translate(-13.47 13.86) rotate(-20)"/><circle class="cls-2" cx="30.74" cy="40.14" r="1.87" transform="translate(-11.87 12.93) rotate(-20)"/><circle class="cls-3" cx="29.18" cy="35.86" r="1.5" transform="translate(-10.51 12.14) rotate(-20)"/><circle class="cls-4" cx="27.86" cy="32.22" r="1.08" transform="translate(-9.34 11.47) rotate(-20)"/><circle class="cls-5" cx="26.77" cy="29.23" r="0.64" transform="translate(-8.38 10.92) rotate(-20)"/><circle class="cls-6" cx="25.93" cy="26.94" r="0.28" transform="translate(-7.65 10.5) rotate(-20)"/><circle class="cls-1" cx="38.98" cy="41.41" r="2.34" transform="translate(-17.5 34.75) rotate(-40)"/><circle class="cls-2" cx="35.57" cy="37.35" r="1.87" transform="translate(-15.68 31.6) rotate(-40)"/><circle class="cls-3" cx="32.65" cy="33.86" r="1.5" transform="translate(-14.13 28.91) rotate(-40)"/><circle class="cls-4" cx="30.16" cy="30.9" r="1.08" transform="translate(-12.8 26.61) rotate(-40)"/><circle class="cls-5" cx="28.11" cy="28.45" r="0.64" transform="translate(-11.71 24.72) rotate(-40)"/><circle class="cls-6" cx="26.55" cy="26.59" r="0.28" transform="translate(-10.88 23.28) rotate(-40)"/><circle class="cls-1" cx="43.75" cy="35.72" r="2.34" transform="translate(-9.06 55.75) rotate(-60)"/><circle class="cls-2" cx="39.15" cy="33.07" r="1.87" transform="translate(-9.06 50.44) rotate(-60)"/><circle class="cls-3" cx="35.21" cy="30.79" r="1.5" transform="translate(-9.06 45.89) rotate(-60)"/><circle class="cls-4" cx="31.86" cy="28.86" r="1.08" transform="translate(-9.06 42.02) rotate(-60)"/><circle class="cls-5" cx="29.1" cy="27.26" r="0.64" transform="translate(-9.06 38.83) rotate(-60)"/><circle class="cls-6" cx="26.99" cy="26.05" r="0.28" transform="translate(-9.06 36.4) rotate(-60)"/><circle class="cls-1" cx="46.29" cy="28.75" r="2.34" transform="translate(9.94 69.34) rotate(-80)"/><circle class="cls-2" cx="41.06" cy="27.82" r="1.87" transform="translate(6.53 63.43) rotate(-80)"/><circle class="cls-3" cx="36.58" cy="27.03" r="1.5" transform="translate(3.61 58.36) rotate(-80)"/><circle class="cls-4" cx="32.77" cy="26.36" r="1.08" transform="translate(1.12 54.05) rotate(-80)"/><circle class="cls-5" cx="29.63" cy="25.81" r="0.64" transform="translate(-0.93 50.5) rotate(-80)"/><circle class="cls-6" cx="27.23" cy="25.39" r="0.28" transform="translate(-2.5 47.8) rotate(-80)"/><circle class="cls-1" cx="46.29" cy="21.32" r="2.34" transform="translate(-3 8.36) rotate(-10)"/><circle class="cls-2" cx="41.06" cy="22.24" r="1.87" transform="translate(-3.24 7.47) rotate(-10)"/><circle class="cls-3" cx="36.58" cy="23.03" r="1.5" transform="matrix(0.98, -0.17, 0.17, 0.98, -3.44, 6.7)"/><circle class="cls-4" cx="32.77" cy="23.7" r="1.08" transform="translate(-3.62 6.05) rotate(-10)"/><circle class="cls-5" cx="29.63" cy="24.26" r="0.64" transform="translate(-3.76 5.51) rotate(-10)"/><circle class="cls-6" cx="27.23" cy="24.68" r="0.28" transform="translate(-3.87 5.1) rotate(-10)"/><circle class="cls-1" cx="43.75" cy="14.34" r="2.34" transform="matrix(0.87, -0.5, 0.5, 0.87, -1.31, 23.8)"/><circle class="cls-2" cx="39.16" cy="16.99" r="1.87" transform="matrix(0.87, -0.5, 0.5, 0.87, -3.25, 21.85)"/><circle class="cls-3" cx="35.21" cy="19.27" r="1.5" transform="translate(-4.92 20.19) rotate(-30)"/><circle class="cls-4" cx="31.86" cy="21.21" r="1.08" transform="matrix(0.87, -0.5, 0.5, 0.87, -6.33, 18.77)"/><circle class="cls-5" cx="29.1" cy="22.8" r="0.64" transform="translate(-7.5 17.6) rotate(-30)"/><circle class="cls-6" cx="27" cy="24.02" r="0.28" transform="translate(-8.39 16.72) rotate(-30)"/><circle class="cls-1" cx="38.98" cy="8.66" r="2.34" transform="translate(7.29 32.95) rotate(-50)"/><circle class="cls-2" cx="35.56" cy="12.72" r="1.87" transform="translate(2.96 31.79) rotate(-50)"/><circle class="cls-3" cx="32.64" cy="16.21" r="1.5" transform="translate(-0.76 30.79) rotate(-50)"/><circle class="cls-4" cx="30.15" cy="19.18" r="1.08" transform="translate(-3.92 29.95) rotate(-50)"/><circle class="cls-5" cx="28.1" cy="21.62" r="0.64" transform="translate(-6.52 29.25) rotate(-50)"/><circle class="cls-6" cx="26.54" cy="23.48" r="0.28" transform="translate(-8.51 28.72) rotate(-50)"/><circle class="cls-1" cx="32.55" cy="4.94" r="2.34" transform="translate(16.77 33.84) rotate(-70)"/><circle class="cls-2" cx="30.73" cy="9.93" r="1.87" transform="translate(10.89 35.41) rotate(-70)"/><circle class="cls-3" cx="29.17" cy="14.21" r="1.5" transform="matrix(0.34, -0.94, 0.94, 0.34, 5.84, 36.77)"/><circle class="cls-4" cx="27.85" cy="17.85" r="1.08" transform="translate(1.56 37.91) rotate(-70)"/><circle class="cls-5" cx="26.76" cy="20.84" r="0.64" transform="translate(-1.98 38.86) rotate(-70)"/><circle class="cls-6" cx="25.93" cy="23.13" r="0.28" transform="translate(-4.67 39.58) rotate(-70)"/></svg>