<svg id="Layer_1" data-name="Layer 1" xmlns="http://www.w3.org/2000/svg" viewBox="0 0 194.5 50"><defs><style>.cls-1{fill:#515151;}.cls-2{fill:#ff5b00;}.cls-3{fill:#ff9d00;}.cls-4{fill:#ffd400;}.cls-5{fill:#b3ed00;}.cls-6{fill:#0feaac;}.cls-7{fill:#1ce3e8;}.cls-8{fill:#3f51b5;}</style></defs><title>lp-logo-BETA</title><path class="cls-1" d="M14.37,36H3V12.62a.76.76,0,0,0-.71-.81h-.8a.73.73,0,0,0-.77.81V37.17a.73.73,0,0,0,.64.81h13a.73.73,0,0,0,.77-.81v-.41a.73.73,0,0,0-.66-.8Z"/><path class="cls-1" d="M18.91,19.26h-.66a.75.75,0,0,0-.77.81v17.1a.73.73,0,0,0,.64.81h.79a.76.76,0,0,0,.81-.81V20.11a.74.74,0,0,0-.62-.85Z"/><path class="cls-1" d="M18.54,11.34A1.62,1.62,0,0,0,16.92,13s0,.08,0,.11a1.64,1.64,0,1,0,3.27,0,1.64,1.64,0,0,0-1.55-1.73Z"/><path class="cls-1" d="M33.25,19.26H28.37v-1.7c0-3.19,1.29-5,3.54-5,1.85,0,3.1,1,3.1,2.55a3.1,3.1,0,0,1,0,.49.53.53,0,0,0,.11.44.56.56,0,0,0,.43.17h.92a.54.54,0,0,0,.54-.34,2.42,2.42,0,0,0,.12-.76c0-2.77-2-4.57-5.23-4.57-2.15,0-5.75.94-5.75,7.26v1.46h-2.6a.55.55,0,0,0-.59.59v.74a.55.55,0,0,0,.51.59h2.7v16a.73.73,0,0,0,.64.81h.83a.73.73,0,0,0,.77-.81v-16h4.83a.55.55,0,0,0,.59-.59v-.74a.55.55,0,0,0-.51-.59Z"/><path class="cls-1" d="M43.79,18.89a9.79,9.79,0,0,0-10,9.58q0,.11,0,.22c0,5.62,4.37,9.69,10.39,9.69a10.42,10.42,0,0,0,7.19-2.55.79.79,0,0,0,.22-1.09l-.09-.12-.26-.29a.74.74,0,0,0-1-.14l-.06.05a9,9,0,0,1-5.93,2.13,8.41,8.41,0,0,1-6.34-2.61,7.14,7.14,0,0,1-1.82-5.4H52.19a.79.79,0,0,0,.6-.23.74.74,0,0,0,.17-.59C52.48,21.17,47.91,18.89,43.79,18.89Zm6.86,7.63H36.32a7.59,7.59,0,0,1,7.5-5.61A6.47,6.47,0,0,1,50.65,26.52Z"/><path class="cls-1" d="M65.77,11.82H56.55a.73.73,0,0,0-.77.81V37.17a.73.73,0,0,0,.64.81h.83a.74.74,0,0,0,.81-.81V27.55h7.71c4.45,0,7.55-3.21,7.55-7.81a8.3,8.3,0,0,0-2-5.54A7.21,7.21,0,0,0,65.77,11.82ZM71,19.74c0,3.43-2.24,5.83-5.46,5.83H58.06V13.84h7.45C68.72,13.84,71,16.26,71,19.74Z"/><path class="cls-1" d="M103,11.34a1.62,1.62,0,0,0-1.64,1.6s0,.09,0,.13a1.64,1.64,0,1,0,3.27,0,1.64,1.64,0,0,0-1.55-1.73Z"/><path class="cls-1" d="M103.37,19.26h-.66a.75.75,0,0,0-.77.81v17.1a.73.73,0,0,0,.64.81h.79a.76.76,0,0,0,.81-.81V20.11a.74.74,0,0,0-.62-.85Z"/><path class="cls-1" d="M117.27,18.89a7.31,7.31,0,0,0-6.49,3.9V20.11a.74.74,0,0,0-.66-.81h-.75a.76.76,0,0,0-.81.81V37.17a.74.74,0,0,0,.66.81H110a.74.74,0,0,0,.81-.81V28.44c.11-5.92,4.24-7.49,6.42-7.49s5.61.82,5.61,6.34v9.88a.73.73,0,0,0,.64.81h.79a.76.76,0,0,0,.81-.81V27.26C125,22,122.21,18.89,117.27,18.89Z"/><path class="cls-1" d="M139,32.35h-.85a.53.53,0,0,0-.44.18.55.55,0,0,0-.06.49,2.89,2.89,0,0,1,.07.62A2.7,2.7,0,0,1,135,36.38h-.26c-2.09,0-3.1-1.34-3.1-4.09V21.21h5.46a.53.53,0,0,0,.59-.59v-.74a.53.53,0,0,0-.46-.59h-5.59V14.17a.66.66,0,0,0-.61-.7h-.45a.72.72,0,0,0-.73.68l-.4,5.11h-2.67a.55.55,0,0,0-.59.59v.74a.55.55,0,0,0,.51.59h2.74v11c0,4.13,1.77,6.23,5.27,6.23,3,0,5-1.84,5-4.57a5.22,5.22,0,0,0-.11-1A.63.63,0,0,0,139,32.35Z"/><path class="cls-1" d="M149.24,28l-2.8-.88c-1.87-.58-2.82-1.58-2.82-3a3.43,3.43,0,0,1,3.6-3.26h.09a3.64,3.64,0,0,1,3.16,1.79.79.79,0,0,0,1,.41l.47-.15a.8.8,0,0,0,.55-.4.73.73,0,0,0,0-.63,5.65,5.65,0,0,0-5.17-3,5.92,5.92,0,0,0-4.3,1.65,5.21,5.21,0,0,0-1.52,3.66c0,2.35,1.46,4,4.33,4.85l2.76.88c1.85.62,2.79,1.66,2.79,3.11,0,1.91-1.74,3.36-4.06,3.36A4.92,4.92,0,0,1,143,34.23a.83.83,0,0,0-1-.39l-.55.18a.78.78,0,0,0-.52.4.73.73,0,0,0,0,.62h0a7,7,0,0,0,6.32,3.38c4.11,0,6.26-2.69,6.26-5.34C153.49,31.36,152.75,29.12,149.24,28Z"/><circle class="cls-2" cx="86.94" cy="16.07" r="1.27"/><circle class="cls-3" cx="86.94" cy="18.95" r="1.02"/><circle class="cls-4" cx="86.94" cy="21.42" r="0.81"/><circle class="cls-5" cx="86.94" cy="23.52" r="0.59"/><circle class="cls-6" cx="86.94" cy="25.26" r="0.35"/><circle class="cls-7" cx="86.94" cy="26.58" r="0.15"/><circle class="cls-2" cx="82.97" cy="16.78" r="1.27" transform="translate(-0.73 29.39) rotate(-20)"/><circle class="cls-3" cx="83.96" cy="19.48" r="1.02" transform="translate(-1.6 29.89) rotate(-20)"/><circle class="cls-4" cx="84.8" cy="21.8" r="0.81" transform="translate(-2.34 30.32) rotate(-20)"/><circle class="cls-5" cx="85.52" cy="23.78" r="0.59" transform="translate(-2.97 30.68) rotate(-20)"/><circle class="cls-6" cx="86.11" cy="25.4" r="0.35" transform="translate(-3.49 30.98) rotate(-20)"/><circle class="cls-7" cx="86.56" cy="26.64" r="0.15" transform="translate(-3.89 31.21) rotate(-20)"/><circle class="cls-2" cx="79.47" cy="18.78" r="1.27" transform="translate(6.52 55.47) rotate(-40)"/><circle class="cls-3" cx="81.33" cy="20.99" r="1.02" transform="translate(5.54 57.19) rotate(-40)"/><circle class="cls-4" cx="82.91" cy="22.89" r="0.81" transform="translate(4.69 58.65) rotate(-40)"/><circle class="cls-5" cx="84.27" cy="24.5" r="0.59" transform="translate(3.97 59.9) rotate(-40)"/><circle class="cls-6" cx="85.38" cy="25.82" r="0.35" transform="translate(3.38 60.92) rotate(-40)"/><circle class="cls-7" cx="86.24" cy="26.84" r="0.15" transform="translate(2.92 61.71) rotate(-40)"/><circle class="cls-2" cx="76.97" cy="21.56" r="1.27" transform="translate(19.92 77.55) rotate(-60.11)"/><circle class="cls-3" cx="79.48" cy="23" r="1.02" transform="translate(19.93 80.45) rotate(-60.11)"/><circle class="cls-4" cx="81.62" cy="24.23" r="0.81" transform="translate(19.95 82.92) rotate(-60.11)"/><circle class="cls-5" cx="83.34" cy="25.6" r="0.59" transform="translate(19.5 84.98) rotate(-60)"/><circle class="cls-6" cx="84.85" cy="26.48" r="0.35" transform="translate(19.49 86.72) rotate(-60)"/><circle class="cls-7" cx="85.99" cy="27.14" r="0.15" transform="translate(19.49 88.04) rotate(-60)"/><circle class="cls-2" cx="75.5" cy="25.67" r="1.27" transform="translate(37.11 95.56) rotate(-80)"/><circle class="cls-3" cx="78.35" cy="26.17" r="1.02" transform="translate(38.97 98.79) rotate(-80)"/><circle class="cls-4" cx="80.78" cy="26.59" r="0.81" transform="translate(40.57 101.52) rotate(-80)"/><circle class="cls-5" cx="82.85" cy="26.96" r="0.59" transform="translate(41.92 103.87) rotate(-80)"/><circle class="cls-6" cx="84.55" cy="27.26" r="0.35" transform="translate(43.02 105.8) rotate(-80)"/><circle class="cls-7" cx="85.86" cy="27.49" r="0.15" transform="translate(43.87 107.27) rotate(-80)"/><circle class="cls-2" cx="75.5" cy="29.7" r="1.27" transform="translate(-4.01 13.56) rotate(-10)"/><circle class="cls-3" cx="78.35" cy="29.2" r="1.02" transform="translate(-3.88 14.05) rotate(-10)"/><circle class="cls-4" cx="80.79" cy="28.77" r="0.81" transform="translate(-3.77 14.47) rotate(-10)"/><circle class="cls-5" cx="82.85" cy="28.4" r="0.59" transform="matrix(0.98, -0.17, 0.17, 0.98, -3.67, 14.82)"/><circle class="cls-6" cx="84.55" cy="28.11" r="0.35" transform="translate(-3.6 15.11) rotate(-10)"/><circle class="cls-7" cx="85.85" cy="27.87" r="0.15" transform="translate(-3.54 15.33) rotate(-10)"/><circle class="cls-2" cx="76.88" cy="33.49" r="1.27" transform="translate(-6.45 42.93) rotate(-30)"/><circle class="cls-3" cx="79.39" cy="32.05" r="1.02" transform="translate(-5.39 43.99) rotate(-30)"/><circle class="cls-4" cx="81.52" cy="30.81" r="0.81" transform="translate(-4.48 44.89) rotate(-30)"/><circle class="cls-5" cx="83.34" cy="29.76" r="0.59" transform="translate(-3.72 45.66) rotate(-30)"/><circle class="cls-6" cx="84.84" cy="28.89" r="0.35" transform="translate(-3.08 46.29) rotate(-30)"/><circle class="cls-7" cx="85.98" cy="28.23" r="0.15" transform="translate(-2.59 46.77) rotate(-30)"/><circle class="cls-2" cx="79.48" cy="36.59" r="1.27" transform="translate(0.37 73.96) rotate(-50)"/><circle class="cls-3" cx="81.34" cy="34.37" r="1.02" transform="translate(2.72 74.58) rotate(-50)"/><circle class="cls-4" cx="82.92" cy="32.47" r="0.81" transform="translate(4.75 75.12) rotate(-50)"/><circle class="cls-5" cx="84.27" cy="30.86" r="0.59" transform="translate(6.46 75.58) rotate(-50)"/><circle class="cls-6" cx="85.39" cy="29.54" r="0.35" transform="translate(7.87 75.97) rotate(-50)"/><circle class="cls-7" cx="86.23" cy="28.53" r="0.15" transform="translate(8.95 76.25) rotate(-50)"/><circle class="cls-2" cx="82.97" cy="38.59" r="1.27" transform="translate(18.33 103.36) rotate(-70)"/><circle class="cls-3" cx="83.95" cy="35.88" r="1.02" transform="translate(21.52 102.5) rotate(-70)"/><circle class="cls-4" cx="84.8" cy="33.56" r="0.81" transform="translate(24.26 101.77) rotate(-70)"/><circle class="cls-5" cx="85.35" cy="31.49" r="0.59" transform="translate(26.71 101.04) rotate(-70.11)"/><circle class="cls-6" cx="86.12" cy="29.96" r="0.35" transform="translate(28.51 100.64) rotate(-70)"/><circle class="cls-7" cx="86.57" cy="28.72" r="0.15" transform="matrix(0.34, -0.94, 0.94, 0.34, 29.97, 100.25)"/><circle class="cls-2" cx="86.94" cy="39.29" r="1.27"/><circle class="cls-3" cx="86.94" cy="36.41" r="1.02"/><circle class="cls-4" cx="86.94" cy="33.94" r="0.81"/><circle class="cls-5" cx="86.94" cy="31.83" r="0.59"/><circle class="cls-6" cx="86.94" cy="30.1" r="0.35"/><circle class="cls-7" cx="86.94" cy="28.78" r="0.15"/><circle class="cls-2" cx="90.91" cy="38.59" r="1.27" transform="translate(-7.72 33.42) rotate(-20)"/><circle class="cls-3" cx="89.92" cy="35.88" r="1.02" transform="translate(-6.85 32.92) rotate(-20)"/><circle class="cls-4" cx="89.08" cy="33.56" r="0.81" transform="translate(-6.11 32.49) rotate(-20)"/><circle class="cls-5" cx="88.36" cy="31.58" r="0.59" transform="translate(-5.47 32.12) rotate(-20)"/><circle class="cls-6" cx="87.76" cy="29.95" r="0.35" transform="translate(-4.95 31.82) rotate(-20)"/><circle class="cls-7" cx="87.31" cy="28.71" r="0.15" transform="translate(-4.55 31.59) rotate(-20)"/><circle class="cls-2" cx="94.4" cy="36.57" r="1.27" transform="translate(-1.42 69.24) rotate(-40)"/><circle class="cls-3" cx="92.56" cy="34.37" r="1.02" transform="translate(-0.44 67.54) rotate(-40)"/><circle class="cls-4" cx="90.96" cy="32.47" r="0.81" transform="translate(0.41 66.06) rotate(-40)"/><circle class="cls-5" cx="89.88" cy="31.23" r="0.59" transform="translate(0.8 64.67) rotate(-39.73)"/><circle class="cls-6" cx="88.49" cy="29.54" r="0.35" transform="translate(1.72 63.79) rotate(-40)"/><circle class="cls-7" cx="87.65" cy="28.52" r="0.15" transform="translate(2.17 63.01) rotate(-40)"/><circle class="cls-2" cx="96.99" cy="33.48" r="1.27" transform="translate(19.5 100.74) rotate(-60)"/><circle class="cls-3" cx="94.5" cy="32.04" r="1.02" transform="translate(19.5 97.86) rotate(-60)"/><circle class="cls-4" cx="92.36" cy="30.81" r="0.81" transform="translate(19.5 95.39) rotate(-60)"/><circle class="cls-5" cx="90.53" cy="29.75" r="0.59" transform="translate(19.5 93.28) rotate(-60)"/><circle class="cls-6" cx="89.04" cy="28.89" r="0.35" transform="translate(19.5 91.55) rotate(-60)"/><circle class="cls-7" cx="87.9" cy="28.23" r="0.15" transform="translate(19.5 90.23) rotate(-60)"/><circle class="cls-2" cx="97.86" cy="30.06" r="1.26" transform="translate(51.52 121.35) rotate(-80.16)"/><circle class="cls-3" cx="95.53" cy="29.2" r="1.02" transform="translate(50.19 118.21) rotate(-80)"/><circle class="cls-4" cx="93.09" cy="28.76" r="0.81" transform="translate(48.6 115.45) rotate(-80)"/><circle class="cls-5" cx="91.03" cy="28.4" r="0.59" transform="translate(47.25 113.12) rotate(-80)"/><circle class="cls-6" cx="89.32" cy="28.1" r="0.35" transform="translate(46.13 111.18) rotate(-80)"/><circle class="cls-7" cx="88.03" cy="27.87" r="0.15" transform="translate(45.29 109.72) rotate(-80)"/><circle class="cls-2" cx="98.37" cy="25.66" r="1.27" transform="translate(-2.96 17.47) rotate(-10)"/><circle class="cls-3" cx="95.53" cy="26.16" r="1.02" transform="translate(-3.09 16.99) rotate(-10)"/><circle class="cls-4" cx="93.09" cy="26.6" r="0.81" transform="translate(-3.2 16.57) rotate(-10)"/><circle class="cls-5" cx="91.03" cy="26.96" r="0.59" transform="translate(-3.3 16.22) rotate(-10)"/><circle class="cls-6" cx="89.32" cy="27.26" r="0.35" transform="translate(-3.38 15.93) rotate(-10)"/><circle class="cls-7" cx="88.02" cy="27.49" r="0.15" transform="translate(-3.44 15.7) rotate(-10)"/><circle class="cls-2" cx="97.38" cy="21.96" r="1.27" transform="translate(2.01 51.44) rotate(-29.89)"/><circle class="cls-3" cx="94.87" cy="23.4" r="1.02" transform="translate(0.95 50.39) rotate(-29.89)"/><circle class="cls-4" cx="92.72" cy="24.65" r="0.81" transform="translate(0.05 49.48) rotate(-29.89)"/><circle class="cls-5" cx="90.53" cy="25.61" r="0.59" transform="translate(-0.67 48.7) rotate(-30)"/><circle class="cls-6" cx="89.03" cy="26.46" r="0.35" transform="translate(-1.3 48.06) rotate(-30)"/><circle class="cls-7" cx="87.89" cy="27.12" r="0.15" transform="translate(-1.79 47.58) rotate(-30)"/><circle class="cls-2" cx="94.4" cy="18.78" r="1.27" transform="translate(19.34 79.03) rotate(-50)"/><circle class="cls-3" cx="92.54" cy="20.99" r="1.02" transform="translate(16.97 78.39) rotate(-50)"/><circle class="cls-4" cx="90.96" cy="22.89" r="0.81" transform="translate(14.95 77.85) rotate(-50)"/><circle class="cls-5" cx="89.61" cy="24.5" r="0.59" transform="translate(13.24 77.4) rotate(-50)"/><circle class="cls-6" cx="88.49" cy="25.82" r="0.35" transform="translate(11.83 77.01) rotate(-50)"/><circle class="cls-7" cx="87.64" cy="26.83" r="0.15" transform="translate(10.75 76.72) rotate(-50)"/><circle class="cls-2" cx="90.91" cy="16.77" r="1.27" transform="translate(44.06 96.46) rotate(-70)"/><circle class="cls-3" cx="89.92" cy="19.48" r="1.02" transform="translate(40.87 97.32) rotate(-70)"/><circle class="cls-4" cx="89.07" cy="21.8" r="0.81" transform="translate(38.13 98.04) rotate(-70)"/><circle class="cls-5" cx="88.35" cy="23.78" r="0.59" transform="translate(35.79 98.67) rotate(-70)"/><circle class="cls-6" cx="87.76" cy="25.4" r="0.35" transform="translate(33.87 99.18) rotate(-70)"/><circle class="cls-7" cx="87.31" cy="26.65" r="0.15" transform="translate(32.41 99.58) rotate(-70)"/><path class="cls-8" d="M158.85,16.32V7.64h3a5.68,5.68,0,0,1,1.46.16,2.79,2.79,0,0,1,1,.46,1.79,1.79,0,0,1,.57.73,2.44,2.44,0,0,1,.18,1,1.88,1.88,0,0,1-.09.59,1.69,1.69,0,0,1-.28.52,2.1,2.1,0,0,1-.48.44,2.9,2.9,0,0,1-.69.34q1.79.4,1.79,1.93a2.45,2.45,0,0,1-.21,1,2.24,2.24,0,0,1-.61.81,2.93,2.93,0,0,1-1,.53,4.33,4.33,0,0,1-1.34.19Zm1.61-4.92h1.29a2.16,2.16,0,0,0,1.25-.3,1.09,1.09,0,0,0,.43-1,1.13,1.13,0,0,0-.38-1,2,2,0,0,0-1.2-.29h-1.38Zm0,1.12v2.54h1.64a2.26,2.26,0,0,0,.75-.11,1.31,1.31,0,0,0,.49-.29,1.05,1.05,0,0,0,.26-.42,1.59,1.59,0,0,0,.08-.51,1.36,1.36,0,0,0-.09-.51,1,1,0,0,0-.28-.38,1.32,1.32,0,0,0-.49-.24,2.73,2.73,0,0,0-.73-.08Z"/><path class="cls-8" d="M172.14,7.64V8.93h-3.85v2.41h3v1.24h-3V15h3.85v1.29h-5.47V7.64Z"/><path class="cls-8" d="M179.65,7.64V9H177v7.35h-1.61V9H172.8V7.64Z"/><path class="cls-8" d="M187.42,16.32h-1.25a.55.55,0,0,1-.34-.1.6.6,0,0,1-.2-.26L185,14.18h-3.59L180.74,16a.57.57,0,0,1-.19.25.53.53,0,0,1-.34.11H179l3.41-8.68H184ZM181.8,13h2.77l-1.06-2.89-.16-.45q-.09-.26-.17-.57-.08.31-.17.57t-.16.46Z"/></svg>