<?xml version="1.0" encoding="utf-8"?>
<!-- Generator: Adobe Illustrator 24.1.0, SVG Export Plug-In . SVG Version: 6.00 Build 0)  -->
<svg version="1.1" id="Layer_1" xmlns="http://www.w3.org/2000/svg" xmlns:xlink="http://www.w3.org/1999/xlink" x="0px" y="0px"
	 viewBox="0 0 159 50" style="enable-background:new 0 0 159 50;" xml:space="preserve">
<style type="text/css">
	.st0{fill:#FFFFFF;}
	.st1{fill:#FF5B00;}
	.st2{fill:#FF9D00;}
	.st3{fill:#FFD400;}
	.st4{fill:#B3ED00;}
	.st5{fill:#0FEAAC;}
	.st6{fill:#1CE3E8;}
</style>
<path class="st0" d="M12.4,34.7H2.2V13.8c0-0.4-0.3-0.7-0.6-0.7H1.5H0.8c-0.4,0-0.7,0.3-0.7,0.6v0.1v22c0,0.4,0.2,0.7,0.6,0.7h0.1
	h11.5c0.4,0,0.7-0.3,0.7-0.6v-0.1v-0.4C13,35,12.8,34.7,12.4,34.7C12.4,34.7,12.4,34.7,12.4,34.7z"/>
<path class="st0" d="M16.4,19.8h-0.6c-0.4,0-0.7,0.3-0.7,0.7c0,0,0,0,0,0.1v15.3c0,0.4,0.2,0.7,0.6,0.7h0.1h0.6
	c0.4,0,0.7-0.3,0.7-0.6v-0.1V20.5c0.1-0.4-0.2-0.7-0.6-0.8C16.5,19.7,16.5,19.7,16.4,19.8z"/>
<path class="st0" d="M16.1,12.6c-0.8,0-1.5,0.6-1.5,1.4v0.1c-0.1,0.8,0.5,1.5,1.4,1.6c0.8,0.1,1.5-0.5,1.6-1.4c0-0.1,0-0.2,0-0.2
	C17.6,13.4,17,12.7,16.1,12.6C16.2,12.6,16.1,12.6,16.1,12.6z"/>
<path class="st0" d="M29.3,19.8h-4.4v-1.5c0-2.9,1.2-4.5,3.2-4.5c1.7,0,2.8,0.9,2.8,2.3c0,0.1,0,0.3,0,0.4s0,0.3,0.1,0.4
	s0.2,0.2,0.4,0.2h0.8c0.2,0,0.4-0.1,0.5-0.3c0.1-0.2,0.1-0.5,0.1-0.7c0-2.5-1.8-4.1-4.7-4.1c-1.9,0-5.2,0.8-5.2,6.5v1.3h-2.3
	c-0.3,0-0.5,0.2-0.5,0.5c0,0,0,0,0,0.1v0.7c0,0.3,0.2,0.5,0.5,0.5c0,0,0,0,0.1,0H23v14.3c0,0.4,0.2,0.7,0.6,0.7h0.1h0.6
	c0.4,0,0.7-0.3,0.7-0.6v-0.1V21.5h4.3c0.3,0,0.5-0.2,0.5-0.5c0,0,0,0,0-0.1v-0.7C29.8,20,29.6,19.8,29.3,19.8
	C29.3,19.7,29.3,19.7,29.3,19.8z"/>
<path class="st0" d="M38.7,19.4c-4.8-0.1-8.9,3.7-9,8.6c0,0.1,0,0.1,0,0.2c0,5,3.9,8.7,9.3,8.7c2.4,0.1,4.7-0.7,6.4-2.3
	c0.3-0.2,0.4-0.7,0.2-1l-0.1-0.1l-0.2-0.3c-0.2-0.3-0.6-0.4-0.9-0.1c0,0,0,0-0.1,0C42.8,34.4,40.9,35,39,35
	c-2.1,0.1-4.2-0.8-5.7-2.3c-1.2-1.3-1.8-3.1-1.6-4.8h14.5c0.2,0,0.4-0.1,0.5-0.2s0.2-0.3,0.2-0.5C46.5,21.5,42.4,19.4,38.7,19.4z
	 M44.9,26.3H32c0.8-3,3.6-5.1,6.7-5C41.8,21,44.5,23.2,44.9,26.3z"/>
<path class="st0" d="M58.4,13.1h-8.3c-0.4,0-0.7,0.3-0.7,0.6v0.1v22c0,0.4,0.2,0.7,0.6,0.7h0.1h0.6c0.4,0,0.7-0.2,0.7-0.6v-0.1v-8.6
	h6.9c4,0,6.8-2.9,6.8-7c0-1.8-0.6-3.6-1.8-5C62.2,13.8,60.3,13,58.4,13.1z M63.1,20.2c0,3.1-2,5.2-4.9,5.2h-6.7V14.9h6.7
	C61.1,14.9,63.1,17.1,63.1,20.2z"/>
<path class="st0" d="M91.8,12.6c-0.8,0-1.5,0.6-1.5,1.4v0.1c-0.1,0.8,0.5,1.5,1.4,1.6c0.8,0.1,1.5-0.5,1.6-1.4c0-0.1,0-0.2,0-0.2
	C93.3,13.4,92.7,12.7,91.8,12.6C91.9,12.6,91.9,12.6,91.8,12.6z"/>
<path class="st0" d="M92.2,19.8h-0.6c-0.4,0-0.7,0.3-0.7,0.7c0,0,0,0,0,0.1v15.3c0,0.4,0.2,0.7,0.6,0.7h0.1h0.6
	c0.4,0,0.7-0.3,0.7-0.6v-0.1V20.5C93,20.1,92.7,19.8,92.2,19.8C92.3,19.7,92.2,19.7,92.2,19.8z"/>
<path class="st0" d="M104.6,19.4c-2.4,0-4.7,1.3-5.8,3.5v-2.4c0-0.4-0.2-0.7-0.6-0.7h-0.1h-0.5c-0.4,0-0.7,0.3-0.7,0.6v0.1v15.3
	c0,0.4,0.2,0.7,0.6,0.7h0.1h0.6c0.4,0,0.7-0.2,0.7-0.6v-0.1V28c0.1-5.3,3.8-6.7,5.8-6.7s5,0.7,5,5.7v8.9c0,0.4,0.2,0.7,0.6,0.7h0.1
	h0.6c0.4,0,0.7-0.3,0.7-0.6v-0.1V27C111.6,22.2,109.1,19.4,104.6,19.4z"/>
<path class="st0" d="M124.1,31.5h-0.8c-0.1,0-0.3,0-0.4,0.2c-0.1,0.1-0.1,0.3-0.1,0.4c0,0.2,0.1,0.4,0.1,0.6c0,1.3-1,2.4-2.4,2.5
	c-0.1,0-0.2,0-0.2,0c-1.9,0-2.8-1.2-2.8-3.7v-9.9h4.9c0.3,0,0.5-0.2,0.5-0.4v-0.1v-0.7c0-0.3-0.2-0.5-0.4-0.5h-0.1h-4.9v-4.6
	c0-0.3-0.2-0.6-0.6-0.6h-0.1h-0.3c-0.3,0-0.6,0.3-0.7,0.6l-0.4,4.6H113c-0.3,0-0.5,0.2-0.5,0.5c0,0,0,0,0,0.1v0.7
	c0,0.3,0.2,0.5,0.5,0.5c0,0,0,0,0.1,0h2.4v9.9c0,3.7,1.6,5.6,4.7,5.6c2.7,0,4.5-1.6,4.5-4.1c0-0.3,0-0.6-0.1-0.9
	C124.6,31.7,124.4,31.5,124.1,31.5z"/>
<path class="st0" d="M133.3,27.6l-2.5-0.8c-1.7-0.5-2.5-1.4-2.5-2.7c0.1-1.7,1.5-3,3.2-2.9h0.1c1.2,0,2.2,0.6,2.8,1.6
	c0.2,0.3,0.5,0.5,0.9,0.4l0.4-0.1c0.2,0,0.4-0.2,0.5-0.4c0.1-0.2,0.1-0.4,0-0.6c-0.9-1.7-2.7-2.8-4.6-2.7c-1.4,0-2.8,0.5-3.9,1.5
	c-0.9,0.9-1.4,2.1-1.4,3.3c0,2.1,1.3,3.6,3.9,4.3l2.5,0.8c1.7,0.6,2.5,1.5,2.5,2.8c0,1.7-1.6,3-3.6,3c-1.6,0.1-3-0.7-3.9-2
	c-0.2-0.3-0.6-0.5-0.9-0.3l-0.5,0.2c-0.2,0-0.4,0.2-0.5,0.4s-0.1,0.4,0,0.6l0,0c1.2,2,3.4,3.1,5.7,3c3.7,0,5.6-2.4,5.6-4.8
	C137.1,30.6,136.4,28.6,133.3,27.6z"/>
<circle class="st1" cx="77.4" cy="16.9" r="1.1"/>
<circle class="st2" cx="77.4" cy="19.5" r="0.9"/>
<circle class="st3" cx="77.4" cy="21.7" r="0.7"/>
<circle class="st4" cx="77.4" cy="23.6" r="0.5"/>
<circle class="st5" cx="77.4" cy="25.1" r="0.3"/>
<circle class="st6" cx="77.4" cy="26.3" r="0.1"/>
<circle class="st1" cx="73.9" cy="17.5" r="1.1"/>
<circle class="st2" cx="74.8" cy="20" r="0.9"/>
<circle class="st3" cx="75.5" cy="22" r="0.7"/>
<circle class="st4" cx="76.2" cy="23.8" r="0.5"/>
<circle class="st5" cx="76.7" cy="25.3" r="0.3"/>
<circle class="st6" cx="77.1" cy="26.4" r="0.1"/>
<circle class="st1" cx="70.7" cy="19.3" r="1.1"/>
<circle class="st2" cx="72.4" cy="21.3" r="0.9"/>
<circle class="st3" cx="73.8" cy="23" r="0.7"/>
<circle class="st4" cx="75" cy="24.4" r="0.5"/>
<circle class="st5" cx="76" cy="25.6" r="0.3"/>
<circle class="st6" cx="76.8" cy="26.5" r="0.1"/>
<circle class="st1" cx="68.5" cy="21.8" r="1.1"/>
<circle class="st2" cx="70.7" cy="23.1" r="0.9"/>
<circle class="st3" cx="72.7" cy="24.2" r="0.7"/>
<circle class="st4" cx="74.2" cy="25.4" r="0.5"/>
<circle class="st5" cx="75.5" cy="26.2" r="0.3"/>
<circle class="st6" cx="76.6" cy="26.8" r="0.1"/>
<circle class="st1" cx="67.2" cy="25.5" r="1.1"/>
<circle class="st2" cx="69.7" cy="25.9" r="0.9"/>
<circle class="st3" cx="71.9" cy="26.3" r="0.7"/>
<circle class="st4" cx="73.8" cy="26.7" r="0.5"/>
<circle class="st5" cx="75.3" cy="26.9" r="0.3"/>
<circle class="st6" cx="76.5" cy="27.1" r="0.1"/>
<circle class="st1" cx="67.2" cy="29.1" r="1.1"/>
<circle class="st2" cx="69.7" cy="28.7" r="0.9"/>
<circle class="st3" cx="71.9" cy="28.3" r="0.7"/>
<circle class="st4" cx="73.8" cy="27.9" r="0.5"/>
<circle class="st5" cx="75.3" cy="27.7" r="0.3"/>
<circle class="st6" cx="76.5" cy="27.5" r="0.1"/>
<circle class="st1" cx="68.4" cy="32.5" r="1.1"/>
<circle class="st2" cx="70.7" cy="31.2" r="0.9"/>
<circle class="st3" cx="72.6" cy="30.1" r="0.7"/>
<circle class="st4" cx="74.2" cy="29.2" r="0.5"/>
<circle class="st5" cx="75.5" cy="28.4" r="0.3"/>
<circle class="st6" cx="76.6" cy="27.8" r="0.1"/>
<circle class="st1" cx="70.7" cy="35.3" r="1.1"/>
<circle class="st2" cx="72.4" cy="33.3" r="0.9"/>
<circle class="st3" cx="73.8" cy="31.6" r="0.7"/>
<circle class="st4" cx="75" cy="30.2" r="0.5"/>
<circle class="st5" cx="76" cy="29" r="0.3"/>
<circle class="st6" cx="76.8" cy="28.1" r="0.1"/>
<circle class="st1" cx="73.9" cy="37.1" r="1.1"/>
<circle class="st2" cx="74.7" cy="34.7" r="0.9"/>
<circle class="st3" cx="75.5" cy="32.6" r="0.7"/>
<circle class="st4" cx="76" cy="30.7" r="0.5"/>
<circle class="st5" cx="76.7" cy="29.3" r="0.3"/>
<circle class="st6" cx="77.1" cy="28.2" r="0.1"/>
<circle class="st1" cx="77.4" cy="37.7" r="1.1"/>
<circle class="st2" cx="77.4" cy="35.1" r="0.9"/>
<circle class="st3" cx="77.4" cy="32.9" r="0.7"/>
<circle class="st4" cx="77.4" cy="31" r="0.5"/>
<circle class="st5" cx="77.4" cy="29.5" r="0.3"/>
<circle class="st6" cx="77.4" cy="28.3" r="0.1"/>
<circle class="st1" cx="81" cy="37.1" r="1.1"/>
<circle class="st2" cx="80.1" cy="34.7" r="0.9"/>
<circle class="st3" cx="79.3" cy="32.6" r="0.7"/>
<circle class="st4" cx="78.7" cy="30.8" r="0.5"/>
<circle class="st5" cx="78.2" cy="29.3" r="0.3"/>
<circle class="st6" cx="77.8" cy="28.2" r="0.1"/>
<circle class="st1" cx="84.1" cy="35.3" r="1.1"/>
<circle class="st2" cx="82.5" cy="33.3" r="0.9"/>
<circle class="st3" cx="81" cy="31.6" r="0.7"/>
<circle class="st4" cx="80.1" cy="30.5" r="0.5"/>
<circle class="st5" cx="78.8" cy="29" r="0.3"/>
<circle class="st6" cx="78.1" cy="28.1" r="0.1"/>
<circle class="st1" cx="86.4" cy="32.5" r="1.1"/>
<circle class="st2" cx="84.2" cy="31.2" r="0.9"/>
<circle class="st3" cx="82.3" cy="30.1" r="0.7"/>
<circle class="st4" cx="80.6" cy="29.2" r="0.5"/>
<circle class="st5" cx="79.3" cy="28.4" r="0.3"/>
<circle class="st6" cx="78.3" cy="27.8" r="0.1"/>
<circle class="st1" cx="87.2" cy="29.4" r="1.1"/>
<circle class="st2" cx="85.1" cy="28.7" r="0.9"/>
<circle class="st3" cx="82.9" cy="28.3" r="0.7"/>
<circle class="st4" cx="81.1" cy="27.9" r="0.5"/>
<circle class="st5" cx="79.6" cy="27.7" r="0.3"/>
<circle class="st6" cx="78.4" cy="27.5" r="0.1"/>
<circle class="st1" cx="87.7" cy="25.5" r="1.1"/>
<circle class="st2" cx="85.1" cy="25.9" r="0.9"/>
<circle class="st3" cx="82.9" cy="26.3" r="0.7"/>
<circle class="st4" cx="81.1" cy="26.7" r="0.5"/>
<circle class="st5" cx="79.6" cy="26.9" r="0.3"/>
<circle class="st6" cx="78.4" cy="27.1" r="0.1"/>
<circle class="st1" cx="86.8" cy="22.2" r="1.1"/>
<circle class="st2" cx="84.5" cy="23.5" r="0.9"/>
<circle class="st3" cx="82.6" cy="24.6" r="0.7"/>
<circle class="st4" cx="80.6" cy="25.4" r="0.5"/>
<circle class="st5" cx="79.3" cy="26.2" r="0.3"/>
<circle class="st6" cx="78.3" cy="26.8" r="0.1"/>
<circle class="st1" cx="84.1" cy="19.3" r="1.1"/>
<circle class="st2" cx="82.4" cy="21.3" r="0.9"/>
<circle class="st3" cx="81" cy="23" r="0.7"/>
<circle class="st4" cx="79.8" cy="24.5" r="0.5"/>
<circle class="st5" cx="78.8" cy="25.6" r="0.3"/>
<circle class="st6" cx="78.1" cy="26.5" r="0.1"/>
<circle class="st1" cx="81" cy="17.5" r="1.1"/>
<circle class="st2" cx="80.1" cy="19.9" r="0.9"/>
<circle class="st3" cx="79.3" cy="22" r="0.7"/>
<circle class="st4" cx="78.7" cy="23.8" r="0.5"/>
<circle class="st5" cx="78.2" cy="25.3" r="0.3"/>
<circle class="st6" cx="77.8" cy="26.4" r="0.1"/>
</svg>
