<svg xmlns="http://www.w3.org/2000/svg" viewBox="0 0 276.89 215.28"><defs><style>.cls-1{fill:#e8e9f6;}.cls-2,.cls-7{fill:#5dc1d2;}.cls-3,.cls-5{fill:none;stroke-miterlimit:10;}.cls-3{stroke:#8288c2;stroke-width:4.94px;}.cls-4{fill:#e9510e;}.cls-5{stroke:#ea9210;stroke-width:4.94px;}.cls-6{fill:#ec68a3;opacity:0.4;}.cls-7{opacity:0.5;}.cls-18,.cls-8{fill:#38378d;}.cls-9{fill:#fff;}.cls-10,.cls-29{fill:#e71482;}.cls-11,.cls-27{fill:#b37b47;}.cls-12{fill:#172c48;}.cls-13,.cls-21{fill:#d0843e;}.cls-14{fill:#bde2ec;}.cls-15,.cls-19{fill:#4e6b81;}.cls-16{fill:#e6aa88;}.cls-16,.cls-17,.cls-18,.cls-19,.cls-20,.cls-21,.cls-22,.cls-23,.cls-24,.cls-25,.cls-26,.cls-27,.cls-28,.cls-29{fill-rule:evenodd;}.cls-17{fill:#515151;}.cls-20{fill:#494b9a;}.cls-22{fill:#a86915;}.cls-23{fill:#1d1e1b;}.cls-24{fill:#b9b9b9;}.cls-25{fill:#455a64;}.cls-26{fill:#2fb08a;}.cls-28{fill:#003d5c;}</style></defs><g id="Layer_1" data-name="Layer 1"><g id="Bob_2" data-name="Bob 2"><path class="cls-1" d="M259.86,100.21c-6.28-32-15.19-44.62-32.77-49.52-13.57-3.84-27.51.36-39.72-6.3-8.79-4.9-20-14.85-30.75-19.51-18.91-8.24-40.57-8.51-63.87-6C24,26.35,11.7,88.05,17.14,122.5c5,25.79,15.19,44.55,32.77,49.44,13.57,3.85,27.51-.35,39.73,6.29,8.84,4.84,20,14.85,30.74,19.54,18.88,8.31,40.57,8.63,63.87,6.1C253,196.34,265.3,134.66,259.86,100.21Z"/></g><circle class="cls-2" cx="154.62" cy="163.47" r="9.12"/><circle class="cls-3" cx="154.52" cy="162.46" r="9.17"/><circle class="cls-4" cx="23.35" cy="25.63" r="6.34"/><circle class="cls-5" cx="41.67" cy="42.32" r="8.44"/><circle class="cls-6" cx="62.31" cy="168.41" r="12.46"/><circle class="cls-6" cx="197.57" cy="35.3" r="18.1"/><circle class="cls-7" cx="221.46" cy="179.86" r="24.58"/><circle class="cls-8" cx="116.41" cy="36.73" r="29.37"/><rect class="cls-9" x="100.02" y="20.11" width="32.92" height="32.92" rx="0.88" transform="translate(59.97 -71.65) rotate(45)"/><path class="cls-8" d="M114.44,42.33a.74.74,0,0,0,.36.27,2.36,2.36,0,0,0,.68.18,8.17,8.17,0,0,0,1.09.06,8.05,8.05,0,0,0,1.07-.06,2.52,2.52,0,0,0,.7-.18.67.67,0,0,0,.35-.27.91.91,0,0,0,.13-.37l.53-18.58a.86.86,0,0,0-.13-.46,1,1,0,0,0-.45-.33,3.67,3.67,0,0,0-.85-.2,10.19,10.19,0,0,0-1.35-.07,13,13,0,0,0-1.37.06,3.08,3.08,0,0,0-.85.19.83.83,0,0,0-.57.81L114.31,42A.91.91,0,0,0,114.44,42.33Z"/><path class="cls-8" d="M118.85,45.57a1.87,1.87,0,0,0-.89-.51,5.47,5.47,0,0,0-1.39-.15,5.63,5.63,0,0,0-1.41.15,1.82,1.82,0,0,0-.89.51,2.13,2.13,0,0,0-.46.94,6.55,6.55,0,0,0-.13,1.44,6.42,6.42,0,0,0,.13,1.42,2.1,2.1,0,0,0,.46.92,1.89,1.89,0,0,0,.89.5,5.63,5.63,0,0,0,1.41.15,5.47,5.47,0,0,0,1.39-.15,1.94,1.94,0,0,0,.89-.5,2,2,0,0,0,.47-.92,6.42,6.42,0,0,0,.13-1.42,6.55,6.55,0,0,0-.13-1.44A2,2,0,0,0,118.85,45.57Z"/><path class="cls-10" d="M98.74,117.14a15.47,15.47,0,0,1-.73,5.39c-.49,1.23-1.15,1.85-2,1.85H88v16.28a1.9,1.9,0,0,1-.42,1.22,3.11,3.11,0,0,1-1.46.87,13.44,13.44,0,0,1-2.71.52c-1.12.11-2.55.17-4.32.17s-3.07-.06-4.21-.17a12.89,12.89,0,0,1-2.71-.52,2.84,2.84,0,0,1-1.39-.87,2,2,0,0,1-.38-1.22V124.38H36a5.5,5.5,0,0,1-1.74-.25A2.3,2.3,0,0,1,33,123a6.9,6.9,0,0,1-.77-2.5,31.49,31.49,0,0,1-.24-4.35c0-1.49,0-2.78.1-3.87a25.74,25.74,0,0,1,.35-3,14.25,14.25,0,0,1,.69-2.51,25.56,25.56,0,0,1,1.15-2.5L62.2,55a2.94,2.94,0,0,1,1.19-1.08,8.93,8.93,0,0,1,2.33-.76,26.49,26.49,0,0,1,3.79-.45c1.53-.1,3.39-.14,5.57-.14q3.54,0,6,.17a23.19,23.19,0,0,1,4,.56,5.8,5.8,0,0,1,2.19.94,1.63,1.63,0,0,1,.7,1.32v54.2h8q1.11,0,1.92,1.71A14.52,14.52,0,0,1,98.74,117.14ZM70.42,68.36h-.14l-23.73,41.4H70.42Z"/><path class="cls-10" d="M241.35,116a15.24,15.24,0,0,1-.74,5.39c-.48,1.23-1.14,1.84-2,1.84h-8v16.28a1.88,1.88,0,0,1-.42,1.22,3,3,0,0,1-1.46.87,12.78,12.78,0,0,1-2.71.52,41.9,41.9,0,0,1-4.32.18,41.19,41.19,0,0,1-4.21-.18,12.28,12.28,0,0,1-2.71-.52,2.78,2.78,0,0,1-1.39-.87,2,2,0,0,1-.38-1.22V123.26H178.58a5.81,5.81,0,0,1-1.74-.24,2.35,2.35,0,0,1-1.29-1.11,7.11,7.11,0,0,1-.76-2.51,31.29,31.29,0,0,1-.24-4.35c0-1.48,0-2.77.1-3.86a25.93,25.93,0,0,1,.35-3,14.14,14.14,0,0,1,.69-2.5,25.68,25.68,0,0,1,1.15-2.51l28-49.33A2.87,2.87,0,0,1,206,52.81a8.77,8.77,0,0,1,2.33-.77,28,28,0,0,1,3.79-.45c1.53-.09,3.39-.14,5.57-.14q3.54,0,6.05.18a23.34,23.34,0,0,1,4,.55,6,6,0,0,1,2.19.94,1.63,1.63,0,0,1,.7,1.32v54.21h8c.74,0,1.38.57,1.91,1.7A14.32,14.32,0,0,1,241.35,116ZM213,67.25h-.14l-23.73,41.4H213Z"/><path class="cls-11" d="M192.67,71.8l-.22,2.36c.23,0,3.16.3,3.16.3l.22-2.36Z"/><path class="cls-12" d="M192.4,73.33l-7.08,2.74c-.06,0-.4.07-.75.11a1.16,1.16,0,0,0-1,1,1.06,1.06,0,0,0,0,.37c.06.1,12.76,1.21,12.76,1.21s.68-4,0-4.28S193.31,74.61,192.4,73.33Z"/><path class="cls-11" d="M182,67.44l-1.26,2c.2.11,2.69,1.69,2.69,1.69l1.26-2Z"/><path class="cls-12" d="M181,68.65s-7.4-.7-7.55-.73a5.43,5.43,0,0,1-.72-.23,1.15,1.15,0,0,0-1.38.44,1,1,0,0,0-.17.33c0,.11,10.85,6.81,10.85,6.81S184.45,72,184,71.46,181.24,70.2,181,68.65Z"/><path class="cls-12" d="M208.76,41.76s-15.47-1.41-16.89.28-10.35,26.1-10.35,26.1l3.38,1.71L196.83,51l13.68-6.52Z"/><path class="cls-12" d="M205.41,13s-2.76.41-3.73-.2-4.64-4.47-2.27-4,2.36.25,3.32-1.3,1.36-4.77,4.74-4.93,6.95,0,7.64,2.43.16,5.07,1,6.06,1.31,1.85-.63,1.51-4.22,1.09-4.22,1.09L207.77,12Z"/><path class="cls-13" d="M205.21,12s.48,3.18,1.64,3.4.41,1.86,2.43,2.32,3.42-.64,3.87-.19,2.4,3.92,2.4,3.92l.88,1,2.14-7.72L216,11.8s-2.57,1.16-2.87-.7-3.26-2.19-3.06-.32S207.08,7.36,205.21,12Z"/><path class="cls-14" d="M216.73,14.17s2.65-2.63,3-1,5,1.25,7.41,9,3.87,20.86,4,23.48-2.5,6.43-4.09,6.51.78-3.14-4.45-8.15S213,39,213,39s-.26-11.24.43-14.28S214.83,15,216.73,14.17Z"/><path class="cls-12" d="M227.07,52.23s-10.4.29-16.17.08c-4.75-.17-10-.63-10-.63l-3.62,21-4.62-.33.71-27s-.87-4.09,7.71-3.67a197.78,197.78,0,0,0,20.56-.56l3.15,2.75Z"/><path class="cls-13" d="M205.62,37.37s-6.09-.59-6.76-.56a6,6,0,0,0-3.38,2c-.67,1-1.49,2.69-.51,2.28s1.63-1.52,4.27-1.11,3.84.92,6.27.49S205.62,37.37,205.62,37.37Z"/><polygon class="cls-15" points="185.26 32.35 193.36 41.2 190.3 41.35 181.63 32.26 185.26 32.35"/><path class="cls-14" d="M218.46,25s1.34-8,4.87-4.54,2.21,8.58,1.86,14c-.34,5.19-2.61,10.31-6.5,10.18s-13.36-4.26-13.36-4.26l.33-3.37,11.57.87S217.06,29.74,218.46,25Z"/><rect class="cls-15" x="190.29" y="40.54" width="12.16" height="0.9" transform="translate(-1.81 9.89) rotate(-2.87)"/><path class="cls-12" d="M209.81,11.17s2,2.13,2.12,2.9.06,2.92-.56,3.17a12,12,0,0,1-1.9.48l1.16.1s2.39.05,2.52-.33,1.1-1.8.67-2.85a14.68,14.68,0,0,0-1.08-2.06l-2.63-2.27Z"/><polygon class="cls-16" points="162.96 201.94 168.74 201.94 170.34 209.33 164.57 209.33 162.96 201.94"/><path class="cls-17" d="M168.54,207.47c-3.22,2.05-3.51-1.61-4.69-.44a19.61,19.61,0,0,1-9.82,4.11c0,.44-.29,2.05.44,2.05,2.2,0,14.51,0,16.27-1.47,0,0,1.32-6.59-2.2-4.25Z"/><path class="cls-18" d="M163.45,137.13c-5.46,22.62-17,41.71-1.77,67.7H170c-16-31,11.4-54.39,9.79-63.85-5,.48-11.23-4.5-16.36-3.85Z"/><path class="cls-16" d="M180.61,109.74c-.62-1.95-6.06-2.25-12.43-.45-6.22,1.65-10.73,4.65-10.11,6.61.47,1.95,6.07,2.25,12.28.6s10.89-4.81,10.26-6.76Z"/><path class="cls-19" d="M181.9,110.33c-.81-2.73-8-3-16.05-.64l2.73,9.63c8-2.25,14-6.26,13.32-9Z"/><polygon class="cls-16" points="179.33 202.27 184.94 202.27 186.71 209.65 181.09 209.65 179.33 202.27"/><path class="cls-20" d="M169.54,134.72c-5.61,22.62-6.42,44.12,8.67,70.11h8.5c-16.2-31-5.78-51.5-4-56.79-5.14.48-8-14-13.16-13.32Z"/><path class="cls-17" d="M184.47,207.91c-3.08,1.91-3.37-1.76-4.69-.58-2.34,2.19-6.45,3.51-9.67,3.81,0,.44-.44,2.05.43,2.05,2.2.15,14.37.44,16.28-.88,0,0,1.17-6.6-2.35-4.4Z"/><path class="cls-9" d="M161.52,144.51c2.89,1.92,18.29,5.77,22.62,5.77-5.93-18.13,9.63-31.77.81-40.43-18-17.33-22.63,24.23-23.43,34.66Z"/><path class="cls-16" d="M184.62,114.66c-1.6-1.6-6.73.65-11.71,5.14-5.13,4.49-8,9.3-6.58,11.07,1.61,1.6,6.74-.64,11.72-5.14s8-9.3,6.57-11.07Z"/><path class="cls-19" d="M186.07,113.22c-1.77-1.93-8.34.8-14.6,6.42l6.58,7.54c6.25-5.62,9.94-11.87,8-14Z"/><path class="cls-16" d="M179.81,92.52c-.64.48-1.92,4-2.08,5-.17,1.6-1.29,5.61,1,5.93,1.28.32.64.16.32,1.45a36.6,36.6,0,0,0-1.45,3.69c-.32,1.28,5,2.89,5.78,2.08,0-1.12,1.77-5.29,2.25-6.41,1-2.25,3-6.9,2.08-9-1.28-2.57-5.29-3.69-7.86-2.73Z"/><path class="cls-21" d="M179.33,103.75c.16,0-.16.33-.32,1.13-.16.32-.16.48-.32.8,1.28.32,4.65-.48,3.85-1.12a5,5,0,0,0-1.45-.48,6.43,6.43,0,0,0-1.76-.33Z"/><path class="cls-22" d="M184,97.66c-.32-1.29-1.6-2.09-2.56-2.73-1.77-.8-3.86-3.21-3.53-5.29.48-3.21,3.2-1.29,4.65,0a4.47,4.47,0,0,0,3.21,1.28,6,6,0,0,1,3.53,1.28A7.41,7.41,0,0,1,191,98a12.29,12.29,0,0,1-2.24,5.13c-.65.64-2.57,2.09-3.53,1.61-.49-.16,3-6.26-.32-4.66-2.25,1-.33-.48-1-2.4Z"/><path class="cls-16" d="M157.6,104.54c-.16-1.13-1.37-3.83-1.53-5.12,1-.48,1.12-2.89,0-4.33,2.88.16,4.33,1.44,2.56,4.65a40,40,0,0,0,1.77,3.85c-1.13-.16-1.31,3.8-2.59,3.64Z"/><polygon class="cls-16" points="158.01 115.6 157.6 103.43 159.98 101.67 163.61 111.3 158.01 115.6"/><path class="cls-23" d="M86.59,200.18l-3.85,6.42,11.07,6.58s1.93-3.69-4.65-7.06L89.8,205l1.29-2.08Z"/><path class="cls-24" d="M82.26,207.56,83,206s1.22-.43,2.9,1.24a25.49,25.49,0,0,0,8.27,5.17l-.62,1.25Z"/><path class="cls-23" d="M114.19,204.67l-.16,7.54,12.83.16s-.32-4.17-7.54-3.85v-3.69Z"/><path class="cls-24" d="M114,212.83v-1.74s.64-1.12,3.53-.16c2.89.8,9.22.45,9.22.45L127,213Z"/><path class="cls-25" d="M121.25,207.08h-8.66s-.65-25.67-2.73-30c-2.09-4.5-20.7-30.33-20.7-30.33h17.49s14.6,25.83,14.6,27.44v32.89Z"/><path class="cls-19" d="M84.35,200.66l6.9,3.21s16.68-18,16.52-23.26c-.32-5.14-8.82-33.22-8.82-33.22l-14.6,3.7c4,17.48,13.31,23.1,13.15,29.2-.16,6.25-13.15,20.37-13.15,20.37Z"/><path class="cls-26" d="M109.75,152.18l-25.4-.13s-1.77-40.11,14.44-38.83c8.82-.1,8.08,14.14,8.2,25.45.08,7.2,1.93,11.31,1.93,11.31Z"/><path class="cls-21" d="M107,101.51c.32.8-.48,4.17-.8,5-.48,1.29-1.77,5.14-3.53,4.33-1.13-.48-.8-.16-1,1s-.48,2.56-.64,3.69c-.48,1.12-5.29-.16-5.61-1.29.48-.8,1.12-5,1.28-6.09.32-2.25.8-6.9,2.73-8.19s5.94-.48,7.54,1.61Z"/><path class="cls-27" d="M101.84,110.65c-.17,0,0,.32-.17,1.13,0,.32-.16.48-.16.8-1.12-.32-3.53-2.57-2.56-2.73a4.67,4.67,0,0,1,1.44.32l1.45.48Z"/><path class="cls-28" d="M101,103.59a4.69,4.69,0,0,1,3.53-.8c1.77,0,4.66-.8,5.3-2.73,1.12-2.72-2.09-2.56-3.69-2.24A3.75,3.75,0,0,1,103,97.5a5.3,5.3,0,0,0-3.37-.81,6.27,6.27,0,0,0-4.17,3.86,9.33,9.33,0,0,0-.64,5.13c0,.8,1,2.89,1.92,2.89.48.16.48-6.42,2.41-3.53,1.44,1.92.64-.16,1.92-1.45Z"/><path class="cls-21" d="M127,113.22c.8-.64.48-1.6.8-2.25s1-1.12,1.28-1.92c.8-1.77,5.3-5.14,4.33.8-.64,1.77-3.21,2.89-4.49,5-.64-.48-1.28-1.12-1.92-1.6Z"/><path class="cls-26" d="M129.59,115.47c-1-1-1.92-1.77-3-2.73-8.82,7.86-18.77,14.92-31.6,5.45-2.25,4.5-4,8.35-6.26,12.84,16.36,2.57,29.84-2.89,40.91-15.56Z"/><path class="cls-29" d="M151.78,72.92a27.87,27.87,0,0,1,10,11.7A7.16,7.16,0,0,0,157,92.81a7,7,0,0,0,7.46,5.86,29.52,29.52,0,0,1-1.5,7.64,30.21,30.21,0,0,1-3.62,6.89,7.22,7.22,0,0,0-10.92,9.24,29.45,29.45,0,0,1-15.18,3,7.18,7.18,0,0,0-13.46-4.75,29.46,29.46,0,0,1-10-11.84,7.23,7.23,0,0,0-2.69-14.06,29.36,29.36,0,0,1,1.5-7.63,29.79,29.79,0,0,1,3.62-6.89,7,7,0,0,0,9.49.11A7.15,7.15,0,0,0,123.19,71a27.93,27.93,0,0,1,15.13-2.83,7.2,7.2,0,0,0,13.46,4.75ZM140.27,83.83A13.64,13.64,0,1,1,123,92.21a13.63,13.63,0,0,1,17.24-8.38Z"/><polygon class="cls-16" points="167.3 131.35 155.58 124.45 154.6 120.67 169.38 124.77 167.3 131.35"/><path class="cls-16" d="M154.4,120.57c-1.13-.32-1.2-.38-2.32-.7-.65,1-3.89-.25-5.34-1.37a18.7,18.7,0,0,0-.1,2c.45,2.38,2.65,3.21,5.6,1.8a36.86,36.86,0,0,0,4.22,2.54c-.16-1.12-1.59-2.91-1.75-4Z"/><path class="cls-26" d="M137.61,121.72c-.64-1.12-1.44-2.24-2.08-3.37-10.75,5.14-22.71,9.36-32.33-3.16-3.53,3.69-5.7,6.53-9.23,10.22,15.09,7.06,29.69,5.46,43.64-3.69Z"/><path class="cls-21" d="M135.85,118.84c1-.49.8-1.45,1.28-1.93.64-.64,1.29-.8,1.77-1.44,1.28-1.61,6.58-3.53,4,1.92-1.12,1.61-4,1.93-5.78,3.53a14.61,14.61,0,0,0-1.28-2.08Z"/></g></svg>