<?xml version="1.0" encoding="utf-8"?>
<!-- Generator: Adobe Illustrator 21.1.0, SVG Export Plug-In . SVG Version: 6.00 Build 0)  -->
<svg version="1.1" id="OBJECTS" xmlns="http://www.w3.org/2000/svg" xmlns:xlink="http://www.w3.org/1999/xlink" x="0px" y="0px"
	 viewBox="0 0 500 500" style="enable-background:new 0 0 500 500;" xml:space="preserve">
<style type="text/css">
	.st0{clip-path:url(#SVGID_2_);}
	.st1{fill:none;}
	.st2{fill:#DAA869;}
	.st3{fill:#3F51B5;}
	.st4{fill:#B3ED00;}
	.st5{fill:#1CE3E8;}
	.st6{fill:#0FEAAC;}
	.st7{fill:#FF2E56;}
	.st8{fill:#FF9D00;}
	.st9{opacity:0.72;fill:#FFB902;}
	.st10{opacity:0.7;fill:#FF5B00;}
	.st11{opacity:0.68;fill-rule:evenodd;clip-rule:evenodd;fill:#4555A5;}
	.st12{opacity:0.48;fill:#0FEAAC;}
</style>
<title>bg-rewards</title>
<g>
	<defs>
		<rect id="SVGID_1_" width="500" height="500"/>
	</defs>
	<clipPath id="SVGID_2_">
		<use xlink:href="#SVGID_1_"  style="overflow:visible;"/>
	</clipPath>
	<g class="st0">
		<path class="st1" d="M441.5,114c0,0.1,0.1,0.3,0.2,0.4C441.7,113.2,441.1,113,441.5,114z"/>
		<path class="st1" d="M441.5,115.4c-0.1,0.2-0.1,0.3-0.2,0.5C441.4,115.8,441.4,115.6,441.5,115.4z"/>
		<path class="st2" d="M445,102.1L445,102.1c0,0.1,0,0.2,0,0.2V102.1z"/>
		<path class="st2" d="M457,124.8L457,124.8z"/>
		<path class="st2" d="M457,124.7v0.1l0,0V124.7z"/>
		<path class="st2" d="M457,121.7L457,121.7z"/>
		<path class="st2" d="M457,124.8L457,124.8L457,124.8z"/>
		<path class="st2" d="M456,123.2c0.5,0.4,0.9,0.9,1,1.6v-0.1c0-0.9,0-1.9,0-2.8v-0.1C456.9,122.4,456.6,122.9,456,123.2z"/>
		<path class="st2" d="M445.7,131.5c-0.1,0.7-0.1,1.3,0,2c0-0.1,0-0.1,0-0.2C445.7,132.7,445.6,132.1,445.7,131.5z"/>
		<path class="st2" d="M445.7,131.5C445.7,131.3,445.7,131.3,445.7,131.5c-0.1,0.5-0.1,1.1-0.1,1.7c0,0.1,0,0.1,0,0.2s0,0,0.1-0.1
			s0-0.2,0-0.3s0.1-0.4,0.1-0.6v-0.1C445.8,132.1,445.8,131.8,445.7,131.5z"/>
		<polygon class="st3" points="470,183.4 477.2,192.1 472.9,195 466.2,186.6 		"/>
		<polygon class="st4" points="393,119.6 393.7,108.3 398.8,109.1 397.9,119.9 		"/>
		<polygon class="st5" points="435.7,248 426.4,241.7 429.7,237.7 438.5,243.9 		"/>
		<polygon class="st6" points="45.6,185.4 56.7,184 57,189.2 46.2,190.3 		"/>
		<polygon class="st5" points="38.9,37 31,29 34.9,25.7 42.4,33.5 		"/>
		<polygon class="st7" points="43.7,378.4 51.9,386.1 48.1,389.6 40.3,382 		"/>
		<polygon class="st8" points="103,114.9 98.6,104.6 103.5,102.9 107.5,112.9 		"/>
		<circle class="st9" cx="463.6" cy="114.4" r="13.9"/>
		<circle class="st10" cx="71" cy="302.7" r="10.7"/>
		<rect x="47" y="83" transform="matrix(0.866 0.5 -0.5 0.866 53.8196 -15.8573)" class="st11" width="19" height="19"/>
		<polygon class="st6" points="441.8,66.7 448.6,57.7 452.4,61.2 445.7,69.7 		"/>
	</g>
</g>
<path class="st12" d="M446.9,408.6l25.5-10l-21.4-17.1L446.9,408.6z M451.5,402.8l2.2-14.4l11.4,9.1L451.5,402.8z"/>
</svg>
