<svg id="Layer_1" data-name="Layer 1" xmlns="http://www.w3.org/2000/svg" xmlns:xlink="http://www.w3.org/1999/xlink" viewBox="0 0 1169.9 114"><defs><style>.cls-1{fill:none;}.cls-2{clip-path:url(#clip-path);}.cls-3{fill:#3f51b5;}.cls-4{fill:#617ae2;opacity:0.38;isolation:isolate;}</style><clipPath id="clip-path" transform="translate(-0.1)"><path class="cls-1" d="M9.7,0H1160.4a9.54,9.54,0,0,1,9.6,9.48v95a9.54,9.54,0,0,1-9.6,9.48H9.7a9.54,9.54,0,0,1-9.6-9.48v-95A9.41,9.41,0,0,1,9.7,0Z"/></clipPath></defs><title>lg-md-android-dowbload-banner_Background</title><g class="cls-2"><path class="cls-3" d="M9.7,0H1160.4a9.54,9.54,0,0,1,9.6,9.48v95a9.54,9.54,0,0,1-9.6,9.48H9.7a9.54,9.54,0,0,1-9.6-9.48v-95A9.41,9.41,0,0,1,9.7,0Z" transform="translate(-0.1)"/><path class="cls-4" d="M212.59,114l957-111.93-1.2,111.24Z" transform="translate(-0.1)"/></g></svg>