<svg id="Layer_2" data-name="Layer 2" xmlns="http://www.w3.org/2000/svg" viewBox="0 0 500 375"><defs><style>.cls-1{opacity:0.13;}.cls-2{fill:#7885cb;}.cls-10,.cls-16,.cls-3{fill:#fff;}.cls-4,.cls-5{fill:#3f51b5;}.cls-4{opacity:0.1;}.cls-6{fill:#888;}.cls-7{fill:#dadada;}.cls-8{fill:#a7a7a7;}.cls-9{opacity:0.14;}.cls-10{opacity:0.24;}.cls-11{fill:#ed0082;}.cls-12{fill:#ede5ed;}.cls-13{fill:#ea9212;}.cls-14{fill:#ddd4db;}.cls-15{fill:#ff9d00;}.cls-16{opacity:0.51;}</style></defs><title>DowntimePage</title><g class="cls-1"><path d="M54.34,86.31v22.14c0,8.24,7.95,14.92,17.77,14.92h0c9.82,0,17.78-6.68,17.78-14.92V86.31Z"/><path d="M19.34,86.31v22.14c0,8.24,8,14.92,17.77,14.92h0c9.82,0,17.78-6.68,17.78-14.92V86.31Z"/><path d="M89.89,86.31v22.14c0,8.24,8,14.92,17.77,14.92h0c9.82,0,17.78-6.68,17.78-14.92V86.31Z"/><path d="M125.44,86.31v22.14c0,8.24,7.95,14.92,17.77,14.92h0c9.82,0,17.78-6.68,17.78-14.92V86.31Z"/><path d="M161,86.31v22.14c0,8.24,7.95,14.92,17.77,14.92h0c9.82,0,17.78-6.68,17.78-14.92V86.31Z"/><path d="M196.54,86.31v22.14c0,8.24,8,14.92,17.77,14.92h0c9.82,0,17.78-6.68,17.78-14.92V86.31Z"/><path d="M232.09,86.31v22.14c0,8.24,7.95,14.92,17.77,14.92h0c9.82,0,17.78-6.68,17.78-14.92V86.31Z"/><path d="M267.64,86.31v22.14c0,8.24,7.95,14.92,17.77,14.92h0c9.82,0,17.78-6.68,17.78-14.92V86.31Z"/><path d="M303.19,86.31v22.14c0,8.24,7.95,14.92,17.77,14.92h0c9.82,0,17.78-6.68,17.78-14.92V86.31Z"/><path d="M338.74,86.31v22.14c0,8.24,7.95,14.92,17.77,14.92h0c9.82,0,17.78-6.68,17.78-14.92V86.31Z"/><path d="M374.29,86.31v22.14c0,8.24,7.95,14.92,17.77,14.92h0c9.82,0,17.78-6.68,17.78-14.92V86.31Z"/><path d="M409.84,86.31v22.14c0,8.24,8,14.92,17.77,14.92h0c9.82,0,17.78-6.68,17.78-14.92V86.31Z"/><path d="M445.41,86.31v22.14c0,8.24,7.95,14.92,17.77,14.92h0c9.82,0,17.78-6.68,17.78-14.92V86.31Z"/></g><rect class="cls-2" x="44.57" y="134.97" width="132.14" height="133.69"/><rect class="cls-3" x="49.39" y="141.08" width="122.75" height="121.34" transform="translate(312.52 90.98) rotate(90)"/><polygon class="cls-4" points="74.91 140.37 50.1 165.18 50.1 171.95 81.68 140.37 74.91 140.37"/><polygon class="cls-4" points="103.86 140.37 50.1 194.13 50.1 234.73 144.46 140.37 103.86 140.37"/><polygon class="cls-4" points="171.44 186.37 171.44 140.37 166.26 140.37 50.1 256.65 50.1 263.12 94.77 263.12 171.44 186.37"/><polygon class="cls-4" points="171.44 216.4 124.84 263 137.25 263 171.44 228.8 171.44 216.4"/><rect class="cls-2" x="322.94" y="134.97" width="132.14" height="133.69"/><rect class="cls-3" x="327.77" y="141.08" width="122.75" height="121.34" transform="translate(590.9 -187.4) rotate(90)"/><polygon class="cls-4" points="353.29 140.37 328.48 165.18 328.48 171.95 360.06 140.37 353.29 140.37"/><polygon class="cls-4" points="382.24 140.37 328.48 194.13 328.48 234.73 422.84 140.37 382.24 140.37"/><polygon class="cls-4" points="449.82 186.37 449.82 140.37 444.64 140.37 328.48 256.65 328.48 263.12 373.14 263.12 449.82 186.37"/><polygon class="cls-4" points="449.82 216.4 403.22 263 415.63 263 449.82 228.8 449.82 216.4"/><rect class="cls-2" x="156.96" y="206.32" width="185.25" height="103.18" transform="translate(507.49 8.33) rotate(90)"/><rect class="cls-5" x="160.47" y="209.84" width="178.22" height="96.14" transform="translate(507.49 8.33) rotate(90)"/><rect class="cls-2" x="204.21" y="171.5" width="90.75" height="172.82"/><rect class="cls-3" x="213.57" y="181.62" width="72.03" height="71.55" transform="translate(466.98 -32.18) rotate(90)"/><path class="cls-5" d="M211.62,259.89v14.8a2.71,2.71,0,1,1-5.42,0v-14.8a2.71,2.71,0,0,1,5.42,0Z"/><path class="cls-2" d="M209.45,271.35a.55.55,0,0,0-.54-.55.55.55,0,0,0-.55.55.56.56,0,0,0,.26.46v1.13a.36.36,0,0,0,0,.11s0,0,0,0l0,.05.1.07.11,0,.11,0a.46.46,0,0,0,.16-.16.36.36,0,0,0,0-.11v-1.13A.56.56,0,0,0,209.45,271.35Z"/><path class="cls-5" d="M207.57,265.07v0a1.68,1.68,0,0,0,1.68,1.68h0a2.12,2.12,0,0,0,1.55-.68l.38-.41a2.32,2.32,0,0,1,1.47-.72,9.13,9.13,0,0,1,5.52,1.31.65.65,0,0,0,.82-.15h0a.72.72,0,0,0-.25-1.1c-1.4-.69-4.71-1.89-10.07-1.26A1.3,1.3,0,0,0,207.57,265.07Z"/><polygon class="cls-4" points="238.96 181.39 213.81 206.54 213.81 215.65 248.07 181.39 238.96 181.39"/><polygon class="cls-4" points="285.36 181.39 258.29 181.39 213.81 225.87 213.81 253.41 220.5 253.41 285.36 188.55 285.36 181.39"/><polygon class="cls-4" points="285.36 203.19 235.13 253.41 258.88 253.41 285.36 226.93 285.36 203.19"/><polygon class="cls-6" points="246.42 199.07 245.83 198.74 216.4 234.27 217.38 234.13 246.42 199.07"/><polygon class="cls-6" points="246.36 198.66 245.89 199.15 283.49 224.82 284.47 224.68 246.36 198.66"/><rect class="cls-7" x="214.74" y="225.59" width="73.42" height="22.2" rx="3.3" transform="translate(-30.56 37.39) rotate(-8.02)"/><path class="cls-8" d="M248.63,198.34a2.56,2.56,0,1,1-2.89-2.18A2.56,2.56,0,0,1,248.63,198.34Z"/><path class="cls-9" d="M246.27,199.89a2.57,2.57,0,0,1-2.71-1.52,2.66,2.66,0,0,0,0,.69,2.56,2.56,0,1,0,5.07-.72,2.48,2.48,0,0,0-.18-.66A2.57,2.57,0,0,1,246.27,199.89Z"/><path class="cls-10" d="M286.71,223.84l.84,6c-6.52,5.76-19.65,10.88-35.23,13.08s-29.61.9-37.47-2.84l-.84-6a3.29,3.29,0,0,1,2.81-3.72L283,221A3.3,3.3,0,0,1,286.71,223.84Z"/><rect class="cls-11" x="216.67" y="227.51" width="69.56" height="18.35" rx="1.37" transform="translate(-30.56 37.39) rotate(-8.02)"/><rect class="cls-5" x="191.94" y="291.92" width="64.73" height="19.46" transform="translate(525.96 77.34) rotate(90)"/><rect class="cls-5" x="217.22" y="291.92" width="64.73" height="19.46" transform="translate(551.23 52.07) rotate(90)"/><rect class="cls-5" x="242.49" y="291.92" width="64.73" height="19.46" transform="translate(576.5 26.79) rotate(90)"/><rect class="cls-2" x="207.31" y="130.55" width="40.67" height="11.77"/><rect class="cls-2" x="251.66" y="130.55" width="40.67" height="11.77"/><rect class="cls-2" x="229.49" y="146.04" width="40.67" height="11.77"/><polygon class="cls-12" points="64.88 24.46 31.81 24.46 19.05 80.18 54.6 80.18 64.88 24.46"/><path class="cls-13" d="M54.34,80.31v22.14c0,8.24,7.95,14.92,17.77,14.92h0c9.82,0,17.78-6.68,17.78-14.92V80.31Z"/><path class="cls-14" d="M89.89,80.31v22.14c0,8.24,8,14.92,17.77,14.92h0c9.82,0,17.78-6.68,17.78-14.92V80.31Z"/><path class="cls-13" d="M125.44,80.31v22.14c0,8.24,7.95,14.92,17.77,14.92h0c9.82,0,17.78-6.68,17.78-14.92V80.31Z"/><path class="cls-14" d="M161,80.31v22.14c0,8.24,7.95,14.92,17.77,14.92h0c9.82,0,17.78-6.68,17.78-14.92V80.31Z"/><path class="cls-13" d="M196.54,80.31v22.14c0,8.24,8,14.92,17.77,14.92h0c9.82,0,17.78-6.68,17.78-14.92V80.31Z"/><path class="cls-14" d="M232.09,80.31v22.14c0,8.24,7.95,14.92,17.77,14.92h0c9.82,0,17.78-6.68,17.78-14.92V80.31Z"/><path class="cls-13" d="M267.64,80.31v22.14c0,8.24,7.95,14.92,17.77,14.92h0c9.82,0,17.78-6.68,17.78-14.92V80.31Z"/><path class="cls-14" d="M303.19,80.31v22.14c0,8.24,7.95,14.92,17.77,14.92h0c9.82,0,17.78-6.68,17.78-14.92V80.31Z"/><path class="cls-13" d="M338.74,80.31v22.14c0,8.24,7.95,14.92,17.77,14.92h0c9.82,0,17.78-6.68,17.78-14.92V80.31Z"/><path class="cls-14" d="M374.29,80.31v22.14c0,8.24,7.95,14.92,17.77,14.92h0c9.82,0,17.78-6.68,17.78-14.92V80.31Z"/><path class="cls-13" d="M409.84,80.31v22.14c0,8.24,8,14.92,17.77,14.92h0c9.82,0,17.78-6.68,17.78-14.92V80.31Z"/><path class="cls-14" d="M54.6,80.18v22.14c0,8.24-8,14.93-17.77,14.93h0c-9.82,0-17.78-6.69-17.78-14.93V80.18Z"/><path class="cls-14" d="M445.41,80.31v22.14c0,8.24,7.95,14.92,17.77,14.92h0c9.82,0,17.78-6.68,17.78-14.92V80.31Z"/><rect class="cls-12" x="232.09" y="24.47" width="35.55" height="55.84"/><polygon class="cls-15" points="232.09 24.46 198.39 24.46 196.54 80.31 232.09 80.31 232.09 24.46"/><polygon class="cls-12" points="198.39 24.46 164.81 24.46 160.99 80.31 196.54 80.31 198.39 24.46"/><polygon class="cls-15" points="164.81 24.46 131.37 24.46 125.44 80.31 160.99 80.31 164.81 24.46"/><polygon class="cls-12" points="131.37 24.46 97.79 24.46 89.89 80.31 125.44 80.31 131.37 24.46"/><polygon class="cls-15" points="97.79 24.46 64.72 24.46 54.34 80.31 89.89 80.31 97.79 24.46"/><polygon class="cls-15" points="267.63 24.46 301.33 24.46 303.19 80.31 267.63 80.31 267.63 24.46"/><polygon class="cls-12" points="301.33 24.46 334.91 24.46 338.74 80.31 303.19 80.31 301.33 24.46"/><polygon class="cls-15" points="334.91 24.46 368.35 24.46 374.29 80.31 338.74 80.31 334.91 24.46"/><polygon class="cls-12" points="368.35 24.46 401.93 24.46 409.83 80.31 374.29 80.31 368.35 24.46"/><polygon class="cls-15" points="401.93 24.46 435 24.46 445.38 80.31 409.83 80.31 401.93 24.46"/><polygon class="cls-12" points="435.13 24.59 468.2 24.59 480.96 80.31 445.41 80.31 435.13 24.59"/><rect class="cls-16" x="19.04" y="80.31" width="461.63" height="1.31"/></svg>