<svg id="Layer_1" data-name="Layer 1" xmlns="http://www.w3.org/2000/svg" xmlns:xlink="http://www.w3.org/1999/xlink" viewBox="0 0 36.63 19.19"><defs><style>.cls-1{fill:#fff;}.cls-2{fill:#0feaac;opacity:0.66;}.cls-3{fill:#b3ed00;opacity:0.3;}.cls-4{fill:#ff5b00;opacity:0.41;}.cls-5{fill:#455a64;opacity:0.24;}.cls-6{mask:url(#mask);}.cls-7{fill:#ff9d00;}.cls-8{mask:url(#mask-2);}.cls-9{fill:#a8b0dd;}.cls-10{mask:url(#mask-3);}.cls-11{fill:url(#linear-gradient);}.cls-12{mask:url(#mask-4);}.cls-13{fill:url(#linear-gradient-2);}.cls-14{fill:#406ebf;}.cls-15{fill:none;}.cls-16{mask:url(#mask-5-2);}.cls-17{fill:#40d4e6;}.cls-18{mask:url(#mask-6);}.cls-19{mask:url(#mask-7-3);}.cls-20{fill:url(#linear-gradient-3);}.cls-21{mask:url(#mask-8);}.cls-22{fill:url(#linear-gradient-4);}.cls-23{fill:#ff7e37;}</style><mask id="mask" x="24.97" y="3.51" width="5.21" height="13.81" maskUnits="userSpaceOnUse"><g id="mask-5"><path id="path-4" class="cls-1" d="M25.42,3.53c.45-.21.9,1.22.9,1.22.76,1,1.83-.33,1.73,1.18-.18,2.64,3,.83,1.55,3.59s1.31,1.56.39,3.78.27,4.87-1.12,3.78c0,0-1.22-2.68-2.49-3.51s.76-1.81.36-2.94c-.57-1.64-2-1.57-1-3.33s-1.89-3-.37-3.75"/></g></mask><mask id="mask-2" x="28.12" y="7.13" width="3.62" height="9.56" maskUnits="userSpaceOnUse"><g id="mask-7"><path id="path-6" class="cls-1" d="M31.11,7.15c-.55-.19-.44.88-.67,1.66s-2.6.34-1.61,2.32-1.26.66-.58,2.38.06,3.57.79,3.1.41-2.64,1.17-2.9.88-.56.13-1.26,2-1.4,1.3-2.81.11-2.28-.53-2.5"/></g></mask><mask id="mask-3" x="27.29" y="15.61" width="3.34" height="2.99" maskUnits="userSpaceOnUse"><g id="mask-9"><polyline id="path-8" class="cls-1" points="30.63 15.61 29.84 18.6 28.08 18.6 27.29 15.61 30.63 15.61"/></g></mask><linearGradient id="linear-gradient" x1="-157.22" y1="-43.12" x2="-157.13" y2="-43.12" gradientTransform="matrix(38.65, 0, 0, -34.62, 6103.56, -1475.84)" gradientUnits="userSpaceOnUse"><stop offset="0" stop-color="#ff9240"/><stop offset="1" stop-color="#ffce45"/></linearGradient><mask id="mask-4" x="27.29" y="15.61" width="3.34" height="2.99" maskUnits="userSpaceOnUse"><g id="mask-12"><path id="path-11" class="cls-1" d="M30.63,15.61s-1.74.33-1.74,3h-.82l-.79-3h3.34"/></g></mask><linearGradient id="linear-gradient-2" x1="-157.22" y1="-43.12" x2="-157.13" y2="-43.12" gradientTransform="matrix(38.65, 0, 0, -34.62, 6103.56, -1475.84)" gradientUnits="userSpaceOnUse"><stop offset="0" stop-color="#c87331"/><stop offset="1" stop-color="#ffce45"/></linearGradient><mask id="mask-5-2" x="4.02" y="1.48" width="5.97" height="15.83" maskUnits="userSpaceOnUse"><g id="mask-5-3" data-name="mask-5"><path id="path-4-2" data-name="path-4" class="cls-1" d="M4.55,1.51c.51-.25,1,1.39,1,1.39.87,1.16,2.1-.38,2,1.35-.21,3,3.48,1,1.78,4.11s1.5,1.79.45,4.33S10.09,18.27,8.5,17c0,0-1.4-3.07-2.85-4s.87-2.08.41-3.37C5.41,7.75,3.82,7.82,5,5.8S2.8,2.34,4.55,1.51"/></g></mask><mask id="mask-6" x="7.64" y="5.63" width="4.15" height="10.95" maskUnits="userSpaceOnUse"><g id="mask-7-2" data-name="mask-7"><path id="path-6-2" data-name="path-6" class="cls-1" d="M11.06,5.65c-.63-.22-.5,1-.77,1.91s-3,.39-1.84,2.66S7,11,7.78,12.94s.07,4.08.9,3.55.47-3,1.34-3.32,1-.64.15-1.44,2.26-1.6,1.49-3.22.13-2.61-.6-2.86"/></g></mask><mask id="mask-7-3" x="6.69" y="15.34" width="3.83" height="3.43" maskUnits="userSpaceOnUse"><g id="mask-9-2" data-name="mask-9"><polyline id="path-8-2" data-name="path-8" class="cls-1" points="10.52 15.34 9.61 18.77 7.59 18.77 6.69 15.34 10.52 15.34"/></g></mask><linearGradient id="linear-gradient-3" x1="-157.75" y1="-43.12" x2="-157.65" y2="-43.12" xlink:href="#linear-gradient"/><mask id="mask-8" x="6.69" y="15.34" width="3.83" height="3.43" maskUnits="userSpaceOnUse"><g id="mask-12-2" data-name="mask-12"><path id="path-11-2" data-name="path-11" class="cls-1" d="M10.52,15.34s-2,.37-2,3.43H7.59l-.9-3.43h3.83"/></g></mask><linearGradient id="linear-gradient-4" x1="-157.75" y1="-43.12" x2="-157.65" y2="-43.12" xlink:href="#linear-gradient-2"/></defs><title>earned</title><path class="cls-2" d="M29.51,18.09a.45.45,0,0,0,.45.45h2.26V16.28H29.51Zm3.62.45h2.26a.45.45,0,0,0,.45-.45V16.28H33.12ZM35.84,14h-.59a1.23,1.23,0,0,0,.14-.57,1.25,1.25,0,0,0-1.24-1.24c-.59,0-1,.3-1.46,1-.49-.66-.87-1-1.46-1A1.25,1.25,0,0,0,30,13.45a1.21,1.21,0,0,0,.14.57h-.62a.45.45,0,0,0-.45.45V15.6a.23.23,0,0,0,.23.23h6.78a.23.23,0,0,0,.23-.23V14.47A.45.45,0,0,0,35.84,14Zm-4.61,0a.57.57,0,1,1,0-1.13c.28,0,.49,0,1.22,1.13Zm2.91,0H32.93c.73-1.08.93-1.13,1.22-1.13a.57.57,0,0,1,0,1.13Z"/><rect class="cls-3" x="11.38" y="7.06" width="14.36" height="6.48"/><rect class="cls-4" x="11.38" y="14.82" width="14.36" height="2.31"/><rect class="cls-5" x="0.02" y="18.47" width="36.6" height="0.44"/><g id="Group-9"><g class="cls-6"><path id="Fill-7" class="cls-7" d="M25.42,3.53c.45-.21.9,1.22.9,1.22.76,1,1.83-.33,1.73,1.18-.18,2.64,3,.83,1.55,3.59s1.31,1.56.39,3.78.27,4.87-1.12,3.78c0,0-1.22-2.68-2.49-3.51s.76-1.81.36-2.94c-.57-1.64-2-1.57-1-3.33s-1.89-3-.37-3.75"/></g></g><path id="Fill-10" class="cls-1" d="M29.31,16.06c-.6-.42-1.31-3.38-1.35-5.13a2.48,2.48,0,0,0-.52-1.61,1.36,1.36,0,0,1-.31-1.22,1.86,1.86,0,0,0-.36-1.72l.07-.08a1.92,1.92,0,0,1,.39,1.81,1.26,1.26,0,0,0,.29,1.14,2.59,2.59,0,0,1,.54,1.66c0,1.89.77,4.67,1.31,5.05l-.06.08"/><g id="Group-19"><g class="cls-8"><path id="Fill-17" class="cls-9" d="M31.11,7.15c-.55-.19-.44.88-.67,1.66s-2.6.34-1.61,2.32-1.26.66-.58,2.38.06,3.57.79,3.1.41-2.64,1.17-2.9.88-.56.13-1.26,2-1.4,1.3-2.81.11-2.28-.53-2.5"/></g></g><path id="Fill-20" class="cls-1" d="M29.38,16.53c-.07-.3-.66-2.89-.11-3.2s.48-1.35.4-2.37,1.09-1.32,1.14-1.34l0,.08s-1.14.42-1.08,1.25c.08,1,.09,2.15-.44,2.45s0,2.32.15,3.11l-.09,0"/><g id="Group-23"><g class="cls-10"><polyline id="Fill-21" class="cls-11" points="30.63 15.61 29.84 18.6 28.08 18.6 27.29 15.61 30.63 15.61"/></g></g><g id="Group-26"><g class="cls-12"><path id="Fill-24" class="cls-13" d="M30.63,15.61s-1.74.33-1.74,3h-.82l-.79-3h3.34"/></g></g><path class="cls-14" d="M25,5.88H23.16a2.53,2.53,0,0,0-4.49-2.24l-.42.57-.42-.57a2.53,2.53,0,0,0-4.49,2.24H11.5A1.67,1.67,0,0,0,9.82,7.56v9.28a1.68,1.68,0,0,0,1.69,1.69H25a1.68,1.68,0,0,0,1.69-1.69V7.56A1.68,1.68,0,0,0,25,5.88ZM20.78,4.19a.84.84,0,1,1-.84.84A.85.85,0,0,1,20.78,4.19Zm-5.06,0a.84.84,0,1,1-.84.84A.85.85,0,0,1,15.72,4.19ZM25,16.84H11.5V15.16H25Zm0-4.22H11.5V7.56h4.29L14,10l1.37,1,2-2.73.84-1.15.84,1.15,2,2.73,1.37-1L20.71,7.56H25Z"/><path class="cls-15" d="M8.38.63H28.63V20.88H8.38Z"/><g id="Group-9-2" data-name="Group-9"><g class="cls-16"><path id="Fill-7-2" data-name="Fill-7" class="cls-17" d="M4.55,1.51c.51-.25,1,1.39,1,1.39.87,1.16,2.1-.38,2,1.35-.21,3,3.48,1,1.78,4.11s1.5,1.79.45,4.33S10.09,18.27,8.5,17c0,0-1.4-3.07-2.85-4s.87-2.08.41-3.37C5.41,7.75,3.82,7.82,5,5.8S2.8,2.34,4.55,1.51"/></g></g><path id="Fill-10-2" data-name="Fill-10" class="cls-1" d="M9,15.86C8.31,15.38,7.5,12,7.45,10a2.84,2.84,0,0,0-.6-1.84,1.56,1.56,0,0,1-.35-1.39,2.13,2.13,0,0,0-.41-2l.08-.09a2.2,2.2,0,0,1,.45,2.08,1.45,1.45,0,0,0,.33,1.31A3,3,0,0,1,7.57,10c.05,2.16.88,5.35,1.5,5.79L9,15.86"/><g id="Group-19-2" data-name="Group-19"><g class="cls-18"><path id="Fill-17-2" data-name="Fill-17" class="cls-9" d="M11.06,5.65c-.63-.22-.5,1-.77,1.91s-3,.39-1.84,2.66S7,11,7.78,12.94s.07,4.08.9,3.55.47-3,1.34-3.32,1-.64.15-1.44,2.26-1.6,1.49-3.22.13-2.61-.6-2.86"/></g></g><path id="Fill-20-2" data-name="Fill-20" class="cls-1" d="M9.08,16.4C9,16.06,8.32,13.08,9,12.73s.55-1.55.46-2.71,1.25-1.51,1.3-1.53l0,.09S9.44,9.05,9.51,10c.09,1.19.1,2.46-.51,2.81s0,2.66.17,3.56l-.1,0"/><g id="Group-23-2" data-name="Group-23"><g class="cls-19"><polyline id="Fill-21-2" data-name="Fill-21" class="cls-20" points="10.52 15.34 9.61 18.77 7.59 18.77 6.69 15.34 10.52 15.34"/></g></g><g id="Group-26-2" data-name="Group-26"><g class="cls-21"><path id="Fill-24-2" data-name="Fill-24" class="cls-22" d="M10.52,15.34s-2,.37-2,3.43H7.59l-.9-3.43h3.83"/></g></g><path class="cls-23" d="M2.58,18.17a.32.32,0,0,0,.32.32H4.53V16.87H2.58Zm2.59.32H6.79a.32.32,0,0,0,.32-.32v-1.3H5.17Zm1.94-3.24H6.69a.88.88,0,0,0,.1-.4A.89.89,0,0,0,5.9,14c-.42,0-.69.22-1,.69-.35-.48-.62-.69-1-.69a.89.89,0,0,0-.89.89.87.87,0,0,0,.1.4H2.58a.32.32,0,0,0-.32.32v.81a.16.16,0,0,0,.16.16H7.28a.16.16,0,0,0,.16-.16v-.81A.32.32,0,0,0,7.12,15.25Zm-3.3,0a.4.4,0,0,1,0-.81c.2,0,.35,0,.87.81Zm2.09,0H5c.52-.77.67-.81.87-.81a.4.4,0,0,1,0,.81Z"/></svg>