<svg id="Image" xmlns="http://www.w3.org/2000/svg" xmlns:xlink="http://www.w3.org/1999/xlink" viewBox="0 0 404 214.17"><defs><style>.cls-1,.cls-12,.cls-14{fill:none;}.cls-2{fill:#e9e9f6;}.cls-3{fill:#aad8ce;}.cls-4{fill:#5dc1d2;}.cls-16,.cls-5{fill:#8288c2;}.cls-5{opacity:0.59;}.cls-11,.cls-16,.cls-5{isolation:isolate;}.cls-6{clip-path:url(#clip-path);}.cls-7{fill:#1d1e1b;}.cls-8{fill:#b1cb08;}.cls-9{fill:#7d3e24;}.cls-10{fill:#ffdb83;}.cls-11{fill:#f18948;opacity:0.7;}.cls-12{stroke:#8288c2;}.cls-12,.cls-14{stroke-miterlimit:10;stroke-width:5.1px;}.cls-13{fill:#e9510e;}.cls-14{stroke:#ea9210;}.cls-15{fill:#38378d;}.cls-16{opacity:0.5;}.cls-17{clip-path:url(#clip-path-2);}.cls-18{fill:#d24516;}.cls-19{fill:#1d1d1b;}.cls-20{fill:#dc9f66;}.cls-21{fill:#c08f64;}.cls-22{fill:#fff;}.cls-23{fill:#eb5d22;}.cls-24{fill:#f59a27;}.cls-25{fill:#fed32b;}.cls-26{fill:#aecb2e;}.cls-27{fill:#61bb96;}.cls-28{fill:#59c0d1;}</style><clipPath id="clip-path"><circle class="cls-1" cx="278.29" cy="149.12" r="55.95"/></clipPath><clipPath id="clip-path-2"><circle class="cls-1" cx="141.36" cy="65.21" r="55.97"/></clipPath></defs><circle class="cls-2" cx="214.82" cy="105.63" r="94.69"/><circle class="cls-3" cx="214.16" cy="105.3" r="68.6"/><circle class="cls-4" cx="326.69" cy="173.36" r="9.42" transform="matrix(0.32, -0.95, 0.95, 0.32, 58.91, 428.45)"/><circle class="cls-5" cx="278.29" cy="149.12" r="55.95"/><g class="cls-6"><path class="cls-7" d="M264.83,128.37A14.77,14.77,0,1,1,250,113.65h0a14.76,14.76,0,0,1,14.82,14.71Z"/><path class="cls-7" d="M279.29,160.39c-5,.22-9.35-1.23-11.92-3.78-6.95-6.87-10.06-23.44.2-32.94,12.92-13.26,36-9.59,38.91,5.64C308.77,137.82,285.1,160.14,279.29,160.39Z"/><path class="cls-8" d="M317.36,210.81c-3.43-8.24-14.3-14.44-21.69-32.13l-17.6.2c-12,4.36-17.86,23-18.48,31.93Z"/><path class="cls-9" d="M311.67,148.73c-.8-4.94-4.22-13.1-5.1-19.45-4.21-2.91-10.77-4.63-17.21,1.37-3.14,2.94-5.12,7.91-7.23,14.44-1.62-1.17-3.37-1.56-4.78-.86-2.52,1.25-3,5.51-1,9.51a15.25,15.25,0,0,0,2.63,3.91l-.12,21.22c5.79,1.92,11.3,2.35,16.92,0V168.09h4.08a5.83,5.83,0,0,0,4.1-1.58,5.46,5.46,0,0,0,1.69-3.95L307.36,152S311.85,152.25,311.67,148.73Z"/><path class="cls-10" d="M279.36,176.17a8.63,8.63,0,1,1,8.63-8.64,8.63,8.63,0,0,1-8.63,8.64Zm0-15.4a6.77,6.77,0,1,0,6.76,6.78h0a6.76,6.76,0,0,0-6.76-6.77Z"/><path class="cls-10" d="M280.69,157.65a1.78,1.78,0,1,1-1.78-1.78h0a1.76,1.76,0,0,1,1.77,1.76h0Z"/></g><circle class="cls-11" cx="189.89" cy="169.06" r="9.47"/><circle class="cls-12" cx="225.44" cy="197.28" r="9.47"/><circle class="cls-13" cx="73.72" cy="47.67" r="6.54"/><circle class="cls-4" cx="96.56" cy="22.68" r="18.27"/><circle class="cls-14" cx="85.76" cy="76.26" r="8.72"/><circle class="cls-15" cx="135.94" cy="171.47" r="27.88"/><circle class="cls-16" cx="141.36" cy="65.21" r="55.97"/><g class="cls-17"><path class="cls-18" d="M182.19,124.48l-1.43-14.18c0-7.87-7.24-14.22-16.17-14.22h-55c-12-.28-19.83,9-19.75,18.49l-.14,9.91Z"/></g><path class="cls-19" d="M159.46,47c21.58-10.57-3-31.15-18.88-15.83-1.3,1.83-7.18,7.65-12,7.65-7.92-.27-15.06,5.32-12.22,15.11l7.3,17.41C140,69.9,150.58,58.8,159.46,47Z"/><path class="cls-20" d="M165.18,65.21c-2.88-4.5-5.47-13.27-5.72-17.77H146.59c-1.09,0-2-.06-2.78.78a3,3,0,0,0-1,2.55V63.28l-19,7.68-.45,25.53A19,19,0,0,0,149,96.41V87.73c7.37-.22,11.14-5.65,10.84-12V70c0-1.62.36-2.09,2-2.5C164.15,67.34,165.55,66.73,165.18,65.21Z"/><path class="cls-21" d="M143.56,71.65a3.8,3.8,0,0,1-2.37-1.2,3.41,3.41,0,0,1-.93-2.47V62.65h-6.74V79.26c0,5.12,6.1,9.27,13.34,9.27S160,84.37,160,79.26V71.65Z"/><path class="cls-22" d="M145.54,62.3a8.88,8.88,0,1,1-8.88-8.88h0A8.88,8.88,0,0,1,145.54,62.3Z"/><path class="cls-22" d="M136.67,58.58a1.47,1.47,0,0,1-.5,1.94l-1.94.77c-.61.24-1.37-.23-1.7-1.06L124,39.35a1.44,1.44,0,0,1,.51-1.93l1.93-.77c.61-.25,1.38.22,1.71,1.06Z"/><path class="cls-22" d="M256.63,134.4h-88V73.74h88Zm-85-3h82V76.74h-82Z"/><polygon class="cls-22" points="222.61 101.39 220.87 98.94 253.62 75.61 253.62 75.11 214.04 40.13 171.86 74.73 203.58 98.64 201.78 101.05 168.77 76.17 168.77 73.39 214.12 36.19 256.62 73.75 256.62 77.16 222.61 101.39"/><path class="cls-22" d="M254.57,134.48l-30.88-30.4a14,14,0,0,0-11-5.07h0A14.8,14.8,0,0,0,202,103.65L171.15,134l-2.08-2.11,30.78-30.19A17.71,17.71,0,0,1,212.7,96.1h.21a17,17,0,0,1,13,6.09l30.73,30.25Z"/><path class="cls-22" d="M153.36,159a3.83,3.83,0,0,0-5.39,0h0l-19.3,19.3-6.19-6.18a3.83,3.83,0,0,0-5.41,5.41l8.89,8.89a3.84,3.84,0,0,0,5.42,0l22-22a3.54,3.54,0,0,0,1-4.9,1.33,1.33,0,0,0-.14-.19A.73.73,0,0,0,153.36,159Z"/><circle class="cls-22" cx="305.27" cy="6.07" r="2.72"/><circle class="cls-22" cx="305.27" cy="12.25" r="2.17"/><circle class="cls-22" cx="305.27" cy="17.53" r="1.74"/><circle class="cls-22" cx="305.27" cy="22.03" r="1.25"/><circle class="cls-22" cx="305.27" cy="25.74" r="0.74"/><circle class="cls-22" cx="305.27" cy="28.55" r="0.33"/><circle class="cls-22" cx="296.77" cy="7.57" r="2.72"/><circle class="cls-22" cx="298.88" cy="13.37" r="2.17"/><circle class="cls-22" cx="300.69" cy="18.34" r="1.74"/><circle class="cls-22" cx="302.23" cy="22.57" r="1.25"/><circle class="cls-22" cx="303.5" cy="26.04" r="0.74"/><circle class="cls-22" cx="304.46" cy="28.69" r="0.32"/><circle class="cls-22" cx="289.31" cy="11.9" r="2.72"/><circle class="cls-22" cx="293.27" cy="16.61" r="2.17"/><circle class="cls-22" cx="296.67" cy="20.67" r="1.74"/><circle class="cls-22" cx="299.56" cy="24.11" r="1.25"/><circle class="cls-22" cx="301.94" cy="26.94" r="0.74"/><circle class="cls-22" cx="303.75" cy="29.1" r="0.33"/><circle class="cls-22" cx="283.77" cy="18.51" r="2.72"/><circle class="cls-22" cx="289.11" cy="21.59" r="2.17"/><circle class="cls-22" cx="293.69" cy="24.23" r="1.74"/><circle class="cls-22" cx="297.58" cy="26.48" r="1.25"/><circle class="cls-22" cx="300.79" cy="28.34" r="0.74"/><circle class="cls-22" cx="303.24" cy="29.74" r="0.33"/><circle class="cls-22" cx="280.82" cy="26.6" r="2.72"/><circle class="cls-22" cx="286.89" cy="27.68" r="2.17"/><circle class="cls-22" cx="292.1" cy="28.6" r="1.74"/><circle class="cls-22" cx="296.53" cy="29.37" r="1.25"/><circle class="cls-22" cx="300.17" cy="30.02" r="0.74"/><circle class="cls-22" cx="302.96" cy="30.52" r="0.33"/><circle class="cls-22" cx="280.82" cy="35.23" r="2.72"/><circle class="cls-22" cx="286.89" cy="34.17" r="2.17"/><circle class="cls-22" cx="292.1" cy="33.24" r="1.74"/><circle class="cls-22" cx="296.53" cy="32.46" r="1.25"/><circle class="cls-22" cx="300.17" cy="31.81" r="0.74"/><circle class="cls-22" cx="302.96" cy="31.33" r="0.33"/><circle class="cls-22" cx="283.76" cy="43.33" r="2.72"/><circle class="cls-22" cx="289.11" cy="40.26" r="2.17"/><circle class="cls-22" cx="293.69" cy="37.62" r="1.74"/><circle class="cls-22" cx="297.58" cy="35.37" r="1.25"/><circle class="cls-22" cx="300.79" cy="33.51" r="0.74"/><circle class="cls-22" cx="303.23" cy="32.1" r="0.33"/><circle class="cls-22" cx="289.31" cy="49.94" r="2.72"/><circle class="cls-22" cx="293.28" cy="45.21" r="2.17"/><circle class="cls-22" cx="296.67" cy="41.17" r="1.74"/><circle class="cls-22" cx="299.56" cy="37.73" r="1.25"/><circle class="cls-22" cx="301.95" cy="34.89" r="0.74"/><circle class="cls-22" cx="303.76" cy="32.71" r="0.33"/><circle class="cls-22" cx="296.78" cy="54.26" r="2.72"/><circle class="cls-22" cx="298.89" cy="48.46" r="2.17"/><circle class="cls-22" cx="300.7" cy="43.49" r="1.74"/><circle class="cls-22" cx="302.24" cy="39.26" r="1.25"/><circle class="cls-22" cx="303.51" cy="35.78" r="0.74"/><circle class="cls-22" cx="304.47" cy="33.12" r="0.32"/><circle class="cls-22" cx="305.28" cy="55.76" r="2.72"/><circle class="cls-22" cx="305.28" cy="49.58" r="2.17"/><circle class="cls-22" cx="305.28" cy="44.3" r="1.74"/><circle class="cls-22" cx="305.28" cy="39.8" r="1.25"/><circle class="cls-22" cx="305.28" cy="36.1" r="0.74"/><circle class="cls-22" cx="305.28" cy="33.28" r="0.33"/><circle class="cls-22" cx="313.76" cy="54.26" r="2.72"/><circle class="cls-22" cx="311.65" cy="48.46" r="2.17"/><circle class="cls-22" cx="309.84" cy="43.49" r="1.74"/><circle class="cls-22" cx="308.31" cy="39.26" r="1.25"/><circle class="cls-22" cx="307.04" cy="35.78" r="0.74"/><circle class="cls-22" cx="306.07" cy="33.12" r="0.32"/><circle class="cls-22" cx="321.23" cy="49.94" r="2.72"/><circle class="cls-22" cx="317.28" cy="45.22" r="2.17" transform="translate(174.04 331.91) rotate(-71.56)"/><circle class="cls-22" cx="313.87" cy="41.17" r="1.74"/><circle class="cls-22" cx="310.98" cy="37.71" r="1.25"/><circle class="cls-22" cx="308.6" cy="34.89" r="0.74"/><circle class="cls-22" cx="306.78" cy="32.71" r="0.33"/><circle class="cls-22" cx="326.77" cy="43.33" r="2.72"/><circle class="cls-22" cx="321.45" cy="40.24" r="2.17" transform="translate(181.6 332.46) rotate(-71.56)"/><circle class="cls-22" cx="316.85" cy="37.6" r="1.74"/><circle class="cls-22" cx="312.95" cy="35.35" r="1.25"/><circle class="cls-22" cx="309.75" cy="33.49" r="0.74"/><circle class="cls-22" cx="307.3" cy="32.08" r="0.33"/><circle class="cls-22" cx="329.72" cy="35.23" r="2.72"/><circle class="cls-22" cx="323.64" cy="34.15" r="2.17"/><circle class="cls-22" cx="318.44" cy="33.24" r="1.74"/><circle class="cls-22" cx="314.01" cy="32.46" r="1.25"/><circle class="cls-22" cx="310.36" cy="31.81" r="0.74"/><circle class="cls-22" cx="307.59" cy="31.32" r="0.33"/><circle class="cls-22" cx="329.72" cy="26.6" r="2.72"/><circle class="cls-22" cx="323.64" cy="27.67" r="2.17"/><circle class="cls-22" cx="318.44" cy="28.59" r="1.74"/><circle class="cls-22" cx="314.01" cy="29.36" r="1.25"/><circle class="cls-22" cx="310.36" cy="30.02" r="0.74"/><circle class="cls-22" cx="307.58" cy="30.5" r="0.33"/><circle class="cls-22" cx="326.77" cy="18.5" r="2.72"/><circle class="cls-22" cx="321.43" cy="21.58" r="2.17" transform="translate(182.02 312) rotate(-68.2)"/><circle class="cls-22" cx="316.85" cy="24.21" r="1.74"/><circle class="cls-22" cx="312.96" cy="26.46" r="1.25"/><circle class="cls-22" cx="309.75" cy="28.32" r="0.74"/><circle class="cls-22" cx="307.3" cy="29.73" r="0.33"/><circle class="cls-22" cx="321.22" cy="11.88" r="2.72"/><circle class="cls-22" cx="317.26" cy="16.61" r="2.17" transform="translate(184.01 305.01) rotate(-68.2)"/><circle class="cls-22" cx="313.86" cy="20.67" r="1.74"/><circle class="cls-22" cx="310.97" cy="24.1" r="1.25"/><circle class="cls-22" cx="308.59" cy="26.94" r="0.74"/><circle class="cls-22" cx="306.78" cy="29.1" r="0.33"/><circle class="cls-22" cx="313.76" cy="7.57" r="2.72"/><circle class="cls-22" cx="311.65" cy="13.37" r="2.17"/><circle class="cls-22" cx="309.84" cy="18.34" r="1.74"/><circle class="cls-22" cx="308.3" cy="22.57" r="1.25"/><circle class="cls-22" cx="307.04" cy="26.04" r="0.74"/><circle class="cls-22" cx="306.07" cy="28.69" r="0.32"/><circle class="cls-23" cx="305.27" cy="6.07" r="2.72"/><circle class="cls-24" cx="305.27" cy="12.25" r="2.17"/><circle class="cls-25" cx="305.27" cy="17.53" r="1.74"/><circle class="cls-26" cx="305.27" cy="22.02" r="1.25"/><circle class="cls-27" cx="305.27" cy="25.74" r="0.74"/><circle class="cls-28" cx="305.27" cy="28.55" r="0.33"/><circle class="cls-23" cx="296.78" cy="7.57" r="2.72"/><circle class="cls-24" cx="298.89" cy="13.37" r="2.17"/><circle class="cls-25" cx="300.69" cy="18.35" r="1.74"/><circle class="cls-26" cx="302.23" cy="22.57" r="1.25"/><circle class="cls-27" cx="303.5" cy="26.04" r="0.74"/><circle class="cls-28" cx="304.46" cy="28.7" r="0.33"/><circle class="cls-23" cx="289.31" cy="11.88" r="2.72"/><circle class="cls-24" cx="293.27" cy="16.61" r="2.17"/><circle class="cls-25" cx="296.67" cy="20.67" r="1.74"/><circle class="cls-26" cx="299.56" cy="24.1" r="1.25"/><circle class="cls-27" cx="301.94" cy="26.94" r="0.74"/><circle class="cls-28" cx="303.76" cy="29.1" r="0.33"/><circle class="cls-23" cx="283.77" cy="18.51" r="2.72"/><circle class="cls-24" cx="289.11" cy="21.59" r="2.17"/><circle class="cls-25" cx="293.69" cy="24.23" r="1.74"/><circle class="cls-26" cx="297.58" cy="26.48" r="1.25"/><circle class="cls-27" cx="300.79" cy="28.33" r="0.74"/><circle class="cls-28" cx="303.24" cy="29.74" r="0.33"/><circle class="cls-23" cx="280.82" cy="26.6" r="2.72"/><circle class="cls-24" cx="286.89" cy="27.68" r="2.17"/><circle class="cls-25" cx="292.1" cy="28.6" r="1.74"/><circle class="cls-26" cx="296.53" cy="29.37" r="1.25"/><circle class="cls-27" cx="300.18" cy="30.02" r="0.74"/><circle class="cls-28" cx="302.96" cy="30.51" r="0.33"/><circle class="cls-23" cx="280.82" cy="35.24" r="2.72"/><circle class="cls-24" cx="286.89" cy="34.17" r="2.17"/><circle class="cls-25" cx="292.1" cy="33.24" r="1.74"/><circle class="cls-26" cx="296.53" cy="32.46" r="1.25"/><circle class="cls-27" cx="300.18" cy="31.81" r="0.74"/><circle class="cls-28" cx="302.96" cy="31.33" r="0.33"/><circle class="cls-23" cx="283.76" cy="43.35" r="2.72"/><circle class="cls-24" cx="289.11" cy="40.26" r="2.17"/><circle class="cls-25" cx="293.68" cy="37.62" r="1.74"/><circle class="cls-26" cx="297.58" cy="35.37" r="1.25"/><circle class="cls-27" cx="300.79" cy="33.51" r="0.74"/><circle class="cls-28" cx="303.23" cy="32.1" r="0.33"/><circle class="cls-23" cx="289.31" cy="49.94" r="2.72"/><circle class="cls-24" cx="293.28" cy="45.21" r="2.17"/><circle class="cls-25" cx="296.68" cy="41.17" r="1.74"/><circle class="cls-26" cx="299.57" cy="37.73" r="1.25"/><circle class="cls-27" cx="301.95" cy="34.89" r="0.74"/><circle class="cls-28" cx="303.76" cy="32.73" r="0.33"/><circle class="cls-23" cx="296.78" cy="54.26" r="2.72"/><circle class="cls-24" cx="298.89" cy="48.46" r="2.17"/><circle class="cls-25" cx="300.7" cy="43.49" r="1.74"/><circle class="cls-26" cx="302.24" cy="39.26" r="1.25"/><circle class="cls-27" cx="303.51" cy="35.78" r="0.74"/><circle class="cls-28" cx="304.47" cy="33.14" r="0.33"/><circle class="cls-23" cx="305.28" cy="55.76" r="2.72"/><circle class="cls-24" cx="305.28" cy="49.58" r="2.17"/><circle class="cls-25" cx="305.28" cy="44.3" r="1.74"/><circle class="cls-26" cx="305.28" cy="39.8" r="1.25"/><circle class="cls-27" cx="305.28" cy="36.1" r="0.74"/><circle class="cls-28" cx="305.28" cy="33.28" r="0.33"/><circle class="cls-23" cx="313.76" cy="54.26" r="2.72"/><circle class="cls-24" cx="311.65" cy="48.46" r="2.17"/><circle class="cls-25" cx="309.85" cy="43.49" r="1.74"/><circle class="cls-26" cx="308.31" cy="39.26" r="1.25"/><circle class="cls-27" cx="307.04" cy="35.78" r="0.74"/><circle class="cls-28" cx="306.08" cy="33.12" r="0.33"/><circle class="cls-23" cx="321.23" cy="49.94" r="2.72"/><circle class="cls-24" cx="317.28" cy="45.22" r="2.17" transform="translate(174.04 331.91) rotate(-71.56)"/><circle class="cls-25" cx="313.87" cy="41.17" r="1.74"/><circle class="cls-26" cx="310.98" cy="37.73" r="1.25"/><circle class="cls-27" cx="308.6" cy="34.89" r="0.74"/><circle class="cls-28" cx="306.78" cy="32.71" r="0.33"/><circle class="cls-23" cx="326.77" cy="43.33" r="2.72"/><circle class="cls-24" cx="321.45" cy="40.24" r="2.17" transform="translate(181.6 332.46) rotate(-71.56)"/><circle class="cls-25" cx="316.85" cy="37.6" r="1.74"/><circle class="cls-26" cx="312.96" cy="35.35" r="1.25"/><circle class="cls-27" cx="309.75" cy="33.51" r="0.74"/><circle class="cls-28" cx="307.3" cy="32.1" r="0.33"/><circle class="cls-23" cx="329.72" cy="35.23" r="2.72"/><circle class="cls-24" cx="323.65" cy="34.15" r="2.17"/><circle class="cls-25" cx="318.44" cy="33.24" r="1.74"/><circle class="cls-26" cx="314.01" cy="32.46" r="1.25"/><circle class="cls-27" cx="310.36" cy="31.81" r="0.74"/><circle class="cls-28" cx="307.58" cy="31.33" r="0.33"/><circle class="cls-23" cx="329.72" cy="26.6" r="2.72"/><circle class="cls-24" cx="323.65" cy="27.67" r="2.17"/><circle class="cls-25" cx="318.44" cy="28.59" r="1.74"/><circle class="cls-26" cx="314.01" cy="29.36" r="1.25"/><circle class="cls-27" cx="310.36" cy="30.02" r="0.74"/><circle class="cls-28" cx="307.58" cy="30.51" r="0.33"/><circle class="cls-23" cx="326.78" cy="18.49" r="2.72"/><circle class="cls-24" cx="321.43" cy="21.58" r="2.17" transform="translate(182.02 312) rotate(-68.2)"/><circle class="cls-25" cx="316.85" cy="24.21" r="1.74"/><circle class="cls-26" cx="312.96" cy="26.46" r="1.25"/><circle class="cls-27" cx="309.75" cy="28.32" r="0.74"/><circle class="cls-28" cx="307.31" cy="29.73" r="0.33"/><circle class="cls-23" cx="321.23" cy="11.88" r="2.72"/><circle class="cls-24" cx="317.26" cy="16.61" r="2.17" transform="translate(184.01 305.01) rotate(-68.2)"/><circle class="cls-25" cx="313.86" cy="20.67" r="1.74"/><circle class="cls-26" cx="310.97" cy="24.1" r="1.25"/><circle class="cls-27" cx="308.59" cy="26.94" r="0.74"/><circle class="cls-28" cx="306.78" cy="29.1" r="0.33"/><circle class="cls-23" cx="313.76" cy="7.57" r="2.72"/><circle class="cls-24" cx="311.65" cy="13.37" r="2.17"/><circle class="cls-25" cx="309.84" cy="18.34" r="1.74"/><circle class="cls-26" cx="308.3" cy="22.57" r="1.25"/><circle class="cls-27" cx="307.03" cy="26.04" r="0.74"/><circle class="cls-28" cx="306.07" cy="28.69" r="0.33"/><circle class="cls-22" cx="215.77" cy="58.4" r="1.68"/><circle class="cls-22" cx="215.77" cy="62.23" r="1.35"/><circle class="cls-22" cx="215.77" cy="65.51" r="1.08"/><circle class="cls-22" cx="215.77" cy="68.28" r="0.78"/><circle class="cls-22" cx="215.77" cy="70.58" r="0.46"/><circle class="cls-22" cx="215.77" cy="72.33" r="0.2"/><circle class="cls-22" cx="210.51" cy="59.33" r="1.68"/><circle class="cls-22" cx="211.82" cy="62.92" r="1.35"/><circle class="cls-22" cx="212.94" cy="65.99" r="1.08"/><circle class="cls-22" cx="213.89" cy="68.62" r="0.78"/><circle class="cls-22" cx="214.67" cy="70.77" r="0.46"/><circle class="cls-22" cx="215.27" cy="72.41" r="0.2"/><circle class="cls-22" cx="205.89" cy="62.01" r="1.68"/><circle class="cls-22" cx="208.34" cy="64.94" r="1.35"/><circle class="cls-22" cx="210.44" cy="67.44" r="1.08"/><circle class="cls-22" cx="212.23" cy="69.58" r="0.78"/><circle class="cls-22" cx="213.71" cy="71.33" r="0.46"/><circle class="cls-22" cx="214.83" cy="72.66" r="0.2"/><circle class="cls-22" cx="202.46" cy="66.1" r="1.68"/><circle class="cls-22" cx="205.76" cy="68.01" r="1.35"/><circle class="cls-22" cx="208.6" cy="69.65" r="1.08"/><circle class="cls-22" cx="211.01" cy="71.03" r="0.78"/><circle class="cls-22" cx="212.99" cy="72.19" r="0.46"/><circle class="cls-22" cx="214.51" cy="73.06" r="0.2"/><circle class="cls-22" cx="200.63" cy="71.12" r="1.68"/><circle class="cls-22" cx="204.39" cy="71.77" r="1.35"/><circle class="cls-22" cx="207.61" cy="72.34" r="1.08"/><circle class="cls-22" cx="210.36" cy="72.84" r="0.78"/><circle class="cls-22" cx="212.61" cy="73.23" r="0.46"/><circle class="cls-22" cx="214.34" cy="73.53" r="0.2"/><circle class="cls-22" cx="200.63" cy="76.45" r="1.68"/><circle class="cls-22" cx="204.39" cy="75.8" r="1.35"/><circle class="cls-22" cx="207.61" cy="75.23" r="1.08"/><circle class="cls-22" cx="210.36" cy="74.74" r="0.78"/><circle class="cls-22" cx="212.61" cy="74.34" r="0.46"/><circle class="cls-22" cx="214.34" cy="74.03" r="0.2"/><circle class="cls-22" cx="202.46" cy="81.48" r="1.68"/><circle class="cls-22" cx="205.76" cy="79.56" r="1.35"/><circle class="cls-22" cx="208.6" cy="77.94" r="1.08"/><circle class="cls-22" cx="211.01" cy="76.53" r="0.78"/><circle class="cls-22" cx="212.99" cy="75.4" r="0.46"/><circle class="cls-22" cx="214.51" cy="74.52" r="0.2"/><circle class="cls-22" cx="205.89" cy="85.56" r="1.68"/><circle class="cls-22" cx="208.34" cy="82.63" r="1.35"/><circle class="cls-22" cx="210.45" cy="80.13" r="1.08"/><circle class="cls-22" cx="212.24" cy="77.99" r="0.78"/><circle class="cls-22" cx="213.71" cy="76.24" r="0.46"/><circle class="cls-22" cx="214.83" cy="74.91" r="0.2"/><circle class="cls-22" cx="210.51" cy="88.23" r="1.68"/><circle class="cls-22" cx="211.82" cy="84.65" r="1.35"/><circle class="cls-22" cx="212.94" cy="81.56" r="1.08"/><circle class="cls-22" cx="213.89" cy="78.95" r="0.78"/><circle class="cls-22" cx="214.68" cy="76.8" r="0.46"/><circle class="cls-22" cx="215.27" cy="75.16" r="0.2"/><circle class="cls-22" cx="215.77" cy="89.16" r="1.68"/><circle class="cls-22" cx="215.77" cy="85.34" r="1.35"/><circle class="cls-22" cx="215.77" cy="82.06" r="1.08"/><circle class="cls-22" cx="215.77" cy="79.28" r="0.78"/><circle class="cls-22" cx="215.77" cy="76.99" r="0.46"/><circle class="cls-22" cx="215.77" cy="75.24" r="0.2"/><circle class="cls-22" cx="221.03" cy="88.23" r="1.68"/><circle class="cls-22" cx="219.72" cy="84.65" r="1.35"/><circle class="cls-22" cx="218.6" cy="81.56" r="1.08"/><circle class="cls-22" cx="217.65" cy="78.95" r="0.78"/><circle class="cls-22" cx="216.87" cy="76.8" r="0.46"/><circle class="cls-22" cx="216.27" cy="75.16" r="0.2"/><circle class="cls-22" cx="225.65" cy="85.56" r="1.68"/><circle class="cls-22" cx="223.2" cy="82.63" r="1.35"/><circle class="cls-22" cx="221.09" cy="80.13" r="1.08"/><circle class="cls-22" cx="219.3" cy="77.99" r="0.78"/><circle class="cls-22" cx="217.83" cy="76.24" r="0.46"/><circle class="cls-22" cx="216.71" cy="74.91" r="0.2"/><circle class="cls-22" cx="229.08" cy="81.46" r="1.68"/><circle class="cls-22" cx="225.77" cy="79.56" r="1.35"/><circle class="cls-22" cx="222.94" cy="77.92" r="1.08"/><circle class="cls-22" cx="220.53" cy="76.53" r="0.78"/><circle class="cls-22" cx="218.54" cy="75.38" r="0.46"/><circle class="cls-22" cx="217.03" cy="74.51" r="0.2"/><circle class="cls-22" cx="230.9" cy="76.45" r="1.68"/><circle class="cls-22" cx="227.14" cy="75.78" r="1.35"/><circle class="cls-22" cx="223.92" cy="75.23" r="1.08"/><circle class="cls-22" cx="221.18" cy="74.73" r="0.78"/><circle class="cls-22" cx="218.92" cy="74.34" r="0.46"/><circle class="cls-22" cx="217.2" cy="74.03" r="0.2"/><circle class="cls-22" cx="230.9" cy="71.12" r="1.68"/><circle class="cls-22" cx="227.14" cy="71.77" r="1.35"/><circle class="cls-22" cx="223.92" cy="72.34" r="1.08"/><circle class="cls-22" cx="221.18" cy="72.83" r="0.78"/><circle class="cls-22" cx="218.92" cy="73.23" r="0.46"/><circle class="cls-22" cx="217.2" cy="73.52" r="0.2"/><circle class="cls-22" cx="229.08" cy="66.09" r="1.68"/><circle class="cls-22" cx="225.77" cy="68.01" r="1.35"/><circle class="cls-22" cx="222.94" cy="69.63" r="1.08"/><circle class="cls-22" cx="220.53" cy="71.02" r="0.78"/><circle class="cls-22" cx="218.54" cy="72.17" r="0.46"/><circle class="cls-22" cx="217.03" cy="73.05" r="0.2"/><circle class="cls-22" cx="225.64" cy="62.01" r="1.68"/><circle class="cls-22" cx="223.19" cy="64.94" r="1.35"/><circle class="cls-22" cx="221.09" cy="67.44" r="1.08"/><circle class="cls-22" cx="219.3" cy="69.56" r="0.78"/><circle class="cls-22" cx="217.82" cy="71.33" r="0.46"/><circle class="cls-22" cx="216.7" cy="72.66" r="0.2"/><circle class="cls-22" cx="221.02" cy="59.33" r="1.68"/><circle class="cls-22" cx="219.72" cy="62.92" r="1.35"/><circle class="cls-22" cx="218.6" cy="65.99" r="1.08"/><circle class="cls-22" cx="217.65" cy="68.62" r="0.78"/><circle class="cls-22" cx="216.86" cy="70.77" r="0.46"/><circle class="cls-22" cx="216.26" cy="72.41" r="0.2"/><circle class="cls-23" cx="215.77" cy="58.42" r="1.68"/><circle class="cls-24" cx="215.77" cy="62.23" r="1.35"/><circle class="cls-25" cx="215.77" cy="65.51" r="1.08"/><circle class="cls-26" cx="215.77" cy="68.28" r="0.78"/><circle class="cls-27" cx="215.77" cy="70.58" r="0.46"/><circle class="cls-28" cx="215.77" cy="72.33" r="0.2"/><circle class="cls-23" cx="210.51" cy="59.33" r="1.68"/><circle class="cls-24" cx="211.82" cy="62.92" r="1.35"/><circle class="cls-25" cx="212.94" cy="66.01" r="1.08"/><circle class="cls-26" cx="213.89" cy="68.62" r="0.78"/><circle class="cls-27" cx="214.67" cy="70.77" r="0.46"/><circle class="cls-28" cx="215.27" cy="72.41" r="0.2"/><circle class="cls-23" cx="205.89" cy="62.01" r="1.68"/><circle class="cls-24" cx="208.34" cy="64.94" r="1.35"/><circle class="cls-25" cx="210.44" cy="67.44" r="1.08"/><circle class="cls-26" cx="212.23" cy="69.58" r="0.78"/><circle class="cls-27" cx="213.71" cy="71.33" r="0.46"/><circle class="cls-28" cx="214.83" cy="72.66" r="0.2"/><circle class="cls-23" cx="202.46" cy="66.09" r="1.68"/><circle class="cls-24" cx="205.77" cy="68.01" r="1.35"/><circle class="cls-25" cx="208.6" cy="69.65" r="1.08"/><circle class="cls-26" cx="211.01" cy="71.03" r="0.78"/><circle class="cls-27" cx="213" cy="72.19" r="0.46"/><circle class="cls-28" cx="214.51" cy="73.06" r="0.2"/><circle class="cls-23" cx="200.63" cy="71.12" r="1.68"/><circle class="cls-24" cx="204.39" cy="71.77" r="1.35"/><circle class="cls-25" cx="207.62" cy="72.34" r="1.08"/><circle class="cls-26" cx="210.36" cy="72.84" r="0.78"/><circle class="cls-27" cx="212.62" cy="73.23" r="0.46"/><circle class="cls-28" cx="214.34" cy="73.53" r="0.2"/><circle class="cls-23" cx="200.63" cy="76.45" r="1.68"/><circle class="cls-24" cx="204.39" cy="75.8" r="1.35"/><circle class="cls-25" cx="207.62" cy="75.23" r="1.08"/><circle class="cls-26" cx="210.36" cy="74.74" r="0.78"/><circle class="cls-27" cx="212.62" cy="74.34" r="0.46"/><circle class="cls-28" cx="214.34" cy="74.05" r="0.2"/><circle class="cls-23" cx="202.46" cy="81.48" r="1.68"/><circle class="cls-24" cx="205.76" cy="79.56" r="1.35"/><circle class="cls-25" cx="208.6" cy="77.94" r="1.08"/><circle class="cls-26" cx="211.01" cy="76.53" r="0.78"/><circle class="cls-27" cx="212.99" cy="75.4" r="0.46"/><circle class="cls-28" cx="214.51" cy="74.52" r="0.2"/><circle class="cls-23" cx="205.89" cy="85.56" r="1.68"/><circle class="cls-24" cx="208.35" cy="82.63" r="1.35"/><circle class="cls-25" cx="210.45" cy="80.13" r="1.08"/><circle class="cls-26" cx="212.24" cy="77.99" r="0.78"/><circle class="cls-27" cx="213.71" cy="76.24" r="0.46"/><circle class="cls-28" cx="214.84" cy="74.91" r="0.2"/><circle class="cls-23" cx="210.52" cy="88.23" r="1.68"/><circle class="cls-24" cx="211.82" cy="84.65" r="1.35"/><circle class="cls-25" cx="212.94" cy="81.56" r="1.08"/><circle class="cls-26" cx="213.89" cy="78.95" r="0.78"/><circle class="cls-27" cx="214.68" cy="76.8" r="0.46"/><circle class="cls-28" cx="215.27" cy="75.16" r="0.2"/><circle class="cls-23" cx="215.77" cy="89.16" r="1.68"/><circle class="cls-24" cx="215.77" cy="85.34" r="1.35"/><circle class="cls-25" cx="215.77" cy="82.06" r="1.08"/><circle class="cls-26" cx="215.77" cy="79.28" r="0.78"/><circle class="cls-27" cx="215.77" cy="76.99" r="0.46"/><circle class="cls-28" cx="215.77" cy="75.24" r="0.2"/><circle class="cls-23" cx="221.03" cy="88.23" r="1.68"/><circle class="cls-24" cx="219.72" cy="84.65" r="1.35"/><circle class="cls-25" cx="218.6" cy="81.56" r="1.08"/><circle class="cls-26" cx="217.65" cy="78.95" r="0.78"/><circle class="cls-27" cx="216.87" cy="76.8" r="0.46"/><circle class="cls-28" cx="216.27" cy="75.16" r="0.2"/><circle class="cls-23" cx="225.65" cy="85.56" r="1.68"/><circle class="cls-24" cx="223.2" cy="82.63" r="1.35"/><circle class="cls-25" cx="221.09" cy="80.13" r="1.08"/><circle class="cls-26" cx="219.3" cy="77.99" r="0.78"/><circle class="cls-27" cx="217.83" cy="76.24" r="0.46"/><circle class="cls-28" cx="216.71" cy="74.91" r="0.2"/><circle class="cls-23" cx="229.08" cy="81.46" r="1.68"/><circle class="cls-24" cx="225.77" cy="79.56" r="1.35"/><circle class="cls-25" cx="222.94" cy="77.92" r="1.08"/><circle class="cls-26" cx="220.53" cy="76.53" r="0.78"/><circle class="cls-27" cx="218.54" cy="75.38" r="0.46"/><circle class="cls-28" cx="217.03" cy="74.52" r="0.2"/><circle class="cls-23" cx="230.91" cy="76.45" r="1.68"/><circle class="cls-24" cx="227.15" cy="75.78" r="1.35"/><circle class="cls-25" cx="223.92" cy="75.23" r="1.08"/><circle class="cls-26" cx="221.18" cy="74.73" r="0.78"/><circle class="cls-27" cx="218.92" cy="74.34" r="0.46"/><circle class="cls-28" cx="217.2" cy="74.03" r="0.2"/><circle class="cls-23" cx="230.91" cy="71.12" r="1.68"/><circle class="cls-24" cx="227.14" cy="71.77" r="1.35"/><circle class="cls-25" cx="223.92" cy="72.34" r="1.08"/><circle class="cls-26" cx="221.18" cy="72.83" r="0.78"/><circle class="cls-27" cx="218.92" cy="73.23" r="0.46"/><circle class="cls-28" cx="217.2" cy="73.52" r="0.2"/><circle class="cls-23" cx="229.08" cy="66.09" r="1.68"/><circle class="cls-24" cx="225.77" cy="68.01" r="1.35"/><circle class="cls-25" cx="222.94" cy="69.63" r="1.08"/><circle class="cls-26" cx="220.53" cy="71.02" r="0.78"/><circle class="cls-27" cx="218.54" cy="72.17" r="0.46"/><circle class="cls-28" cx="217.03" cy="73.06" r="0.2"/><circle class="cls-23" cx="225.65" cy="62.01" r="1.68"/><circle class="cls-24" cx="223.19" cy="64.94" r="1.35"/><circle class="cls-25" cx="221.09" cy="67.44" r="1.08"/><circle class="cls-26" cx="219.3" cy="69.56" r="0.78"/><circle class="cls-27" cx="217.83" cy="71.33" r="0.46"/><circle class="cls-28" cx="216.7" cy="72.66" r="0.2"/><circle class="cls-23" cx="221.02" cy="59.33" r="1.68"/><circle class="cls-24" cx="219.72" cy="62.92" r="1.35"/><circle class="cls-25" cx="218.6" cy="65.99" r="1.08"/><circle class="cls-26" cx="217.65" cy="68.62" r="0.78"/><circle class="cls-27" cx="216.86" cy="70.77" r="0.46"/><circle class="cls-28" cx="216.26" cy="72.41" r="0.2"/><circle class="cls-22" cx="258.73" cy="38.08" r="2.08"/><circle class="cls-22" cx="258.73" cy="42.78" r="1.66"/><circle class="cls-22" cx="258.73" cy="46.83" r="1.33"/><circle class="cls-22" cx="258.73" cy="50.26" r="0.96"/><circle class="cls-22" cx="258.73" cy="53.1" r="0.57"/><circle class="cls-22" cx="258.73" cy="55.26" r="0.25"/><circle class="cls-22" cx="252.24" cy="39.21" r="2.08"/><circle class="cls-22" cx="253.85" cy="43.65" r="1.66"/><circle class="cls-22" cx="255.24" cy="47.44" r="1.33"/><circle class="cls-22" cx="256.41" cy="50.67" r="0.96"/><circle class="cls-22" cx="257.38" cy="53.33" r="0.57"/><circle class="cls-22" cx="258.12" cy="55.35" r="0.25"/><circle class="cls-22" cx="246.53" cy="42.51" r="2.08"/><circle class="cls-22" cx="249.56" cy="46.12" r="1.66"/><circle class="cls-22" cx="252.16" cy="49.21" r="1.33"/><circle class="cls-22" cx="254.37" cy="51.85" r="0.96"/><circle class="cls-22" cx="256.19" cy="54.03" r="0.57"/><circle class="cls-22" cx="257.57" cy="55.67" r="0.25"/><circle class="cls-22" cx="242.3" cy="47.56" r="2.08"/><circle class="cls-22" cx="246.38" cy="49.92" r="1.66"/><circle class="cls-22" cx="249.88" cy="51.94" r="1.33"/><circle class="cls-22" cx="252.86" cy="53.65" r="0.96"/><circle class="cls-22" cx="255.31" cy="55.08" r="0.57"/><circle class="cls-22" cx="257.18" cy="56.15" r="0.25"/><circle class="cls-22" cx="240.05" cy="53.76" r="2.08"/><circle class="cls-22" cx="244.69" cy="54.58" r="1.66"/><circle class="cls-22" cx="248.67" cy="55.28" r="1.33"/><circle class="cls-22" cx="252.05" cy="55.87" r="0.96"/><circle class="cls-22" cx="254.84" cy="56.37" r="0.57"/><circle class="cls-22" cx="256.97" cy="56.74" r="0.25"/><circle class="cls-22" cx="240.05" cy="60.35" r="2.08"/><circle class="cls-22" cx="244.69" cy="59.53" r="1.66"/><circle class="cls-22" cx="248.67" cy="58.83" r="1.33"/><circle class="cls-22" cx="252.05" cy="58.24" r="0.96"/><circle class="cls-22" cx="254.84" cy="57.74" r="0.57"/><circle class="cls-22" cx="256.97" cy="57.37" r="0.25"/><circle class="cls-22" cx="242.3" cy="66.55" r="2.08"/><circle class="cls-22" cx="246.38" cy="64.2" r="1.66"/><circle class="cls-22" cx="249.88" cy="62.17" r="1.33"/><circle class="cls-22" cx="252.85" cy="60.46" r="0.96"/><circle class="cls-22" cx="255.31" cy="59.03" r="0.57"/><circle class="cls-22" cx="257.18" cy="57.96" r="0.25"/><circle class="cls-22" cx="246.54" cy="71.59" r="2.08"/><circle class="cls-22" cx="249.57" cy="67.98" r="1.66"/><circle class="cls-22" cx="252.16" cy="64.88" r="1.33"/><circle class="cls-22" cx="254.37" cy="62.26" r="0.96"/><circle class="cls-22" cx="256.2" cy="60.08" r="0.57"/><circle class="cls-22" cx="257.58" cy="58.44" r="0.25"/><circle class="cls-22" cx="252.25" cy="74.88" r="2.08"/><circle class="cls-22" cx="253.86" cy="70.45" r="1.66"/><circle class="cls-22" cx="255.24" cy="66.66" r="1.33"/><circle class="cls-22" cx="256.41" cy="63.44" r="0.96"/><circle class="cls-22" cx="257.39" cy="60.78" r="0.57"/><circle class="cls-22" cx="258.12" cy="58.74" r="0.25"/><circle class="cls-22" cx="258.74" cy="76.03" r="2.08"/><circle class="cls-22" cx="258.74" cy="71.31" r="1.66"/><circle class="cls-22" cx="258.74" cy="67.27" r="1.33"/><circle class="cls-22" cx="258.74" cy="63.84" r="0.96"/><circle class="cls-22" cx="258.74" cy="61.01" r="0.57"/><circle class="cls-22" cx="258.74" cy="58.85" r="0.25"/><circle class="cls-22" cx="265.22" cy="74.88" r="2.08"/><circle class="cls-22" cx="263.61" cy="70.45" r="1.66"/><circle class="cls-22" cx="262.23" cy="66.66" r="1.33"/><circle class="cls-22" cx="261.05" cy="63.44" r="0.96"/><circle class="cls-22" cx="260.09" cy="60.76" r="0.57"/><circle class="cls-22" cx="259.35" cy="58.74" r="0.25"/><circle class="cls-22" cx="270.93" cy="71.59" r="2.08"/><circle class="cls-22" cx="267.9" cy="67.98" r="1.66"/><circle class="cls-22" cx="265.3" cy="64.88" r="1.33"/><circle class="cls-22" cx="263.1" cy="62.26" r="0.96"/><circle class="cls-22" cx="261.28" cy="60.08" r="0.57"/><circle class="cls-22" cx="259.89" cy="58.44" r="0.25"/><circle class="cls-22" cx="275.16" cy="66.53" r="2.08"/><circle class="cls-22" cx="271.08" cy="64.19" r="1.66"/><circle class="cls-22" cx="267.58" cy="62.17" r="1.33"/><circle class="cls-22" cx="264.61" cy="60.44" r="0.96"/><circle class="cls-22" cx="262.16" cy="59.03" r="0.57"/><circle class="cls-22" cx="260.29" cy="57.94" r="0.25"/><circle class="cls-22" cx="277.42" cy="60.35" r="2.08"/><circle class="cls-22" cx="272.78" cy="59.53" r="1.66"/><circle class="cls-22" cx="268.8" cy="58.83" r="1.33"/><circle class="cls-22" cx="265.42" cy="58.24" r="0.96"/><circle class="cls-22" cx="262.63" cy="57.74" r="0.57"/><circle class="cls-22" cx="260.5" cy="57.37" r="0.25"/><circle class="cls-22" cx="277.42" cy="53.76" r="2.08"/><circle class="cls-22" cx="272.78" cy="54.58" r="1.66"/><circle class="cls-22" cx="268.8" cy="55.28" r="1.33"/><circle class="cls-22" cx="265.41" cy="55.87" r="0.96"/><circle class="cls-22" cx="262.63" cy="56.37" r="0.57"/><circle class="cls-22" cx="260.5" cy="56.74" r="0.25"/><circle class="cls-22" cx="275.17" cy="47.55" r="2.08"/><circle class="cls-22" cx="271.08" cy="49.92" r="1.66"/><circle class="cls-22" cx="267.58" cy="51.94" r="1.33"/><circle class="cls-22" cx="264.61" cy="53.65" r="0.96"/><circle class="cls-22" cx="262.16" cy="55.06" r="0.57"/><circle class="cls-22" cx="260.29" cy="56.15" r="0.25"/><circle class="cls-22" cx="270.93" cy="42.51" r="2.08"/><circle class="cls-22" cx="267.9" cy="46.12" r="1.66"/><circle class="cls-22" cx="265.3" cy="49.21" r="1.33"/><circle class="cls-22" cx="263.09" cy="51.85" r="0.96"/><circle class="cls-22" cx="261.27" cy="54.03" r="0.57"/><circle class="cls-22" cx="259.89" cy="55.67" r="0.25"/><circle class="cls-22" cx="265.22" cy="39.21" r="2.08"/><circle class="cls-22" cx="263.61" cy="43.65" r="1.66"/><circle class="cls-22" cx="262.22" cy="47.44" r="1.33"/><circle class="cls-22" cx="261.05" cy="50.67" r="0.96"/><circle class="cls-22" cx="260.08" cy="53.33" r="0.57"/><circle class="cls-22" cx="259.34" cy="55.35" r="0.25"/><circle class="cls-23" cx="258.73" cy="38.08" r="2.08"/><circle class="cls-24" cx="258.73" cy="42.78" r="1.66"/><circle class="cls-25" cx="258.73" cy="46.83" r="1.33"/><circle class="cls-26" cx="258.73" cy="50.26" r="0.96"/><circle class="cls-27" cx="258.73" cy="53.1" r="0.57"/><circle class="cls-28" cx="258.73" cy="55.26" r="0.25"/><circle class="cls-23" cx="252.24" cy="39.21" r="2.08"/><circle class="cls-24" cx="253.86" cy="43.65" r="1.66"/><circle class="cls-25" cx="255.24" cy="47.44" r="1.33"/><circle class="cls-26" cx="256.41" cy="50.67" r="0.96"/><circle class="cls-27" cx="257.38" cy="53.33" r="0.57"/><circle class="cls-28" cx="258.12" cy="55.35" r="0.25"/><circle class="cls-23" cx="246.53" cy="42.51" r="2.08"/><circle class="cls-24" cx="249.56" cy="46.12" r="1.66"/><circle class="cls-25" cx="252.16" cy="49.21" r="1.33"/><circle class="cls-26" cx="254.37" cy="51.85" r="0.96"/><circle class="cls-27" cx="256.19" cy="54.03" r="0.57"/><circle class="cls-28" cx="257.58" cy="55.67" r="0.25"/><circle class="cls-23" cx="242.3" cy="47.56" r="2.08"/><circle class="cls-24" cx="246.38" cy="49.92" r="1.66"/><circle class="cls-25" cx="249.88" cy="51.94" r="1.33"/><circle class="cls-26" cx="252.86" cy="53.65" r="0.96"/><circle class="cls-27" cx="255.31" cy="55.08" r="0.57"/><circle class="cls-28" cx="257.18" cy="56.15" r="0.25"/><circle class="cls-23" cx="240.05" cy="53.76" r="2.08"/><circle class="cls-24" cx="244.69" cy="54.58" r="1.66"/><circle class="cls-25" cx="248.67" cy="55.28" r="1.33"/><circle class="cls-26" cx="252.05" cy="55.87" r="0.96"/><circle class="cls-27" cx="254.84" cy="56.37" r="0.57"/><circle class="cls-28" cx="256.96" cy="56.74" r="0.25"/><circle class="cls-23" cx="240.05" cy="60.35" r="2.08"/><circle class="cls-24" cx="244.69" cy="59.53" r="1.66"/><circle class="cls-25" cx="248.67" cy="58.83" r="1.33"/><circle class="cls-26" cx="252.05" cy="58.24" r="0.96"/><circle class="cls-27" cx="254.84" cy="57.74" r="0.57"/><circle class="cls-28" cx="256.97" cy="57.37" r="0.25"/><circle class="cls-23" cx="242.3" cy="66.55" r="2.08"/><circle class="cls-24" cx="246.38" cy="64.2" r="1.66"/><circle class="cls-25" cx="249.88" cy="62.17" r="1.33"/><circle class="cls-26" cx="252.86" cy="60.46" r="0.96"/><circle class="cls-27" cx="255.31" cy="59.03" r="0.57"/><circle class="cls-28" cx="257.18" cy="57.96" r="0.25"/><circle class="cls-23" cx="246.54" cy="71.59" r="2.08"/><circle class="cls-24" cx="249.57" cy="67.98" r="1.66"/><circle class="cls-25" cx="252.17" cy="64.88" r="1.33"/><circle class="cls-26" cx="254.37" cy="62.26" r="0.96"/><circle class="cls-27" cx="256.19" cy="60.08" r="0.57"/><circle class="cls-28" cx="257.58" cy="58.44" r="0.25"/><circle class="cls-23" cx="252.25" cy="74.88" r="2.08"/><circle class="cls-24" cx="253.86" cy="70.45" r="1.66"/><circle class="cls-25" cx="255.24" cy="66.66" r="1.33"/><circle class="cls-26" cx="256.42" cy="63.44" r="0.96"/><circle class="cls-27" cx="257.39" cy="60.78" r="0.57"/><circle class="cls-28" cx="258.12" cy="58.74" r="0.25"/><circle class="cls-23" cx="258.74" cy="76.03" r="2.08"/><circle class="cls-24" cx="258.74" cy="71.33" r="1.66"/><circle class="cls-25" cx="258.74" cy="67.28" r="1.33"/><circle class="cls-26" cx="258.74" cy="63.84" r="0.96"/><circle class="cls-27" cx="258.74" cy="61.01" r="0.57"/><circle class="cls-28" cx="258.74" cy="58.85" r="0.25"/><circle class="cls-23" cx="265.22" cy="74.88" r="2.08"/><circle class="cls-24" cx="263.61" cy="70.45" r="1.66"/><circle class="cls-25" cx="262.23" cy="66.66" r="1.33"/><circle class="cls-26" cx="261.06" cy="63.44" r="0.96"/><circle class="cls-27" cx="260.09" cy="60.78" r="0.57"/><circle class="cls-28" cx="259.35" cy="58.74" r="0.25"/><circle class="cls-23" cx="270.93" cy="71.59" r="2.08"/><circle class="cls-24" cx="267.9" cy="67.98" r="1.66"/><circle class="cls-25" cx="265.31" cy="64.88" r="1.33"/><circle class="cls-26" cx="263.1" cy="62.26" r="0.96"/><circle class="cls-27" cx="261.28" cy="60.08" r="0.57"/><circle class="cls-28" cx="259.89" cy="58.44" r="0.25"/><circle class="cls-23" cx="275.17" cy="66.55" r="2.08"/><circle class="cls-24" cx="271.08" cy="64.19" r="1.66"/><circle class="cls-25" cx="267.58" cy="62.17" r="1.33"/><circle class="cls-26" cx="264.61" cy="60.44" r="0.96"/><circle class="cls-27" cx="262.16" cy="59.03" r="0.57"/><circle class="cls-28" cx="260.29" cy="57.96" r="0.25"/><circle class="cls-23" cx="277.42" cy="60.35" r="2.08"/><circle class="cls-24" cx="272.78" cy="59.53" r="1.66"/><circle class="cls-25" cx="268.8" cy="58.83" r="1.33"/><circle class="cls-26" cx="265.42" cy="58.23" r="0.96"/><circle class="cls-27" cx="262.63" cy="57.74" r="0.57"/><circle class="cls-28" cx="260.5" cy="57.37" r="0.25"/><circle class="cls-23" cx="277.42" cy="53.76" r="2.08"/><circle class="cls-24" cx="272.78" cy="54.58" r="1.66"/><circle class="cls-25" cx="268.8" cy="55.28" r="1.33"/><circle class="cls-26" cx="265.42" cy="55.87" r="0.96"/><circle class="cls-27" cx="262.63" cy="56.37" r="0.57"/><circle class="cls-28" cx="260.5" cy="56.74" r="0.25"/><circle class="cls-23" cx="275.17" cy="47.55" r="2.08"/><circle class="cls-24" cx="271.09" cy="49.92" r="1.66"/><circle class="cls-25" cx="267.59" cy="51.94" r="1.33"/><circle class="cls-26" cx="264.61" cy="53.65" r="0.96"/><circle class="cls-27" cx="262.16" cy="55.06" r="0.57"/><circle class="cls-28" cx="260.29" cy="56.15" r="0.25"/><circle class="cls-23" cx="270.93" cy="42.51" r="2.08"/><circle class="cls-24" cx="267.9" cy="46.12" r="1.66"/><circle class="cls-25" cx="265.3" cy="49.21" r="1.33"/><circle class="cls-26" cx="263.09" cy="51.85" r="0.96"/><circle class="cls-27" cx="261.27" cy="54.01" r="0.57"/><circle class="cls-28" cx="259.89" cy="55.67" r="0.25"/><circle class="cls-23" cx="265.22" cy="39.21" r="2.08"/><circle class="cls-24" cx="263.61" cy="43.65" r="1.66"/><circle class="cls-25" cx="262.23" cy="47.44" r="1.33"/><circle class="cls-26" cx="261.05" cy="50.67" r="0.96"/><circle class="cls-27" cx="260.08" cy="53.33" r="0.57"/><circle class="cls-28" cx="259.34" cy="55.35" r="0.25"/></svg>