<?xml version="1.0" encoding="UTF-8"?>
<svg width="40px" height="40px" viewBox="0 0 40 40" version="1.1" xmlns="http://www.w3.org/2000/svg" xmlns:xlink="http://www.w3.org/1999/xlink">
    <!-- Generator: Sketch 61.2 (89653) - https://sketch.com -->
    <title>ic_thumb_up</title>
    <desc>Created with Sketch.</desc>
    <g id="Page-1" stroke="none" stroke-width="1" fill="none" fill-rule="evenodd">
        <g id="HealthScore" transform="translate(-1138.000000, -403.000000)">
            <g id="ic_thumb_up" transform="translate(1138.000000, 403.000000)">
                <circle id="Oval" fill="#3F51B5" cx="20" cy="20" r="20"></circle>
                <path d="M10,29 L14,29 L14,17 L10,17 L10,29 L10,29 Z M32,18 C32,16.9 31.1,16 30,16 L23.69,16 L24.64,11.43 L24.67,11.11 C24.67,10.7 24.5,10.32 24.23,10.05 L23.17,9 L16.59,15.59 C16.22,15.95 16,16.45 16,17 L16,27 C16,28.1 16.9,29 18,29 L27,29 C27.83,29 28.54,28.5 28.84,27.78 L31.86,20.73 C31.95,20.5 32,20.26 32,20 L32,18.09 L31.99,18.08 L32,18 L32,18 Z" id="Shape" fill="#FFFFFF"></path>
            </g>
        </g>
    </g>
</svg>