<?xml version="1.0" encoding="UTF-8"?>
<svg width="40px" height="40px" viewBox="0 0 40 40" version="1.1" xmlns="http://www.w3.org/2000/svg" xmlns:xlink="http://www.w3.org/1999/xlink">
    <!-- Generator: Sketch 61.2 (89653) - https://sketch.com -->
    <title>ic_thumb_down</title>
    <desc>Created with Sketch.</desc>
    <g id="Page-1" stroke="none" stroke-width="1" fill="none" fill-rule="evenodd">
        <g id="HealthScore" transform="translate(-1192.000000, -403.000000)">
            <g id="ic_thumb_down" transform="translate(1192.000000, 403.000000)">
                <circle id="Oval" fill="#3F51B5" cx="20" cy="20" r="20"></circle>
                <path d="M23,12 L14,12 C13.17,12 12.46,12.5 12.16,13.22 L9.14,20.27 C9.05,20.5 9,20.74 9,21 L9,22.91 L9.01,22.92 L9,23 C9,24.1 9.9,25 11,25 L17.31,25 L16.36,29.57 L16.33,29.89 C16.33,30.3 16.5,30.68 16.77,30.95 L17.83,32 L24.42,25.41 C24.78,25.05 25,24.55 25,24 L25,14 C25,12.9 24.1,12 23,12 L23,12 Z M27,12 L27,24 L31,24 L31,12 L27,12 L27,12 Z" id="Shape" fill="#FFFFFF"></path>
            </g>
        </g>
    </g>
</svg>