<svg id="Layer_1" data-name="Layer 1" xmlns="http://www.w3.org/2000/svg" viewBox="0 0 600 600"><defs><style>.cls-1{fill:#ff9f02;}.cls-2{fill:#ffc002;}.cls-3{fill:#ffb800;}.cls-4{fill:#ffc800;}.cls-5{fill:#ffd400;}.cls-6{fill:#f1d800;}.cls-7{fill:#13e7c4;}.cls-8{fill:#e6dc00;}.cls-9{fill:#11e8b9;}.cls-10{fill:#d9e000;}.cls-11{fill:#16eaa4;}.cls-12{fill:#d3e200;}.cls-13{fill:#42eb77;}.cls-14{fill:#cbe500;}.cls-15{fill:#5ceb5c;}.cls-16{fill:#c1e800;}.cls-17{fill:#76ec40;}.cls-18{fill:#b6ec00;}.cls-19{fill:#86ec2f;}.cls-20{fill:#f8d701;}.cls-21{fill:#f0d900;}.cls-22{fill:#edd900;}.cls-23{fill:#dbdf00;}.cls-24{fill:#d6e100;}.cls-25{fill:#d0e300;}.cls-26{fill:#50eb69;}.cls-27{fill:#cae500;}.cls-28{fill:#58eb60;}.cls-29{fill:#66eb51;}.cls-30{fill:#b1ed04;}.cls-31{fill:#79ec3d;}.cls-32{fill:#a1ed11;}.cls-33{fill:#85ec30;}.cls-34{fill:#c5e601;}.cls-35{fill:#57eb61;}.cls-36{fill:#b9eb00;}.cls-37{fill:#7cec39;}.cls-38{fill:#9dec15;}.cls-39{fill:#ff9400;}.cls-40{fill:#ff7e00;}.cls-41{fill:#ff7600;}.cls-42{fill:#ff5d01;}.cls-43{fill:#ff5b01;}.cls-44{fill:#ff6200;}.cls-45{fill:#ff7901;}.cls-46{fill:#ff6500;}.cls-47{fill:#ff7b00;}.cls-48{fill:#ff7800;}.cls-49{fill:#ff7300;}.cls-50{fill:#0ab2d7;}.cls-51{fill:#10c1dc;}.cls-52{fill:#12c9de;}.cls-53{fill:#18d5e3;}.cls-54{fill:#1be3e7;}.cls-55{fill:#e1de00;}</style></defs><title>lp-icon2</title><path class="cls-1" d="M293.72,392.46a13.9,13.9,0,1,1,12.52-19.65,13.85,13.85,0,0,1-12.52,19.65Z"/><path class="cls-2" d="M394.08,392.39a14,14,0,0,1-14-13.86,13.74,13.74,0,0,1,13.72-13.86h.28a13.86,13.86,0,0,1,0,27.72Z"/><path class="cls-3" d="M360.21,392.42a14,14,0,0,1-14-13.86,13.74,13.74,0,0,1,13.72-13.86h.28a13.86,13.86,0,0,1,0,27.72Z"/><path class="cls-3" d="M327.11,392.39a14,14,0,0,1-14-13.86,13.74,13.74,0,0,1,13.72-13.86h.28a13.86,13.86,0,0,1,0,27.72Z"/><path class="cls-4" d="M427.28,389.86a13.86,13.86,0,0,1-3.77-27.2L427.29,376l-3.63-13.38a13.86,13.86,0,1,1,7.8,26.6l-.39.11A13.84,13.84,0,0,1,427.28,389.86Z"/><path class="cls-5" d="M457.85,376a13.86,13.86,0,0,1-7.75-25.36l7.74,11.5-7.56-11.62a13.86,13.86,0,0,1,15.59,22.92l-.29.2A13.81,13.81,0,0,1,457.85,376Z"/><path class="cls-1" d="M293.62,359.87a13.93,13.93,0,1,1,13.86-14.14V346A13.86,13.86,0,0,1,293.62,359.87Z"/><path class="cls-6" d="M482.36,352.82a13.86,13.86,0,0,1-10.94-22.36l11,8.49-10.9-8.57a13.86,13.86,0,0,1,22.16,16.66l-.31.4A13.84,13.84,0,0,1,482.36,352.82Z"/><path class="cls-7" d="M293.67,326.29a13.93,13.93,0,1,1,13.86-14.14v.28A13.86,13.86,0,0,1,293.67,326.29Z"/><path class="cls-8" d="M498.41,323.16a13.87,13.87,0,0,1-13.1-18.38l13.1,4.52-13-4.71a13.86,13.86,0,0,1,26.26,8.9l-.11.33A13.87,13.87,0,0,1,498.41,323.16Z"/><path class="cls-9" d="M292.33,292.41a13.93,13.93,0,1,1,13.86-14.14v.28A13.86,13.86,0,0,1,292.33,292.41Z"/><path class="cls-10" d="M504.28,290.05a13.93,13.93,0,0,1-13.86-13.95c0-.15,0-.58,0-.73a13.87,13.87,0,1,1,13.85,14.68Z"/><path class="cls-11" d="M296.46,259.11a14.11,14.11,0,0,1-3.64-.48A14,14,0,0,1,283,241.54c0-.16.16-.59.21-.74a13.86,13.86,0,0,1,26.52,8.09l-13.26-4,13.25,4.08A13.7,13.7,0,0,1,296.46,259.11Z"/><path class="cls-12" d="M499.48,256.6a13.87,13.87,0,0,1-13.25-9.82l13.26-4-13.27,4a13.78,13.78,0,0,1,8.71-17.49A13.94,13.94,0,0,1,512.53,238l.21.67a13.88,13.88,0,0,1-13.26,17.91Z"/><path class="cls-13" d="M310.78,228.47a14,14,0,1,1,7.92-25.72,14,14,0,0,1,3.78,19.31l-.44.64A13.85,13.85,0,0,1,310.78,228.47Z"/><path class="cls-14" d="M484.25,226.36a13.62,13.62,0,0,1-11.1-5.69l-.16-.23a13.76,13.76,0,1,1,11.27,5.92Z"/><path class="cls-15" d="M333.93,204.11a13.9,13.9,0,0,1-8.54-24.84l.58-.44a13.86,13.86,0,0,1,16.49,22.29L334.22,190l8.21,11.17A13.65,13.65,0,0,1,333.93,204.11Z"/><path class="cls-16" d="M460.5,202.49a13.58,13.58,0,0,1-8-2.58l-.38-.27a13.74,13.74,0,1,1,8.35,2.86Z"/><path class="cls-17" d="M363.7,188.05a14,14,0,1,1,4.79-.85l-.4.14A13.87,13.87,0,0,1,363.7,188.05Z"/><path class="cls-18" d="M430.56,187.27a13.85,13.85,0,0,1-4.32-.69l4.31-13.17-4.37,13.16A13.86,13.86,0,0,1,434.27,160l.6.19a13.86,13.86,0,0,1-4.31,27Z"/><path class="cls-19" d="M396.93,182.28a13.87,13.87,0,1,1,.51,0Z"/><path class="cls-1" d="M260.37,424.45a13.9,13.9,0,1,1-.14-27.79,13.84,13.84,0,0,1,12.68,8.19,13.84,13.84,0,0,1-12.54,19.61Z"/><path class="cls-2" d="M397.67,424.41a14,14,0,0,1-14-13.86,13.74,13.74,0,0,1,13.72-13.86h.28a13.86,13.86,0,1,1,0,27.72Z"/><path class="cls-3" d="M363.74,424.41a14,14,0,0,1-14-13.86,13.74,13.74,0,0,1,13.72-13.86h.28a13.86,13.86,0,1,1,0,27.72Z"/><path class="cls-3" d="M327.11,424.41a14,14,0,0,1-14-13.86,13.74,13.74,0,0,1,13.72-13.86h.28a13.86,13.86,0,1,1,0,27.72Z"/><path class="cls-1" d="M293.69,424.41a14,14,0,0,1-14-13.86,13.74,13.74,0,0,1,13.72-13.86h.28a13.86,13.86,0,1,1,0,27.72Z"/><path class="cls-4" d="M431.22,420.74a14,14,0,0,1-13.58-10.58,13.74,13.74,0,0,1,10-16.67l.48-.12a13.86,13.86,0,1,1,3.12,27.37Z"/><path class="cls-5" d="M462.75,408.57a13.83,13.83,0,0,1-6.73-26l.26-.14a13.86,13.86,0,1,1,6.47,26.1Z"/><path class="cls-1" d="M260.27,392.49a13.93,13.93,0,1,1,13.86-14.14v.28A13.86,13.86,0,0,1,260.27,392.49Z"/><path class="cls-20" d="M490.28,389a13.81,13.81,0,0,1-9.42-24l.33-.3a13.86,13.86,0,1,1,18.45,20.69A14,14,0,0,1,490.28,389Z"/><path class="cls-21" d="M512.2,363.47a13.86,13.86,0,0,1-11.52-21.55l11.53,7.69-11.45-7.82A13.86,13.86,0,1,1,524,357l-.22.34A13.85,13.85,0,0,1,512.2,363.47Z"/><path class="cls-1" d="M260.27,359.87a13.93,13.93,0,1,1,13.86-14.14V346A13.86,13.86,0,0,1,260.27,359.87Z"/><path class="cls-22" d="M527.23,333.17a13.87,13.87,0,0,1-13.1-18.38l13.1,4.52-13-4.71a13.86,13.86,0,0,1,26.26,8.9l-.11.33A13.87,13.87,0,0,1,527.23,333.17Z"/><path class="cls-7" d="M260.27,326.29a13.93,13.93,0,1,1,13.86-14.14v.28A13.86,13.86,0,0,1,260.27,326.29Z"/><path class="cls-23" d="M534.3,300.08c-.44,0-.9,0-1.35-.07a13.86,13.86,0,0,1-12.46-15.13l13.8,1.34-13.79-1.38A13.78,13.78,0,0,1,535.22,272a13.94,13.94,0,0,1,12.92,14.84c0,.14,0,.56-.06.71A13.86,13.86,0,0,1,534.3,300.08Z"/><path class="cls-9" d="M261.83,288.21a13.93,13.93,0,1,1,13.86-14.14v.28A13.86,13.86,0,0,1,261.83,288.21Z"/><path class="cls-24" d="M532.94,266.15a13.71,13.71,0,0,1-13.59-11.49l0-.28A13.86,13.86,0,1,1,535.25,266,14.25,14.25,0,0,1,532.94,266.15Z"/><path class="cls-11" d="M265.88,255.19a13.92,13.92,0,1,1,3.6-27.4,13.74,13.74,0,0,1,9.87,16.76l-.09.34A13.87,13.87,0,0,1,265.88,255.19Z"/><path class="cls-25" d="M523.5,233.81a13.86,13.86,0,0,1-12.78-8.49l12.77-5.38-12.79,5.33A13.78,13.78,0,0,1,517.6,207a13.93,13.93,0,0,1,18.4,6.94l.28.63a13.87,13.87,0,0,1-12.77,19.24Z"/><path class="cls-26" d="M278.07,223.73a13.89,13.89,0,0,1-12.31-20.33l.32-.6a13.86,13.86,0,0,1,24.24,13.46l-12.12-6.73,12.09,6.77A13.73,13.73,0,0,1,278.07,223.73Z"/><path class="cls-27" d="M506.09,204.64a13.61,13.61,0,0,1-10.81-5.3l-.17-.22a13.76,13.76,0,1,1,11,5.52Z"/><path class="cls-28" d="M297.66,196.06a13.86,13.86,0,0,1-10.23-23.2l.29-.32A13.86,13.86,0,0,1,308,191.46L297.86,182l10,9.55A13.85,13.85,0,0,1,297.66,196.06Z"/><path class="cls-16" d="M482.37,180.73a13.8,13.8,0,0,1-8.59-3l8.6-10.87-8.66,10.83a13.86,13.86,0,0,1,16.83-22l.44.34a13.86,13.86,0,0,1-8.61,24.73Z"/><path class="cls-29" d="M323.44,174.14a14,14,0,1,1,7.81-2.42l-.24.15A13.8,13.8,0,0,1,323.44,174.14Z"/><path class="cls-30" d="M453.3,163.33a13.64,13.64,0,0,1-5.58-1.2l-.25-.11a13.71,13.71,0,1,1,5.83,1.31Z"/><path class="cls-31" d="M353.78,159.21a14,14,0,1,1,4.79-.85l-.4.14A13.87,13.87,0,0,1,353.78,159.21Z"/><path class="cls-32" d="M421,153.65a14,14,0,0,1-2.28-.19l-.42-.07a13.73,13.73,0,1,1,2.7.26Z"/><path class="cls-33" d="M386.88,152.25a13.86,13.86,0,0,1-1.14-27.68l.32,0a13.86,13.86,0,0,1,2.23,27.63l-1.11-13.82L388,152.2C387.65,152.23,387.26,152.25,386.88,152.25Z"/><path class="cls-3" d="M327.14,359.84a13.9,13.9,0,1,1,12.52-19.65,13.85,13.85,0,0,1-12.52,19.65Z"/><path class="cls-2" d="M390.59,359.77a14,14,0,0,1-14-13.86A13.74,13.74,0,0,1,390.31,332h.28a13.86,13.86,0,0,1,0,27.72Z"/><path class="cls-3" d="M359.86,359.77a14,14,0,0,1-14-13.86A13.74,13.74,0,0,1,359.59,332h.28a13.86,13.86,0,0,1,0,27.72Z"/><path class="cls-4" d="M423.26,356.63a14,14,0,1,1,4.92-.9l-.4.14A13.86,13.86,0,0,1,423.26,356.63Z"/><path class="cls-5" d="M451.27,341a13.87,13.87,0,0,1-9.91-23.57l.42-.42a13.87,13.87,0,1,1,9.49,24Z"/><path class="cls-7" d="M327,326.29a13.93,13.93,0,1,1,13.86-14.14v.28A13.86,13.86,0,0,1,327,326.29Z"/><path class="cls-9" d="M323.58,294.51a13.93,13.93,0,1,1,13.86-14.14v.28A13.86,13.86,0,0,1,323.58,294.51Z"/><path class="cls-10" d="M472.58,280a13.86,13.86,0,0,1-13.78-12.51l13.79-1.36-13.8,1.32A13.75,13.75,0,0,1,470.72,252a14,14,0,0,1,15.59,12c0,.16.07.59.08.75A13.86,13.86,0,0,1,474,279.9C473.49,279.94,473,280,472.58,280Z"/><path class="cls-11" d="M327.91,263.1a14,14,0,1,1,13.18-9.54l-.21.59A13.87,13.87,0,0,1,327.91,263.1Z"/><path class="cls-34" d="M461.72,248.66a13.85,13.85,0,0,1-11.82-6.6l11.8-7.26L449.88,242a13.75,13.75,0,0,1,3.92-19.11,14,14,0,0,1,19.29,4l.42.66a13.87,13.87,0,0,1-11.79,21.13Z"/><path class="cls-35" d="M345.74,235.12a13.85,13.85,0,0,1-9.81-23.64l.31-.31A13.86,13.86,0,0,1,355.62,231l-9.69-9.91,9.6,10A13.85,13.85,0,0,1,345.74,235.12Z"/><path class="cls-36" d="M438.22,225.11a13.6,13.6,0,0,1-7.31-2.14l-.44-.28a13.73,13.73,0,1,1,7.76,2.42Z"/><path class="cls-37" d="M373.87,217.61a14,14,0,1,1,4.79-.85l-.47.16A13.85,13.85,0,0,1,373.87,217.61Z"/><path class="cls-38" d="M407.12,214a14,14,0,0,1-1.62-.09l1.61-13.77-1.83,13.74a13.86,13.86,0,0,1,3.11-27.55l.33,0A13.86,13.86,0,0,1,407.12,214Z"/><path class="cls-1" d="M229.42,359.8h-.14a13.86,13.86,0,1,1,.14,0Z"/><path class="cls-39" d="M198.28,359.8H198a13.86,13.86,0,1,1,.3,0Z"/><path class="cls-40" d="M164.87,359.8h-.3a13.86,13.86,0,1,1,.3,0Z"/><path class="cls-41" d="M131.25,359.74h-.14a13.86,13.86,0,1,1,.14,0Z"/><path class="cls-42" d="M131.11,327.21a13.75,13.75,0,0,1-13.86-13.73v-.27a13.86,13.86,0,1,1,13.86,14Z"/><path class="cls-43" d="M131.11,294.67a13.75,13.75,0,0,1-13.86-13.73v-.27a13.86,13.86,0,1,1,13.86,14Z"/><path class="cls-43" d="M131.11,262.14a13.75,13.75,0,0,1-13.86-13.73v-.27a13.86,13.86,0,1,1,13.86,14Z"/><path class="cls-44" d="M131.11,229.61a13.75,13.75,0,0,1-13.86-13.73v-.27a13.86,13.86,0,1,1,13.86,14Z"/><path class="cls-44" d="M131.11,197.08a13.75,13.75,0,0,1-13.86-13.73v-.27a13.86,13.86,0,1,1,13.86,14Z"/><path class="cls-44" d="M131.11,164.55a13.75,13.75,0,0,1-13.86-13.73v-.27a13.86,13.86,0,1,1,13.86,14Z"/><path class="cls-43" d="M131.11,132a13.75,13.75,0,0,1-13.86-13.73V118a13.86,13.86,0,1,1,13.86,14Z"/><path class="cls-43" d="M131.11,99.49a13.75,13.75,0,0,1-13.86-13.73V85.5a13.86,13.86,0,1,1,13.86,14Z"/><path class="cls-43" d="M131.11,67a13.75,13.75,0,0,1-13.86-13.73V53a13.86,13.86,0,1,1,13.86,14Z"/><path class="cls-43" d="M131.11,34.43A13.75,13.75,0,0,1,117.25,20.7v-.27a13.86,13.86,0,1,1,13.86,14Z"/><path class="cls-1" d="M229.42,392.42h-.14a13.86,13.86,0,1,1,.14,0Z"/><path class="cls-39" d="M198.27,392.42H198a13.86,13.86,0,1,1,.29,0Z"/><path class="cls-40" d="M164.87,392.42h-.29a13.86,13.86,0,1,1,.29,0Z"/><path class="cls-45" d="M131.4,392.42h-.29a13.86,13.86,0,1,1,.29,0Z"/><path class="cls-41" d="M98.62,392.46h-.14a13.9,13.9,0,1,1,12.71-19.52,13.84,13.84,0,0,1-12.58,19.52Z"/><path class="cls-46" d="M98.52,359.74A13.75,13.75,0,0,1,84.65,346v-.27a13.86,13.86,0,1,1,13.86,14Z"/><path class="cls-42" d="M98.52,327.21a13.75,13.75,0,0,1-13.86-13.73v-.27a13.86,13.86,0,1,1,13.86,14Z"/><path class="cls-43" d="M98.52,294.67a13.75,13.75,0,0,1-13.86-13.73v-.27a13.86,13.86,0,1,1,13.86,14Z"/><path class="cls-43" d="M98.52,262.14a13.75,13.75,0,0,1-13.86-13.73v-.27a13.86,13.86,0,1,1,13.86,14Z"/><path class="cls-44" d="M98.52,229.61a13.75,13.75,0,0,1-13.86-13.73v-.27a13.86,13.86,0,1,1,13.86,14Z"/><path class="cls-44" d="M98.52,197.08a13.75,13.75,0,0,1-13.86-13.73v-.27a13.86,13.86,0,1,1,13.86,14Z"/><path class="cls-44" d="M98.52,164.55a13.75,13.75,0,0,1-13.86-13.73v-.27a13.86,13.86,0,1,1,13.86,14Z"/><path class="cls-43" d="M98.52,132a13.75,13.75,0,0,1-13.86-13.73V118a13.86,13.86,0,1,1,13.86,14Z"/><path class="cls-43" d="M98.52,99.49A13.75,13.75,0,0,1,84.65,85.76v-.27a13.86,13.86,0,1,1,13.86,14Z"/><path class="cls-43" d="M98.52,67A13.75,13.75,0,0,1,84.65,53.23V53A13.86,13.86,0,1,1,98.52,67Z"/><path class="cls-43" d="M98.52,34.43A13.75,13.75,0,0,1,84.65,20.7v-.27a13.86,13.86,0,1,1,13.86,14Z"/><path class="cls-1" d="M229.42,424.41h-.14a13.86,13.86,0,1,1,.14,0Z"/><path class="cls-39" d="M198.27,424.41H198a13.86,13.86,0,1,1,.29,0Z"/><path class="cls-40" d="M164.86,424.41h-.29a13.86,13.86,0,1,1,.29,0Z"/><path class="cls-47" d="M131.4,424.41h-.29a13.86,13.86,0,1,1,.29,0Z"/><path class="cls-48" d="M98.73,424.41h-.29a13.86,13.86,0,1,1,.29,0Z"/><path class="cls-49" d="M65.83,424.45h-.14a13.9,13.9,0,1,1,12.71-19.52,13.84,13.84,0,0,1-12.58,19.52Z"/><path class="cls-46" d="M65.69,392.49a13.75,13.75,0,0,1-13.86-13.73v-.27a13.86,13.86,0,1,1,13.86,14Z"/><path class="cls-46" d="M65.69,359.74A13.75,13.75,0,0,1,51.83,346v-.27a13.86,13.86,0,1,1,13.86,14Z"/><path class="cls-42" d="M65.69,327.21a13.75,13.75,0,0,1-13.86-13.73v-.27a13.86,13.86,0,1,1,13.86,14Z"/><path class="cls-43" d="M65.69,294.67a13.75,13.75,0,0,1-13.86-13.73v-.27a13.86,13.86,0,1,1,13.86,14Z"/><path class="cls-43" d="M65.69,262.14a13.75,13.75,0,0,1-13.86-13.73v-.27a13.86,13.86,0,1,1,13.86,14Z"/><path class="cls-44" d="M65.69,229.61a13.75,13.75,0,0,1-13.86-13.73v-.27a13.86,13.86,0,1,1,13.86,14Z"/><path class="cls-44" d="M65.69,197.08a13.75,13.75,0,0,1-13.86-13.73v-.27a13.86,13.86,0,1,1,13.86,14Z"/><path class="cls-44" d="M65.69,164.55a13.75,13.75,0,0,1-13.86-13.73v-.27a13.86,13.86,0,1,1,13.86,14Z"/><path class="cls-43" d="M65.69,132a13.75,13.75,0,0,1-13.86-13.73V118a13.86,13.86,0,1,1,13.86,14Z"/><path class="cls-43" d="M65.69,99.49A13.75,13.75,0,0,1,51.83,85.76v-.27a13.86,13.86,0,1,1,13.86,14Z"/><path class="cls-43" d="M65.69,67A13.75,13.75,0,0,1,51.83,53.23V53A13.86,13.86,0,1,1,65.69,67Z"/><path class="cls-43" d="M65.69,34.43A13.75,13.75,0,0,1,51.83,20.7v-.27a13.86,13.86,0,1,1,13.86,14Z"/><path class="cls-50" d="M279.73,579.49a13.92,13.92,0,0,1,13.94-13.94h0a13.94,13.94,0,0,1,13.94,13.94h0a14,14,0,0,1-13.94,13.94h0A13.94,13.94,0,0,1,279.73,579.49Z"/><path class="cls-51" d="M279.73,545.42a13.94,13.94,0,0,1,13.94-13.94h0a14,14,0,0,1,13.94,13.94h0a14,14,0,0,1-13.94,13.94h0A13.94,13.94,0,0,1,279.73,545.42Z"/><path class="cls-52" d="M279.73,511.34a13.94,13.94,0,0,1,13.94-13.94h0a14,14,0,0,1,13.94,13.94h0a14,14,0,0,1-13.94,13.94h0A13.94,13.94,0,0,1,279.73,511.34Z"/><path class="cls-53" d="M279.73,477.27a13.92,13.92,0,0,1,13.94-13.94h0a13.94,13.94,0,0,1,13.94,13.94h0a14,14,0,0,1-13.94,13.94h0A13.94,13.94,0,0,1,279.73,477.27Z"/><path class="cls-54" d="M279.73,443.19a13.92,13.92,0,0,1,13.94-13.94h0a13.94,13.94,0,0,1,13.94,13.94h0a13.94,13.94,0,0,1-13.94,13.94h0A13.92,13.92,0,0,1,279.73,443.19Z"/><path class="cls-50" d="M245.65,579.49a13.92,13.92,0,0,1,13.94-13.94h0a13.94,13.94,0,0,1,13.94,13.94h0a14,14,0,0,1-13.94,13.94h0A13.94,13.94,0,0,1,245.65,579.49Z"/><path class="cls-51" d="M245.65,545.42a13.92,13.92,0,0,1,13.94-13.94h0a13.94,13.94,0,0,1,13.94,13.94h0a14,14,0,0,1-13.94,13.94h0A13.94,13.94,0,0,1,245.65,545.42Z"/><path class="cls-52" d="M245.65,511.34a13.92,13.92,0,0,1,13.94-13.94h0a13.94,13.94,0,0,1,13.94,13.94h0a14,14,0,0,1-13.94,13.94h0A13.94,13.94,0,0,1,245.65,511.34Z"/><path class="cls-53" d="M245.65,477.27a13.94,13.94,0,0,1,13.94-13.94h0a14,14,0,0,1,13.94,13.94h0a14,14,0,0,1-13.94,13.94h0A13.94,13.94,0,0,1,245.65,477.27Z"/><path class="cls-54" d="M245.65,443.19a13.94,13.94,0,0,1,13.94-13.94h0a14,14,0,0,1,13.94,13.94h0a14,14,0,0,1-13.94,13.94h0A13.94,13.94,0,0,1,245.65,443.19Z"/><path class="cls-50" d="M313.8,579.49a13.94,13.94,0,0,1,13.94-13.94h0a13.94,13.94,0,0,1,13.94,13.94h0a14,14,0,0,1-13.94,13.94h0A14,14,0,0,1,313.8,579.49Z"/><path class="cls-51" d="M313.8,545.42a13.94,13.94,0,0,1,13.94-13.94h0a13.94,13.94,0,0,1,13.94,13.94h0a14,14,0,0,1-13.94,13.94h0A14,14,0,0,1,313.8,545.42Z"/><path class="cls-52" d="M313.8,511.34a13.94,13.94,0,0,1,13.94-13.94h0a13.94,13.94,0,0,1,13.94,13.94h0a13.94,13.94,0,0,1-13.94,13.94h0A13.94,13.94,0,0,1,313.8,511.34Z"/><path class="cls-53" d="M313.8,477.27a14,14,0,0,1,13.94-13.94h0a14,14,0,0,1,13.94,13.94h0a13.94,13.94,0,0,1-13.94,13.94h0A13.94,13.94,0,0,1,313.8,477.27Z"/><path class="cls-54" d="M313.8,443.19a13.94,13.94,0,0,1,13.94-13.94h0a13.94,13.94,0,0,1,13.94,13.94h0a14,14,0,0,1-13.94,13.94h0A14,14,0,0,1,313.8,443.19Z"/><circle class="cls-55" cx="468.98" cy="298.78" r="13.95"/></svg>