<?xml version="1.0" encoding="UTF-8"?>
<svg width="140px" height="116px" viewBox="0 0 140 116" version="1.1" xmlns="http://www.w3.org/2000/svg" xmlns:xlink="http://www.w3.org/1999/xlink">
    <!-- Generator: Sketch 61.2 (89653) - https://sketch.com -->
    <title>Artboard</title>
    <desc>Created with Sketch.</desc>
    <defs>
        <rect id="path-1" x="0.385536864" y="0.47328479" width="141.059603" height="119"></rect>
        <polygon id="path-3" points="0.655505392 0.567583405 79.6488829 0.567583405 79.6488829 83.3472444 0.655505392 83.3472444"></polygon>
    </defs>
    <g id="Artboard" stroke="none" stroke-width="1" fill="none" fill-rule="evenodd" opacity="0.452566964">
        <g id="Group-25" transform="translate(-1.000000, -1.000000)">
            <g id="ic_schedule" transform="translate(33.090965, 67.055644) rotate(-24.000000) translate(-33.090965, -67.055644) translate(14.090965, 47.555644)">
                <g id="Icon-24px" transform="translate(0.000798, 0.657775)">
                    <path d="M18.763405,3.12943359 C10.1250401,3.12943359 3.12984237,10.1393648 3.12984237,18.7766015 C3.12984237,27.4138383 10.1250401,34.4237695 18.763405,34.4237695 C27.4174192,34.4237695 34.4282661,27.4138383 34.4282661,18.7766015 C34.4282661,10.1393648 27.4174192,3.12943359 18.763405,3.12943359 L18.763405,3.12943359 Z M18.7790542,31.2943359 C11.8621026,31.2943359 6.25968474,25.6926498 6.25968474,18.7766015 C6.25968474,11.8605533 11.8621026,6.25886718 18.7790542,6.25886718 C25.6960059,6.25886718 31.2984237,11.8605533 31.2984237,18.7766015 C31.2984237,25.6926498 25.6960059,31.2943359 18.7790542,31.2943359 L18.7790542,31.2943359 Z" id="Shape" fill="#456DB4"></path>
                    <polygon id="Shape" points="0 0 37.5581085 0 37.5581085 37.5532031 0 37.5532031"></polygon>
                    <polygon id="Shape" fill="#456DB4" points="19.5615148 10.9530176 17.214133 10.9530176 17.214133 20.3413183 25.4299693 25.2701763 26.6036602 23.3455746 19.5615148 19.1677807"></polygon>
                </g>
            </g>
            <g id="Group-22">
                <mask id="mask-2" fill="white">
                    <use xlink:href="#path-1"></use>
                </mask>
                <g id="Mask"></g>
                <g mask="url(#mask-2)">
                    <g transform="translate(-14.325545, -7.451280)">
                        <g id="Group-5" stroke-width="1" fill="none" transform="translate(0.000000, 25.929980)" fill-opacity="0.7">
                            <path d="M88.3255534,72.3937309 L44.2239568,96.3500757 C39.3209091,99.0156226 33.1882246,97.1998479 30.5248725,92.2975145 L1.58190812,39.0356508 C-1.08144393,34.1333174 0.734595342,28.0015263 5.63764304,25.3385622 L11.6747466,22.0582864 C14.1262704,20.7280959 17.1926127,21.6346918 18.5255803,24.0858585 C19.858548,26.5370252 18.9492367,29.6029207 16.4977129,30.9356942 L10.5277744,34.1798095 C10.4502763,34.2133871 10.419277,34.3037884 10.4554428,34.3812752 C10.4631926,34.3993555 10.476109,34.4148529 10.4916086,34.4277673 L39.3467418,87.5320745 C39.3932407,87.5966468 39.4784886,87.6224758 39.5534035,87.5940639 L83.6524168,63.6351362 C83.7169986,63.591227 83.7428313,63.5059915 83.7144153,63.4310876 L54.8360327,10.2828713 C54.7998669,10.1898871 54.6991193,10.143395 54.6087048,10.1769726 C54.6061216,10.1769726 54.6061216,10.1769726 54.6035383,10.1769726 L48.5225192,13.4804944 C46.0735786,14.8132679 43.0046531,13.9040891 41.6716854,11.4529224 C40.341301,9.00433857 41.248029,5.93586012 43.6995529,4.60308666 L49.6927408,1.34863982 C54.5957885,-1.31432422 60.7310563,0.501450482 63.3944083,5.40378389 L92.3347895,58.6630647 C94.9981415,63.5653981 93.1821023,69.6997721 88.2790546,72.3627361 L88.3255534,72.3937309 Z" id="Fill-3" fill="#1CE3E8"></path>
                        </g>
                        <path d="M39.9587186,28.5147933 L29.2381454,34.3366371 C30.1681229,36.0542619 29.5326383,38.200647 27.8147633,39.130489 C26.0994716,40.0629138 23.9553569,39.4275218 23.0227962,37.7150629 L12.0361461,43.6815488 C10.9046736,44.2962776 10.8814241,46.2644431 11.8811499,48.1060467 L16.7066995,56.9808716 C17.7064252,58.8250581 19.4372166,59.8375527 20.5015241,59.2589844 L48.4215133,44.092229 C49.5555691,43.4775001 49.5788186,41.5119175 48.5765095,39.667731 L43.7535432,30.7929061 C42.8080662,28.8918959 41.0901912,27.9000645 39.9587186,28.5147933" id="Fill-6" fill="#456DB4"></path>
                        <path d="M27.6489173,39.1377211 C25.8948765,39.995242 23.7765946,39.2694487 22.9189487,37.5156635 C22.0613029,35.7592953 22.7897852,33.6439049 24.543826,32.786384 C26.261701,31.9443604 28.3360673,32.6236616 29.2247124,34.3154574 C30.175356,35.9736755 29.5992867,38.089066 27.9408269,39.0369882 C27.9408269,39.0369882 27.9408269,39.0369882 27.9408269,39.0369882 L27.7625812,39.1351382 L27.6489173,39.1377211 Z M21.8959736,28.5530202 C17.7911565,30.8388816 16.3135257,36.0227505 18.6023035,40.1295525 C20.888498,44.2363545 26.0731222,45.7111871 30.1779393,43.4253257 C34.2879229,41.1368813 35.7629704,35.9555953 33.4741926,31.8487933 C31.2215806,27.8013979 26.1454538,26.3007363 22.0535531,28.4677847 L21.8959736,28.5530202 Z" id="Fill-8" fill="#456DB4"></path>
                        <g id="Group-12" stroke-width="1" fill="none" transform="translate(99.911170, 54.413019) rotate(23.000000) translate(-99.911170, -54.413019) translate(59.911170, 12.413019)">
                            <mask id="mask-4" fill="white">
                                <use xlink:href="#path-3"></use>
                            </mask>
                            <g id="Clip-11"></g>
                            <polygon id="Fill-10" fill="#FEFEFE" mask="url(#mask-4)" points="50.3108077 124.630712 0.397314083 89.0548037 29.4796885 1.40189859 79.3906916 36.9814577"></polygon>
                        </g>
                        <g id="Group-15" stroke-width="1" fill="none" transform="translate(50.484489, 2.002568)">
                            <path d="M57.9371015,109.099238 L6.48609984,84.0813235 C0.766738609,81.2995464 -1.61503693,74.4083843 1.16714556,68.6898563 L31.388829,6.55575065 C34.1684282,0.837222631 41.0605943,-1.54420593 46.7825388,1.23498836 L53.8245346,4.65990622 C56.6842152,6.05208625 57.875103,9.49766727 56.4853034,12.3569313 C55.0929205,15.2161953 51.6468374,16.4069096 48.7871568,15.0173124 L41.8226591,11.631138 C41.7399945,11.5846459 41.6340804,11.6130577 41.5875815,11.6957103 C41.5772484,11.7163735 41.5694986,11.7396195 41.5669153,11.7602827 L11.4330631,73.7161687 C11.4046472,73.8014042 11.4382297,73.8943884 11.5131445,73.9460462 L62.9615629,98.9613777 C63.0493941,98.9897895 63.1449751,98.9562119 63.1940573,98.881308 L93.3511589,36.8789299 C93.4157406,36.7859457 93.3924912,36.6619668 93.2994935,36.5973944 C93.2994935,36.5973944 93.2969102,36.5948115 93.2969102,36.5948115 L86.203249,33.1440647 C83.3409851,31.7544676 82.1526806,28.3088866 83.5424802,25.4496226 C84.9322798,22.5903586 88.3783629,21.3970614 91.2406268,22.7892414 L98.2309571,26.1883303 C103.950318,28.9701075 106.332094,35.8612696 103.549911,41.5797976 L73.328228,103.713903 C70.5486288,109.435014 63.6564627,111.816443 57.9371015,109.034666 L57.9371015,109.099238 Z" id="Fill-13" fill="#FDD302"></path>
                        </g>
                        <path d="M90.7473697,70.7518309 C89.6184804,70.18876 88.7401684,69.2253404 88.2829295,68.0501235 L82.9820581,54.4589336 C81.9332502,51.8476274 83.2016361,48.8798819 85.8107395,47.8312268 C88.2157644,46.8652243 90.9617811,47.8570557 92.1940012,50.1351685 L92.4187458,50.7266513 L95.8105802,59.288946 L120.310319,48.4097951 C122.932339,47.4282953 125.851435,48.7584858 126.833077,51.3801236 C127.729472,53.7744666 126.698747,56.4632596 124.430636,57.6462252 L95.2035116,70.7414994 C93.9532086,71.3019874 92.5298264,71.3278164 91.2640238,70.8086546 L90.7473697,70.7518309 Z" id="Fill-16" fill="#F58B51"></path>
                        <path d="M141.117531,19.9829768 L128.611918,13.9028436 C127.635441,15.9020038 125.222667,16.7362787 123.220632,15.7599446 C121.22118,14.7861935 120.389367,12.3763531 121.360677,10.3771929 L108.545071,4.14466889 C107.222437,3.5041111 105.383148,4.78522668 104.336923,6.93419475 L99.3021288,17.2890181 C98.2559042,19.4379861 98.4625658,21.713516 99.705119,22.3179133 L132.277579,38.1588041 C133.59763,38.7993619 135.439502,37.5182464 136.483143,35.3692783 L141.520521,25.0118721 C142.65716,22.8758185 142.437582,20.6261175 141.117531,19.9829768" id="Fill-18" fill="#F58B51"></path>
                        <path d="M123.10516,15.6103951 C121.14704,14.5514084 120.415975,12.1079904 121.477699,10.1475736 C122.534257,8.18973968 124.980614,7.46136348 126.938733,8.52035015 C128.858103,9.55609077 129.602085,11.9297707 128.623026,13.877273 C127.713714,15.85577 125.370688,16.7236225 123.391903,15.8144437 C123.391903,15.8144437 123.391903,15.8144437 123.391903,15.8144437 L123.182658,15.7137108 L123.10516,15.6103951 Z M129.111264,3.26157733 C124.267631,0.967967173 118.483688,3.03428263 116.189744,7.87720947 C113.8958,12.7201363 115.962416,18.5058196 120.806049,20.7968468 C125.649681,23.090457 131.436207,21.0241415 133.727569,16.1812147 C135.98793,11.4106089 134.016895,5.70757824 129.294676,3.34939573 L129.111264,3.26157733 Z" id="Fill-20" fill="#F58B51"></path>
                    </g>
                </g>
            </g>
        </g>
    </g>
</svg>