<svg id="Layer_1" data-name="Layer 1" xmlns="http://www.w3.org/2000/svg" xmlns:xlink="http://www.w3.org/1999/xlink" viewBox="0 0 76.19 22.67"><defs><style>.cls-1{fill:none;}.cls-2{clip-path:url(#clip-path);}.cls-3{fill:#5bc7d4;opacity:0.7;}.cls-4{fill:#466db5;}.cls-5{fill:#fff;}.cls-6{fill:#fed402;}.cls-7{fill:#f68b51;}.cls-8{fill:#455b64;opacity:0.2;}.cls-9{clip-path:url(#clip-path-2);}.cls-10{clip-path:url(#clip-path-3);}.cls-11{fill:#63c29d;opacity:0.25;}.cls-12{clip-path:url(#clip-path-4);}.cls-13{fill:#aab0d9;opacity:0.36;}.cls-14{clip-path:url(#clip-path-6);}.cls-15{fill:#e7eeb3;opacity:0.68;}</style><clipPath id="clip-path"><rect class="cls-1" x="15.99" y="-5.81" width="43.38" height="27.6"/></clipPath><clipPath id="clip-path-2"><path class="cls-1" d="M27.65,6.82,28,4.62,29.68,6ZM27,7.66l3.9-1.57L27.58,3.43Z"/></clipPath><clipPath id="clip-path-3"><rect class="cls-1" x="-22.32" y="-44.16" width="233.39" height="241.68"/></clipPath><clipPath id="clip-path-4"><circle class="cls-1" cx="33.83" cy="6.39" r="1.78"/></clipPath><clipPath id="clip-path-6"><rect class="cls-1" x="31.2" y="0.89" width="2.2" height="2.2" transform="translate(14.42 28.96) rotate(-59.98)"/></clipPath></defs><title>quota_full</title><g class="cls-2"><path class="cls-3" d="M40.22,27.66,30.5,32.94a2.23,2.23,0,0,1-3-.89L21.1,20.31a2.23,2.23,0,0,1,.89-3l1.33-.72a1.11,1.11,0,1,1,1.06,2l-1.32.71a0,0,0,0,0,0,0h0L29.42,31a0,0,0,0,0,0,0l9.72-5.28a0,0,0,0,0,0,0L32.84,14a0,0,0,0,0,0,0h0l-1.34.73a1.11,1.11,0,1,1-1.06-2L31.7,12a2.23,2.23,0,0,1,3,.89L41.1,24.64a2.23,2.23,0,0,1-.89,3Z"/><path class="cls-4" d="M29.56,12.28,27.2,13.56a.78.78,0,0,1-1.37.74L23.4,15.62c-.25.14-.25.57,0,1l1.06,2c.22.41.6.63.84.5l6.15-3.34c.25-.14.25-.57,0-1l-1.06-2C30.19,12.36,29.81,12.14,29.56,12.28Z"/><path class="cls-4" d="M25.58,12.29a1.88,1.88,0,1,0,2.55.73,1.88,1.88,0,0,0-2.55-.73Zm1.27,2.33a.78.78,0,1,1,.35-1.06h0a.76.76,0,0,1-.28,1h0l0,0Z"/><rect class="cls-5" x="37.08" y="11.02" width="12.69" height="15.2" transform="translate(12.52 -17.12) rotate(25.93)"/><path class="cls-6" d="M44.65,30.48,33.31,25a2.54,2.54,0,0,1-1.17-3.39L38.8,7.88a2.54,2.54,0,0,1,3.39-1.17l1.55.75a1.27,1.27,0,1,1-1.11,2.28L41.09,9A0,0,0,0,0,41,9h0L34.4,22.68a0,0,0,0,0,0,.05l11.34,5.51a0,0,0,0,0,.05,0l6.65-13.67a0,0,0,0,0,0-.06h0l-1.56-.76A1.27,1.27,0,0,1,52,11.46l1.54.75A2.54,2.54,0,0,1,54.7,15.6L48,29.29a2.54,2.54,0,0,1-3.39,1.17Z"/><path class="cls-7" d="M40.75,21.59a1.12,1.12,0,0,1-.54-.6L39,18a1.12,1.12,0,0,1,2-1l0,.13h0l.75,1.89,5.4-2.4a1.12,1.12,0,0,1,.91,2l-6.44,2.89a1.1,1.1,0,0,1-.87,0Z"/><path class="cls-7" d="M51.85,10.4,49.1,9.06a.89.89,0,0,1-1.6-.78L44.67,6.91c-.29-.14-.7.14-.93.61L42.64,9.8c-.23.47-.19,1,.09,1.11L49.9,14.4c.29.14.7-.14.93-.61l1.11-2.28C52.19,11,52.14,10.54,51.85,10.4Z"/><path class="cls-7" d="M49.21,6.71a2.14,2.14,0,1,0,1,2.85,2.14,2.14,0,0,0-1-2.85ZM47.88,9.43a.89.89,0,1,1,1.22-.38h0a.87.87,0,0,1-1.15.43h0l0,0Z"/></g><rect class="cls-8" x="20.13" y="21.82" width="33.62" height="0.57"/><g class="cls-9"><g class="cls-10"><rect class="cls-11" x="26.12" y="2.58" width="5.59" height="5.93"/></g></g><g class="cls-12"><g class="cls-10"><rect class="cls-13" x="31.2" y="3.77" width="5.25" height="5.25"/></g></g><g class="cls-14"><g class="cls-10"><rect class="cls-15" x="30.36" y="0.04" width="3.9" height="3.9" transform="translate(14.43 28.97) rotate(-60)"/></g></g></svg>