<?xml version="1.0" encoding="utf-8"?>
<!-- Generator: Adobe Illustrator 24.1.0, SVG Export Plug-In . SVG Version: 6.00 Build 0)  -->
<svg version="1.1" id="Layer_1" xmlns="http://www.w3.org/2000/svg" xmlns:xlink="http://www.w3.org/1999/xlink" x="0px" y="0px"
	 viewBox="0 0 1439 160" style="enable-background:new 0 0 1439 160;" xml:space="preserve">
<style type="text/css">
	.st0{opacity:0.41;}
	.st1{fill:#5262BC;fill-opacity:0.4996;}
	.st2{opacity:0.4488;fill:#4A5BAE;fill-opacity:0.3847;enable-background:new    ;}
	.st3{fill:#5262BC;}
	.st4{fill:#E6E6E6;}
	.st5{fill:#4A5BAE;}
</style>
<desc>Created with Sketch.</desc>
<g id="Page-1" class="st0">
	<g id="Step-1" transform="translate(-1.000000, -640.000000)">
		<g id="Group-8" transform="translate(0.000000, 640.000000)">
			<g id="Group-2">
				<g id="COMMUNITY_banner_example_2">
					<g id="Group" transform="translate(0.706994, 0.000000)">
						<path id="Path" class="st1" d="M335,22.9h57.2c2.8-0.1,4.9-2.5,4.8-5.3c0-0.4-0.1-0.8-0.1-1.2h1.9c1.8,0,3.2-1.4,3.2-3.2
							c0.1-1.7-1.2-3-2.8-3.1c0.1-0.3,0.1-0.5,0.1-0.8c0-1.8-1.4-3.2-3.2-3.2h-0.5c-0.1-2.3-2.2-4.1-4.5-4c-1.3,0.1-2.3,0.6-3.1,1.7
							c-0.8-2.7-3.8-4.3-6.3-3.5c-1.6,0.4-2.8,1.7-3.2,3.1c-1.4-0.9-3.4-0.5-4.4,0.9c-0.3,0.5-0.5,1.2-0.5,1.8
							c-1.7,0-3.2,0.6-4.1,1.9c-1.6-1.4-3.9-2.2-6.2-1.8c-3.2,0.5-5.6,3.1-6,6.3c-1.6-1.3-3.8-1.7-5.7-0.8c-1.3-3.8-5.4-5.8-9.3-4.5
							c-2.6,0.8-4.4,3.1-4.8,5.8c-0.5-0.3-1.2-0.3-1.8-0.3c-2.8-0.1-5.2,2.2-5.2,4.9C330.2,20.6,332.2,22.9,335,22.9z"/>
						<path id="Path_1_" class="st1" d="M568.3,25.5c0.4,0.1,0.8,0.3,1.3,0.3h60.5c3,0,5.3-2.3,5.3-5.3s-2.5-5.3-5.4-5.3
							c-1,0-2.1,0.3-3,0.9c-0.3-3-3-5-6-4.8c-2.3,0.3-4.3,2.1-4.7,4.3c-1.6-2.6-4.8-3.4-7.4-1.9c-0.4,0.3-0.8,0.5-1.2,0.9
							c-0.8-4.3-4.8-7-8.9-6.3c-3.2,0.6-5.8,3.2-6.3,6.5c-1.7-1.4-4-1.8-6-0.8c-1.3-4-5.8-6.3-9.8-4.8c-2.8,0.9-4.8,3.4-5.2,6.1
							c-2.8-1-5.8,0.5-6.9,3.4S565.6,24.5,568.3,25.5z"/>
						<path id="Path_2_" class="st1" d="M21.1,25.5c0.4,0.1,0.8,0.3,1.3,0.3H83c3,0,5.3-2.3,5.3-5.3s-2.5-5.3-5.4-5.3
							c-1,0-2.1,0.3-3,0.9c-0.3-3-3-5-6-4.8c-2.3,0.3-4.3,2.1-4.7,4.3c-1.6-2.6-4.8-3.4-7.4-1.9c-0.4,0.3-0.8,0.5-1.2,0.9
							c-0.8-4.3-4.8-7-8.9-6.3c-3.2,0.6-5.8,3.2-6.3,6.5c-1.7-1.4-4-1.8-6-0.8c-1.3-4-5.8-6.3-9.8-4.8c-2.8,0.9-4.8,3.4-5.2,6.1
							c-2.8-1-5.8,0.5-6.9,3.4C16.6,21.4,18.3,24.5,21.1,25.5z"/>
						<path id="Path_3_" class="st1" d="M448.5,47.4H476c1.8,0.1,3.4-1.3,3.5-3.2c0.3-1.8-1.2-3.4-3-3.5c0.1-0.3,0.1-0.5,0.1-0.8
							c0-1.8-1.6-3.4-3.4-3.4h-0.5c-0.3-2.5-2.3-4.3-4.8-4.1c-1.3,0.1-2.3,0.8-3.2,1.7c-0.8-2.8-3.9-4.5-6.9-3.8
							c-1.7,0.5-3,1.8-3.6,3.4c-0.5-0.3-1.2-0.5-1.8-0.5c-1.8,0-3.4,1.6-3.4,3.4c-3,0.1-5.4,2.6-5.3,5.6
							C443.7,44.8,445.8,47.2,448.5,47.4z"/>
						<path id="Shape" class="st2" d="M710.7,146V74.7h-34.5v71.4h-27.6V79.7H611V146h-54.8v-46h-9.3V84.1h-2.5v2.2h-18.2V84h0.5
							v-2.1h-5V84h0.5v2.3h-7.5v-2.2h-2.5v22.3h-9.4v-1.8l-9.4-11.1H492l-1.7,1.9h-1c0-4.1,0-6.3,0-9.2h0.9v-1.7h-1.3l-5.4-12.3
							l-5.4,12.4h-1v1.7h0.6v9.2H471l-1.7-1.9h-1.4l-9.4,11.1h1.4h-1.4V146h-0.9v0.3h-18.2V99H435V87.6h0.8v-1.2H435v-6.2
							c0-1.8-2.7-1.8-2.7,0l-17.9-7l-18.2,7.1v-0.1c0-0.8-0.6-1.3-1.3-1.3c-0.8,0-1.3,0.6-1.3,1.3v6.2h-0.9v1.2h0.9v9.8
							c-3,3.2-4.9,7.5-4.9,12.2c0,4.8,1.8,9.1,4.9,12.2v22.9c-0.8-3.5-3.9-6.1-7.5-6.1c-1.6,0-3,0.5-4.1,1.3l-2.7-3.6l0.4-1.2h0.5
							c0.4,0,0.6-0.3,0.6-0.6s-0.3-0.6-0.6-0.6h-3.5c-0.4,0-0.6,0.3-0.6,0.6s0.3,0.6,0.6,0.6h1.7l-0.1,0.5l-12.8-2.1l0.4-1.6
							c0,0,0,0,0-0.1l-1.9-1.2c-0.3-0.1-0.6-0.1-0.9,0.3c-0.1,0.3-0.1,0.6,0.3,0.9l1.6,0.9l-0.4,1.8l-1.8,5
							c-0.6-0.3-1.4-0.4-2.2-0.4c-4,0-7.4,3.2-7.6,7.4h-6.5V75.8c0-0.4-0.3-0.6-0.6-0.6H343v-5.8c0-0.4-0.3-0.6-0.6-0.6h-15.1
							c-0.4,0-0.6,0.3-0.6,0.6v5.8h-32.1c-0.4,0-0.6,0.3-0.6,0.6V146h-2.2V57.5c0-0.4-0.3-0.6-0.6-0.6h-4.5v-6.7
							c0-0.4-0.3-0.6-0.6-0.6h-5.2c-0.3-2.8-2.7-5.2-5.7-5.2h-18.6c-3,0-5.4,2.2-5.7,5.2h-4.8c-0.4,0-0.6,0.3-0.6,0.6v6.7H241
							c-0.4,0-0.6,0.3-0.6,0.6V146h-2.2V24c0-0.4-0.3-0.6-0.6-0.6h-5.4V18c0-0.4-0.3-0.6-0.6-0.6h-38.5c-0.4,0-0.6,0.3-0.6,0.6v5.4
							h-4.8c-0.4,0-0.6,0.3-0.6,0.6v122h-6.7V75.6h4.9c0.4,0,0.6-0.3,0.6-0.6v-6.5c0-0.4-0.3-0.6-0.6-0.6h-8.8v-8.7
							c0-0.4-0.3-0.6-0.6-0.6h-12.5c-0.4,0-0.6,0.3-0.6,0.6v8.7h-12v-5.2c0-0.1-0.1-0.4-0.1-0.5l-4-4c3.1-3.5,3-8.8-0.4-12
							c-0.1-0.1-0.3-0.1-0.5-0.1c-0.1,0-0.4,0.1-0.5,0.1l-11.5,11.5c-0.3,0.3-0.3,0.6,0,0.9c1.7,1.7,3.9,2.6,6.2,2.6
							c2.1,0,4.1-0.8,5.7-2.1l3.8,3.8v4.9h-18.2c-0.4,0-0.6,0.3-0.6,0.6v6.5c0,0.4,0.3,0.6,0.6,0.6h4.9v70.4H133V81.5
							c0-0.4-0.3-0.6-0.6-0.6H93.6c-0.4,0-0.6,0.3-0.6,0.6V146H77.4v-12.8c0-0.4-0.3-0.6-0.6-0.6h-0.9v-26.7h2.6
							c3.2,0,6,1.9,6.1,4.4H81c-0.4,0-0.6,0.3-0.6,0.6c0,0.4,0.3,0.6,0.6,0.6h1.6c-0.4,0.5-0.6,1.2-0.6,1.9c0,1.8,1.4,3.2,3.1,3.2
							s3.1-1.4,3.1-3.2c0-0.6-0.3-1.4-0.6-1.9H89c0.4,0,0.6-0.3,0.6-0.6c0-0.4-0.3-0.6-0.5-0.6h-3.5c-0.1-3.1-3.4-5.6-7.4-5.6H75h-3
							c-4,0-7.2,2.5-7.4,5.6h-3.5c-0.4,0-0.6,0.3-0.6,0.6c0,0.4,0.3,0.6,0.6,0.6h1.6c-0.4,0.5-0.6,1.2-0.6,1.9
							c0,1.8,1.4,3.2,3.1,3.2s3.1-1.4,3.1-3.2c0-0.6-0.3-1.4-0.6-1.9h1.8c0.4,0,0.6-0.3,0.6-0.6c0-0.4-0.3-0.6-0.6-0.6H66
							c0.1-2.5,2.7-4.4,6.1-4.4h2.6v26.7h-0.8c-0.4,0-0.6,0.3-0.6,0.6V146H69v-0.1V144c0-0.4-0.3-0.6-0.6-0.6h-5.8v-2.5h2.2
							c0.4,0,0.6-0.3,0.6-0.6V138c0-0.4-0.3-0.6-0.6-0.6h-2.2v-0.6h2.2c0.4,0,0.6-0.3,0.6-0.6v-2.3c0-0.4-0.3-0.6-0.6-0.6h-27
							c-0.4,0-0.6,0.3-0.6,0.6v2.3c0,0.4,0.3,0.6,0.6,0.6h1.9v0.6h-1.9c-0.4,0-0.6,0.3-0.6,0.6v2.3c0,0.4,0.3,0.6,0.6,0.6h1.9v2.5
							h-5.6c-0.4,0-0.6,0.3-0.6,0.6v1.9c0,0.4,0.3,0.6,0.6,0.6h2.1v6.9H22V132c5-0.6,8.9-8.8,8.9-19.1c0-10.7-4.1-19.1-9.6-19.1
							s-9.6,8.4-9.6,19.1c0,10.3,3.9,18.5,8.9,19.1v21.3H11c-0.4,0-0.6,0.3-0.6,0.6c0,0.4,0.3,0.6,0.6,0.6h25.9h1.9h12.4v6.5h661.3
							v-15H710.7z M385.9,145.1c0.1,0,0.3,0,0.4,0c0.6,0,1.2,0.4,1.4,1h-1L385.9,145.1z M375.6,146l0.1-0.5c0.1,0.1,0.3,0.3,0.3,0.5
							H375.6z M360.7,146l0.1-0.5c0.1,0.1,0.3,0.3,0.3,0.5H360.7z M359.3,146h-0.9c0.3-0.5,0.8-0.9,1.3-1L359.3,146z M386,139.9
							c3.4,0,6.1,2.7,6.3,6.1H389c-0.3-1.3-1.4-2.3-2.7-2.3c-0.4,0-0.9,0.1-1.2,0.3l-2.5-3.1C383.7,140.3,384.8,139.9,386,139.9z
							 M384.1,144.8c-0.3,0.4-0.4,0.8-0.5,1.2h-3.9c0.1-1.7,0.9-3.2,2.1-4.3L384.1,144.8z M378.7,137.7l2.2,3
							c-1.4,1.3-2.3,3.2-2.6,5.3h-1c-0.1-0.8-0.5-1.4-1.2-1.8L378.7,137.7z M377.5,136.9l-2.6,6.9c-0.1,0-0.3,0-0.4,0l-0.1-1h0.4
							c0.4,0,0.6-0.3,0.6-0.6c0-0.4-0.3-0.6-0.6-0.6h-2.2c-0.4,0-0.6,0.3-0.6,0.6c0,0.4,0.3,0.6,0.6,0.6h0.5l0.1,1.3c0,0,0,0-0.1,0
							l-7.4-9.1L377.5,136.9z M364.6,135.3l7.8,9.4c-0.3,0.3-0.4,0.6-0.5,1h-4.5c-0.3-2.8-1.9-5.4-4.3-6.6L364.6,135.3z
							 M362.6,140.7c1.9,1,3.2,3,3.5,5.3h-3.6c-0.1-0.8-0.5-1.4-1.2-1.8L362.6,140.7z M359.8,139.9c0.6,0,1.2,0.1,1.7,0.3l-1.3,3.6
							c-0.1,0-0.3,0-0.4,0c-1.3,0-2.5,1-2.7,2.3h-3.6C353.7,142.6,356.4,139.9,359.8,139.9z M58.8,140.8v2.5H43.4v-2.5H58.8z
							 M43.4,137.3v-0.6h15.4v0.6H43.4z M61.1,137.3h-1v-0.6h1V137.3z M39.4,153.3v-6.9h11.8v6.9H39.4z"/>
						<g transform="translate(0.280761, 77.048780)">
							<path id="Shape_1_" class="st3" d="M351.4,77.5h7.1c0.4,0,0.6-0.3,0.6-0.6V65.7c0-0.4-0.3-0.6-0.6-0.6h-7.1
								c-0.4,0-0.6,0.3-0.6,0.6v11.1C350.8,77.2,351,77.5,351.4,77.5z M352.1,76.3V69h5.8v7.4L352.1,76.3L352.1,76.3z M357.9,66.4
								v1.3h-5.8v-1.3H357.9z"/>
							<path id="Shape_2_" class="st3" d="M361.6,77.5h7.1c0.4,0,0.6-0.3,0.6-0.6V65.7c0-0.4-0.3-0.6-0.6-0.6h-7.1
								c-0.4,0-0.6,0.3-0.6,0.6v11.1C361,77.2,361.2,77.5,361.6,77.5z M362.1,76.3V69h5.8v7.4L362.1,76.3L362.1,76.3z M368.1,66.4
								v1.3h-5.8v-1.3H368.1z"/>
							<path id="Shape_3_" class="st3" d="M333.1,43.7h7.1c0.4,0,0.6-0.3,0.6-0.6V31.9c0-0.4-0.3-0.6-0.6-0.6h-7.1
								c-0.4,0-0.6,0.3-0.6,0.6V43C332.5,43.4,332.8,43.7,333.1,43.7z M333.7,42.5v-7.4h5.8v7.4H333.7z M339.5,32.6v1.3h-5.8v-1.3
								H339.5z"/>
							<path id="Shape_4_" class="st3" d="M343.3,43.7h7.1c0.4,0,0.6-0.3,0.6-0.6V31.9c0-0.4-0.3-0.6-0.6-0.6h-7.1
								c-0.4,0-0.6,0.3-0.6,0.6V43C342.6,43.4,342.9,43.7,343.3,43.7z M343.9,42.5v-7.4h5.8v7.4H343.9z M349.7,32.6v1.3h-5.8v-1.3
								H349.7z"/>
							<path id="Shape_5_" class="st3" d="M377.4,43.7h7.1c0.4,0,0.6-0.3,0.6-0.6V31.9c0-0.4-0.3-0.6-0.6-0.6h-7.1
								c-0.4,0-0.6,0.3-0.6,0.6V43C376.8,43.4,377,43.7,377.4,43.7z M378,42.5v-7.4h5.8v7.4H378z M383.9,32.6v1.3H378v-1.3H383.9z"
								/>
							<path id="Shape_6_" class="st3" d="M367.2,43.7h7.1c0.4,0,0.6-0.3,0.6-0.6V31.9c0-0.4-0.3-0.6-0.6-0.6h-7.1
								c-0.4,0-0.6,0.3-0.6,0.6V43C366.5,43.4,366.9,43.7,367.2,43.7z M367.8,42.5v-7.4h5.8v7.4H367.8z M373.6,32.6v1.3h-5.8v-1.3
								H373.6z"/>
							<path id="Shape_7_" class="st3" d="M355.3,28.7h7.1c0.4,0,0.6-0.3,0.6-0.6V21c0-0.4-0.3-0.6-0.6-0.6h-7.1
								c-0.4,0-0.6,0.3-0.6,0.6v7C354.6,28.3,354.9,28.7,355.3,28.7z M355.8,21.6h5.8v5.8h-5.8V21.6z"/>
							<path id="Path_4_" class="st4" d="M399.2,78.9h-4.9c-0.4,0-0.6,0.3-0.6,0.6c0,0.4,0.3,0.6,0.6,0.6h4.9c0.4,0,0.6-0.3,0.6-0.6
								C399.9,79.2,399.6,78.9,399.2,78.9z"/>
							<path id="Shape_8_" class="st5" d="M196.9,55h0.9h9.2h0.9c0.4,0,0.6-0.3,0.6-0.6s-0.3-0.6-0.6-0.6h-0.3V41.6
								c0-0.4-0.3-0.6-0.6-0.6h-9.2c-0.4,0-0.6,0.3-0.6,0.6v12.3h-0.3c-0.4,0-0.6,0.3-0.6,0.6C196.3,54.8,196.5,55,196.9,55z
								 M206.5,42.1v5.2h-8v-5.2H206.5z M198.5,48.6h8v5.2h-8V48.6z"/>
							<path id="Shape_9_" class="st5" d="M222.6,55h0.9h9.2h0.9c0.4,0,0.6-0.3,0.6-0.6s-0.3-0.6-0.6-0.6h-0.3V35.4
								c0-0.4-0.3-0.6-0.6-0.6h-9.1c-0.4,0-0.6,0.3-0.6,0.6v18.5h-0.3c-0.4,0-0.6,0.3-0.6,0.6C222.1,54.8,222.4,55,222.6,55z
								 M224.2,42.5h8v4.9h-8V42.5z M232.2,36v5.2h-8V36H232.2z M224.2,48.6h8v5.2h-8V48.6z"/>
							<path id="Shape_10_" class="st5" d="M249.3,55h0.9h9.2h0.9c0.4,0,0.6-0.3,0.6-0.6s-0.3-0.6-0.6-0.6H260V41.6
								c0-0.4-0.3-0.6-0.6-0.6h-9.2c-0.4,0-0.6,0.3-0.6,0.6v12.3h-0.3c-0.4,0-0.6,0.3-0.6,0.6C248.6,54.8,248.9,55,249.3,55z
								 M258.7,42.1v5.2h-7.9v-5.2H258.7z M250.8,48.6h8v5.2h-8L250.8,48.6L250.8,48.6z"/>
							<path id="Shape_11_" class="st5" d="M208,73.5h-0.3V61.2c0-0.4-0.3-0.6-0.6-0.6h-9.3c-0.4,0-0.6,0.3-0.6,0.6v12.3h-0.3
								c-0.4,0-0.6,0.3-0.6,0.6s0.3,0.6,0.6,0.6h0.9h9.2h0.9c0.4,0,0.6-0.3,0.6-0.6S208.3,73.5,208,73.5z M206.5,61.9V67h-8v-5.2h8
								V61.9z M198.5,73.5v-5.2h8v5.2H198.5z"/>
							<path id="Shape_12_" class="st5" d="M249.3,74.8h0.9h9.2h0.9c0.4,0,0.6-0.3,0.6-0.6s-0.3-0.6-0.6-0.6H260V61.2
								c0-0.4-0.3-0.6-0.6-0.6h-9.2c-0.4,0-0.6,0.3-0.6,0.6v12.3h-0.3c-0.4,0-0.6,0.3-0.6,0.6C248.6,74.4,248.9,74.8,249.3,74.8z
								 M258.7,61.9V67h-7.9v-5.2h7.9V61.9z M250.8,68.3h8v5.2h-8L250.8,68.3L250.8,68.3z"/>
							<path id="Shape_13_" class="st5" d="M223.3,61.5h-1.8c-0.4,0-0.6,0.3-0.6,0.6v14.7c0,0.4,0.3,0.6,0.6,0.6h1.8
								c0.4,0,0.6-0.3,0.6-0.6V62.1C223.9,61.7,223.7,61.5,223.3,61.5z M222.6,76.3H222V62.8h0.6V76.3z"/>
							<path id="Shape_14_" class="st5" d="M231.3,61.5h-6.2c-0.4,0-0.6,0.3-0.6,0.6v9.6c0,0.4,0.3,0.6,0.6,0.6h6.2
								c0.4,0,0.6-0.3,0.6-0.6v-9.6C231.9,61.7,231.7,61.5,231.3,61.5z M230.7,71h-4.9v-8.3h4.9V71z"/>
							<path id="Shape_15_" class="st5" d="M231.3,72.8h-6.2c-0.4,0-0.6,0.3-0.6,0.6v3.4c0,0.4,0.3,0.6,0.6,0.6h6.2
								c0.4,0,0.6-0.3,0.6-0.6v-3.4C231.9,73.1,231.7,72.8,231.3,72.8z M230.7,76.3h-4.9v-2.2h4.9V76.3z"/>
							<path id="Shape_16_" class="st5" d="M235,61.5h-1.8c-0.4,0-0.6,0.3-0.6,0.6v14.7c0,0.4,0.3,0.6,0.6,0.6h1.8
								c0.4,0,0.6-0.3,0.6-0.6V62.1C235.6,61.7,235.3,61.5,235,61.5z M234.4,76.3h-0.6V62.8h0.6V76.3z"/>
							<path id="Shape_17_" class="st5" d="M658.3,44.8h-9.2c-0.4,0-0.6,0.3-0.6,0.6v13.2c0,0.4,0.3,0.6,0.6,0.6h9.2
								c0.4,0,0.6-0.3,0.6-0.6V45.5C659,45.1,658.7,44.8,658.3,44.8z M657.7,46.1v4h-8v-4H657.7z M649.7,51.3h3.4V58h-3.4V51.3z
								 M654.3,58.1v-6.7h3.4v6.7H654.3z"/>
							<path id="Shape_18_" class="st5" d="M658.3,61.5h-9.2c-0.4,0-0.6,0.3-0.6,0.6v13.2c0,0.4,0.3,0.6,0.6,0.6h9.2
								c0.4,0,0.6-0.3,0.6-0.6V62.1C659,61.7,658.7,61.5,658.3,61.5z M657.7,62.6v4h-8v-4H657.7z M649.7,67.9h3.4v6.7h-3.4V67.9z
								 M654.3,74.6v-6.7h3.4v6.7H654.3z"/>
							<path id="Shape_19_" class="st5" d="M663.3,59.3h9.2c0.4,0,0.6-0.3,0.6-0.6V45.5c0-0.4-0.3-0.6-0.6-0.6h-9.2
								c-0.4,0-0.6,0.3-0.6,0.6v13.2C662.6,59,663,59.3,663.3,59.3z M663.9,51.3h3.4V58h-3.4V51.3z M668.6,58.1v-6.7h3.4v6.7H668.6z
								 M671.9,46.1v4h-8v-4H671.9z"/>
							<path id="Shape_20_" class="st5" d="M617.5,54.1h-0.6V41.2c0-0.4-0.3-0.6-0.6-0.6h-8.7c-0.4,0-0.6,0.3-0.6,0.6v12.9h-0.5
								c-0.4,0-0.6,0.3-0.6,0.6s0.3,0.6,0.6,0.6h1.3h8.7h1.3c0.4,0,0.6-0.3,0.6-0.6C618,54.4,617.7,54.1,617.5,54.1z M615.6,41.7
								v5.6h-7.4v-5.6H615.6z M608.2,54.1v-5.6h7.4v5.6H608.2z"/>
							<path id="Shape_21_" class="st5" d="M643,54.1h-0.6V41.2c0-0.4-0.3-0.6-0.6-0.6H633c-0.4,0-0.6,0.3-0.6,0.6v12.9h-0.6
								c-0.4,0-0.6,0.3-0.6,0.6s0.3,0.6,0.6,0.6h1.3h8.7h1.3c0.4,0,0.6-0.3,0.6-0.6S643.3,54.1,643,54.1z M641.1,41.7v5.6h-7.4v-5.6
								H641.1z M633.8,54.1v-5.6h7.4v5.6H633.8z"/>
							<path id="Shape_22_" class="st5" d="M630.2,54.1h-0.5V41.2c0-0.4-0.3-0.6-0.6-0.6h-8.7c-0.4,0-0.6,0.3-0.6,0.6v12.9H619
								c-0.4,0-0.6,0.3-0.6,0.6s0.3,0.6,0.6,0.6h1.3h8.7h1.3c0.4,0,0.6-0.3,0.6-0.6C630.8,54.4,630.5,54.1,630.2,54.1z M628.3,41.7
								v5.6H621v-5.6H628.3z M621,54.1v-5.6h7.4v5.6H621z"/>
							<path id="Shape_23_" class="st5" d="M617.5,74h-0.6V61.1c0-0.4-0.3-0.6-0.6-0.6h-8.7c-0.4,0-0.6,0.3-0.6,0.6V74h-0.5
								c-0.4,0-0.6,0.3-0.6,0.6c0,0.4,0.3,0.6,0.6,0.6h1.3h8.7h1.3c0.4,0,0.6-0.3,0.6-0.6C618,74.4,617.7,74,617.5,74z M615.6,61.7
								v5.6h-7.4v-5.6C608.2,61.7,615.6,61.7,615.6,61.7z M608.2,74v-5.6h7.4V74H608.2z"/>
							<path id="Shape_24_" class="st5" d="M643,74h-0.6V61.1c0-0.4-0.3-0.6-0.6-0.6H633c-0.4,0-0.6,0.3-0.6,0.6V74h-0.6
								c-0.4,0-0.6,0.3-0.6,0.6c0,0.4,0.3,0.6,0.6,0.6h1.3h8.7h1.3c0.4,0,0.6-0.3,0.6-0.6C643.6,74.4,643.3,74,643,74z M641.1,61.7
								v5.6h-7.4v-5.6C633.7,61.7,641.1,61.7,641.1,61.7z M633.8,74v-5.6h7.4V74H633.8z"/>
							<path id="Shape_25_" class="st5" d="M630.2,74h-0.5V61.1c0-0.4-0.3-0.6-0.6-0.6h-8.7c-0.4,0-0.6,0.3-0.6,0.6V74H619
								c-0.4,0-0.6,0.3-0.6,0.6c0,0.4,0.3,0.6,0.6,0.6h1.3h8.7h1.3c0.4,0,0.6-0.3,0.6-0.6C630.8,74.4,630.5,74,630.2,74z
								 M628.3,61.7v5.6H621v-5.6C621,61.7,628.3,61.7,628.3,61.7z M621,74v-5.6h7.4V74H621z"/>
							<path id="Shape_26_" class="st5" d="M624.6,30.5c2.5,0,4.5-1.9,4.5-4.5c0-2.5-1.9-4.5-4.5-4.5c-2.5,0-4.5,1.9-4.5,4.5
								C620.2,28.4,622.1,30.5,624.6,30.5z M621.5,26.6h2.6v2.6C622.8,28.9,621.8,27.9,621.5,26.6z M625.2,29.2v-2.6h2.6
								C627.6,27.9,626.5,28.9,625.2,29.2z M627.8,25.5h-2.6v-2.6C626.5,23.1,627.6,24.2,627.8,25.5z M624.1,22.9v2.6h-2.6
								C621.8,24.2,622.8,23.1,624.1,22.9z"/>
							<path id="Shape_27_" class="st5" d="M667.8,69.1c1.4,0,2.5-1.2,2.5-2.5c0-1.4-1.2-2.5-2.5-2.5s-2.5,1.2-2.5,2.5
								C665.3,68.1,666.5,69.1,667.8,69.1z M667.8,65.5c0.6,0,1.3,0.5,1.3,1.3c0,0.6-0.5,1.3-1.3,1.3s-1.3-0.5-1.3-1.3
								C666.6,66,667.1,65.5,667.8,65.5z"/>
							<path id="Shape_28_" class="st3" d="M31.7,46.8h13.8c0.4,0,0.6-0.3,0.6-0.6V32.3c0-0.4-0.3-0.6-0.6-0.6H31.7
								c-0.4,0-0.6,0.3-0.6,0.6v13.8C31,46.5,31.3,46.8,31.7,46.8z M32.3,32.9H45v12.7H32.3V32.9z"/>
							<path id="Shape_29_" class="st3" d="M31.7,75.7h9.2c0.4,0,0.6-0.3,0.6-0.6V61.2c0-0.4-0.3-0.6-0.6-0.6h-9.2
								c-0.4,0-0.6,0.3-0.6,0.6V75C31,75.4,31.3,75.7,31.7,75.7z M32.3,61.9h8v12.7h-8V61.9z"/>
							<path id="Shape_30_" class="st3" d="M82.5,46.8h13.8c0.4,0,0.6-0.3,0.6-0.6V32.3c0-0.4-0.3-0.6-0.6-0.6H82.5
								c-0.4,0-0.6,0.3-0.6,0.6v13.8C81.8,46.5,82.1,46.8,82.5,46.8z M83,32.9h12.7v12.7H83V32.9z"/>
							<path id="Shape_31_" class="st3" d="M86.5,61.2V75c0,0.4,0.3,0.6,0.6,0.6h9.2c0.4,0,0.6-0.3,0.6-0.6V61.2
								c0-0.4-0.3-0.6-0.6-0.6h-9.2C86.8,60.6,86.5,60.8,86.5,61.2z M87.7,61.9h8v12.7h-8V61.9z"/>
							<path id="Shape_32_" class="st3" d="M60.4,40h7.1c0.4,0,0.6-0.3,0.6-0.6v-7.1c0-0.4-0.3-0.6-0.6-0.6h-7.1
								c-0.4,0-0.6,0.3-0.6,0.6v7.1C59.9,39.8,60.1,40,60.4,40z M61,32.9h5.8v5.8H61V32.9z"/>
							<path id="Shape_33_" class="st3" d="M67.4,64.3h-6.7c-0.4,0-0.6,0.3-0.6,0.6v13.2c0,0.4,0.3,0.6,0.6,0.6h6.7
								c0.4,0,0.6-0.3,0.6-0.6V64.8C68,64.6,67.7,64.3,67.4,64.3z M66.7,77.5h-5.6v-12h5.6V77.5z"/>
							<path id="Shape_34_" class="st3" d="M120.9,52.3c-1.2,0-2.2,0.9-2.2,2.2s0.9,2.2,2.2,2.2s2.2-0.9,2.2-2.2
								S122,52.3,120.9,52.3z M120.9,55.4c-0.5,0-0.9-0.4-0.9-0.9s0.4-0.9,0.9-0.9s0.9,0.4,0.9,0.9
								C121.8,54.9,121.4,55.4,120.9,55.4z"/>
							<path id="Shape_35_" class="st3" d="M486.9,42.6l-8.4-5.2c-0.3-0.1-0.4-0.1-0.6,0l-8.4,5.2c-0.3,0.1-0.4,0.5-0.3,0.9l1.4,2.3
								c0.1,0.1,0.3,0.3,0.4,0.3h0.1c0.1,0,0.3,0,0.3-0.1l0.4-0.3v9c0,0.4,0.3,0.6,0.6,0.6h11.1c0.4,0,0.6-0.3,0.6-0.6v-9l0.4,0.3
								c0.1,0.1,0.3,0.1,0.5,0.1c0.1,0,0.3-0.1,0.4-0.3l1.4-2.3C487.3,43.1,487.3,42.8,486.9,42.6z M483.2,54.1h-9.8V45l4.9-3l4.9,3
								V54.1L483.2,54.1z M485,44.6l-0.8-0.5l0,0l-5.6-3.4c0,0,0,0-0.1,0s-0.3,0-0.5,0c0,0,0,0-0.1,0l-5.6,3.4l0,0l-0.8,0.5
								l-0.8-1.3l7.5-4.6l7.5,4.6L485,44.6z"/>
							<path id="Shape_36_" class="st5" d="M534,37.5l-8.4,5.2c-0.3,0.1-0.4,0.5-0.3,0.9l1.4,2.3c0.1,0.1,0.3,0.3,0.4,0.3h0.1
								c0.1,0,0.3,0,0.3-0.1l0.4-0.3v9c0,0.4,0.3,0.6,0.6,0.6h11.1c0.4,0,0.6-0.3,0.6-0.6v-9l0.4,0.3c0.1,0.1,0.3,0.1,0.5,0.1
								c0.1,0,0.3-0.1,0.4-0.3l1.4-2.3c0.1-0.3,0.1-0.6-0.3-0.9l-8.4-5.2C534.4,37.3,534.2,37.3,534,37.5z M539.3,54.1h-9.8V45
								l4.9-3l4.9,3L539.3,54.1L539.3,54.1z M541.9,43.3l-0.8,1.3l-0.8-0.5l0,0l-5.6-3.4c0,0,0,0-0.1,0s-0.3,0-0.5,0c0,0,0,0-0.1,0
								l-5.6,3.4l0,0l-0.8,0.5l-0.8-1.3l7.5-4.6L541.9,43.3z"/>
							<path id="Shape_37_" class="st5" d="M475.8,65.5h-6.2c-0.4,0-0.6,0.3-0.6,0.6v11.1c0,0.4,0.3,0.6,0.6,0.6h6.2
								c0.4,0,0.6-0.3,0.6-0.6V66.1C476.4,65.7,476.2,65.5,475.8,65.5z M475.1,76.6h-4.9v-9.8h4.9V76.6z"/>
							<path id="Shape_38_" class="st5" d="M485.6,65.5h-6.2c-0.4,0-0.6,0.3-0.6,0.6v11.1c0,0.4,0.3,0.6,0.6,0.6h6.2
								c0.4,0,0.6-0.3,0.6-0.6V66.1C486.3,65.7,486,65.5,485.6,65.5z M485.1,76.6h-4.9v-9.8h4.9V76.6z"/>
							<path id="Shape_39_" class="st5" d="M542.9,65.5h-6.2c-0.4,0-0.6,0.3-0.6,0.6v11.1c0,0.4,0.3,0.6,0.6,0.6h6.2
								c0.4,0,0.6-0.3,0.6-0.6V66.1C543.5,65.7,543.3,65.5,542.9,65.5z M542.2,76.6h-4.9v-9.8h4.9V76.6z"/>
							<path id="Shape_40_" class="st5" d="M533.1,65.5h-6.2c-0.4,0-0.6,0.3-0.6,0.6v11.1c0,0.4,0.3,0.6,0.6,0.6h6.2
								c0.4,0,0.6-0.3,0.6-0.6V66.1C533.7,65.7,533.5,65.5,533.1,65.5z M532.4,76.6h-4.9v-9.8h4.9V76.6z"/>
							<path id="Shape_41_" class="st5" d="M723.1,82.8c0-0.4-0.3-0.6-0.6-0.6h-8.8v-20v-6.6c0-8-6.5-14.5-14.5-14.5
								c-5,0-9.7,2.6-12.3,6.8c-1.3-0.4-2.5-0.6-3.7-0.6c-2.3,0-4.4,0.6-6.3,1.8v-5.6h1.8c0.4,0,0.6-0.3,0.6-0.6V19.1
								c0-0.4-0.3-0.6-0.6-0.6h-46.2l-7.4-6.7c-0.3-0.3-0.6-0.3-0.8,0L599.6,34c-0.1,0.1-0.3,0.3-0.3,0.5c0,0.1,0.1,0.4,0.3,0.5
								l2.2,1.7c0.1,0.1,0.3,0.1,0.4,0.1s0.3,0,0.4-0.1l0.6-0.6v7.2c-1-0.6-2.2-0.9-3.5-0.9c-1.7,0-3.2,0.6-4.4,1.7
								c-1.6-3.5-5-5.8-8.9-5.8c-5.2,0-9.6,4.1-9.8,9.2c-0.6-0.1-1.3-0.3-1.9-0.3c-4.5,0-8.3,3.7-8.3,8.3V62v20h-17.8V59.8h4.3
								c0.1,0,0.1,0,0.3,0l0,0c0,0,0.1,0,0.1-0.1c0,0,0,0,0.1,0c0,0,0-0.1,0.1-0.1c0,0,0,0,0-0.1c0,0,0,0,0-0.1v-0.1l0,0V59v-0.1
								l-9.8-25.8c-0.1-0.3-0.3-0.4-0.5-0.4h-8v-3.1h0.6c0.4,0,0.6-0.3,0.6-0.6v-1.5c0-0.4-0.3-0.6-0.6-0.6h-8.7
								c-0.4,0-0.6,0.3-0.6,0.6v1.8c0,0.4,0.3,0.6,0.6,0.6h0.6V33h-42.5v-3.1h0.6c0.4,0,0.6-0.3,0.6-0.6v-1.8c0-0.4-0.3-0.6-0.6-0.6
								H477c-0.4,0-0.6,0.3-0.6,0.6v1.8c0,0.4,0.3,0.6,0.6,0.6h0.6V33h-4.5c-0.8-1.3-1.8-2.3-3-3.2c0.9-1.4,1.4-3,1.4-4.6
								c0-4.6-3.9-8.5-8.5-8.5c-2.2,0-4.3,0.9-5.8,2.3c-2.3-2.7-5.7-4.3-9.3-4.3c-6.7,0-12.3,5.6-12.3,12.3c0,4.1,1.9,7.9,5.4,10.2
								c0,0.1,0,0.1,0,0.3c0,4.1,3.4,7.6,7.6,7.6c0.1,0,0.1,0,0.3,0c0.8,2.5,2.3,4.6,4.4,6.3c-1.2,5-2.2,10.7-2.8,16.9
								c-1.9-5-3.6-7.4-4.3-8.1c0.6-1.3,0.9-2.7,0.9-4.3c0-5.6-4.4-10.2-10-10.3c-1.4-2.2-3.9-3.4-6.5-3.4c-4.3,0-7.9,3.5-7.9,7.9
								c0,2.6,1.3,5,3.5,6.5c0.3,5.4,4.9,9.8,10.3,9.8c2.8,0,5.6-1.2,7.5-3.2c1.3,2.1,5.3,9.2,5.3,17.4l0,0c0,0.9,0,1.5-0.1,1.9
								h-30.5V60.6l2.5,1.2c0.1,0,0.1,0,0.3,0c0.1,0,0.3,0,0.4-0.1l1.9-1.9c0.1-0.1,0.3-0.4,0.1-0.5c0-0.3-0.1-0.4-0.4-0.4L397,46.5
								c-0.1-0.1-0.4-0.1-0.5,0l-7,3.2V28.4l4.9,2.3c0.1,0,0.1,0,0.3,0c0.1,0,0.3,0,0.4-0.1l1.9-1.9c0.1-0.1,0.3-0.4,0.1-0.5
								c0-0.3-0.1-0.4-0.4-0.4l-37.9-17.4c-0.1-0.1-0.4-0.1-0.5,0l-15.5,7.1v-6.6h0.3c0.4,0,0.6-0.3,0.6-0.6V7.8
								c0-0.4-0.3-0.6-0.6-0.6H332c-0.4,0-0.6,0.3-0.6,0.6v2.5c0,0.4,0.3,0.6,0.6,0.6h0.3v11.4l-11.9,5.4c-0.1,0.1-0.3,0.3-0.4,0.4
								c0,0.3,0,0.4,0.1,0.5l1.9,1.9c0.1,0.1,0.5,0.3,0.6,0.1l4.4-2.1V49l-3,10c0,0.1,0,0.4,0.1,0.5s0.3,0.3,0.5,0.3h2.5v22.1H314
								v-9.2h6.7c0.3,0,0.4-0.1,0.5-0.3c0.1-0.1,0.1-0.4,0-0.6l-5.3-8.9h2.2c0.3,0,0.4-0.1,0.5-0.3c0.1-0.1,0.1-0.4,0-0.6l-4.8-8.1
								h1.4c0.3,0,0.4-0.1,0.5-0.3s0.1-0.4,0-0.6l-3.7-7.4c-0.3-0.4-0.9-0.4-1.2,0l-3.7,7.4c-0.1,0.1-0.1,0.4,0,0.6
								c0.1,0.1,0.3,0.3,0.5,0.3h1.4l-4.8,8.1c-0.1,0.1-0.1,0.4,0,0.6c0.1,0.1,0.3,0.3,0.5,0.3h2.2l-5.3,8.9c-0.1,0.1-0.1,0.4,0,0.6
								c0.1,0.1,0.3,0.3,0.5,0.3h6.7v9.2h-10.2V61c0-0.4-0.3-0.6-0.6-0.6h-2.2c0.8-2.1,0.8-4.1-0.1-6.2c-0.9-2.1-2.5-3.6-4.5-4.5
								c-2.6-1-5.4-0.8-7.8,0.8c-1.3-1.9-3.2-3.4-5.3-4.3c-3.4-1.4-7.1-1.2-10.3,0.5v-11h1.8c0.4,0,0.6-0.3,0.6-0.6v-2.5
								c0-0.4-0.3-0.6-0.6-0.6l-21.2-14c-0.1-0.1-0.3-0.1-0.4-0.1h-15.6l-4-3c-0.3-0.1-0.5-0.1-0.8,0l-4,3H208c-0.1,0-0.3,0-0.4,0.1
								L186,31.9l0,0c0,0,0,0-0.1,0.1c0,0,0,0,0,0.1v0.1v0.1l0,0v2.5c0,0.4,0.3,0.6,0.6,0.6h1.8v11c-2.2-1.8-4.9-2.8-7.9-2.8
								c-5.8,0-10.6,4-11.9,9.6c-0.5-0.1-1-0.1-1.6-0.1c-4.1,0-7.6,3.1-8.3,7.1H158c-0.4,0-0.6,0.3-0.6,0.6v20.9h-15V57.5l1.9,0.9
								c0.1,0,0.1,0,0.3,0c0.1,0,0.1,0,0.3,0s0.3-0.1,0.4-0.4l1.3-3.1c0.1-0.3,0-0.6-0.3-0.8l-8.1-3.5v-7.9c1.2,1.2,2.8,1.8,4.5,1.8
								c3.6,0,6.6-3,6.6-6.6c0-0.6-0.1-1.2-0.3-1.7c3-0.9,5-3.7,5-6.8c0-2.5-1.2-4.6-3.1-5.9c1.6-1.8,2.5-4.1,2.5-6.6
								c0-5.6-4.5-10.1-10.1-10.1c-2.5,0-4.8,0.9-6.6,2.5c-2.2-0.5-4.5-0.5-6.9-0.1c-0.9-2.2-3.1-3.5-5.4-3.5
								c-3.2,0-5.9,2.7-5.9,5.9c0,1.4,0.5,2.7,1.4,3.7c-1.3,1.8-2.3,3.9-2.8,6.1c-4.4,1.2-7.4,5.2-7.4,9.7c0,5.6,4.5,10.1,10.1,10.1
								c1.9,0,3.7-0.5,5.3-1.5c1.8,1,3.7,1.7,5.8,1.9v6.1l-10.2-4.4c-0.1-0.1-0.4-0.1-0.5,0l-14.5,6.2V26.8h4.1
								c0.3,0,0.4-0.1,0.5-0.3c0.1-0.3,0.1-0.4,0-0.6l-9.8-16c-0.1-0.1-0.3-0.3-0.5-0.3h-6.7V3.8H94c0.4,0,0.6-0.3,0.6-0.6V0.7
								C94.6,0.3,94.4,0,94,0H82.4c-0.4,0-0.6,0.3-0.6,0.6v2.5c0,0.4,0.3,0.6,0.6,0.6h0.4v5.8H27.9c-0.3,0-0.4,0.1-0.5,0.3l-9.8,16
								c-0.1,0.1-0.1,0.4,0,0.6s0.3,0.3,0.5,0.3h3.7v44.8c-0.1,0-0.3,0-0.4,0c-2.1,0-3.9,0.8-5.3,2.1c-1.4-1-3.1-1.7-4.9-1.7
								c-4.5,0-8.1,3.6-8.1,8.1c0,0.6,0.1,1.3,0.3,2.1H1.2c-0.4,0-0.6,0.3-0.6,0.6c0,0.4,0.3,0.6,0.6,0.6h3.1h18.2h5.7h20.4h9.8
								h11.1h9.8h20h6.2h30.8h6.2h16.3h3.1h3.1h3.1h3.1h3.1h3.1h3.1h3.1h3.1h3.1h27.3H240h28h3.1h3.1h3.1h3.1h3.1h3.1h3.1h3.1h3.1
								h3.1h11.5h3.7h14.4h9.2h8.9H376h5.9h30.8h5.9h31.3h2.8h12h26.1h10.7h9.2h10.7h26.1h19.1h3.7h2.5h3.7h2.5h3.7h2.5h3.7h2.5h3.7
								h2.5h3.7h2.5h41.5h15.6h13.6h1.6h2.5h3.7h2.5h3.7h2.5h3.7h2.5h3.7h2.5h3.7h2.5h3.7h9.4C722.9,83.3,723.1,83,723.1,82.8z
								 M683.2,48.6c1.3,0,2.6,0.3,3.9,0.8c0.3,0.1,0.6,0,0.8-0.3c2.3-4.1,6.7-6.7,11.5-6.7c7.2,0,13.2,5.9,13.2,13.2V60
								c-0.4-0.3-0.8-0.4-1.3-0.4c-1.4,0-2.5,1.2-2.5,2.5v3.1h-1.3V62c0-1.4-1.2-2.5-2.5-2.5c-1.4,0-2.5,1.2-2.5,2.5v3.1h-1.3V62
								c0-1.4-1.2-2.5-2.5-2.5c-1.4,0-2.5,1.2-2.5,2.5v3.1h-1.3V62c0-1.4-1.2-2.5-2.5-2.5s-2.5,1.2-2.5,2.5v3.1h-1.3V62
								c0-1.4-1.2-2.5-2.5-2.5s-2.5,1.2-2.5,2.5v3.1h-1.3V62c0-1.4-1.2-2.5-2.5-2.5s-2.5,1.2-2.5,2.5v3.1H676V50.6
								C678.6,49.3,680.8,48.6,683.2,48.6z M707.6,77.7h1.3v0.6h-1.3V77.7z M708.9,76.6h-1.3v-8.3h1.3V76.6z M708.9,67h-1.3v-0.6
								h1.3V67z M707.6,79.7h1.3v2.5h-1.3V79.7z M701.4,77.7h1.3v0.6h-1.3V77.7z M702.7,76.6h-1.3v-8.3h1.3V76.6z M702.7,67h-1.3
								v-0.6h1.3V67z M701.4,79.7h1.3v2.5h-1.3V79.7z M695.3,77.7h1.3v0.6h-1.3V77.7z M696.5,76.6h-1.3v-8.3h1.3V76.6z M696.5,67
								h-1.3v-0.6h1.3V67z M695.3,79.7h1.3v2.5h-1.3V79.7z M689.1,77.7h1.3v0.6h-1.3V77.7z M690.4,76.6h-1.3v-8.3h1.3V76.6z
								 M690.4,67h-1.3v-0.6h1.3V67z M689.1,79.7h1.3v2.5h-1.3V79.7z M683,77.7h1.3v0.6H683V77.7z M684.2,76.6h-1.3v-8.3h1.3V76.6z
								 M684.2,67h-1.3v-0.6h1.3V67z M683,79.7h1.3v2.5H683V79.7z M678,67h-1.3v-0.6h1.3V67z M676.8,68.3h1.3v8.3h-1.3V68.3z
								 M676.8,77.7h1.3v0.6h-1.3V77.7z M676.2,42.5h-30.1v-1.2l0.6,0.5c0.3,0.1,0.5,0.1,0.8,0l1.8-1.5l1.8,1.5
								c0.3,0.1,0.5,0.1,0.8,0l1.8-1.5l1.8,1.5c0.3,0.1,0.5,0.1,0.8,0l1.8-1.5l1.8,1.5c0.3,0.1,0.5,0.1,0.8,0l1.8-1.5l1.8,1.5
								c0.3,0.1,0.5,0.1,0.8,0l1.8-1.5l1.8,1.5c0.3,0.1,0.5,0.1,0.8,0l1.8-1.5l1.8,1.5c0.3,0.1,0.5,0.1,0.8,0l1.8-1.5l1.7,1.3v0.9
								H676.2z M646.3,36.4c0.3,0.3,0.5,0.3,0.8,0l2.2-1.7c0.1-0.1,0.3-0.3,0.3-0.4l1.7,1.3c0.3,0.1,0.5,0.1,0.8,0l1.8-1.5l1.8,1.5
								c0.3,0.1,0.5,0.1,0.8,0l1.8-1.5l1.8,1.5c0.3,0.1,0.5,0.1,0.8,0l1.8-1.5l1.8,1.5c0.3,0.1,0.5,0.1,0.8,0l1.8-1.5l1.8,1.5
								c0.3,0.1,0.5,0.1,0.8,0l1.8-1.5l1.8,1.5c0.3,0.1,0.5,0.1,0.8,0l1.8-1.5l1.7,1.3V37l-1.3-1c-0.3-0.1-0.5-0.1-0.8,0l-1.8,1.5
								l-1.8-1.5c-0.3-0.1-0.5-0.1-0.8,0l-1.8,1.5l-1.8-1.5c-0.3-0.1-0.5-0.1-0.8,0l-1.8,1.5l-1.8-1.5c-0.3-0.1-0.5-0.1-0.8,0
								l-1.8,1.5l-1.8-1.5c-0.3-0.1-0.5-0.1-0.8,0l-1.8,1.5l-1.8-1.5c-0.3-0.1-0.5-0.1-0.8,0l-1.8,1.5l-1.8-1.5
								c-0.3-0.1-0.5-0.1-0.8,0l-1.8,1.5l-1-0.8v-0.5L646.3,36.4z M646.1,38.2l0.6,0.5c0.3,0.1,0.5,0.1,0.8,0l1.8-1.5l1.8,1.5
								c0.3,0.1,0.5,0.1,0.8,0l1.8-1.5l1.8,1.5c0.3,0.1,0.5,0.1,0.8,0l1.8-1.5l1.8,1.5c0.3,0.1,0.5,0.1,0.8,0l1.8-1.5l1.8,1.5
								c0.3,0.1,0.5,0.1,0.8,0l1.8-1.5l1.8,1.5c0.3,0.1,0.5,0.1,0.8,0l1.8-1.5l1.8,1.5c0.3,0.1,0.5,0.1,0.8,0l1.8-1.5l1.7,1.3V40
								l-1.3-1c-0.3-0.1-0.5-0.1-0.8,0l-1.8,1.5l-1.2-1.5c-0.3-0.1-0.5-0.1-0.8,0l-1.8,1.5l-1.8-1.5c-0.3-0.1-0.5-0.1-0.8,0
								l-1.8,1.5l-2.1-1.5c-0.3-0.1-0.5-0.1-0.8,0l-1.8,1.5l-1.8-1.5c-0.3-0.1-0.5-0.1-0.8,0l-1.8,1.5l-2.1-1.5
								c-0.3-0.1-0.5-0.1-0.8,0l-1.8,1.5l-1.8-1.5c-0.3-0.1-0.5-0.1-0.8,0l-1.8,1.5l-1-0.8V38.2L646.1,38.2z M678,24.7l-1.3-1
								c-0.3-0.1-0.5-0.1-0.8,0l-1.8,1.5l-1.8-1.5c-0.3-0.1-0.5-0.1-0.8,0l-1.8,1.5l-1.8-1.5c-0.3-0.1-0.5-0.1-0.8,0l-1.8,1.5
								l-1.8-1.5c-0.3-0.1-0.5-0.1-0.8,0l-1.8,1.5l-1.8-1.5c-0.3-0.1-0.5-0.1-0.8,0l-1.8,1.5l-1.8-1.5c-0.3-0.1-0.5-0.1-0.8,0
								l-1.8,1.5l-1.8-1.5c-0.3-0.1-0.5-0.1-0.8,0l-1.8,1.5l-1.8-1.5c-0.3-0.3-0.6-0.1-0.8,0l-1.7,1.5l-1.9-1.5
								c-0.3-0.1-0.5-0.1-0.8,0l-1.2,0.9l-2.8-2.6l0.3-0.1l1.9,1.5c0.3,0.3,0.6,0.1,0.8,0l1.4-1.4l1.7,1.4c0.3,0.3,0.5,0.3,0.8,0
								l1.8-1.5l1.8,1.5c0.3,0.1,0.5,0.1,0.8,0l1.8-1.5l1.8,1.5c0.3,0.1,0.5,0.1,0.8,0l1.8-1.5l1.8,1.5c0.3,0.1,0.5,0.1,0.8,0
								l1.8-1.5l1.8,1.5c0.3,0.1,0.5,0.1,0.8,0l1.8-1.5l1.8,1.5c0.3,0.1,0.5,0.1,0.8,0l1.8-1.5l1.8,1.5c0.3,0.1,0.5,0.1,0.8,0
								l1.8-1.5l1.8,1.5c0.3,0.1,0.5,0.1,0.8,0l1.8-1.5l1.7,1.3L678,24.7L678,24.7z M640.5,24.8l1.9,1.5c0.3,0.1,0.5,0.1,0.8,0
								l1.6-1.4l1.8,1.5c0.3,0.1,0.5,0.1,0.8,0l1.8-1.5l1.8,1.5c0.3,0.1,0.5,0.1,0.8,0l1.8-1.5l1.8,1.5c0.3,0.1,0.5,0.1,0.8,0
								l1.8-1.5l1.8,1.5c0.3,0.1,0.5,0.1,0.8,0l1.8-1.5l1.8,1.5c0.3,0.1,0.5,0.1,0.8,0l1.8-1.5l1.8,1.5c0.3,0.1,0.5,0.1,0.8,0
								l1.8-1.5l1.8,1.5c0.3,0.1,0.5,0.1,0.8,0l1.8-1.5l1.7,1.3v1.5l-1.3-1c-0.3-0.1-0.5-0.1-0.8,0l-1.8,1.5l-1.8-1.5
								c-0.3-0.1-0.5-0.1-0.8,0l-1.8,1.5l-1.8-1.5c-0.3-0.1-0.5-0.1-0.8,0l-1.8,1.5l-1.8-1.5c-0.3-0.1-0.5-0.1-0.8,0l-1.8,1.5
								l-1.8-1.5c-0.3-0.1-0.5-0.1-0.8,0l-1.8,1.5l-1.8-1.5c-0.3-0.1-0.5-0.1-0.8,0l-1.8,1.5l-1.8-1.5c-0.3-0.1-0.5-0.1-0.8,0
								l-1.8,1.5l-1.8-1.5c-0.3-0.1-0.5-0.1-0.8,0l-1.6,1.3l-3-2.6L640.5,24.8z M644.8,27.9l1.8,1.5c0.3,0.1,0.5,0.1,0.8,0l1.8-1.5
								l1.8,1.5c0.3,0.1,0.5,0.1,0.8,0l1.8-1.5l1.8,1.5c0.3,0.1,0.5,0.1,0.8,0l1.8-1.5l1.8,1.5c0.3,0.1,0.5,0.1,0.8,0l1.8-1.5
								l1.8,1.5c0.3,0.1,0.5,0.1,0.8,0l1.8-1.5l1.8,1.5c0.3,0.1,0.5,0.1,0.8,0l1.8-1.5l1.8,1.5c0.3,0.1,0.5,0.1,0.8,0l1.8-1.5
								l1.7,1.3v1.5l-1.3-1c-0.3-0.1-0.5-0.1-0.8,0l-1.8,1.5l-1.8-1.5c-0.3-0.1-0.5-0.1-0.8,0l-1.8,1.5l-1.8-1.5
								c-0.3-0.1-0.5-0.1-0.8,0l-1.8,1.5l-1.8-1.5c-0.3-0.1-0.5-0.1-0.8,0l-1.8,1.5l-1.8-1.5c-0.3-0.1-0.5-0.1-0.8,0l-1.8,1.5
								l-1.8-1.5c-0.3-0.1-0.5-0.1-0.8,0l-1.8,1.5l-1.8-1.5c-0.3-0.1-0.5-0.1-0.8,0l-2.1,1.7l-3-2.7L644.8,27.9z M649.3,31l1.8,1.5
								c0.3,0.1,0.5,0.1,0.8,0l1.8-1.5l1.8,1.5c0.3,0.1,0.5,0.1,0.8,0l1.8-1.5l1.8,1.5c0.3,0.1,0.5,0.1,0.8,0l1.8-1.5l1.8,1.5
								c0.3,0.1,0.5,0.1,0.8,0l1.8-1.5l1.8,1.5c0.3,0.1,0.5,0.1,0.8,0l1.8-1.5l1.8,1.5c0.3,0.1,0.5,0.1,0.8,0l1.8-1.5l1.7,1.3v1.5
								l-1.3-1c-0.3-0.1-0.5-0.1-0.8,0l-1.8,1.5l-1.8-1.5c-0.3-0.1-0.5-0.1-0.8,0l-1.8,1.5l-1.8-1.5c-0.3-0.1-0.5-0.1-0.8,0
								l-1.8,1.5l-1.8-1.5c-0.3-0.1-0.5-0.1-0.8,0l-1.8,1.5l-1.8-1.5c-0.3-0.1-0.5-0.1-0.8,0l-1.8,1.5l-1.8-1.5
								c-0.3-0.1-0.5-0.1-0.8,0l-1.8,1.5l-1.8-1.5c-0.3-0.1-0.5-0.1-0.8,0l-0.3,0.3l-0.9-0.8L649.3,31z M678,19.8v1.8l-1.3-1
								c-0.3-0.1-0.5-0.1-0.8,0l-1.8,1.5l-1.8-1.5c-0.3-0.1-0.5-0.1-0.8,0l-1.8,1.5l-1.8-1.5c-0.3-0.1-0.5-0.1-0.8,0l-1.8,1.5
								l-1.8-1.5c-0.3-0.1-0.5-0.1-0.8,0l-1.8,1.5l-1.8-1.5c-0.3-0.1-0.5-0.1-0.8,0l-1.8,1.5l-1.8-1.5c-0.3-0.1-0.5-0.1-0.8,0
								l-1.8,1.5l-1.8-1.5c-0.3-0.1-0.5-0.1-0.8,0l-1.8,1.5l-1.8-1.5c-0.3-0.1-0.5-0.1-0.8,0l-1.8,1.5l-1.7-1.5
								c-0.3-0.3-0.6-0.3-0.9,0l-1.4,1.4l-1.8-1.5c-0.3-0.1-0.5-0.1-0.6,0l-1,0.5l-1.3-1.2C634.6,19.8,678,19.8,678,19.8z
								 M602.1,35.5l-1.2-0.9l23.7-21.4l23.3,21l-1.2,0.9l-0.9-0.9l0,0L625,15.5c-0.3-0.3-0.6-0.3-0.8,0l-20.8,18.7l0,0L602.1,35.5z
								 M602,77.7h1.3v0.6H602V77.7z M603.3,76.6H602v-8.3h1.3V76.6z M603.3,67H602v-0.6h1.3V67z M602,79.7h1.3v2.5H602V79.7z
								 M574.7,48.6c0.8,0,1.6,0.1,2.3,0.4c0.1,0.1,0.4,0,0.5-0.1s0.3-0.3,0.3-0.5v-0.1c0-4.8,3.9-8.6,8.7-8.6c3.7,0,7,2.3,8.1,5.8
								c0.1,0.3,0.3,0.4,0.5,0.4c0.3,0,0.4,0,0.6-0.3c1-1.2,2.6-1.9,4.1-1.9c1.3,0,2.5,0.4,3.5,1.2V65H602v-3.1
								c0-1.4-1.2-2.5-2.5-2.5s-2.5,1.2-2.5,2.5V65h-1.3v-3.1c0-1.4-1.2-2.5-2.5-2.5c-1.4,0-2.5,1.2-2.5,2.5V65h-1.3v-3.1
								c0-1.4-1.2-2.5-2.5-2.5c-1.4,0-2.5,1.2-2.5,2.5V65h-1.3v-3.1c0-1.4-1.2-2.5-2.5-2.5c-1.4,0-2.5,1.2-2.5,2.5V65h-1.3v-3.1
								c0-1.4-1.2-2.5-2.5-2.5c-1.4,0-2.5,1.2-2.5,2.5V65h-1.3v-3.1c0-1.4-1.2-2.5-2.5-2.5c-0.4,0-0.9,0.1-1.3,0.4v-4.4
								C567.6,51.7,570.7,48.6,574.7,48.6z M595.9,77.7h1.3v0.6h-1.3V77.7z M597.1,76.6h-1.3v-8.3h1.3V76.6z M597.1,67h-1.3v-0.6
								h1.3V67z M595.9,79.7h1.3v2.5h-1.3V79.7z M589.7,77.7h1.3v0.6h-1.3V77.7z M591,76.6h-1.3v-8.3h1.3V76.6z M591,67h-1.3v-0.6
								h1.3V67z M589.7,79.7h1.3v2.5h-1.3V79.7z M583.6,77.7h1.3v0.6h-1.3V77.7z M584.8,76.6h-1.3v-8.3h1.3V76.6z M584.8,67h-1.3
								v-0.6h1.3V67z M583.6,79.7h1.3v2.5h-1.3V79.7z M577.4,77.7h1.3v0.6h-1.3V77.7z M578.7,76.6h-1.3v-8.3h1.3V76.6z M578.7,67
								h-1.3v-0.6h1.3V67z M577.4,79.7h1.3v2.5h-1.3V79.7z M571.2,77.7h1.3v0.6h-1.3V77.7z M572.5,76.6h-1.3v-8.3h1.3V76.6z
								 M572.5,67h-1.3v-0.6h1.3V67z M571.2,79.7h1.3v2.5h-1.3V79.7z M551.8,58.8h-22.5L506.4,46c-0.1-0.1-0.4-0.1-0.6,0L483,58.8
								h-22.5l1.9-5.2l7.4-19.5h2.7h5.4h6.2h43.7h6.2h8.1L551.8,58.8z M511,65.5h-9.3c-0.4,0-0.6,0.3-0.6,0.6v16h-9.6V59.8l14.7-8.3
								l14.9,8.1V82h-9.6V66.1C511.5,65.7,511.2,65.5,511,65.5z M506.6,50.2c-0.1-0.1-0.4-0.1-0.6,0l-0.3,0.1l-15.1,8.4l0,0
								l-5.2,2.8l-1.2-2.2L506.3,47l22.1,12.4l-1.2,2.2L506.6,50.2z M456,52.8c1.6,0.8,3.4,1.2,5.2,1.2l-1.9,5.2v0.1v0.1l0,0v0.1
								c0,0,0,0,0,0.1c0,0,0,0,0,0.1c0,0,0,0.1,0.1,0.1c0,0,0,0,0.1,0c0,0,0.1,0,0.1,0.1l0,0c0.1,0,0.1,0,0.3,0h4.3V82h-10.9
								C453.2,79.2,453,66,456,52.8z M527.5,28h7.4v0.6h-0.6H528h-0.5V28z M528.8,29.9h4.9V33h-4.9V29.9z M477.6,28h7.4v0.6h-0.6
								h-6.2h-0.6L477.6,28L477.6,28z M478.9,29.9h4.9V33h-4.9V29.9z M396.8,47.4l25.6,11.7l-0.9,0.9l-3-1.4l0,0l-21.3-9.8
								c-0.1-0.1-0.4-0.1-0.5,0l-21.3,9.8l0,0l0,0l0,0l-3,1.4l-0.9-0.9L396.8,47.4z M332.8,8.4h9.8v1.3h-0.3h-9.2h-0.3V8.4
								L332.8,8.4z M333.7,10.9h8V18l-8,3.6V10.9z M322.8,29.5l-0.9-0.9l36.8-16.9l36.8,16.8l-0.9,0.9L359,12.9c-0.1,0-0.1,0-0.3,0
								c-0.1,0-0.1,0-0.3,0L327.9,27c0,0-0.1,0-0.1,0.1L322.8,29.5z M358.8,14.2l29.6,13.6v20.8h-59.7V28.2L358.8,14.2z M328.5,49.9
								h59.9V50l-18.5,8.5c-0.1,0-0.3,0.1-0.3,0.3h-43.8L328.5,49.9z M278.1,47.5c2.1,0.9,3.9,2.3,5.2,4.3c0.1,0.1,0.3,0.3,0.4,0.3
								s0.4,0,0.5-0.1c1.9-1.5,4.7-1.9,7-1c1.8,0.8,3.1,2.1,3.9,3.7c0.8,1.7,0.8,3.6,0,5.4c0,0.1-0.1,0.1-0.1,0.3h-2.6h-3.1h-3.1h-3
								H280h-3.1h-3.1h-3.1h-2.5V48.1C271.3,46.6,274.9,46.2,278.1,47.5z M248.4,19.5l19.5,12.8H252l-17.5-12.8H248.4z M208.7,19.5
								h13.8L205,32.3h-15.9L208.7,19.5z M187.7,33.6h17.6c0.1,0,0.3,0,0.4-0.1l22.9-16.8l22.9,16.8c0.1,0.1,0.3,0.1,0.4,0.1h17.8
								v1.3h-1.8h-16.5l-22.5-16.4c-0.3-0.1-0.5-0.1-0.8,0l-22.2,16.3h-16.4h-1.8V33.6L187.7,33.6z M167.7,54.8
								c0.6,0,1.3,0.1,1.8,0.3c0.1,0,0.4,0,0.5-0.1s0.3-0.3,0.3-0.4c0.9-5.3,5.4-9.2,10.7-9.2c3,0,5.8,1.2,7.9,3.4v11.9h-2.5h-3.1
								h-3.1h-3.1H174h-3.1h-3.1h-3.1h-3.1h-1.2C161.2,57.2,164.2,54.8,167.7,54.8z M132.7,48.3v-7.1c0-0.3-0.3-0.6-0.5-0.6
								c-2.2-0.3-4.3-0.9-6.2-1.9c-0.3-0.1-0.5-0.1-0.6,0c-1.4,1-3.2,1.5-4.9,1.5c-4.9,0-8.8-4-8.8-8.8c0-4.1,2.8-7.6,6.7-8.5
								c0.3,0,0.4-0.3,0.5-0.5c0.5-2.3,1.6-4.5,3.1-6.3c0.3-0.3,0.1-0.6,0-0.8c-1.2-0.9-1.7-2.1-1.7-3.4c0-2.6,2.1-4.6,4.7-4.6
								c2.1,0,3.7,1.3,4.4,3.2c0.1,0.3,0.4,0.5,0.8,0.4c2.3-0.5,4.8-0.5,7.1,0.1c0.3,0,0.4,0,0.5-0.1c1.7-1.5,3.7-2.3,6.1-2.3
								c4.9,0,8.8,4,8.8,8.8c0,2.3-0.9,4.5-2.6,6.2c-0.1,0.1-0.3,0.4-0.1,0.5c0,0.1,0.1,0.4,0.3,0.5c1.9,1,3.1,3.1,3.1,5.3
								c0,2.8-1.9,5.3-4.7,5.8c-0.1,0-0.4,0.1-0.4,0.3c-0.1,0.1-0.1,0.4,0,0.5c0.3,0.6,0.4,1.3,0.4,1.9c0,3-2.5,5.3-5.3,5.3
								c-1.9,0-3.6-1-4.5-2.6c-0.1-0.3-0.4-0.4-0.6-0.3c-0.3,0.1-0.4,0.3-0.4,0.6v9.2l-3.6-1.5L132.7,48.3z M120.9,44.7l14.7,6.3
								l2.2,0.9l0,0l7.9,3.4l-0.9,1.9L121,47c-0.1,0-0.1,0-0.3,0s-0.1,0-0.3,0l-21.6,9.2l0,0l-2.3,1l-0.9-1.9L120.9,44.7z M82.7,1.3
								h10.5v1.3h-0.6h-9.2h-0.6V1.3H82.7z M84,3.8h8v5.8h-8V3.8z M28.3,10.7h55.1h9.2h7l9.1,14.7h-3.2h-83h-3.2L28.3,10.7z
								 M23,26.8h81.8v23.4l-10,4.3c-0.3,0.1-0.5,0.5-0.3,0.8l1.3,3.1c0,0.1,0.1,0.3,0.4,0.4c0.1,0,0.3,0,0.5,0l1.9-0.9V82H80V57.9
								l1.7,1c0.1,0,0.3,0.1,0.3,0.1c0.3,0,0.4-0.1,0.5-0.3l1.7-2.8c0.1-0.1,0.1-0.3,0.1-0.5c0-0.1-0.1-0.3-0.3-0.4L64.3,43.1
								c-0.3-0.1-0.4-0.1-0.6,0L44,55c-0.1,0.1-0.3,0.3-0.3,0.4s0,0.4,0.1,0.5l1.7,2.8c0.1,0.3,0.5,0.4,0.9,0.3l1.7-1v24.1h-19
								c0.3-0.8,0.4-1.7,0.4-2.6c0-3.9-2.7-7.1-6.5-7.9C23,71.6,23,26.8,23,26.8z M46.2,57.6L45,55.8l18.9-11.4l18.9,11.4l-1.2,1.8
								L64.1,47.1c-0.3-0.1-0.4-0.1-0.6,0L46.2,57.6z M22.4,82.1H4.7c-0.3-0.6-0.3-1.3-0.3-2.1c0-3.7,3.1-6.8,6.9-6.8
								c1.7,0,3.2,0.6,4.5,1.7c0.3,0.3,0.6,0.3,0.9,0c1.3-1.3,3-2.1,4.9-2.1c3.7,0,6.7,3,6.7,6.7c0,0.9-0.1,1.7-0.5,2.6
								C27.8,82.1,22.4,82.1,22.4,82.1z M59.1,82.1V63.4h9.8v18.7C68.9,82.1,59.1,82.1,59.1,82.1z M70.1,82.1V62.8
								c0-0.4-0.3-0.6-0.6-0.6H58.3c-0.4,0-0.6,0.3-0.6,0.6v19.4H49v-25l14.7-8.9l14.7,8.9v24.9C78.4,82.1,70.1,82.1,70.1,82.1z
								 M135.6,68.3v0.9h-29.5v-0.9H135.6z M106.1,67v-0.9h29.6V67H106.1z M135.6,70.4v0.9h-29.5v-0.9H135.6z M135.6,72.6v0.9h-29.5
								v-0.9H135.6z M135.6,74.8v0.9h-29.5v-0.9H135.6z M135.6,76.8v0.9h-29.5v-0.9H135.6z M135.6,64.8h-29.5v-0.9h29.6L135.6,64.8
								L135.6,64.8z M106.1,79h29.6v0.9h-29.6V79z M135.6,62.8h-29.5v-0.9h29.6L135.6,62.8L135.6,62.8z M106.1,82.1v-0.9h29.6v0.9
								H106.1z M136.9,82.1V61.2c0-0.4-0.3-0.6-0.6-0.6h-30.8c-0.4,0-0.6,0.3-0.6,0.6v20.9H100V57.3l20.9-8.9l20.9,8.9v24.8
								C141.8,82.1,136.9,82.1,136.9,82.1z M159.4,61.9h1.8v20.3h-1.8V61.9z M162.4,61.9h1.8v20.3h-1.8V61.9z M165.5,61.9h1.8v20.3
								h-1.8V61.9z M168.6,61.9h1.8v20.3h-1.8V61.9z M171.7,61.9h1.8v20.3h-1.8V61.9z M174.8,61.9h1.8v20.3h-1.8V61.9z M177.8,61.9
								h1.8v20.3h-1.8V61.9z M180.9,61.9h1.8v20.3h-1.8V61.9z M184,61.9h1.8v20.3H184V61.9z M187.1,61.9h1.8v20.3h-1.8V61.9z
								 M190.2,61.2V36h15.9c0.1,0,0.3,0,0.4-0.1l22-16.3l22.1,16.1c0.1,0.1,0.3,0.1,0.4,0.1h16.2V61v21h-26.9v-1.3
								c0-0.4-0.3-0.6-0.6-0.6h-0.6v-1.3c0-0.4-0.3-0.6-0.6-0.6h-0.9V60.3h1.6c0.4,0,0.6-0.3,0.6-0.6v-1.8c0-0.4-0.3-0.6-0.6-0.6
								h-21.6c-0.4,0-0.6,0.3-0.6,0.6v1.8c0,0.4,0.3,0.6,0.6,0.6h1.6v17.8H218c-0.4,0-0.6,0.3-0.6,0.6V80h-0.6
								c-0.4,0-0.6,0.3-0.6,0.6V82h-26.1V61.2H190.2L190.2,61.2z M236.9,59.4h-17.2h-1.6v-0.6h20.3v0.6H236.9z M220.2,60.6h16v17.8
								h-16V60.6z M219.7,79.7h17.2h0.9v0.6h-19.1v-0.6H219.7z M217.5,82.1v-0.6h0.6h20.3h0.6v0.6H217.5z M268.3,61.9h1.8v20.3h-1.8
								V61.9z M271.4,61.9h1.8v20.3h-1.8V61.9z M274.5,61.9h1.8v20.3h-1.8V61.9z M277.6,61.9h1.8v20.3h-1.8V61.9z M280.7,61.9h1.8
								v20.3h-1.8V61.9z M283.7,61.9h1.8v20.3h-1.8V61.9z M286.8,61.9h1.8v20.3h-1.8V61.9z M289.9,61.9h1.8v20.3h-1.8V61.9z
								 M293,61.9h1.8v20.3H293V61.9z M296.1,82.1V61.9h1.8v20.3L296.1,82.1L296.1,82.1z M310.6,82.1v-9.8c0-0.4-0.3-0.6-0.6-0.6
								h-6.3l5.3-8.9c0.1-0.1,0.1-0.4,0-0.6c-0.1-0.1-0.3-0.3-0.5-0.3h-2.2l4.8-8.1c0.1-0.1,0.1-0.4,0-0.6c-0.1-0.1-0.3-0.3-0.5-0.3
								H309l2.7-5.4l2.7,5.4H313c-0.3,0-0.4,0.1-0.5,0.3c-0.1,0.1-0.1,0.4,0,0.6l4.8,8.1h-2.2c-0.3,0-0.4,0.1-0.5,0.3
								c-0.1,0.1-0.1,0.4,0,0.6l5.3,8.9h-6.3c-0.4,0-0.6,0.3-0.6,0.6v9.8C313,82.1,310.6,82.1,310.6,82.1z M328.7,59.9h41.6l1.4,1.4
								c0.1,0.1,0.5,0.3,0.6,0.1l2.5-1.2V82h-28.1V65.9c0-0.4-0.3-0.6-0.6-0.6h-8.9c-0.4,0-0.6,0.3-0.6,0.6v16.3h-8V59.9H328.7
								L328.7,59.9z M337.8,82.1V66.5h7.8v15.6H337.8z M382.1,82.1V66.5h29.6v15.6H382.1z M412.8,82.1V65.9c0-0.4-0.3-0.6-0.6-0.6
								h-30.8c-0.4,0-0.6,0.3-0.6,0.6v16.3H376V59.8l20.8-9.6l20.8,9.6v22.3C417.6,82.1,412.8,82.1,412.8,82.1z M450.6,82.1
								c0-0.4,0-1.2,0.1-1.9c0,0,0,0,0-0.1c0-9.6-5-17.4-5.8-18.6c0-0.1-0.1-0.3-0.3-0.3c-0.3-0.1-0.6-0.1-0.8,0.1
								c-1.8,2.2-4.4,3.4-7.1,3.4c-4.9,0-9.1-4-9.2-9c0-0.3-0.1-0.4-0.3-0.5c-1.9-1.2-3.1-3.4-3.1-5.7c0-3.6,3-6.6,6.6-6.6
								c2.3,0,4.4,1.2,5.6,3.1c0.1,0.1,0.3,0.3,0.5,0.3c5,0,9.1,4.1,9.1,9.2c0,1.4-0.4,2.8-1,4.1c-0.1,0.3,0,0.6,0.3,0.8h0.1
								c0.6,0.8,2.6,3.6,5,10.1c0,0.3,0.3,0.5,0.5,0.5c0.4,0,0.6-0.3,0.6-0.5c0.6-7.4,1.8-13.9,3.2-19.8c0-0.3,0-0.5-0.3-0.6
								c-2.1-1.5-3.6-3.9-4.4-6.3c-0.1-0.3-0.4-0.5-0.6-0.4c-0.3,0-0.4,0-0.6,0c-3.5,0-6.3-2.8-6.3-6.3c0-0.1,0-0.4,0-0.5
								c0-0.3-0.1-0.4-0.3-0.5c-3.2-2.1-5.2-5.6-5.2-9.3c0-6.1,4.9-11,11-11c3.5,0,6.7,1.5,8.8,4.4c0.1,0.1,0.3,0.3,0.5,0.3
								c0.1,0,0.4-0.1,0.5-0.3c1.4-1.5,3.4-2.5,5.4-2.5c4,0,7.4,3.2,7.4,7.4c0,1.5-0.5,3.1-1.4,4.4c-0.1,0.1-0.1,0.3-0.1,0.5
								c0,0.1,0.1,0.3,0.3,0.4c1,0.8,1.9,1.7,2.7,2.7h-2c-0.3,0-0.5,0.1-0.5,0.4L462,52.8c-1.9,0-4-0.5-5.7-1.4
								c-0.1-0.1-0.4-0.1-0.5,0s-0.3,0.3-0.4,0.4c-3.2,13.4-3.1,27.2-3,30.3H450.6L450.6,82.1z M465.3,59.9h17.6l1.7,3
								c0.1,0.1,0.3,0.3,0.4,0.3h0.1c0.1,0,0.3,0,0.3-0.1l4.8-2.7V82h-25L465.3,59.9L465.3,59.9z M502.3,82.1V66.8h8v15.4h-8V82.1z
								 M522.3,82.1V60.4l4.9,2.7c0.3,0.1,0.6,0,0.8-0.3l1.7-3h17.6V82L522.3,82.1L522.3,82.1z M567.6,82.1v-20
								c0-0.6,0.5-1.3,1.3-1.3c0.6,0,1.3,0.5,1.3,1.3v3.7v1.8v9.6V79v3.1H567.6L567.6,82.1z M573.7,82.1V79v-1.8v-9.6v-1.8v-3.7
								c0-0.6,0.5-1.3,1.3-1.3c0.6,0,1.3,0.5,1.3,1.3v3.7v1.8v9.6V79v3.1H573.7z M579.9,82.1V79v-1.8v-9.6v-1.8v-3.7
								c0-0.6,0.5-1.3,1.3-1.3c0.6,0,1.3,0.5,1.3,1.3v3.7v1.8v9.6V79v3.1H579.9z M586.1,82.1V79v-1.8v-9.6v-1.8v-3.7
								c0-0.6,0.5-1.3,1.3-1.3c0.6,0,1.3,0.5,1.3,1.3v3.7v1.8v9.6V79v3.1H586.1z M592.1,82.1V79v-1.8v-9.6v-1.8v-3.7
								c0-0.6,0.5-1.3,1.3-1.3c0.6,0,1.3,0.5,1.3,1.3v3.7v1.8v9.6V79v3.1H592.1z M598.4,82.1V79v-1.8v-9.6v-1.8v-3.7
								c0-0.6,0.5-1.3,1.3-1.3c0.6,0,1.3,0.5,1.3,1.3v3.7v1.8v9.6V79v3.1H598.4z M604.6,79v-1.8v-9.6v-1.8V35l20.2-18.2L644.9,35v8
								v39h-40.3L604.6,79L604.6,79z M646.1,43.7h29.6v6.7l0,0v31.8h-0.3v-1.5c0-0.4-0.3-0.6-0.6-0.6h-0.3v-1.8
								c0-0.4-0.3-0.6-0.6-0.6h-0.6V62.1c0-0.4-0.3-0.6-0.6-0.6h-9.3c-0.4,0-0.6,0.3-0.6,0.6v15.4H662c-0.4,0-0.6,0.3-0.6,0.6v1.8
								h-0.3c-0.4,0-0.6,0.3-0.6,0.6V82H646L646.1,43.7L646.1,43.7L646.1,43.7z M671.9,77.5h-8V62.8h8V77.5z M663.3,78.8h9.2h0.6
								v1.3h-10.5v-1.3H663.3z M661.7,82.1v-0.9h0.3h11.6h0.3v0.9H661.7z M676.8,79.7h1.3v2.5h-1.3V79.7z M679.3,82.1V79v-1.8v-9.6
								v-1.8v-3.7c0-0.6,0.5-1.3,1.3-1.3s1.3,0.5,1.3,1.3v3.7v1.8v9.6V79v3.1H679.3z M685.5,82.1V79v-1.8v-9.6v-1.8v-3.7
								c0-0.6,0.5-1.3,1.3-1.3s1.3,0.5,1.3,1.3v3.7v1.8v9.6V79v3.1H685.5z M691.6,82.1V79v-1.8v-9.6v-1.8v-3.7
								c0-0.6,0.5-1.3,1.3-1.3s1.3,0.5,1.3,1.3v3.7v1.8v9.6V79v3.1H691.6z M697.8,82.1V79v-1.8v-9.6v-1.8v-3.7
								c0-0.6,0.5-1.3,1.3-1.3c0.6,0,1.3,0.5,1.3,1.3v3.7v1.8v9.6V79v3.1H697.8z M703.9,82.1V79v-1.8v-9.6v-1.8v-3.7
								c0-0.6,0.5-1.3,1.3-1.3c0.6,0,1.3,0.5,1.3,1.3v3.7v1.8v9.6V79v3.1H703.9z M710.1,82.1V79v-1.8v-9.6v-1.8v-3.7
								c0-0.6,0.5-1.3,1.3-1.3c0.6,0,1.3,0.5,1.3,1.3v20L710.1,82.1L710.1,82.1z"/>
						</g>
					</g>
				</g>
			</g>
			<g id="Group-2_1_" transform="translate(722.000000, 0.000000)">
				<g id="COMMUNITY_banner_example_2_1_">
					<g id="Group_1_" transform="translate(0.706994, 0.000000)">
						<path id="Path_5_" class="st1" d="M335,22.9h57.2c2.8-0.1,4.9-2.5,4.8-5.3c0-0.4-0.1-0.8-0.1-1.2h1.9c1.8,0,3.2-1.4,3.2-3.2
							c0.1-1.7-1.2-3-2.8-3.1c0.1-0.3,0.1-0.5,0.1-0.8c0-1.8-1.4-3.2-3.2-3.2h-0.5c-0.1-2.3-2.2-4.1-4.5-4c-1.3,0.1-2.3,0.6-3.1,1.7
							c-0.8-2.7-3.8-4.3-6.3-3.5c-1.6,0.4-2.8,1.7-3.2,3.1c-1.4-0.9-3.4-0.5-4.4,0.9c-0.3,0.5-0.5,1.2-0.5,1.8
							c-1.7,0-3.2,0.6-4.1,1.9c-1.6-1.4-3.9-2.2-6.2-1.8c-3.2,0.5-5.6,3.1-6,6.3c-1.6-1.3-3.8-1.7-5.7-0.8c-1.3-3.8-5.4-5.8-9.3-4.5
							c-2.6,0.8-4.4,3.1-4.8,5.8c-0.5-0.3-1.2-0.3-1.8-0.3c-2.8-0.1-5.2,2.2-5.2,4.9C330.2,20.6,332.2,22.9,335,22.9z"/>
						<path id="Path_6_" class="st1" d="M568.3,25.5c0.4,0.1,0.8,0.3,1.3,0.3h60.5c3,0,5.3-2.3,5.3-5.3s-2.5-5.3-5.4-5.3
							c-1,0-2.1,0.3-3,0.9c-0.3-3-3-5-6-4.8c-2.3,0.3-4.3,2.1-4.7,4.3c-1.6-2.6-4.8-3.4-7.4-1.9c-0.4,0.3-0.8,0.5-1.2,0.9
							c-0.8-4.3-4.8-7-8.9-6.3c-3.2,0.6-5.8,3.2-6.3,6.5c-1.7-1.4-4-1.8-6-0.8c-1.3-4-5.8-6.3-9.8-4.8c-2.8,0.9-4.8,3.4-5.2,6.1
							c-2.8-1-5.8,0.5-6.9,3.4S565.6,24.5,568.3,25.5z"/>
						<path id="Path_7_" class="st1" d="M21.1,25.5c0.4,0.1,0.8,0.3,1.3,0.3H83c3,0,5.3-2.3,5.3-5.3s-2.5-5.3-5.4-5.3
							c-1,0-2.1,0.3-3,0.9c-0.3-3-3-5-6-4.8c-2.3,0.3-4.3,2.1-4.7,4.3c-1.6-2.6-4.8-3.4-7.4-1.9c-0.4,0.3-0.8,0.5-1.2,0.9
							c-0.8-4.3-4.8-7-8.9-6.3c-3.2,0.6-5.8,3.2-6.3,6.5c-1.7-1.4-4-1.8-6-0.8c-1.3-4-5.8-6.3-9.8-4.8c-2.8,0.9-4.8,3.4-5.2,6.1
							c-2.8-1-5.8,0.5-6.9,3.4C16.6,21.4,18.3,24.5,21.1,25.5z"/>
						<path id="Path_8_" class="st1" d="M448.5,47.4H476c1.8,0.1,3.4-1.3,3.5-3.2c0.3-1.8-1.2-3.4-3-3.5c0.1-0.3,0.1-0.5,0.1-0.8
							c0-1.8-1.6-3.4-3.4-3.4h-0.5c-0.3-2.5-2.3-4.3-4.8-4.1c-1.3,0.1-2.3,0.8-3.2,1.7c-0.8-2.8-3.9-4.5-6.9-3.8
							c-1.7,0.5-3,1.8-3.6,3.4c-0.5-0.3-1.2-0.5-1.8-0.5c-1.8,0-3.4,1.6-3.4,3.4c-3,0.1-5.4,2.6-5.3,5.6
							C443.7,44.8,445.8,47.2,448.5,47.4z"/>
						<path id="Shape_42_" class="st2" d="M710.7,146V74.7h-34.5v71.4h-27.6V79.7H611V146h-54.8v-46h-9.3V84.1h-2.5v2.2h-18.2V84
							h0.5v-2.1h-5V84h0.5v2.3h-7.5v-2.2h-2.5v22.3h-9.4v-1.8l-9.4-11.1H492l-1.7,1.9h-1c0-4.1,0-6.3,0-9.2h0.9v-1.7h-1.3l-5.4-12.3
							l-5.4,12.4h-1v1.7h0.6v9.2H471l-1.7-1.9h-1.4l-9.4,11.1h1.4h-1.4V146h-0.9v0.3h-18.2V99H435V87.6h0.8v-1.2H435v-6.2
							c0-1.8-2.7-1.8-2.7,0l-17.9-7l-18.2,7.1v-0.1c0-0.8-0.6-1.3-1.3-1.3c-0.8,0-1.3,0.6-1.3,1.3v6.2h-0.9v1.2h0.9v9.8
							c-3,3.2-4.9,7.5-4.9,12.2c0,4.8,1.8,9.1,4.9,12.2v22.9c-0.8-3.5-3.9-6.1-7.5-6.1c-1.6,0-3,0.5-4.1,1.3l-2.7-3.6l0.4-1.2h0.5
							c0.4,0,0.6-0.3,0.6-0.6s-0.3-0.6-0.6-0.6h-3.5c-0.4,0-0.6,0.3-0.6,0.6s0.3,0.6,0.6,0.6h1.7l-0.1,0.5l-12.8-2.1l0.4-1.6
							c0,0,0,0,0-0.1l-1.9-1.2c-0.3-0.1-0.6-0.1-0.9,0.3c-0.1,0.3-0.1,0.6,0.3,0.9l1.6,0.9l-0.4,1.8l-1.8,5
							c-0.6-0.3-1.4-0.4-2.2-0.4c-4,0-7.4,3.2-7.6,7.4h-6.5V75.8c0-0.4-0.3-0.6-0.6-0.6H343v-5.8c0-0.4-0.3-0.6-0.6-0.6h-15.1
							c-0.4,0-0.6,0.3-0.6,0.6v5.8h-32.1c-0.4,0-0.6,0.3-0.6,0.6V146h-2.2V57.5c0-0.4-0.3-0.6-0.6-0.6h-4.5v-6.7
							c0-0.4-0.3-0.6-0.6-0.6h-5.2c-0.3-2.8-2.7-5.2-5.7-5.2h-18.6c-3,0-5.4,2.2-5.7,5.2h-4.8c-0.4,0-0.6,0.3-0.6,0.6v6.7H241
							c-0.4,0-0.6,0.3-0.6,0.6V146h-2.2V24c0-0.4-0.3-0.6-0.6-0.6h-5.4V18c0-0.4-0.3-0.6-0.6-0.6h-38.5c-0.4,0-0.6,0.3-0.6,0.6v5.4
							h-4.8c-0.4,0-0.6,0.3-0.6,0.6v122h-6.7V75.6h4.9c0.4,0,0.6-0.3,0.6-0.6v-6.5c0-0.4-0.3-0.6-0.6-0.6h-8.8v-8.7
							c0-0.4-0.3-0.6-0.6-0.6h-12.5c-0.4,0-0.6,0.3-0.6,0.6v8.7h-12v-5.2c0-0.1-0.1-0.4-0.1-0.5l-4-4c3.1-3.5,3-8.8-0.4-12
							c-0.1-0.1-0.3-0.1-0.5-0.1c-0.1,0-0.4,0.1-0.5,0.1l-11.5,11.5c-0.3,0.3-0.3,0.6,0,0.9c1.7,1.7,3.9,2.6,6.2,2.6
							c2.1,0,4.1-0.8,5.7-2.1l3.8,3.8v4.9h-18.2c-0.4,0-0.6,0.3-0.6,0.6v6.5c0,0.4,0.3,0.6,0.6,0.6h4.9v70.4H133V81.5
							c0-0.4-0.3-0.6-0.6-0.6H93.6c-0.4,0-0.6,0.3-0.6,0.6V146H77.4v-12.8c0-0.4-0.3-0.6-0.6-0.6h-0.9v-26.7h2.6
							c3.2,0,6,1.9,6.1,4.4H81c-0.4,0-0.6,0.3-0.6,0.6c0,0.4,0.3,0.6,0.6,0.6h1.6c-0.4,0.5-0.6,1.2-0.6,1.9c0,1.8,1.4,3.2,3.1,3.2
							s3.1-1.4,3.1-3.2c0-0.6-0.3-1.4-0.6-1.9H89c0.4,0,0.6-0.3,0.6-0.6c0-0.4-0.3-0.6-0.5-0.6h-3.5c-0.1-3.1-3.4-5.6-7.4-5.6H75h-3
							c-4,0-7.2,2.5-7.4,5.6h-3.5c-0.4,0-0.6,0.3-0.6,0.6c0,0.4,0.3,0.6,0.6,0.6h1.6c-0.4,0.5-0.6,1.2-0.6,1.9
							c0,1.8,1.4,3.2,3.1,3.2s3.1-1.4,3.1-3.2c0-0.6-0.3-1.4-0.6-1.9h1.8c0.4,0,0.6-0.3,0.6-0.6c0-0.4-0.3-0.6-0.6-0.6H66
							c0.1-2.5,2.7-4.4,6.1-4.4h2.6v26.7h-0.8c-0.4,0-0.6,0.3-0.6,0.6V146H69v-0.1V144c0-0.4-0.3-0.6-0.6-0.6h-5.8v-2.5h2.2
							c0.4,0,0.6-0.3,0.6-0.6V138c0-0.4-0.3-0.6-0.6-0.6h-2.2v-0.6h2.2c0.4,0,0.6-0.3,0.6-0.6v-2.3c0-0.4-0.3-0.6-0.6-0.6h-27
							c-0.4,0-0.6,0.3-0.6,0.6v2.3c0,0.4,0.3,0.6,0.6,0.6h1.9v0.6h-1.9c-0.4,0-0.6,0.3-0.6,0.6v2.3c0,0.4,0.3,0.6,0.6,0.6h1.9v2.5
							h-5.6c-0.4,0-0.6,0.3-0.6,0.6v1.9c0,0.4,0.3,0.6,0.6,0.6h2.1v6.9H22V132c5-0.6,8.9-8.8,8.9-19.1c0-10.7-4.1-19.1-9.6-19.1
							s-9.6,8.4-9.6,19.1c0,10.3,3.9,18.5,8.9,19.1v21.3H11c-0.4,0-0.6,0.3-0.6,0.6c0,0.4,0.3,0.6,0.6,0.6h25.9h1.9h12.4v6.5h661.3
							v-15H710.7z M385.9,145.1c0.1,0,0.3,0,0.4,0c0.6,0,1.2,0.4,1.4,1h-1L385.9,145.1z M375.6,146l0.1-0.5c0.1,0.1,0.3,0.3,0.3,0.5
							H375.6z M360.7,146l0.1-0.5c0.1,0.1,0.3,0.3,0.3,0.5H360.7z M359.3,146h-0.9c0.3-0.5,0.8-0.9,1.3-1L359.3,146z M386,139.9
							c3.4,0,6.1,2.7,6.3,6.1H389c-0.3-1.3-1.4-2.3-2.7-2.3c-0.4,0-0.9,0.1-1.2,0.3l-2.5-3.1C383.7,140.3,384.8,139.9,386,139.9z
							 M384.1,144.8c-0.3,0.4-0.4,0.8-0.5,1.2h-3.9c0.1-1.7,0.9-3.2,2.1-4.3L384.1,144.8z M378.7,137.7l2.2,3
							c-1.4,1.3-2.3,3.2-2.6,5.3h-1c-0.1-0.8-0.5-1.4-1.2-1.8L378.7,137.7z M377.5,136.9l-2.6,6.9c-0.1,0-0.3,0-0.4,0l-0.1-1h0.4
							c0.4,0,0.6-0.3,0.6-0.6c0-0.4-0.3-0.6-0.6-0.6h-2.2c-0.4,0-0.6,0.3-0.6,0.6c0,0.4,0.3,0.6,0.6,0.6h0.5l0.1,1.3c0,0,0,0-0.1,0
							l-7.4-9.1L377.5,136.9z M364.6,135.3l7.8,9.4c-0.3,0.3-0.4,0.6-0.5,1h-4.5c-0.3-2.8-1.9-5.4-4.3-6.6L364.6,135.3z
							 M362.6,140.7c1.9,1,3.2,3,3.5,5.3h-3.6c-0.1-0.8-0.5-1.4-1.2-1.8L362.6,140.7z M359.8,139.9c0.6,0,1.2,0.1,1.7,0.3l-1.3,3.6
							c-0.1,0-0.3,0-0.4,0c-1.3,0-2.5,1-2.7,2.3h-3.6C353.7,142.6,356.4,139.9,359.8,139.9z M58.8,140.8v2.5H43.4v-2.5H58.8z
							 M43.4,137.3v-0.6h15.4v0.6H43.4z M61.1,137.3h-1v-0.6h1V137.3z M39.4,153.3v-6.9h11.8v6.9H39.4z"/>
						<g transform="translate(0.280761, 77.048780)">
							<path id="Shape_43_" class="st3" d="M351.4,77.5h7.1c0.4,0,0.6-0.3,0.6-0.6V65.7c0-0.4-0.3-0.6-0.6-0.6h-7.1
								c-0.4,0-0.6,0.3-0.6,0.6v11.1C350.8,77.2,351,77.5,351.4,77.5z M352.1,76.3V69h5.8v7.4L352.1,76.3L352.1,76.3z M357.9,66.4
								v1.3h-5.8v-1.3H357.9z"/>
							<path id="Shape_44_" class="st3" d="M361.6,77.5h7.1c0.4,0,0.6-0.3,0.6-0.6V65.7c0-0.4-0.3-0.6-0.6-0.6h-7.1
								c-0.4,0-0.6,0.3-0.6,0.6v11.1C361,77.2,361.2,77.5,361.6,77.5z M362.1,76.3V69h5.8v7.4L362.1,76.3L362.1,76.3z M368.1,66.4
								v1.3h-5.8v-1.3H368.1z"/>
							<path id="Shape_45_" class="st3" d="M333.1,43.7h7.1c0.4,0,0.6-0.3,0.6-0.6V31.9c0-0.4-0.3-0.6-0.6-0.6h-7.1
								c-0.4,0-0.6,0.3-0.6,0.6V43C332.5,43.4,332.8,43.7,333.1,43.7z M333.7,42.5v-7.4h5.8v7.4H333.7z M339.5,32.6v1.3h-5.8v-1.3
								H339.5z"/>
							<path id="Shape_46_" class="st3" d="M343.3,43.7h7.1c0.4,0,0.6-0.3,0.6-0.6V31.9c0-0.4-0.3-0.6-0.6-0.6h-7.1
								c-0.4,0-0.6,0.3-0.6,0.6V43C342.6,43.4,342.9,43.7,343.3,43.7z M343.9,42.5v-7.4h5.8v7.4H343.9z M349.7,32.6v1.3h-5.8v-1.3
								H349.7z"/>
							<path id="Shape_47_" class="st3" d="M377.4,43.7h7.1c0.4,0,0.6-0.3,0.6-0.6V31.9c0-0.4-0.3-0.6-0.6-0.6h-7.1
								c-0.4,0-0.6,0.3-0.6,0.6V43C376.8,43.4,377,43.7,377.4,43.7z M378,42.5v-7.4h5.8v7.4H378z M383.9,32.6v1.3H378v-1.3H383.9z"
								/>
							<path id="Shape_48_" class="st3" d="M367.2,43.7h7.1c0.4,0,0.6-0.3,0.6-0.6V31.9c0-0.4-0.3-0.6-0.6-0.6h-7.1
								c-0.4,0-0.6,0.3-0.6,0.6V43C366.5,43.4,366.9,43.7,367.2,43.7z M367.8,42.5v-7.4h5.8v7.4H367.8z M373.6,32.6v1.3h-5.8v-1.3
								H373.6z"/>
							<path id="Shape_49_" class="st3" d="M355.3,28.7h7.1c0.4,0,0.6-0.3,0.6-0.6V21c0-0.4-0.3-0.6-0.6-0.6h-7.1
								c-0.4,0-0.6,0.3-0.6,0.6v7C354.6,28.3,354.9,28.7,355.3,28.7z M355.8,21.6h5.8v5.8h-5.8V21.6z"/>
							<path id="Path_9_" class="st4" d="M399.2,78.9h-4.9c-0.4,0-0.6,0.3-0.6,0.6c0,0.4,0.3,0.6,0.6,0.6h4.9c0.4,0,0.6-0.3,0.6-0.6
								C399.9,79.2,399.6,78.9,399.2,78.9z"/>
							<path id="Shape_50_" class="st5" d="M196.9,55h0.9h9.2h0.9c0.4,0,0.6-0.3,0.6-0.6s-0.3-0.6-0.6-0.6h-0.3V41.6
								c0-0.4-0.3-0.6-0.6-0.6h-9.2c-0.4,0-0.6,0.3-0.6,0.6v12.3h-0.3c-0.4,0-0.6,0.3-0.6,0.6C196.3,54.8,196.5,55,196.9,55z
								 M206.5,42.1v5.2h-8v-5.2H206.5z M198.5,48.6h8v5.2h-8V48.6z"/>
							<path id="Shape_51_" class="st5" d="M222.6,55h0.9h9.2h0.9c0.4,0,0.6-0.3,0.6-0.6s-0.3-0.6-0.6-0.6h-0.3V35.4
								c0-0.4-0.3-0.6-0.6-0.6h-9.1c-0.4,0-0.6,0.3-0.6,0.6v18.5h-0.3c-0.4,0-0.6,0.3-0.6,0.6C222.1,54.8,222.4,55,222.6,55z
								 M224.2,42.5h8v4.9h-8V42.5z M232.2,36v5.2h-8V36H232.2z M224.2,48.6h8v5.2h-8V48.6z"/>
							<path id="Shape_52_" class="st5" d="M249.3,55h0.9h9.2h0.9c0.4,0,0.6-0.3,0.6-0.6s-0.3-0.6-0.6-0.6H260V41.6
								c0-0.4-0.3-0.6-0.6-0.6h-9.2c-0.4,0-0.6,0.3-0.6,0.6v12.3h-0.3c-0.4,0-0.6,0.3-0.6,0.6C248.6,54.8,248.9,55,249.3,55z
								 M258.7,42.1v5.2h-7.9v-5.2H258.7z M250.8,48.6h8v5.2h-8L250.8,48.6L250.8,48.6z"/>
							<path id="Shape_53_" class="st5" d="M208,73.5h-0.3V61.2c0-0.4-0.3-0.6-0.6-0.6h-9.3c-0.4,0-0.6,0.3-0.6,0.6v12.3h-0.3
								c-0.4,0-0.6,0.3-0.6,0.6s0.3,0.6,0.6,0.6h0.9h9.2h0.9c0.4,0,0.6-0.3,0.6-0.6S208.3,73.5,208,73.5z M206.5,61.9V67h-8v-5.2h8
								V61.9z M198.5,73.5v-5.2h8v5.2H198.5z"/>
							<path id="Shape_54_" class="st5" d="M249.3,74.8h0.9h9.2h0.9c0.4,0,0.6-0.3,0.6-0.6s-0.3-0.6-0.6-0.6H260V61.2
								c0-0.4-0.3-0.6-0.6-0.6h-9.2c-0.4,0-0.6,0.3-0.6,0.6v12.3h-0.3c-0.4,0-0.6,0.3-0.6,0.6C248.6,74.4,248.9,74.8,249.3,74.8z
								 M258.7,61.9V67h-7.9v-5.2h7.9V61.9z M250.8,68.3h8v5.2h-8L250.8,68.3L250.8,68.3z"/>
							<path id="Shape_55_" class="st5" d="M223.3,61.5h-1.8c-0.4,0-0.6,0.3-0.6,0.6v14.7c0,0.4,0.3,0.6,0.6,0.6h1.8
								c0.4,0,0.6-0.3,0.6-0.6V62.1C223.9,61.7,223.7,61.5,223.3,61.5z M222.6,76.3H222V62.8h0.6V76.3z"/>
							<path id="Shape_56_" class="st5" d="M231.3,61.5h-6.2c-0.4,0-0.6,0.3-0.6,0.6v9.6c0,0.4,0.3,0.6,0.6,0.6h6.2
								c0.4,0,0.6-0.3,0.6-0.6v-9.6C231.9,61.7,231.7,61.5,231.3,61.5z M230.7,71h-4.9v-8.3h4.9V71z"/>
							<path id="Shape_57_" class="st5" d="M231.3,72.8h-6.2c-0.4,0-0.6,0.3-0.6,0.6v3.4c0,0.4,0.3,0.6,0.6,0.6h6.2
								c0.4,0,0.6-0.3,0.6-0.6v-3.4C231.9,73.1,231.7,72.8,231.3,72.8z M230.7,76.3h-4.9v-2.2h4.9V76.3z"/>
							<path id="Shape_58_" class="st5" d="M235,61.5h-1.8c-0.4,0-0.6,0.3-0.6,0.6v14.7c0,0.4,0.3,0.6,0.6,0.6h1.8
								c0.4,0,0.6-0.3,0.6-0.6V62.1C235.6,61.7,235.3,61.5,235,61.5z M234.4,76.3h-0.6V62.8h0.6V76.3z"/>
							<path id="Shape_59_" class="st5" d="M658.3,44.8h-9.2c-0.4,0-0.6,0.3-0.6,0.6v13.2c0,0.4,0.3,0.6,0.6,0.6h9.2
								c0.4,0,0.6-0.3,0.6-0.6V45.5C659,45.1,658.7,44.8,658.3,44.8z M657.7,46.1v4h-8v-4H657.7z M649.7,51.3h3.4V58h-3.4V51.3z
								 M654.3,58.1v-6.7h3.4v6.7H654.3z"/>
							<path id="Shape_60_" class="st5" d="M658.3,61.5h-9.2c-0.4,0-0.6,0.3-0.6,0.6v13.2c0,0.4,0.3,0.6,0.6,0.6h9.2
								c0.4,0,0.6-0.3,0.6-0.6V62.1C659,61.7,658.7,61.5,658.3,61.5z M657.7,62.6v4h-8v-4H657.7z M649.7,67.9h3.4v6.7h-3.4V67.9z
								 M654.3,74.6v-6.7h3.4v6.7H654.3z"/>
							<path id="Shape_61_" class="st5" d="M663.3,59.3h9.2c0.4,0,0.6-0.3,0.6-0.6V45.5c0-0.4-0.3-0.6-0.6-0.6h-9.2
								c-0.4,0-0.6,0.3-0.6,0.6v13.2C662.6,59,663,59.3,663.3,59.3z M663.9,51.3h3.4V58h-3.4V51.3z M668.6,58.1v-6.7h3.4v6.7H668.6z
								 M671.9,46.1v4h-8v-4H671.9z"/>
							<path id="Shape_62_" class="st5" d="M617.5,54.1h-0.6V41.2c0-0.4-0.3-0.6-0.6-0.6h-8.7c-0.4,0-0.6,0.3-0.6,0.6v12.9h-0.5
								c-0.4,0-0.6,0.3-0.6,0.6s0.3,0.6,0.6,0.6h1.3h8.7h1.3c0.4,0,0.6-0.3,0.6-0.6C618,54.4,617.7,54.1,617.5,54.1z M615.6,41.7
								v5.6h-7.4v-5.6H615.6z M608.2,54.1v-5.6h7.4v5.6H608.2z"/>
							<path id="Shape_63_" class="st5" d="M643,54.1h-0.6V41.2c0-0.4-0.3-0.6-0.6-0.6H633c-0.4,0-0.6,0.3-0.6,0.6v12.9h-0.6
								c-0.4,0-0.6,0.3-0.6,0.6s0.3,0.6,0.6,0.6h1.3h8.7h1.3c0.4,0,0.6-0.3,0.6-0.6S643.3,54.1,643,54.1z M641.1,41.7v5.6h-7.4v-5.6
								H641.1z M633.8,54.1v-5.6h7.4v5.6H633.8z"/>
							<path id="Shape_64_" class="st5" d="M630.2,54.1h-0.5V41.2c0-0.4-0.3-0.6-0.6-0.6h-8.7c-0.4,0-0.6,0.3-0.6,0.6v12.9H619
								c-0.4,0-0.6,0.3-0.6,0.6s0.3,0.6,0.6,0.6h1.3h8.7h1.3c0.4,0,0.6-0.3,0.6-0.6C630.8,54.4,630.5,54.1,630.2,54.1z M628.3,41.7
								v5.6H621v-5.6H628.3z M621,54.1v-5.6h7.4v5.6H621z"/>
							<path id="Shape_65_" class="st5" d="M617.5,74h-0.6V61.1c0-0.4-0.3-0.6-0.6-0.6h-8.7c-0.4,0-0.6,0.3-0.6,0.6V74h-0.5
								c-0.4,0-0.6,0.3-0.6,0.6c0,0.4,0.3,0.6,0.6,0.6h1.3h8.7h1.3c0.4,0,0.6-0.3,0.6-0.6C618,74.4,617.7,74,617.5,74z M615.6,61.7
								v5.6h-7.4v-5.6C608.2,61.7,615.6,61.7,615.6,61.7z M608.2,74v-5.6h7.4V74H608.2z"/>
							<path id="Shape_66_" class="st5" d="M643,74h-0.6V61.1c0-0.4-0.3-0.6-0.6-0.6H633c-0.4,0-0.6,0.3-0.6,0.6V74h-0.6
								c-0.4,0-0.6,0.3-0.6,0.6c0,0.4,0.3,0.6,0.6,0.6h1.3h8.7h1.3c0.4,0,0.6-0.3,0.6-0.6C643.6,74.4,643.3,74,643,74z M641.1,61.7
								v5.6h-7.4v-5.6C633.7,61.7,641.1,61.7,641.1,61.7z M633.8,74v-5.6h7.4V74H633.8z"/>
							<path id="Shape_67_" class="st5" d="M630.2,74h-0.5V61.1c0-0.4-0.3-0.6-0.6-0.6h-8.7c-0.4,0-0.6,0.3-0.6,0.6V74H619
								c-0.4,0-0.6,0.3-0.6,0.6c0,0.4,0.3,0.6,0.6,0.6h1.3h8.7h1.3c0.4,0,0.6-0.3,0.6-0.6C630.8,74.4,630.5,74,630.2,74z
								 M628.3,61.7v5.6H621v-5.6C621,61.7,628.3,61.7,628.3,61.7z M621,74v-5.6h7.4V74H621z"/>
							<path id="Shape_68_" class="st5" d="M624.6,30.5c2.5,0,4.5-1.9,4.5-4.5c0-2.5-1.9-4.5-4.5-4.5c-2.5,0-4.5,1.9-4.5,4.5
								C620.2,28.4,622.1,30.5,624.6,30.5z M621.5,26.6h2.6v2.6C622.8,28.9,621.8,27.9,621.5,26.6z M625.2,29.2v-2.6h2.6
								C627.6,27.9,626.5,28.9,625.2,29.2z M627.8,25.5h-2.6v-2.6C626.5,23.1,627.6,24.2,627.8,25.5z M624.1,22.9v2.6h-2.6
								C621.8,24.2,622.8,23.1,624.1,22.9z"/>
							<path id="Shape_69_" class="st5" d="M667.8,69.1c1.4,0,2.5-1.2,2.5-2.5c0-1.4-1.2-2.5-2.5-2.5s-2.5,1.2-2.5,2.5
								C665.3,68.1,666.5,69.1,667.8,69.1z M667.8,65.5c0.6,0,1.3,0.5,1.3,1.3c0,0.6-0.5,1.3-1.3,1.3s-1.3-0.5-1.3-1.3
								C666.6,66,667.1,65.5,667.8,65.5z"/>
							<path id="Shape_70_" class="st3" d="M31.7,46.8h13.8c0.4,0,0.6-0.3,0.6-0.6V32.3c0-0.4-0.3-0.6-0.6-0.6H31.7
								c-0.4,0-0.6,0.3-0.6,0.6v13.8C31,46.5,31.3,46.8,31.7,46.8z M32.3,32.9H45v12.7H32.3V32.9z"/>
							<path id="Shape_71_" class="st3" d="M31.7,75.7h9.2c0.4,0,0.6-0.3,0.6-0.6V61.2c0-0.4-0.3-0.6-0.6-0.6h-9.2
								c-0.4,0-0.6,0.3-0.6,0.6V75C31,75.4,31.3,75.7,31.7,75.7z M32.3,61.9h8v12.7h-8V61.9z"/>
							<path id="Shape_72_" class="st3" d="M82.5,46.8h13.8c0.4,0,0.6-0.3,0.6-0.6V32.3c0-0.4-0.3-0.6-0.6-0.6H82.5
								c-0.4,0-0.6,0.3-0.6,0.6v13.8C81.8,46.5,82.1,46.8,82.5,46.8z M83,32.9h12.7v12.7H83V32.9z"/>
							<path id="Shape_73_" class="st3" d="M86.5,61.2V75c0,0.4,0.3,0.6,0.6,0.6h9.2c0.4,0,0.6-0.3,0.6-0.6V61.2
								c0-0.4-0.3-0.6-0.6-0.6h-9.2C86.8,60.6,86.5,60.8,86.5,61.2z M87.7,61.9h8v12.7h-8V61.9z"/>
							<path id="Shape_74_" class="st3" d="M60.4,40h7.1c0.4,0,0.6-0.3,0.6-0.6v-7.1c0-0.4-0.3-0.6-0.6-0.6h-7.1
								c-0.4,0-0.6,0.3-0.6,0.6v7.1C59.9,39.8,60.1,40,60.4,40z M61,32.9h5.8v5.8H61V32.9z"/>
							<path id="Shape_75_" class="st3" d="M67.4,64.3h-6.7c-0.4,0-0.6,0.3-0.6,0.6v13.2c0,0.4,0.3,0.6,0.6,0.6h6.7
								c0.4,0,0.6-0.3,0.6-0.6V64.8C68,64.6,67.7,64.3,67.4,64.3z M66.7,77.5h-5.6v-12h5.6V77.5z"/>
							<path id="Shape_76_" class="st3" d="M120.9,52.3c-1.2,0-2.2,0.9-2.2,2.2s0.9,2.2,2.2,2.2s2.2-0.9,2.2-2.2
								S122,52.3,120.9,52.3z M120.9,55.4c-0.5,0-0.9-0.4-0.9-0.9s0.4-0.9,0.9-0.9s0.9,0.4,0.9,0.9
								C121.8,54.9,121.4,55.4,120.9,55.4z"/>
							<path id="Shape_77_" class="st3" d="M486.9,42.6l-8.4-5.2c-0.3-0.1-0.4-0.1-0.6,0l-8.4,5.2c-0.3,0.1-0.4,0.5-0.3,0.9l1.4,2.3
								c0.1,0.1,0.3,0.3,0.4,0.3h0.1c0.1,0,0.3,0,0.3-0.1l0.4-0.3v9c0,0.4,0.3,0.6,0.6,0.6h11.1c0.4,0,0.6-0.3,0.6-0.6v-9l0.4,0.3
								c0.1,0.1,0.3,0.1,0.5,0.1c0.1,0,0.3-0.1,0.4-0.3l1.4-2.3C487.3,43.1,487.3,42.8,486.9,42.6z M483.2,54.1h-9.8V45l4.9-3l4.9,3
								V54.1L483.2,54.1z M485,44.6l-0.8-0.5l0,0l-5.6-3.4c0,0,0,0-0.1,0s-0.3,0-0.5,0c0,0,0,0-0.1,0l-5.6,3.4l0,0l-0.8,0.5
								l-0.8-1.3l7.5-4.6l7.5,4.6L485,44.6z"/>
							<path id="Shape_78_" class="st5" d="M534,37.5l-8.4,5.2c-0.3,0.1-0.4,0.5-0.3,0.9l1.4,2.3c0.1,0.1,0.3,0.3,0.4,0.3h0.1
								c0.1,0,0.3,0,0.3-0.1l0.4-0.3v9c0,0.4,0.3,0.6,0.6,0.6h11.1c0.4,0,0.6-0.3,0.6-0.6v-9l0.4,0.3c0.1,0.1,0.3,0.1,0.5,0.1
								c0.1,0,0.3-0.1,0.4-0.3l1.4-2.3c0.1-0.3,0.1-0.6-0.3-0.9l-8.4-5.2C534.4,37.3,534.2,37.3,534,37.5z M539.3,54.1h-9.8V45
								l4.9-3l4.9,3L539.3,54.1L539.3,54.1z M541.9,43.3l-0.8,1.3l-0.8-0.5l0,0l-5.6-3.4c0,0,0,0-0.1,0s-0.3,0-0.5,0c0,0,0,0-0.1,0
								l-5.6,3.4l0,0l-0.8,0.5l-0.8-1.3l7.5-4.6L541.9,43.3z"/>
							<path id="Shape_79_" class="st5" d="M475.8,65.5h-6.2c-0.4,0-0.6,0.3-0.6,0.6v11.1c0,0.4,0.3,0.6,0.6,0.6h6.2
								c0.4,0,0.6-0.3,0.6-0.6V66.1C476.4,65.7,476.2,65.5,475.8,65.5z M475.1,76.6h-4.9v-9.8h4.9V76.6z"/>
							<path id="Shape_80_" class="st5" d="M485.6,65.5h-6.2c-0.4,0-0.6,0.3-0.6,0.6v11.1c0,0.4,0.3,0.6,0.6,0.6h6.2
								c0.4,0,0.6-0.3,0.6-0.6V66.1C486.3,65.7,486,65.5,485.6,65.5z M485.1,76.6h-4.9v-9.8h4.9V76.6z"/>
							<path id="Shape_81_" class="st5" d="M542.9,65.5h-6.2c-0.4,0-0.6,0.3-0.6,0.6v11.1c0,0.4,0.3,0.6,0.6,0.6h6.2
								c0.4,0,0.6-0.3,0.6-0.6V66.1C543.5,65.7,543.3,65.5,542.9,65.5z M542.2,76.6h-4.9v-9.8h4.9V76.6z"/>
							<path id="Shape_82_" class="st5" d="M533.1,65.5h-6.2c-0.4,0-0.6,0.3-0.6,0.6v11.1c0,0.4,0.3,0.6,0.6,0.6h6.2
								c0.4,0,0.6-0.3,0.6-0.6V66.1C533.7,65.7,533.5,65.5,533.1,65.5z M532.4,76.6h-4.9v-9.8h4.9V76.6z"/>
							<path id="Shape_83_" class="st5" d="M723.1,82.8c0-0.4-0.3-0.6-0.6-0.6h-8.8v-20v-6.6c0-8-6.5-14.5-14.5-14.5
								c-5,0-9.7,2.6-12.3,6.8c-1.3-0.4-2.5-0.6-3.7-0.6c-2.3,0-4.4,0.6-6.3,1.8v-5.6h1.8c0.4,0,0.6-0.3,0.6-0.6V19.1
								c0-0.4-0.3-0.6-0.6-0.6h-46.2l-7.4-6.7c-0.3-0.3-0.6-0.3-0.8,0L599.6,34c-0.1,0.1-0.3,0.3-0.3,0.5c0,0.1,0.1,0.4,0.3,0.5
								l2.2,1.7c0.1,0.1,0.3,0.1,0.4,0.1s0.3,0,0.4-0.1l0.6-0.6v7.2c-1-0.6-2.2-0.9-3.5-0.9c-1.7,0-3.2,0.6-4.4,1.7
								c-1.6-3.5-5-5.8-8.9-5.8c-5.2,0-9.6,4.1-9.8,9.2c-0.6-0.1-1.3-0.3-1.9-0.3c-4.5,0-8.3,3.7-8.3,8.3V62v20h-17.8V59.8h4.3
								c0.1,0,0.1,0,0.3,0l0,0c0,0,0.1,0,0.1-0.1c0,0,0,0,0.1,0c0,0,0-0.1,0.1-0.1c0,0,0,0,0-0.1c0,0,0,0,0-0.1v-0.1l0,0V59v-0.1
								l-9.8-25.8c-0.1-0.3-0.3-0.4-0.5-0.4h-8v-3.1h0.6c0.4,0,0.6-0.3,0.6-0.6v-1.5c0-0.4-0.3-0.6-0.6-0.6h-8.7
								c-0.4,0-0.6,0.3-0.6,0.6v1.8c0,0.4,0.3,0.6,0.6,0.6h0.6V33h-42.5v-3.1h0.6c0.4,0,0.6-0.3,0.6-0.6v-1.8c0-0.4-0.3-0.6-0.6-0.6
								H477c-0.4,0-0.6,0.3-0.6,0.6v1.8c0,0.4,0.3,0.6,0.6,0.6h0.6V33h-4.5c-0.8-1.3-1.8-2.3-3-3.2c0.9-1.4,1.4-3,1.4-4.6
								c0-4.6-3.9-8.5-8.5-8.5c-2.2,0-4.3,0.9-5.8,2.3c-2.3-2.7-5.7-4.3-9.3-4.3c-6.7,0-12.3,5.6-12.3,12.3c0,4.1,1.9,7.9,5.4,10.2
								c0,0.1,0,0.1,0,0.3c0,4.1,3.4,7.6,7.6,7.6c0.1,0,0.1,0,0.3,0c0.8,2.5,2.3,4.6,4.4,6.3c-1.2,5-2.2,10.7-2.8,16.9
								c-1.9-5-3.6-7.4-4.3-8.1c0.6-1.3,0.9-2.7,0.9-4.3c0-5.6-4.4-10.2-10-10.3c-1.4-2.2-3.9-3.4-6.5-3.4c-4.3,0-7.9,3.5-7.9,7.9
								c0,2.6,1.3,5,3.5,6.5c0.3,5.4,4.9,9.8,10.3,9.8c2.8,0,5.6-1.2,7.5-3.2c1.3,2.1,5.3,9.2,5.3,17.4l0,0c0,0.9,0,1.5-0.1,1.9
								h-30.5V60.6l2.5,1.2c0.1,0,0.1,0,0.3,0c0.1,0,0.3,0,0.4-0.1l1.9-1.9c0.1-0.1,0.3-0.4,0.1-0.5c0-0.3-0.1-0.4-0.4-0.4L397,46.5
								c-0.1-0.1-0.4-0.1-0.5,0l-7,3.2V28.4l4.9,2.3c0.1,0,0.1,0,0.3,0c0.1,0,0.3,0,0.4-0.1l1.9-1.9c0.1-0.1,0.3-0.4,0.1-0.5
								c0-0.3-0.1-0.4-0.4-0.4l-37.9-17.4c-0.1-0.1-0.4-0.1-0.5,0l-15.5,7.1v-6.6h0.3c0.4,0,0.6-0.3,0.6-0.6V7.8
								c0-0.4-0.3-0.6-0.6-0.6H332c-0.4,0-0.6,0.3-0.6,0.6v2.5c0,0.4,0.3,0.6,0.6,0.6h0.3v11.4l-11.9,5.4c-0.1,0.1-0.3,0.3-0.4,0.4
								c0,0.3,0,0.4,0.1,0.5l1.9,1.9c0.1,0.1,0.5,0.3,0.6,0.1l4.4-2.1V49l-3,10c0,0.1,0,0.4,0.1,0.5s0.3,0.3,0.5,0.3h2.5v22.1H314
								v-9.2h6.7c0.3,0,0.4-0.1,0.5-0.3c0.1-0.1,0.1-0.4,0-0.6l-5.3-8.9h2.2c0.3,0,0.4-0.1,0.5-0.3c0.1-0.1,0.1-0.4,0-0.6l-4.8-8.1
								h1.4c0.3,0,0.4-0.1,0.5-0.3s0.1-0.4,0-0.6l-3.7-7.4c-0.3-0.4-0.9-0.4-1.2,0l-3.7,7.4c-0.1,0.1-0.1,0.4,0,0.6
								c0.1,0.1,0.3,0.3,0.5,0.3h1.4l-4.8,8.1c-0.1,0.1-0.1,0.4,0,0.6c0.1,0.1,0.3,0.3,0.5,0.3h2.2l-5.3,8.9c-0.1,0.1-0.1,0.4,0,0.6
								c0.1,0.1,0.3,0.3,0.5,0.3h6.7v9.2h-10.2V61c0-0.4-0.3-0.6-0.6-0.6h-2.2c0.8-2.1,0.8-4.1-0.1-6.2c-0.9-2.1-2.5-3.6-4.5-4.5
								c-2.6-1-5.4-0.8-7.8,0.8c-1.3-1.9-3.2-3.4-5.3-4.3c-3.4-1.4-7.1-1.2-10.3,0.5v-11h1.8c0.4,0,0.6-0.3,0.6-0.6v-2.5
								c0-0.4-0.3-0.6-0.6-0.6l-21.2-14c-0.1-0.1-0.3-0.1-0.4-0.1h-15.6l-4-3c-0.3-0.1-0.5-0.1-0.8,0l-4,3H208c-0.1,0-0.3,0-0.4,0.1
								L186,31.9l0,0c0,0,0,0-0.1,0.1c0,0,0,0,0,0.1v0.1v0.1l0,0v2.5c0,0.4,0.3,0.6,0.6,0.6h1.8v11c-2.2-1.8-4.9-2.8-7.9-2.8
								c-5.8,0-10.6,4-11.9,9.6c-0.5-0.1-1-0.1-1.6-0.1c-4.1,0-7.6,3.1-8.3,7.1H158c-0.4,0-0.6,0.3-0.6,0.6v20.9h-15V57.5l1.9,0.9
								c0.1,0,0.1,0,0.3,0c0.1,0,0.1,0,0.3,0s0.3-0.1,0.4-0.4l1.3-3.1c0.1-0.3,0-0.6-0.3-0.8l-8.1-3.5v-7.9c1.2,1.2,2.8,1.8,4.5,1.8
								c3.6,0,6.6-3,6.6-6.6c0-0.6-0.1-1.2-0.3-1.7c3-0.9,5-3.7,5-6.8c0-2.5-1.2-4.6-3.1-5.9c1.6-1.8,2.5-4.1,2.5-6.6
								c0-5.6-4.5-10.1-10.1-10.1c-2.5,0-4.8,0.9-6.6,2.5c-2.2-0.5-4.5-0.5-6.9-0.1c-0.9-2.2-3.1-3.5-5.4-3.5
								c-3.2,0-5.9,2.7-5.9,5.9c0,1.4,0.5,2.7,1.4,3.7c-1.3,1.8-2.3,3.9-2.8,6.1c-4.4,1.2-7.4,5.2-7.4,9.7c0,5.6,4.5,10.1,10.1,10.1
								c1.9,0,3.7-0.5,5.3-1.5c1.8,1,3.7,1.7,5.8,1.9v6.1l-10.2-4.4c-0.1-0.1-0.4-0.1-0.5,0l-14.5,6.2V26.8h4.1
								c0.3,0,0.4-0.1,0.5-0.3c0.1-0.3,0.1-0.4,0-0.6l-9.8-16c-0.1-0.1-0.3-0.3-0.5-0.3h-6.7V3.8H94c0.4,0,0.6-0.3,0.6-0.6V0.7
								C94.6,0.3,94.4,0,94,0H82.4c-0.4,0-0.6,0.3-0.6,0.6v2.5c0,0.4,0.3,0.6,0.6,0.6h0.4v5.8H27.9c-0.3,0-0.4,0.1-0.5,0.3l-9.8,16
								c-0.1,0.1-0.1,0.4,0,0.6s0.3,0.3,0.5,0.3h3.7v44.8c-0.1,0-0.3,0-0.4,0c-2.1,0-3.9,0.8-5.3,2.1c-1.4-1-3.1-1.7-4.9-1.7
								c-4.5,0-8.1,3.6-8.1,8.1c0,0.6,0.1,1.3,0.3,2.1H1.2c-0.4,0-0.6,0.3-0.6,0.6c0,0.4,0.3,0.6,0.6,0.6h3.1h18.2h5.7h20.4h9.8
								h11.1h9.8h20h6.2h30.8h6.2h16.3h3.1h3.1h3.1h3.1h3.1h3.1h3.1h3.1h3.1h3.1h27.3H240h28h3.1h3.1h3.1h3.1h3.1h3.1h3.1h3.1h3.1
								h3.1h11.5h3.7h14.4h9.2h8.9H376h5.9h30.8h5.9h31.3h2.8h12h26.1h10.7h9.2h10.7h26.1h19.1h3.7h2.5h3.7h2.5h3.7h2.5h3.7h2.5h3.7
								h2.5h3.7h2.5h41.5h15.6h13.6h1.6h2.5h3.7h2.5h3.7h2.5h3.7h2.5h3.7h2.5h3.7h2.5h3.7h9.4C722.9,83.3,723.1,83,723.1,82.8z
								 M683.2,48.6c1.3,0,2.6,0.3,3.9,0.8c0.3,0.1,0.6,0,0.8-0.3c2.3-4.1,6.7-6.7,11.5-6.7c7.2,0,13.2,5.9,13.2,13.2V60
								c-0.4-0.3-0.8-0.4-1.3-0.4c-1.4,0-2.5,1.2-2.5,2.5v3.1h-1.3V62c0-1.4-1.2-2.5-2.5-2.5c-1.4,0-2.5,1.2-2.5,2.5v3.1h-1.3V62
								c0-1.4-1.2-2.5-2.5-2.5c-1.4,0-2.5,1.2-2.5,2.5v3.1h-1.3V62c0-1.4-1.2-2.5-2.5-2.5s-2.5,1.2-2.5,2.5v3.1h-1.3V62
								c0-1.4-1.2-2.5-2.5-2.5s-2.5,1.2-2.5,2.5v3.1h-1.3V62c0-1.4-1.2-2.5-2.5-2.5s-2.5,1.2-2.5,2.5v3.1H676V50.6
								C678.6,49.3,680.8,48.6,683.2,48.6z M707.6,77.7h1.3v0.6h-1.3V77.7z M708.9,76.6h-1.3v-8.3h1.3V76.6z M708.9,67h-1.3v-0.6
								h1.3V67z M707.6,79.7h1.3v2.5h-1.3V79.7z M701.4,77.7h1.3v0.6h-1.3V77.7z M702.7,76.6h-1.3v-8.3h1.3V76.6z M702.7,67h-1.3
								v-0.6h1.3V67z M701.4,79.7h1.3v2.5h-1.3V79.7z M695.3,77.7h1.3v0.6h-1.3V77.7z M696.5,76.6h-1.3v-8.3h1.3V76.6z M696.5,67
								h-1.3v-0.6h1.3V67z M695.3,79.7h1.3v2.5h-1.3V79.7z M689.1,77.7h1.3v0.6h-1.3V77.7z M690.4,76.6h-1.3v-8.3h1.3V76.6z
								 M690.4,67h-1.3v-0.6h1.3V67z M689.1,79.7h1.3v2.5h-1.3V79.7z M683,77.7h1.3v0.6H683V77.7z M684.2,76.6h-1.3v-8.3h1.3V76.6z
								 M684.2,67h-1.3v-0.6h1.3V67z M683,79.7h1.3v2.5H683V79.7z M678,67h-1.3v-0.6h1.3V67z M676.8,68.3h1.3v8.3h-1.3V68.3z
								 M676.8,77.7h1.3v0.6h-1.3V77.7z M676.2,42.5h-30.1v-1.2l0.6,0.5c0.3,0.1,0.5,0.1,0.8,0l1.8-1.5l1.8,1.5
								c0.3,0.1,0.5,0.1,0.8,0l1.8-1.5l1.8,1.5c0.3,0.1,0.5,0.1,0.8,0l1.8-1.5l1.8,1.5c0.3,0.1,0.5,0.1,0.8,0l1.8-1.5l1.8,1.5
								c0.3,0.1,0.5,0.1,0.8,0l1.8-1.5l1.8,1.5c0.3,0.1,0.5,0.1,0.8,0l1.8-1.5l1.8,1.5c0.3,0.1,0.5,0.1,0.8,0l1.8-1.5l1.7,1.3v0.9
								H676.2z M646.3,36.4c0.3,0.3,0.5,0.3,0.8,0l2.2-1.7c0.1-0.1,0.3-0.3,0.3-0.4l1.7,1.3c0.3,0.1,0.5,0.1,0.8,0l1.8-1.5l1.8,1.5
								c0.3,0.1,0.5,0.1,0.8,0l1.8-1.5l1.8,1.5c0.3,0.1,0.5,0.1,0.8,0l1.8-1.5l1.8,1.5c0.3,0.1,0.5,0.1,0.8,0l1.8-1.5l1.8,1.5
								c0.3,0.1,0.5,0.1,0.8,0l1.8-1.5l1.8,1.5c0.3,0.1,0.5,0.1,0.8,0l1.8-1.5l1.7,1.3V37l-1.3-1c-0.3-0.1-0.5-0.1-0.8,0l-1.8,1.5
								l-1.8-1.5c-0.3-0.1-0.5-0.1-0.8,0l-1.8,1.5l-1.8-1.5c-0.3-0.1-0.5-0.1-0.8,0l-1.8,1.5l-1.8-1.5c-0.3-0.1-0.5-0.1-0.8,0
								l-1.8,1.5l-1.8-1.5c-0.3-0.1-0.5-0.1-0.8,0l-1.8,1.5l-1.8-1.5c-0.3-0.1-0.5-0.1-0.8,0l-1.8,1.5l-1.8-1.5
								c-0.3-0.1-0.5-0.1-0.8,0l-1.8,1.5l-1-0.8v-0.5L646.3,36.4z M646.1,38.2l0.6,0.5c0.3,0.1,0.5,0.1,0.8,0l1.8-1.5l1.8,1.5
								c0.3,0.1,0.5,0.1,0.8,0l1.8-1.5l1.8,1.5c0.3,0.1,0.5,0.1,0.8,0l1.8-1.5l1.8,1.5c0.3,0.1,0.5,0.1,0.8,0l1.8-1.5l1.8,1.5
								c0.3,0.1,0.5,0.1,0.8,0l1.8-1.5l1.8,1.5c0.3,0.1,0.5,0.1,0.8,0l1.8-1.5l1.8,1.5c0.3,0.1,0.5,0.1,0.8,0l1.8-1.5l1.7,1.3V40
								l-1.3-1c-0.3-0.1-0.5-0.1-0.8,0l-1.8,1.5l-1.2-1.5c-0.3-0.1-0.5-0.1-0.8,0l-1.8,1.5l-1.8-1.5c-0.3-0.1-0.5-0.1-0.8,0
								l-1.8,1.5l-2.1-1.5c-0.3-0.1-0.5-0.1-0.8,0l-1.8,1.5l-1.8-1.5c-0.3-0.1-0.5-0.1-0.8,0l-1.8,1.5l-2.1-1.5
								c-0.3-0.1-0.5-0.1-0.8,0l-1.8,1.5l-1.8-1.5c-0.3-0.1-0.5-0.1-0.8,0l-1.8,1.5l-1-0.8V38.2L646.1,38.2z M678,24.7l-1.3-1
								c-0.3-0.1-0.5-0.1-0.8,0l-1.8,1.5l-1.8-1.5c-0.3-0.1-0.5-0.1-0.8,0l-1.8,1.5l-1.8-1.5c-0.3-0.1-0.5-0.1-0.8,0l-1.8,1.5
								l-1.8-1.5c-0.3-0.1-0.5-0.1-0.8,0l-1.8,1.5l-1.8-1.5c-0.3-0.1-0.5-0.1-0.8,0l-1.8,1.5l-1.8-1.5c-0.3-0.1-0.5-0.1-0.8,0
								l-1.8,1.5l-1.8-1.5c-0.3-0.1-0.5-0.1-0.8,0l-1.8,1.5l-1.8-1.5c-0.3-0.3-0.6-0.1-0.8,0l-1.7,1.5l-1.9-1.5
								c-0.3-0.1-0.5-0.1-0.8,0l-1.2,0.9l-2.8-2.6l0.3-0.1l1.9,1.5c0.3,0.3,0.6,0.1,0.8,0l1.4-1.4l1.7,1.4c0.3,0.3,0.5,0.3,0.8,0
								l1.8-1.5l1.8,1.5c0.3,0.1,0.5,0.1,0.8,0l1.8-1.5l1.8,1.5c0.3,0.1,0.5,0.1,0.8,0l1.8-1.5l1.8,1.5c0.3,0.1,0.5,0.1,0.8,0
								l1.8-1.5l1.8,1.5c0.3,0.1,0.5,0.1,0.8,0l1.8-1.5l1.8,1.5c0.3,0.1,0.5,0.1,0.8,0l1.8-1.5l1.8,1.5c0.3,0.1,0.5,0.1,0.8,0
								l1.8-1.5l1.8,1.5c0.3,0.1,0.5,0.1,0.8,0l1.8-1.5l1.7,1.3L678,24.7L678,24.7z M640.5,24.8l1.9,1.5c0.3,0.1,0.5,0.1,0.8,0
								l1.6-1.4l1.8,1.5c0.3,0.1,0.5,0.1,0.8,0l1.8-1.5l1.8,1.5c0.3,0.1,0.5,0.1,0.8,0l1.8-1.5l1.8,1.5c0.3,0.1,0.5,0.1,0.8,0
								l1.8-1.5l1.8,1.5c0.3,0.1,0.5,0.1,0.8,0l1.8-1.5l1.8,1.5c0.3,0.1,0.5,0.1,0.8,0l1.8-1.5l1.8,1.5c0.3,0.1,0.5,0.1,0.8,0
								l1.8-1.5l1.8,1.5c0.3,0.1,0.5,0.1,0.8,0l1.8-1.5l1.7,1.3v1.5l-1.3-1c-0.3-0.1-0.5-0.1-0.8,0l-1.8,1.5l-1.8-1.5
								c-0.3-0.1-0.5-0.1-0.8,0l-1.8,1.5l-1.8-1.5c-0.3-0.1-0.5-0.1-0.8,0l-1.8,1.5l-1.8-1.5c-0.3-0.1-0.5-0.1-0.8,0l-1.8,1.5
								l-1.8-1.5c-0.3-0.1-0.5-0.1-0.8,0l-1.8,1.5l-1.8-1.5c-0.3-0.1-0.5-0.1-0.8,0l-1.8,1.5l-1.8-1.5c-0.3-0.1-0.5-0.1-0.8,0
								l-1.8,1.5l-1.8-1.5c-0.3-0.1-0.5-0.1-0.8,0l-1.6,1.3l-3-2.6L640.5,24.8z M644.8,27.9l1.8,1.5c0.3,0.1,0.5,0.1,0.8,0l1.8-1.5
								l1.8,1.5c0.3,0.1,0.5,0.1,0.8,0l1.8-1.5l1.8,1.5c0.3,0.1,0.5,0.1,0.8,0l1.8-1.5l1.8,1.5c0.3,0.1,0.5,0.1,0.8,0l1.8-1.5
								l1.8,1.5c0.3,0.1,0.5,0.1,0.8,0l1.8-1.5l1.8,1.5c0.3,0.1,0.5,0.1,0.8,0l1.8-1.5l1.8,1.5c0.3,0.1,0.5,0.1,0.8,0l1.8-1.5
								l1.7,1.3v1.5l-1.3-1c-0.3-0.1-0.5-0.1-0.8,0l-1.8,1.5l-1.8-1.5c-0.3-0.1-0.5-0.1-0.8,0l-1.8,1.5l-1.8-1.5
								c-0.3-0.1-0.5-0.1-0.8,0l-1.8,1.5l-1.8-1.5c-0.3-0.1-0.5-0.1-0.8,0l-1.8,1.5l-1.8-1.5c-0.3-0.1-0.5-0.1-0.8,0l-1.8,1.5
								l-1.8-1.5c-0.3-0.1-0.5-0.1-0.8,0l-1.8,1.5l-1.8-1.5c-0.3-0.1-0.5-0.1-0.8,0l-2.1,1.7l-3-2.7L644.8,27.9z M649.3,31l1.8,1.5
								c0.3,0.1,0.5,0.1,0.8,0l1.8-1.5l1.8,1.5c0.3,0.1,0.5,0.1,0.8,0l1.8-1.5l1.8,1.5c0.3,0.1,0.5,0.1,0.8,0l1.8-1.5l1.8,1.5
								c0.3,0.1,0.5,0.1,0.8,0l1.8-1.5l1.8,1.5c0.3,0.1,0.5,0.1,0.8,0l1.8-1.5l1.8,1.5c0.3,0.1,0.5,0.1,0.8,0l1.8-1.5l1.7,1.3v1.5
								l-1.3-1c-0.3-0.1-0.5-0.1-0.8,0l-1.8,1.5l-1.8-1.5c-0.3-0.1-0.5-0.1-0.8,0l-1.8,1.5l-1.8-1.5c-0.3-0.1-0.5-0.1-0.8,0
								l-1.8,1.5l-1.8-1.5c-0.3-0.1-0.5-0.1-0.8,0l-1.8,1.5l-1.8-1.5c-0.3-0.1-0.5-0.1-0.8,0l-1.8,1.5l-1.8-1.5
								c-0.3-0.1-0.5-0.1-0.8,0l-1.8,1.5l-1.8-1.5c-0.3-0.1-0.5-0.1-0.8,0l-0.3,0.3l-0.9-0.8L649.3,31z M678,19.8v1.8l-1.3-1
								c-0.3-0.1-0.5-0.1-0.8,0l-1.8,1.5l-1.8-1.5c-0.3-0.1-0.5-0.1-0.8,0l-1.8,1.5l-1.8-1.5c-0.3-0.1-0.5-0.1-0.8,0l-1.8,1.5
								l-1.8-1.5c-0.3-0.1-0.5-0.1-0.8,0l-1.8,1.5l-1.8-1.5c-0.3-0.1-0.5-0.1-0.8,0l-1.8,1.5l-1.8-1.5c-0.3-0.1-0.5-0.1-0.8,0
								l-1.8,1.5l-1.8-1.5c-0.3-0.1-0.5-0.1-0.8,0l-1.8,1.5l-1.8-1.5c-0.3-0.1-0.5-0.1-0.8,0l-1.8,1.5l-1.7-1.5
								c-0.3-0.3-0.6-0.3-0.9,0l-1.4,1.4l-1.8-1.5c-0.3-0.1-0.5-0.1-0.6,0l-1,0.5l-1.3-1.2C634.6,19.8,678,19.8,678,19.8z
								 M602.1,35.5l-1.2-0.9l23.7-21.4l23.3,21l-1.2,0.9l-0.9-0.9l0,0L625,15.5c-0.3-0.3-0.6-0.3-0.8,0l-20.8,18.7l0,0L602.1,35.5z
								 M602,77.7h1.3v0.6H602V77.7z M603.3,76.6H602v-8.3h1.3V76.6z M603.3,67H602v-0.6h1.3V67z M602,79.7h1.3v2.5H602V79.7z
								 M574.7,48.6c0.8,0,1.6,0.1,2.3,0.4c0.1,0.1,0.4,0,0.5-0.1s0.3-0.3,0.3-0.5v-0.1c0-4.8,3.9-8.6,8.7-8.6c3.7,0,7,2.3,8.1,5.8
								c0.1,0.3,0.3,0.4,0.5,0.4c0.3,0,0.4,0,0.6-0.3c1-1.2,2.6-1.9,4.1-1.9c1.3,0,2.5,0.4,3.5,1.2V65H602v-3.1
								c0-1.4-1.2-2.5-2.5-2.5s-2.5,1.2-2.5,2.5V65h-1.3v-3.1c0-1.4-1.2-2.5-2.5-2.5c-1.4,0-2.5,1.2-2.5,2.5V65h-1.3v-3.1
								c0-1.4-1.2-2.5-2.5-2.5c-1.4,0-2.5,1.2-2.5,2.5V65h-1.3v-3.1c0-1.4-1.2-2.5-2.5-2.5c-1.4,0-2.5,1.2-2.5,2.5V65h-1.3v-3.1
								c0-1.4-1.2-2.5-2.5-2.5c-1.4,0-2.5,1.2-2.5,2.5V65h-1.3v-3.1c0-1.4-1.2-2.5-2.5-2.5c-0.4,0-0.9,0.1-1.3,0.4v-4.4
								C567.6,51.7,570.7,48.6,574.7,48.6z M595.9,77.7h1.3v0.6h-1.3V77.7z M597.1,76.6h-1.3v-8.3h1.3V76.6z M597.1,67h-1.3v-0.6
								h1.3V67z M595.9,79.7h1.3v2.5h-1.3V79.7z M589.7,77.7h1.3v0.6h-1.3V77.7z M591,76.6h-1.3v-8.3h1.3V76.6z M591,67h-1.3v-0.6
								h1.3V67z M589.7,79.7h1.3v2.5h-1.3V79.7z M583.6,77.7h1.3v0.6h-1.3V77.7z M584.8,76.6h-1.3v-8.3h1.3V76.6z M584.8,67h-1.3
								v-0.6h1.3V67z M583.6,79.7h1.3v2.5h-1.3V79.7z M577.4,77.7h1.3v0.6h-1.3V77.7z M578.7,76.6h-1.3v-8.3h1.3V76.6z M578.7,67
								h-1.3v-0.6h1.3V67z M577.4,79.7h1.3v2.5h-1.3V79.7z M571.2,77.7h1.3v0.6h-1.3V77.7z M572.5,76.6h-1.3v-8.3h1.3V76.6z
								 M572.5,67h-1.3v-0.6h1.3V67z M571.2,79.7h1.3v2.5h-1.3V79.7z M551.8,58.8h-22.5L506.4,46c-0.1-0.1-0.4-0.1-0.6,0L483,58.8
								h-22.5l1.9-5.2l7.4-19.5h2.7h5.4h6.2h43.7h6.2h8.1L551.8,58.8z M511,65.5h-9.3c-0.4,0-0.6,0.3-0.6,0.6v16h-9.6V59.8l14.7-8.3
								l14.9,8.1V82h-9.6V66.1C511.5,65.7,511.2,65.5,511,65.5z M506.6,50.2c-0.1-0.1-0.4-0.1-0.6,0l-0.3,0.1l-15.1,8.4l0,0
								l-5.2,2.8l-1.2-2.2L506.3,47l22.1,12.4l-1.2,2.2L506.6,50.2z M456,52.8c1.6,0.8,3.4,1.2,5.2,1.2l-1.9,5.2v0.1v0.1l0,0v0.1
								c0,0,0,0,0,0.1c0,0,0,0,0,0.1c0,0,0,0.1,0.1,0.1c0,0,0,0,0.1,0c0,0,0.1,0,0.1,0.1l0,0c0.1,0,0.1,0,0.3,0h4.3V82h-10.9
								C453.2,79.2,453,66,456,52.8z M527.5,28h7.4v0.6h-0.6H528h-0.5V28z M528.8,29.9h4.9V33h-4.9V29.9z M477.6,28h7.4v0.6h-0.6
								h-6.2h-0.6L477.6,28L477.6,28z M478.9,29.9h4.9V33h-4.9V29.9z M396.8,47.4l25.6,11.7l-0.9,0.9l-3-1.4l0,0l-21.3-9.8
								c-0.1-0.1-0.4-0.1-0.5,0l-21.3,9.8l0,0l0,0l0,0l-3,1.4l-0.9-0.9L396.8,47.4z M332.8,8.4h9.8v1.3h-0.3h-9.2h-0.3V8.4
								L332.8,8.4z M333.7,10.9h8V18l-8,3.6V10.9z M322.8,29.5l-0.9-0.9l36.8-16.9l36.8,16.8l-0.9,0.9L359,12.9c-0.1,0-0.1,0-0.3,0
								c-0.1,0-0.1,0-0.3,0L327.9,27c0,0-0.1,0-0.1,0.1L322.8,29.5z M358.8,14.2l29.6,13.6v20.8h-59.7V28.2L358.8,14.2z M328.5,49.9
								h59.9V50l-18.5,8.5c-0.1,0-0.3,0.1-0.3,0.3h-43.8L328.5,49.9z M278.1,47.5c2.1,0.9,3.9,2.3,5.2,4.3c0.1,0.1,0.3,0.3,0.4,0.3
								s0.4,0,0.5-0.1c1.9-1.5,4.7-1.9,7-1c1.8,0.8,3.1,2.1,3.9,3.7c0.8,1.7,0.8,3.6,0,5.4c0,0.1-0.1,0.1-0.1,0.3h-2.6h-3.1h-3.1h-3
								H280h-3.1h-3.1h-3.1h-2.5V48.1C271.3,46.6,274.9,46.2,278.1,47.5z M248.4,19.5l19.5,12.8H252l-17.5-12.8H248.4z M208.7,19.5
								h13.8L205,32.3h-15.9L208.7,19.5z M187.7,33.6h17.6c0.1,0,0.3,0,0.4-0.1l22.9-16.8l22.9,16.8c0.1,0.1,0.3,0.1,0.4,0.1h17.8
								v1.3h-1.8h-16.5l-22.5-16.4c-0.3-0.1-0.5-0.1-0.8,0l-22.2,16.3h-16.4h-1.8V33.6L187.7,33.6z M167.7,54.8
								c0.6,0,1.3,0.1,1.8,0.3c0.1,0,0.4,0,0.5-0.1s0.3-0.3,0.3-0.4c0.9-5.3,5.4-9.2,10.7-9.2c3,0,5.8,1.2,7.9,3.4v11.9h-2.5h-3.1
								h-3.1h-3.1H174h-3.1h-3.1h-3.1h-3.1h-1.2C161.2,57.2,164.2,54.8,167.7,54.8z M132.7,48.3v-7.1c0-0.3-0.3-0.6-0.5-0.6
								c-2.2-0.3-4.3-0.9-6.2-1.9c-0.3-0.1-0.5-0.1-0.6,0c-1.4,1-3.2,1.5-4.9,1.5c-4.9,0-8.8-4-8.8-8.8c0-4.1,2.8-7.6,6.7-8.5
								c0.3,0,0.4-0.3,0.5-0.5c0.5-2.3,1.6-4.5,3.1-6.3c0.3-0.3,0.1-0.6,0-0.8c-1.2-0.9-1.7-2.1-1.7-3.4c0-2.6,2.1-4.6,4.7-4.6
								c2.1,0,3.7,1.3,4.4,3.2c0.1,0.3,0.4,0.5,0.8,0.4c2.3-0.5,4.8-0.5,7.1,0.1c0.3,0,0.4,0,0.5-0.1c1.7-1.5,3.7-2.3,6.1-2.3
								c4.9,0,8.8,4,8.8,8.8c0,2.3-0.9,4.5-2.6,6.2c-0.1,0.1-0.3,0.4-0.1,0.5c0,0.1,0.1,0.4,0.3,0.5c1.9,1,3.1,3.1,3.1,5.3
								c0,2.8-1.9,5.3-4.7,5.8c-0.1,0-0.4,0.1-0.4,0.3c-0.1,0.1-0.1,0.4,0,0.5c0.3,0.6,0.4,1.3,0.4,1.9c0,3-2.5,5.3-5.3,5.3
								c-1.9,0-3.6-1-4.5-2.6c-0.1-0.3-0.4-0.4-0.6-0.3c-0.3,0.1-0.4,0.3-0.4,0.6v9.2l-3.6-1.5L132.7,48.3z M120.9,44.7l14.7,6.3
								l2.2,0.9l0,0l7.9,3.4l-0.9,1.9L121,47c-0.1,0-0.1,0-0.3,0s-0.1,0-0.3,0l-21.6,9.2l0,0l-2.3,1l-0.9-1.9L120.9,44.7z M82.7,1.3
								h10.5v1.3h-0.6h-9.2h-0.6V1.3H82.7z M84,3.8h8v5.8h-8V3.8z M28.3,10.7h55.1h9.2h7l9.1,14.7h-3.2h-83h-3.2L28.3,10.7z
								 M23,26.8h81.8v23.4l-10,4.3c-0.3,0.1-0.5,0.5-0.3,0.8l1.3,3.1c0,0.1,0.1,0.3,0.4,0.4c0.1,0,0.3,0,0.5,0l1.9-0.9V82H80V57.9
								l1.7,1c0.1,0,0.3,0.1,0.3,0.1c0.3,0,0.4-0.1,0.5-0.3l1.7-2.8c0.1-0.1,0.1-0.3,0.1-0.5c0-0.1-0.1-0.3-0.3-0.4L64.3,43.1
								c-0.3-0.1-0.4-0.1-0.6,0L44,55c-0.1,0.1-0.3,0.3-0.3,0.4s0,0.4,0.1,0.5l1.7,2.8c0.1,0.3,0.5,0.4,0.9,0.3l1.7-1v24.1h-19
								c0.3-0.8,0.4-1.7,0.4-2.6c0-3.9-2.7-7.1-6.5-7.9C23,71.6,23,26.8,23,26.8z M46.2,57.6L45,55.8l18.9-11.4l18.9,11.4l-1.2,1.8
								L64.1,47.1c-0.3-0.1-0.4-0.1-0.6,0L46.2,57.6z M22.4,82.1H4.7c-0.3-0.6-0.3-1.3-0.3-2.1c0-3.7,3.1-6.8,6.9-6.8
								c1.7,0,3.2,0.6,4.5,1.7c0.3,0.3,0.6,0.3,0.9,0c1.3-1.3,3-2.1,4.9-2.1c3.7,0,6.7,3,6.7,6.7c0,0.9-0.1,1.7-0.5,2.6
								C27.8,82.1,22.4,82.1,22.4,82.1z M59.1,82.1V63.4h9.8v18.7C68.9,82.1,59.1,82.1,59.1,82.1z M70.1,82.1V62.8
								c0-0.4-0.3-0.6-0.6-0.6H58.3c-0.4,0-0.6,0.3-0.6,0.6v19.4H49v-25l14.7-8.9l14.7,8.9v24.9C78.4,82.1,70.1,82.1,70.1,82.1z
								 M135.6,68.3v0.9h-29.5v-0.9H135.6z M106.1,67v-0.9h29.6V67H106.1z M135.6,70.4v0.9h-29.5v-0.9H135.6z M135.6,72.6v0.9h-29.5
								v-0.9H135.6z M135.6,74.8v0.9h-29.5v-0.9H135.6z M135.6,76.8v0.9h-29.5v-0.9H135.6z M135.6,64.8h-29.5v-0.9h29.6L135.6,64.8
								L135.6,64.8z M106.1,79h29.6v0.9h-29.6V79z M135.6,62.8h-29.5v-0.9h29.6L135.6,62.8L135.6,62.8z M106.1,82.1v-0.9h29.6v0.9
								H106.1z M136.9,82.1V61.2c0-0.4-0.3-0.6-0.6-0.6h-30.8c-0.4,0-0.6,0.3-0.6,0.6v20.9H100V57.3l20.9-8.9l20.9,8.9v24.8
								C141.8,82.1,136.9,82.1,136.9,82.1z M159.4,61.9h1.8v20.3h-1.8V61.9z M162.4,61.9h1.8v20.3h-1.8V61.9z M165.5,61.9h1.8v20.3
								h-1.8V61.9z M168.6,61.9h1.8v20.3h-1.8V61.9z M171.7,61.9h1.8v20.3h-1.8V61.9z M174.8,61.9h1.8v20.3h-1.8V61.9z M177.8,61.9
								h1.8v20.3h-1.8V61.9z M180.9,61.9h1.8v20.3h-1.8V61.9z M184,61.9h1.8v20.3H184V61.9z M187.1,61.9h1.8v20.3h-1.8V61.9z
								 M190.2,61.2V36h15.9c0.1,0,0.3,0,0.4-0.1l22-16.3l22.1,16.1c0.1,0.1,0.3,0.1,0.4,0.1h16.2V61v21h-26.9v-1.3
								c0-0.4-0.3-0.6-0.6-0.6h-0.6v-1.3c0-0.4-0.3-0.6-0.6-0.6h-0.9V60.3h1.6c0.4,0,0.6-0.3,0.6-0.6v-1.8c0-0.4-0.3-0.6-0.6-0.6
								h-21.6c-0.4,0-0.6,0.3-0.6,0.6v1.8c0,0.4,0.3,0.6,0.6,0.6h1.6v17.8H218c-0.4,0-0.6,0.3-0.6,0.6V80h-0.6
								c-0.4,0-0.6,0.3-0.6,0.6V82h-26.1V61.2H190.2L190.2,61.2z M236.9,59.4h-17.2h-1.6v-0.6h20.3v0.6H236.9z M220.2,60.6h16v17.8
								h-16V60.6z M219.7,79.7h17.2h0.9v0.6h-19.1v-0.6H219.7z M217.5,82.1v-0.6h0.6h20.3h0.6v0.6H217.5z M268.3,61.9h1.8v20.3h-1.8
								V61.9z M271.4,61.9h1.8v20.3h-1.8V61.9z M274.5,61.9h1.8v20.3h-1.8V61.9z M277.6,61.9h1.8v20.3h-1.8V61.9z M280.7,61.9h1.8
								v20.3h-1.8V61.9z M283.7,61.9h1.8v20.3h-1.8V61.9z M286.8,61.9h1.8v20.3h-1.8V61.9z M289.9,61.9h1.8v20.3h-1.8V61.9z
								 M293,61.9h1.8v20.3H293V61.9z M296.1,82.1V61.9h1.8v20.3L296.1,82.1L296.1,82.1z M310.6,82.1v-9.8c0-0.4-0.3-0.6-0.6-0.6
								h-6.3l5.3-8.9c0.1-0.1,0.1-0.4,0-0.6c-0.1-0.1-0.3-0.3-0.5-0.3h-2.2l4.8-8.1c0.1-0.1,0.1-0.4,0-0.6c-0.1-0.1-0.3-0.3-0.5-0.3
								H309l2.7-5.4l2.7,5.4H313c-0.3,0-0.4,0.1-0.5,0.3c-0.1,0.1-0.1,0.4,0,0.6l4.8,8.1h-2.2c-0.3,0-0.4,0.1-0.5,0.3
								c-0.1,0.1-0.1,0.4,0,0.6l5.3,8.9h-6.3c-0.4,0-0.6,0.3-0.6,0.6v9.8C313,82.1,310.6,82.1,310.6,82.1z M328.7,59.9h41.6l1.4,1.4
								c0.1,0.1,0.5,0.3,0.6,0.1l2.5-1.2V82h-28.1V65.9c0-0.4-0.3-0.6-0.6-0.6h-8.9c-0.4,0-0.6,0.3-0.6,0.6v16.3h-8V59.9H328.7
								L328.7,59.9z M337.8,82.1V66.5h7.8v15.6H337.8z M382.1,82.1V66.5h29.6v15.6H382.1z M412.8,82.1V65.9c0-0.4-0.3-0.6-0.6-0.6
								h-30.8c-0.4,0-0.6,0.3-0.6,0.6v16.3H376V59.8l20.8-9.6l20.8,9.6v22.3C417.6,82.1,412.8,82.1,412.8,82.1z M450.6,82.1
								c0-0.4,0-1.2,0.1-1.9c0,0,0,0,0-0.1c0-9.6-5-17.4-5.8-18.6c0-0.1-0.1-0.3-0.3-0.3c-0.3-0.1-0.6-0.1-0.8,0.1
								c-1.8,2.2-4.4,3.4-7.1,3.4c-4.9,0-9.1-4-9.2-9c0-0.3-0.1-0.4-0.3-0.5c-1.9-1.2-3.1-3.4-3.1-5.7c0-3.6,3-6.6,6.6-6.6
								c2.3,0,4.4,1.2,5.6,3.1c0.1,0.1,0.3,0.3,0.5,0.3c5,0,9.1,4.1,9.1,9.2c0,1.4-0.4,2.8-1,4.1c-0.1,0.3,0,0.6,0.3,0.8h0.1
								c0.6,0.8,2.6,3.6,5,10.1c0,0.3,0.3,0.5,0.5,0.5c0.4,0,0.6-0.3,0.6-0.5c0.6-7.4,1.8-13.9,3.2-19.8c0-0.3,0-0.5-0.3-0.6
								c-2.1-1.5-3.6-3.9-4.4-6.3c-0.1-0.3-0.4-0.5-0.6-0.4c-0.3,0-0.4,0-0.6,0c-3.5,0-6.3-2.8-6.3-6.3c0-0.1,0-0.4,0-0.5
								c0-0.3-0.1-0.4-0.3-0.5c-3.2-2.1-5.2-5.6-5.2-9.3c0-6.1,4.9-11,11-11c3.5,0,6.7,1.5,8.8,4.4c0.1,0.1,0.3,0.3,0.5,0.3
								c0.1,0,0.4-0.1,0.5-0.3c1.4-1.5,3.4-2.5,5.4-2.5c4,0,7.4,3.2,7.4,7.4c0,1.5-0.5,3.1-1.4,4.4c-0.1,0.1-0.1,0.3-0.1,0.5
								c0,0.1,0.1,0.3,0.3,0.4c1,0.8,1.9,1.7,2.7,2.7h-2c-0.3,0-0.5,0.1-0.5,0.4L462,52.8c-1.9,0-4-0.5-5.7-1.4
								c-0.1-0.1-0.4-0.1-0.5,0s-0.3,0.3-0.4,0.4c-3.2,13.4-3.1,27.2-3,30.3H450.6L450.6,82.1z M465.3,59.9h17.6l1.7,3
								c0.1,0.1,0.3,0.3,0.4,0.3h0.1c0.1,0,0.3,0,0.3-0.1l4.8-2.7V82h-25L465.3,59.9L465.3,59.9z M502.3,82.1V66.8h8v15.4h-8V82.1z
								 M522.3,82.1V60.4l4.9,2.7c0.3,0.1,0.6,0,0.8-0.3l1.7-3h17.6V82L522.3,82.1L522.3,82.1z M567.6,82.1v-20
								c0-0.6,0.5-1.3,1.3-1.3c0.6,0,1.3,0.5,1.3,1.3v3.7v1.8v9.6V79v3.1H567.6L567.6,82.1z M573.7,82.1V79v-1.8v-9.6v-1.8v-3.7
								c0-0.6,0.5-1.3,1.3-1.3c0.6,0,1.3,0.5,1.3,1.3v3.7v1.8v9.6V79v3.1H573.7z M579.9,82.1V79v-1.8v-9.6v-1.8v-3.7
								c0-0.6,0.5-1.3,1.3-1.3c0.6,0,1.3,0.5,1.3,1.3v3.7v1.8v9.6V79v3.1H579.9z M586.1,82.1V79v-1.8v-9.6v-1.8v-3.7
								c0-0.6,0.5-1.3,1.3-1.3c0.6,0,1.3,0.5,1.3,1.3v3.7v1.8v9.6V79v3.1H586.1z M592.1,82.1V79v-1.8v-9.6v-1.8v-3.7
								c0-0.6,0.5-1.3,1.3-1.3c0.6,0,1.3,0.5,1.3,1.3v3.7v1.8v9.6V79v3.1H592.1z M598.4,82.1V79v-1.8v-9.6v-1.8v-3.7
								c0-0.6,0.5-1.3,1.3-1.3c0.6,0,1.3,0.5,1.3,1.3v3.7v1.8v9.6V79v3.1H598.4z M604.6,79v-1.8v-9.6v-1.8V35l20.2-18.2L644.9,35v8
								v39h-40.3L604.6,79L604.6,79z M646.1,43.7h29.6v6.7l0,0v31.8h-0.3v-1.5c0-0.4-0.3-0.6-0.6-0.6h-0.3v-1.8
								c0-0.4-0.3-0.6-0.6-0.6h-0.6V62.1c0-0.4-0.3-0.6-0.6-0.6h-9.3c-0.4,0-0.6,0.3-0.6,0.6v15.4H662c-0.4,0-0.6,0.3-0.6,0.6v1.8
								h-0.3c-0.4,0-0.6,0.3-0.6,0.6V82H646L646.1,43.7L646.1,43.7L646.1,43.7z M671.9,77.5h-8V62.8h8V77.5z M663.3,78.8h9.2h0.6
								v1.3h-10.5v-1.3H663.3z M661.7,82.1v-0.9h0.3h11.6h0.3v0.9H661.7z M676.8,79.7h1.3v2.5h-1.3V79.7z M679.3,82.1V79v-1.8v-9.6
								v-1.8v-3.7c0-0.6,0.5-1.3,1.3-1.3s1.3,0.5,1.3,1.3v3.7v1.8v9.6V79v3.1H679.3z M685.5,82.1V79v-1.8v-9.6v-1.8v-3.7
								c0-0.6,0.5-1.3,1.3-1.3s1.3,0.5,1.3,1.3v3.7v1.8v9.6V79v3.1H685.5z M691.6,82.1V79v-1.8v-9.6v-1.8v-3.7
								c0-0.6,0.5-1.3,1.3-1.3s1.3,0.5,1.3,1.3v3.7v1.8v9.6V79v3.1H691.6z M697.8,82.1V79v-1.8v-9.6v-1.8v-3.7
								c0-0.6,0.5-1.3,1.3-1.3c0.6,0,1.3,0.5,1.3,1.3v3.7v1.8v9.6V79v3.1H697.8z M703.9,82.1V79v-1.8v-9.6v-1.8v-3.7
								c0-0.6,0.5-1.3,1.3-1.3c0.6,0,1.3,0.5,1.3,1.3v3.7v1.8v9.6V79v3.1H703.9z M710.1,82.1V79v-1.8v-9.6v-1.8v-3.7
								c0-0.6,0.5-1.3,1.3-1.3c0.6,0,1.3,0.5,1.3,1.3v20L710.1,82.1L710.1,82.1z"/>
						</g>
					</g>
				</g>
			</g>
		</g>
	</g>
</g>
</svg>
