<svg id="Image" xmlns="http://www.w3.org/2000/svg" xmlns:xlink="http://www.w3.org/1999/xlink" viewBox="0 0 276.09 214.17"><defs><style>.cls-1,.cls-15{fill:#8288c2;}.cls-1{opacity:0.59;}.cls-12,.cls-14,.cls-2,.cls-22,.cls-23{fill:none;}.cls-3{fill:#e9e9f6;}.cls-4{fill:#aad8ce;}.cls-5{fill:#5dc1d2;}.cls-6{clip-path:url(#clip-path);}.cls-7{fill:#1d1e1b;}.cls-8{fill:#b1cb08;}.cls-9{fill:#7d3e24;}.cls-10{fill:#ffdb83;}.cls-11{fill:#f18948;opacity:0.7;}.cls-12{stroke:#8288c2;stroke-width:5.1px;}.cls-12,.cls-14,.cls-22,.cls-23{stroke-miterlimit:10;}.cls-13{fill:#e9510e;}.cls-14{stroke:#ea9210;stroke-width:5.1px;}.cls-15{opacity:0.5;}.cls-16{fill:#dc9f66;}.cls-17{clip-path:url(#clip-path-2);}.cls-18{fill:#d24516;}.cls-19{fill:#1d1d1b;}.cls-20{fill:#c08f64;}.cls-21{fill:#fff;}.cls-22,.cls-23{stroke:#fff;}.cls-22{stroke-width:3px;}.cls-23{stroke-width:2.96px;}.cls-24{fill:#38378d;}</style><clipPath id="clip-path"><circle class="cls-1" cx="214.64" cy="152.88" r="55.95"/></clipPath><clipPath id="clip-path-2"><circle class="cls-2" cx="77.73" cy="68.96" r="55.97" transform="translate(-0.21 0.24) rotate(-0.17)"/></clipPath></defs><circle class="cls-3" cx="151.18" cy="109.39" r="94.69"/><circle class="cls-4" cx="150.52" cy="109.06" r="68.6"/><circle class="cls-5" cx="263.04" cy="177.1" r="9.42"/><circle class="cls-1" cx="214.64" cy="152.88" r="55.95"/><g class="cls-6"><path class="cls-7" d="M201.19,132.12a14.77,14.77,0,1,1-14.77-14.76A14.77,14.77,0,0,1,201.19,132.12Z"/><path class="cls-7" d="M215.65,164.15c-5,.22-9.35-1.24-11.93-3.78-6.95-6.87-10.06-23.44.21-32.95,12.92-13.26,36-9.59,38.91,5.65C245.12,141.58,221.46,163.89,215.65,164.15Z"/><path class="cls-8" d="M253.67,214.57c-3.42-8.24-14.29-14.45-21.68-32.13l-17.6.2c-12,4.36-17.87,23-18.49,31.93Z"/><path class="cls-9" d="M248,152.49c-.79-4.94-4.21-13.1-5.09-19.45-4.25-2.92-10.77-4.59-17.24,1.38-3.13,2.94-5.12,7.92-7.22,14.44-1.62-1.16-3.38-1.54-4.78-.85-2.53,1.25-3,5.51-1,9.51a15.22,15.22,0,0,0,2.62,3.91l-.11,21.21c5.79,1.93,11.29,2.35,16.92,0V171.85h4.08a5.87,5.87,0,0,0,4.09-1.59,5.41,5.41,0,0,0,1.7-3.94l1.74-10.56S248.21,156,248,152.49Z"/><path class="cls-10" d="M215.73,179.92a8.63,8.63,0,1,1,8.63-8.63A8.64,8.64,0,0,1,215.73,179.92Zm0-15.4a6.77,6.77,0,1,0,6.76,6.77A6.78,6.78,0,0,0,215.73,164.52Z"/><path class="cls-10" d="M217.05,161.36a1.78,1.78,0,1,1-1.78-1.78A1.78,1.78,0,0,1,217.05,161.36Z"/></g><circle class="cls-11" cx="126.25" cy="172.82" r="9.47"/><circle class="cls-12" cx="161.8" cy="201.03" r="9.47"/><circle class="cls-13" cx="10.08" cy="51.42" r="6.54"/><circle class="cls-5" cx="32.91" cy="26.43" r="18.27"/><circle class="cls-14" cx="22.11" cy="80.01" r="8.72"/><circle class="cls-15" cx="77.73" cy="68.96" r="55.97" transform="translate(-0.21 0.24) rotate(-0.17)"/><path class="cls-16" d="M82.5,57.89h0v0Z"/><g class="cls-17"><path class="cls-18" d="M118.55,128.25l-1.43-14.19c0-7.87-7.24-14.21-16.17-14.21h-55c-12-.29-19.83,8.94-19.75,18.49L26,128.25Z"/></g><path class="cls-19" d="M95.81,50.71c21.59-10.57-3-31.15-18.87-15.83-1.3,1.84-7.18,7.66-12,7.66-7.95-.28-15.08,5.32-12.29,15.1L60,75.06C76.34,73.65,86.93,62.56,95.81,50.71Z"/><path class="cls-16" d="M101.54,69c-2.88-4.52-5.47-13.28-5.73-17.78H83c-1.1,0-2-.06-2.79.78a3,3,0,0,0-1,2.55V67l-19,7.68-.42,25.53a19,19,0,0,0,25.63-.08V91.49c7.37-.22,11.14-5.65,10.84-11.95l0-5.7c0-1.62.35-2.09,2-2.5C100.5,71.1,101.9,70.48,101.54,69Z"/><path class="cls-20" d="M79.91,75.38a3.79,3.79,0,0,1-2.37-1.18,3.45,3.45,0,0,1-.92-2.48V66.38H69.87V83c0,5.13,6.11,9.28,13.35,9.28S96.3,88.14,96.3,83V75.38Z"/><path class="cls-21" d="M81.9,66.05A8.88,8.88,0,1,1,73,57.17,8.89,8.89,0,0,1,81.9,66.05Z"/><path class="cls-21" d="M73,62.34a1.45,1.45,0,0,1-.51,1.94l-1.93.77c-.61.25-1.37-.23-1.7-1.06L60.4,43.11a1.46,1.46,0,0,1,.51-1.94l1.93-.77c.61-.24,1.37.23,1.7,1.06Z"/><rect class="cls-22" x="106.46" y="79" width="85.02" height="57.65"/><polyline class="cls-22" points="139.04 103.6 106.63 79.17 106.63 77.86 150.44 41.91 191.48 78.19 191.48 80.14 158.09 103.92"/><path class="cls-23" d="M106.46,136.66l30.78-30.29a16.2,16.2,0,0,1,11.83-5.12,15.54,15.54,0,0,1,12.12,5.6L192,137.15"/><circle class="cls-24" cx="216.92" cy="30.6" r="27.88"/><path class="cls-21" d="M230.28,21.5a7.64,7.64,0,0,0-1.55-3A7.81,7.81,0,0,0,224.94,16a.16.16,0,0,1-.14-.18,7.39,7.39,0,0,0-.46-2.37A7.75,7.75,0,0,0,220.4,9,7.58,7.58,0,0,0,217,8.26c-.24,0-.48,0-.72,0a6.88,6.88,0,0,0-1.67.34,7.79,7.79,0,0,0-5.39,7.61.14.14,0,0,1-.12.16,4.11,4.11,0,0,0-.46.15,7.81,7.81,0,0,0-5.11,8,7.36,7.36,0,0,0,.72,2.65,7.7,7.7,0,0,0,5.64,4.33,7.15,7.15,0,0,0,3.22-.09c.19,0,.37-.09.57-.15,0,.08,0,.15,0,.21q0,9.31,0,18.63a.39.39,0,0,0,.1.27l2.77,3.33c.24.29.24.29.62.28a.24.24,0,0,0,.13-.07c1-1.19,2-2.39,3-3.58a.28.28,0,0,0,.07-.19c0-.3,0-.59,0-.88a.44.44,0,0,0-.11-.29l-1.46-1.62c-.08-.08-.09-.13,0-.22.5-.56,1-1.11,1.49-1.68a.3.3,0,0,0,.08-.21c0-.26,0-.53,0-.8s0-.15-.15-.15h-1.53c-.11,0-.15,0-.15-.14s0-.47,0-.71,0-.17.17-.17h1.48c.12,0,.17,0,.17-.16,0-.77,0-1.53,0-2.3,0-.11,0-.15-.15-.15h-1.48l-.18,0c.05,0,.07-.09.1-.12l1.6-1.81a.32.32,0,0,0,.11-.24c0-1.32,0-2.63,0-3.94,0-.1,0-.13-.13-.15l-1.38-.15-.15,0a.69.69,0,0,1,.1-.12l1.45-1.62a.41.41,0,0,0,.11-.28c0-.41,0-.82,0-1.22,0-.05,0-.1,0-.17l.13,0a7.72,7.72,0,0,0,4.44,0,7.64,7.64,0,0,0,3.57-2.24,7.75,7.75,0,0,0,1.92-3.92A7.84,7.84,0,0,0,230.28,21.5Z"/><path class="cls-24" d="M217,19.52A3.55,3.55,0,1,1,220.55,16,3.54,3.54,0,0,1,217,19.52Z"/><circle class="cls-24" cx="72.38" cy="175.28" r="27.88"/><path class="cls-21" d="M89.79,162.82a3.82,3.82,0,0,0-5.41,0l-19.3,19.3-6.19-6.19a3.83,3.83,0,1,0-5.41,5.41l8.9,8.9a3.83,3.83,0,0,0,5.41,0l22-22A3.81,3.81,0,0,0,89.79,162.82Z"/></svg>