<?xml version="1.0" encoding="utf-8"?>
<!-- Generator: Adobe Illustrator 21.1.0, SVG Export Plug-In . SVG Version: 6.00 Build 0)  -->
<svg version="1.1" id="Layer_1" xmlns="http://www.w3.org/2000/svg" xmlns:xlink="http://www.w3.org/1999/xlink" x="0px" y="0px"
	 viewBox="0 0 227 158" style="enable-background:new 0 0 227 158;" xml:space="preserve">
<style type="text/css">
	.st0{fill:#EEF5F8;}
	.st1{fill:#FDBE59;}
	.st2{fill:#FFFFFF;}
	.st3{fill:none;stroke:#EEF5F8;stroke-width:5;stroke-linecap:square;}
	.st4{fill:#FF9D00;}
	.st5{fill:#BBCDDA;}
	.st6{fill:#FF5B00;fill-opacity:0.58;}
	.st7{fill:#FFD400;fill-opacity:0.5;}
	.st8{fill:#D1F8F9;}
</style>
<g>
	<g id="Registration-Page---Material">
		<g id="Verify-Email">
			<g id="Group-2">
				<g id="Group">
					<ellipse id="Oval" class="st0" cx="110.6" cy="79" rx="78.9" ry="79"/>
					<g id="Group-11">
						<path id="Rectangle" class="st1" d="M61.8,58.3l44.1-37.2c3.8-3.2,9.3-3.1,13.1,0.1l42,37.1c2.2,1.9,3.4,4.6,3.4,7.5v54.2
							c0,5.5-4.5,10-10,10H68.2c-5.5,0-10-4.5-10-10v-54C58.2,63,59.5,60.2,61.8,58.3z"/>
						<path id="Rectangle-2" class="st2" d="M79.7,25.1h65c5.5,0,10,4.5,10,10v0.1l-0.2,33.1l0,0l-36.3,27.1
							c-3.5,2.6-8.2,2.6-11.8,0.1L69.3,69.1l0,0L69.7,35C69.8,29.5,74.2,25.1,79.7,25.1z"/>
						<g id="Group-10">
							<line id="Line" class="st3" x1="59.8" y1="62.2" x2="105.4" y2="93.8"/>
							<line id="Line-2" class="st3" x1="162.8" y1="62.2" x2="119.4" y2="93.8"/>
							<path id="Rectangle-3" class="st4" d="M58.2,122.6l48.6-30c3.3-2,7.4-2,10.6,0.1l47,29.9l0,0c0,4.1-3.3,7.3-7.4,7.3l0,0H65.6
								C61.5,129.9,58.2,126.6,58.2,122.6L58.2,122.6z"/>
						</g>
					</g>
					<path id="Rectangle-4" class="st5" d="M59.3,11.8H94c1,0,1.8,0.8,1.8,1.8c0,0,0,0,0,0l0,0c0,1-0.8,1.8-1.8,1.8H59.3
						c-1,0-1.8-0.8-1.8-1.8l0,0l0,0C57.5,12.6,58.3,11.8,59.3,11.8C59.3,11.8,59.3,11.8,59.3,11.8z"/>
					<path id="Rectangle-5" class="st5" d="M49.8,0h15.5c1,0,1.8,0.8,1.8,1.9l0,0c0,1-0.8,1.8-1.8,1.8c0,0,0,0,0,0H49.8
						c-1,0-1.8-0.8-1.8-1.8v0l0,0C47.9,0.8,48.7,0,49.8,0C49.7,0,49.7,0,49.8,0z"/>
					<path id="Rectangle-6" class="st5" d="M11.4,67.2h34.6c1,0,1.8,0.8,1.8,1.8l0,0c0,1-0.8,1.8-1.8,1.8H11.4c-1,0-1.8-0.8-1.9-1.8
						l0,0C9.6,68,10.4,67.2,11.4,67.2z"/>
					<path id="Rectangle-7" class="st5" d="M1.9,55.4h15.5c1,0,1.8,0.8,1.8,1.8c0,0,0,0,0,0l0,0c0,1-0.8,1.8-1.8,1.8c0,0,0,0,0,0
						H1.9c-1,0-1.8-0.8-1.9-1.8l0,0C0,56.2,0.8,55.4,1.9,55.4C1.8,55.4,1.8,55.4,1.9,55.4z"/>
					<path id="Rectangle-8" class="st5" d="M179.5,61.3h27.3c1,0,1.8,0.8,1.8,1.8c0,0,0,0,0,0l0,0c0,1-0.8,1.9-1.8,1.9c0,0,0,0,0,0
						h-27.3c-1,0-1.8-0.8-1.8-1.8c0,0,0,0,0,0l0,0C177.6,62.1,178.4,61.3,179.5,61.3C179.4,61.3,179.5,61.3,179.5,61.3z"/>
					<path id="Rectangle-9" class="st5" d="M175,114.4h21.4c1,0,1.9,0.8,1.9,1.8c0,0,0,0,0,0l0,0c0,1-0.8,1.8-1.9,1.8H175
						c-1,0-1.8-0.8-1.8-1.8l0,0C173.2,115.3,174,114.4,175,114.4C175,114.4,175,114.4,175,114.4z"/>
					<path id="Rectangle-10" class="st5" d="M19.5,98.9h21.4c1,0,1.8,0.8,1.8,1.8l0,0c0,1-0.8,1.8-1.8,1.8H19.5
						c-1,0-1.8-0.8-1.8-1.8c0,0,0,0,0,0l0,0C17.7,99.8,18.5,98.9,19.5,98.9C19.5,98.9,19.5,98.9,19.5,98.9z"/>
					<path id="Rectangle-11" class="st5" d="M191.3,125.5H206c1,0,1.9,0.8,1.9,1.8c0,0,0,0,0,0l0,0c0,1-0.8,1.9-1.8,1.9h0h-14.7
						c-1,0-1.9-0.8-1.9-1.8c0,0,0,0,0,0l0,0C189.4,126.3,190.2,125.5,191.3,125.5L191.3,125.5z"/>
					<ellipse id="Oval-2" class="st6" cx="37.2" cy="33.6" rx="18.1" ry="18.1"/>
					<ellipse id="Oval-3" class="st7" cx="210.8" cy="94.5" rx="16.2" ry="16.2"/>
					<ellipse id="Oval-4" class="st8" cx="29.9" cy="138.4" rx="10.7" ry="10.7"/>
				</g>
			</g>
		</g>
	</g>
	<path class="st6" d="M111.8,46.7v5.5l7.4-7.4l-7.4-7.4V43C103.6,43,97,49.6,97,57.7c0,0,0,0,0,0c0,2.8,0.8,5.5,2.4,7.9l2.7-2.7
		c-0.8-1.6-1.3-3.4-1.3-5.2C100.8,51.7,105.7,46.7,111.8,46.7z M124.2,49.9l-2.7,2.7c2.9,5.4,0.8,12.1-4.5,14.9
		c-1.6,0.9-3.4,1.3-5.2,1.3v-5.5l-7.4,7.3l7.4,7.4v-5.5c8.1,0,14.7-6.6,14.7-14.7C126.5,55,125.7,52.3,124.2,49.9z"/>
</g>
</svg>
