<svg id="Image" xmlns="http://www.w3.org/2000/svg" xmlns:xlink="http://www.w3.org/1999/xlink" viewBox="0 0 276.09 214.17"><defs><style>.cls-1,.cls-15{fill:#8288c2;}.cls-1{opacity:0.59;}.cls-12,.cls-14,.cls-2,.cls-23{fill:none;}.cls-3{fill:#e9e9f6;}.cls-4{fill:#aad8ce;}.cls-5{fill:#5dc1d2;}.cls-6{clip-path:url(#clip-path);}.cls-7{fill:#1d1e1b;}.cls-8{fill:#b1cb08;}.cls-9{fill:#7d3e24;}.cls-10{fill:#ffdb83;}.cls-11{fill:#f18948;opacity:0.7;}.cls-12{stroke:#8288c2;stroke-width:5.1px;}.cls-12,.cls-14,.cls-23{stroke-miterlimit:10;}.cls-13{fill:#e9510e;}.cls-14{stroke:#ea9210;stroke-width:5.1px;}.cls-15{opacity:0.5;}.cls-16{fill:#dc9f66;}.cls-17{clip-path:url(#clip-path-2);}.cls-18{fill:#d24516;}.cls-19{fill:#1d1d1b;}.cls-20{fill:#c08f64;}.cls-21{fill:#fff;}.cls-22{fill:#38378d;}.cls-23{stroke:#fff;stroke-width:3px;}.cls-24{fill:#eb5d22;}.cls-25{fill:#f59a27;}.cls-26{fill:#fed32b;}.cls-27{fill:#aecb2e;}.cls-28{fill:#61bb96;}.cls-29{fill:#59c0d1;}</style><clipPath id="clip-path"><circle class="cls-1" cx="214.64" cy="152.88" r="55.95"/></clipPath><clipPath id="clip-path-2"><circle class="cls-2" cx="77.73" cy="68.96" r="55.97" transform="translate(-0.21 0.24) rotate(-0.17)"/></clipPath></defs><circle class="cls-3" cx="151.18" cy="109.39" r="94.69"/><circle class="cls-4" cx="150.52" cy="109.06" r="68.6"/><circle class="cls-5" cx="263.04" cy="177.1" r="9.42"/><circle class="cls-1" cx="214.64" cy="152.88" r="55.95"/><g class="cls-6"><path class="cls-7" d="M201.19,132.12a14.77,14.77,0,1,1-14.77-14.76A14.77,14.77,0,0,1,201.19,132.12Z"/><path class="cls-7" d="M215.65,164.15c-5,.22-9.35-1.24-11.93-3.78-6.95-6.87-10.06-23.44.21-32.95,12.92-13.26,36-9.59,38.91,5.65C245.12,141.58,221.46,163.89,215.65,164.15Z"/><path class="cls-8" d="M253.67,214.57c-3.42-8.24-14.29-14.45-21.68-32.13l-17.6.2c-12,4.36-17.87,23-18.49,31.93Z"/><path class="cls-9" d="M248,152.49c-.79-4.94-4.21-13.1-5.09-19.45-4.25-2.92-10.77-4.59-17.24,1.38-3.13,2.94-5.12,7.92-7.22,14.44-1.62-1.16-3.38-1.54-4.78-.85-2.53,1.25-3,5.51-1,9.51a15.22,15.22,0,0,0,2.62,3.91l-.11,21.21c5.79,1.93,11.29,2.35,16.92,0V171.85h4.08a5.87,5.87,0,0,0,4.09-1.59,5.41,5.41,0,0,0,1.7-3.94l1.74-10.56S248.21,156,248,152.49Z"/><path class="cls-10" d="M215.73,179.92a8.63,8.63,0,1,1,8.63-8.63A8.64,8.64,0,0,1,215.73,179.92Zm0-15.4a6.77,6.77,0,1,0,6.76,6.77A6.78,6.78,0,0,0,215.73,164.52Z"/><path class="cls-10" d="M217.05,161.36a1.78,1.78,0,1,1-1.78-1.78A1.78,1.78,0,0,1,217.05,161.36Z"/></g><circle class="cls-11" cx="126.25" cy="172.82" r="9.47"/><circle class="cls-12" cx="161.8" cy="201.03" r="9.47"/><circle class="cls-13" cx="10.08" cy="51.42" r="6.54"/><circle class="cls-5" cx="32.91" cy="26.43" r="18.27"/><circle class="cls-14" cx="22.11" cy="80.01" r="8.72"/><circle class="cls-15" cx="77.73" cy="68.96" r="55.97" transform="translate(-0.21 0.24) rotate(-0.17)"/><path class="cls-16" d="M82.5,57.89h0v0Z"/><g class="cls-17"><path class="cls-18" d="M118.55,128.25l-1.43-14.19c0-7.87-7.24-14.21-16.17-14.21h-55c-12-.29-19.83,8.94-19.75,18.49L26,128.25Z"/></g><path class="cls-19" d="M95.81,50.71c21.59-10.57-3-31.15-18.87-15.83-1.3,1.84-7.18,7.66-12,7.66-7.95-.28-15.08,5.32-12.29,15.1L60,75.06C76.34,73.65,86.93,62.56,95.81,50.71Z"/><path class="cls-16" d="M101.54,69c-2.88-4.52-5.47-13.28-5.73-17.78H83c-1.1,0-2-.06-2.79.78a3,3,0,0,0-1,2.55V67l-19,7.68-.42,25.53a19,19,0,0,0,25.63-.08V91.49c7.37-.22,11.14-5.65,10.84-11.95l0-5.7c0-1.62.35-2.09,2-2.5C100.5,71.1,101.9,70.48,101.54,69Z"/><path class="cls-20" d="M79.91,75.38a3.79,3.79,0,0,1-2.37-1.18,3.45,3.45,0,0,1-.92-2.48V66.38H69.87V83c0,5.13,6.11,9.28,13.35,9.28S96.3,88.14,96.3,83V75.38Z"/><path class="cls-21" d="M81.9,66.05A8.88,8.88,0,1,1,73,57.17,8.89,8.89,0,0,1,81.9,66.05Z"/><path class="cls-21" d="M73,62.34a1.45,1.45,0,0,1-.51,1.94l-1.93.77c-.61.25-1.37-.23-1.7-1.06L60.4,43.11a1.46,1.46,0,0,1,.51-1.94l1.93-.77c.61-.24,1.37.23,1.7,1.06Z"/><circle class="cls-22" cx="72.38" cy="175.19" r="28.18"/><path class="cls-21" d="M80.37,169.34a8.21,8.21,0,1,0-11.79,7.38l-2,12.88H77.7l-2-12.86A8.2,8.2,0,0,0,80.37,169.34Z"/><path class="cls-23" d="M148.53,127.46v7.67a3,3,0,0,0,6.08,0v-7.67a6.56,6.56,0,1,0-6.08,0Z"/><path class="cls-23" d="M176.35,92.69v-17a25.51,25.51,0,1,0-51,0v17a9,9,0,0,0-8.83,9v36.29a20.65,20.65,0,0,0,20.65,20.65h27.37a20.65,20.65,0,0,0,20.65-20.65V101.65A9,9,0,0,0,176.35,92.69Zm-44.45,0v-17a18.95,18.95,0,1,1,37.89,0v17Z"/><circle class="cls-21" cx="244.65" cy="8.34" r="2.72"/><circle class="cls-21" cx="244.65" cy="14.51" r="2.17"/><circle class="cls-21" cx="244.65" cy="19.8" r="1.74"/><circle class="cls-21" cx="244.65" cy="24.29" r="1.25"/><circle class="cls-21" cx="244.65" cy="27.99" r="0.74"/><circle class="cls-21" cx="244.65" cy="30.82" r="0.33"/><circle class="cls-21" cx="236.15" cy="9.84" r="2.72"/><circle class="cls-21" cx="238.26" cy="15.64" r="2.17"/><circle class="cls-21" cx="240.07" cy="20.6" r="1.74"/><circle class="cls-21" cx="241.6" cy="24.82" r="1.25"/><circle class="cls-21" cx="242.87" cy="28.31" r="0.74"/><circle class="cls-21" cx="243.84" cy="30.96" r="0.32"/><circle class="cls-21" cx="228.68" cy="14.15" r="2.72"/><circle class="cls-21" cx="232.64" cy="18.88" r="2.17"/><circle class="cls-21" cx="236.04" cy="22.93" r="1.74"/><circle class="cls-21" cx="238.93" cy="26.37" r="1.25"/><circle class="cls-21" cx="241.32" cy="29.21" r="0.74"/><circle class="cls-21" cx="243.13" cy="31.37" r="0.33"/><circle class="cls-21" cx="223.14" cy="20.76" r="2.72"/><circle class="cls-21" cx="228.48" cy="23.85" r="2.17"/><circle class="cls-21" cx="233.06" cy="26.49" r="1.74"/><circle class="cls-21" cx="236.96" cy="28.73" r="1.25"/><circle class="cls-21" cx="240.16" cy="30.59" r="0.74"/><circle class="cls-21" cx="242.61" cy="32" r="0.33"/><circle class="cls-21" cx="220.19" cy="28.87" r="2.72"/><circle class="cls-21" cx="226.27" cy="29.93" r="2.17"/><circle class="cls-21" cx="231.47" cy="30.85" r="1.74"/><circle class="cls-21" cx="235.9" cy="31.63" r="1.25"/><circle class="cls-21" cx="239.55" cy="32.28" r="0.74"/><circle class="cls-21" cx="242.33" cy="32.77" r="0.33"/><circle class="cls-21" cx="220.19" cy="37.49" r="2.72"/><circle class="cls-21" cx="226.27" cy="36.42" r="2.17"/><circle class="cls-21" cx="231.47" cy="35.5" r="1.74"/><circle class="cls-21" cx="235.9" cy="34.72" r="1.25"/><circle class="cls-21" cx="239.55" cy="34.08" r="0.74"/><circle class="cls-21" cx="242.33" cy="33.59" r="0.33"/><circle class="cls-21" cx="223.14" cy="45.6" r="2.72"/><circle class="cls-21" cx="228.48" cy="42.52" r="2.17"/><circle class="cls-21" cx="233.06" cy="39.87" r="1.74"/><circle class="cls-21" cx="236.95" cy="37.62" r="1.25"/><circle class="cls-21" cx="240.16" cy="35.77" r="0.74"/><circle class="cls-21" cx="242.61" cy="34.36" r="0.33"/><circle class="cls-21" cx="228.69" cy="52.2" r="2.72"/><circle class="cls-21" cx="232.65" cy="47.47" r="2.17"/><circle class="cls-21" cx="236.05" cy="43.42" r="1.74"/><circle class="cls-21" cx="238.94" cy="39.98" r="1.25"/><circle class="cls-21" cx="241.32" cy="37.14" r="0.74"/><circle class="cls-21" cx="243.13" cy="34.98" r="0.33"/><circle class="cls-21" cx="236.15" cy="56.51" r="2.72"/><circle class="cls-21" cx="238.26" cy="50.71" r="2.17"/><circle class="cls-21" cx="240.07" cy="45.75" r="1.74"/><circle class="cls-21" cx="241.61" cy="41.53" r="1.25"/><circle class="cls-21" cx="242.88" cy="38.04" r="0.74"/><circle class="cls-21" cx="243.84" cy="35.39" r="0.32"/><circle class="cls-21" cx="244.65" cy="58.01" r="2.72"/><circle class="cls-21" cx="244.65" cy="51.84" r="2.17"/><circle class="cls-21" cx="244.65" cy="46.55" r="1.74"/><circle class="cls-21" cx="244.65" cy="42.06" r="1.25"/><circle class="cls-21" cx="244.65" cy="38.36" r="0.74"/><circle class="cls-21" cx="244.65" cy="35.53" r="0.33"/><circle class="cls-21" cx="253.14" cy="56.51" r="2.72"/><circle class="cls-21" cx="251.03" cy="50.71" r="2.17"/><circle class="cls-21" cx="249.22" cy="45.75" r="1.74"/><circle class="cls-21" cx="247.68" cy="41.53" r="1.25"/><circle class="cls-21" cx="246.42" cy="38.04" r="0.74"/><circle class="cls-21" cx="245.45" cy="35.39" r="0.32"/><circle class="cls-21" cx="260.6" cy="52.2" r="2.72"/><circle class="cls-21" cx="256.64" cy="47.47" r="2.17"/><circle class="cls-21" cx="253.24" cy="43.42" r="1.74"/><circle class="cls-21" cx="250.35" cy="39.98" r="1.25"/><circle class="cls-21" cx="247.97" cy="37.14" r="0.74"/><circle class="cls-21" cx="246.16" cy="34.98" r="0.33"/><circle class="cls-21" cx="266.14" cy="45.59" r="2.72"/><circle class="cls-21" cx="260.8" cy="42.5" r="2.17"/><circle class="cls-21" cx="256.23" cy="39.86" r="1.74"/><circle class="cls-21" cx="252.33" cy="37.61" r="1.25"/><circle class="cls-21" cx="249.12" cy="35.76" r="0.74"/><circle class="cls-21" cx="246.68" cy="34.35" r="0.33"/><circle class="cls-21" cx="269.09" cy="37.48" r="2.72"/><circle class="cls-21" cx="263.02" cy="36.41" r="2.17"/><circle class="cls-21" cx="257.81" cy="35.5" r="1.74"/><circle class="cls-21" cx="253.39" cy="34.72" r="1.25"/><circle class="cls-21" cx="249.74" cy="34.07" r="0.74"/><circle class="cls-21" cx="246.96" cy="33.58" r="0.33"/><circle class="cls-21" cx="269.09" cy="28.86" r="2.72"/><circle class="cls-21" cx="263.02" cy="29.93" r="2.17"/><circle class="cls-21" cx="257.81" cy="30.85" r="1.74"/><circle class="cls-21" cx="253.38" cy="31.63" r="1.25"/><circle class="cls-21" cx="249.74" cy="32.27" r="0.74"/><circle class="cls-21" cx="246.95" cy="32.76" r="0.33"/><circle class="cls-21" cx="266.15" cy="20.75" r="2.72"/><circle class="cls-21" cx="260.8" cy="23.83" r="2.17"/><circle class="cls-21" cx="256.23" cy="26.48" r="1.74"/><circle class="cls-21" cx="252.33" cy="28.72" r="1.25"/><circle class="cls-21" cx="249.12" cy="30.58" r="0.74"/><circle class="cls-21" cx="246.68" cy="31.99" r="0.33"/><circle class="cls-21" cx="260.6" cy="14.15" r="2.72"/><circle class="cls-21" cx="256.64" cy="18.88" r="2.17"/><circle class="cls-21" cx="253.24" cy="22.93" r="1.74"/><circle class="cls-21" cx="250.35" cy="26.37" r="1.25"/><circle class="cls-21" cx="247.96" cy="29.21" r="0.74"/><circle class="cls-21" cx="246.15" cy="31.36" r="0.33"/><circle class="cls-21" cx="253.13" cy="9.83" r="2.72"/><circle class="cls-21" cx="251.02" cy="15.63" r="2.17"/><circle class="cls-21" cx="249.21" cy="20.6" r="1.74"/><circle class="cls-21" cx="247.68" cy="24.82" r="1.25"/><circle class="cls-21" cx="246.41" cy="28.31" r="0.74"/><circle class="cls-21" cx="245.44" cy="30.96" r="0.32"/><circle class="cls-24" cx="244.65" cy="8.34" r="2.72"/><circle class="cls-25" cx="244.65" cy="14.51" r="2.17"/><circle class="cls-26" cx="244.65" cy="19.79" r="1.74"/><circle class="cls-27" cx="244.65" cy="24.29" r="1.25"/><circle class="cls-28" cx="244.65" cy="28" r="0.74"/><circle class="cls-29" cx="244.65" cy="30.82" r="0.33"/><circle class="cls-24" cx="236.15" cy="9.84" r="2.72"/><circle class="cls-25" cx="238.26" cy="15.63" r="2.17"/><circle class="cls-26" cx="240.07" cy="20.6" r="1.74"/><circle class="cls-27" cx="241.61" cy="24.83" r="1.25"/><circle class="cls-28" cx="242.87" cy="28.31" r="0.74"/><circle class="cls-29" cx="243.84" cy="30.96" r="0.33"/><circle class="cls-24" cx="228.68" cy="14.15" r="2.72"/><circle class="cls-25" cx="232.65" cy="18.88" r="2.17"/><circle class="cls-26" cx="236.04" cy="22.92" r="1.74"/><circle class="cls-27" cx="238.93" cy="26.37" r="1.25"/><circle class="cls-28" cx="241.32" cy="29.21" r="0.74"/><circle class="cls-29" cx="243.13" cy="31.37" r="0.33"/><circle class="cls-24" cx="223.14" cy="20.76" r="2.72"/><circle class="cls-25" cx="228.49" cy="23.84" r="2.17"/><circle class="cls-26" cx="233.06" cy="26.49" r="1.74"/><circle class="cls-27" cx="236.96" cy="28.74" r="1.25"/><circle class="cls-28" cx="240.17" cy="30.59" r="0.74"/><circle class="cls-29" cx="242.61" cy="32" r="0.33"/><circle class="cls-24" cx="220.19" cy="28.87" r="2.72"/><circle class="cls-25" cx="226.27" cy="29.94" r="2.17"/><circle class="cls-26" cx="231.47" cy="30.85" r="1.74"/><circle class="cls-27" cx="235.9" cy="31.64" r="1.25"/><circle class="cls-28" cx="239.55" cy="32.28" r="0.74"/><circle class="cls-29" cx="242.33" cy="32.77" r="0.33"/><circle class="cls-24" cx="220.19" cy="37.49" r="2.72"/><circle class="cls-25" cx="226.27" cy="36.42" r="2.17"/><circle class="cls-26" cx="231.47" cy="35.5" r="1.74"/><circle class="cls-27" cx="235.9" cy="34.72" r="1.25"/><circle class="cls-28" cx="239.55" cy="34.08" r="0.74"/><circle class="cls-29" cx="242.33" cy="33.59" r="0.33"/><circle class="cls-24" cx="223.14" cy="45.6" r="2.72"/><circle class="cls-25" cx="228.48" cy="42.52" r="2.17"/><circle class="cls-26" cx="233.06" cy="39.87" r="1.74"/><circle class="cls-27" cx="236.95" cy="37.63" r="1.25"/><circle class="cls-28" cx="240.16" cy="35.77" r="0.74"/><circle class="cls-29" cx="242.61" cy="34.36" r="0.33"/><circle class="cls-24" cx="228.69" cy="52.2" r="2.72"/><circle class="cls-25" cx="232.65" cy="47.48" r="2.17"/><circle class="cls-26" cx="236.05" cy="43.43" r="1.74"/><circle class="cls-27" cx="238.94" cy="39.98" r="1.25"/><circle class="cls-28" cx="241.32" cy="37.14" r="0.74"/><circle class="cls-29" cx="243.14" cy="34.98" r="0.33"/><circle class="cls-24" cx="236.16" cy="56.52" r="2.72"/><circle class="cls-25" cx="238.27" cy="50.72" r="2.17"/><circle class="cls-26" cx="240.08" cy="45.75" r="1.74"/><circle class="cls-27" cx="241.61" cy="41.53" r="1.25"/><circle class="cls-28" cx="242.88" cy="38.04" r="0.74"/><circle class="cls-29" cx="243.85" cy="35.39" r="0.33"/><circle class="cls-24" cx="244.65" cy="58.01" r="2.72"/><circle class="cls-25" cx="244.65" cy="51.84" r="2.17"/><circle class="cls-26" cx="244.65" cy="46.56" r="1.74"/><circle class="cls-27" cx="244.65" cy="42.06" r="1.25"/><circle class="cls-28" cx="244.65" cy="38.36" r="0.74"/><circle class="cls-29" cx="244.65" cy="35.53" r="0.33"/><circle class="cls-24" cx="253.14" cy="56.51" r="2.72"/><circle class="cls-25" cx="251.03" cy="50.72" r="2.17"/><circle class="cls-26" cx="249.22" cy="45.75" r="1.74"/><circle class="cls-27" cx="247.68" cy="41.52" r="1.25"/><circle class="cls-28" cx="246.42" cy="38.04" r="0.74"/><circle class="cls-29" cx="245.45" cy="35.39" r="0.33"/><circle class="cls-24" cx="260.61" cy="52.2" r="2.72"/><circle class="cls-25" cx="256.64" cy="47.47" r="2.17"/><circle class="cls-26" cx="253.25" cy="43.43" r="1.74"/><circle class="cls-27" cx="250.36" cy="39.98" r="1.25"/><circle class="cls-28" cx="247.97" cy="37.14" r="0.74"/><circle class="cls-29" cx="246.16" cy="34.98" r="0.33"/><circle class="cls-24" cx="266.15" cy="45.59" r="2.72"/><circle class="cls-25" cx="260.8" cy="42.51" r="2.17"/><circle class="cls-26" cx="256.23" cy="39.86" r="1.74"/><circle class="cls-27" cx="252.33" cy="37.61" r="1.25"/><circle class="cls-28" cx="249.12" cy="35.76" r="0.74"/><circle class="cls-29" cx="246.68" cy="34.35" r="0.33"/><circle class="cls-24" cx="269.1" cy="37.48" r="2.72"/><circle class="cls-25" cx="263.02" cy="36.41" r="2.17"/><circle class="cls-26" cx="257.82" cy="35.5" r="1.74"/><circle class="cls-27" cx="253.39" cy="34.71" r="1.25"/><circle class="cls-28" cx="249.74" cy="34.07" r="0.74"/><circle class="cls-29" cx="246.96" cy="33.58" r="0.33"/><circle class="cls-24" cx="269.1" cy="28.86" r="2.72"/><circle class="cls-25" cx="263.02" cy="29.93" r="2.17"/><circle class="cls-26" cx="257.82" cy="30.85" r="1.74"/><circle class="cls-27" cx="253.39" cy="31.63" r="1.25"/><circle class="cls-28" cx="249.74" cy="32.27" r="0.74"/><circle class="cls-29" cx="246.96" cy="32.76" r="0.33"/><circle class="cls-24" cx="266.15" cy="20.75" r="2.72"/><circle class="cls-25" cx="260.81" cy="23.83" r="2.17"/><circle class="cls-26" cx="256.23" cy="26.48" r="1.74"/><circle class="cls-27" cx="252.34" cy="28.72" r="1.25"/><circle class="cls-28" cx="249.13" cy="30.58" r="0.74"/><circle class="cls-29" cx="246.68" cy="31.99" r="0.33"/><circle class="cls-24" cx="260.6" cy="14.15" r="2.72"/><circle class="cls-25" cx="256.64" cy="18.87" r="2.17"/><circle class="cls-26" cx="253.24" cy="22.92" r="1.74"/><circle class="cls-27" cx="250.35" cy="26.37" r="1.25"/><circle class="cls-28" cx="247.97" cy="29.21" r="0.74"/><circle class="cls-29" cx="246.15" cy="31.37" r="0.33"/><circle class="cls-24" cx="253.13" cy="9.83" r="2.72"/><circle class="cls-25" cx="251.02" cy="15.63" r="2.17"/><circle class="cls-26" cx="249.21" cy="20.6" r="1.74"/><circle class="cls-27" cx="247.68" cy="24.82" r="1.25"/><circle class="cls-28" cx="246.41" cy="28.31" r="0.74"/><circle class="cls-29" cx="245.44" cy="30.96" r="0.33"/><circle class="cls-21" cx="198.11" cy="40.33" r="2.08"/><circle class="cls-21" cx="198.11" cy="45.05" r="1.66"/><circle class="cls-21" cx="198.11" cy="49.09" r="1.33"/><circle class="cls-21" cx="198.11" cy="52.52" r="0.96"/><circle class="cls-21" cx="198.11" cy="55.35" r="0.57"/><circle class="cls-21" cx="198.11" cy="57.51" r="0.25"/><circle class="cls-21" cx="191.62" cy="41.48" r="2.08"/><circle class="cls-21" cx="193.23" cy="45.91" r="1.66"/><circle class="cls-21" cx="194.61" cy="49.7" r="1.33"/><circle class="cls-21" cx="195.78" cy="52.93" r="0.96"/><circle class="cls-21" cx="196.75" cy="55.59" r="0.57"/><circle class="cls-21" cx="197.49" cy="57.62" r="0.25"/><circle class="cls-21" cx="185.91" cy="44.77" r="2.08"/><circle class="cls-21" cx="188.94" cy="48.38" r="1.66"/><circle class="cls-21" cx="191.53" cy="51.48" r="1.33"/><circle class="cls-21" cx="193.74" cy="54.11" r="0.96"/><circle class="cls-21" cx="195.57" cy="56.28" r="0.57"/><circle class="cls-21" cx="196.95" cy="57.93" r="0.25"/><circle class="cls-21" cx="181.68" cy="49.83" r="2.08"/><circle class="cls-21" cx="185.76" cy="52.18" r="1.66"/><circle class="cls-21" cx="189.26" cy="54.2" r="1.33"/><circle class="cls-21" cx="192.23" cy="55.92" r="0.96"/><circle class="cls-21" cx="194.68" cy="57.34" r="0.57"/><circle class="cls-21" cx="196.56" cy="58.41" r="0.25"/><circle class="cls-21" cx="179.42" cy="56.02" r="2.08"/><circle class="cls-21" cx="184.06" cy="56.84" r="1.66"/><circle class="cls-21" cx="188.04" cy="57.54" r="1.33"/><circle class="cls-21" cx="191.43" cy="58.13" r="0.96"/><circle class="cls-21" cx="194.21" cy="58.63" r="0.57"/><circle class="cls-21" cx="196.34" cy="59" r="0.25"/><circle class="cls-21" cx="179.42" cy="62.61" r="2.08"/><circle class="cls-21" cx="184.06" cy="61.79" r="1.66"/><circle class="cls-21" cx="188.04" cy="61.09" r="1.33"/><circle class="cls-21" cx="191.43" cy="60.49" r="0.96"/><circle class="cls-21" cx="194.21" cy="60" r="0.57"/><circle class="cls-21" cx="196.34" cy="59.63" r="0.25"/><circle class="cls-21" cx="181.67" cy="68.81" r="2.08"/><circle class="cls-21" cx="185.76" cy="66.45" r="1.66"/><circle class="cls-21" cx="189.26" cy="64.43" r="1.33"/><circle class="cls-21" cx="192.23" cy="62.71" r="0.96"/><circle class="cls-21" cx="194.68" cy="61.3" r="0.57"/><circle class="cls-21" cx="196.55" cy="60.22" r="0.25"/><circle class="cls-21" cx="185.91" cy="73.85" r="2.08"/><circle class="cls-21" cx="188.94" cy="70.24" r="1.66"/><circle class="cls-21" cx="191.54" cy="67.15" r="1.33"/><circle class="cls-21" cx="193.75" cy="64.52" r="0.96"/><circle class="cls-21" cx="195.57" cy="62.34" r="0.57"/><circle class="cls-21" cx="196.95" cy="60.69" r="0.25"/><circle class="cls-21" cx="191.62" cy="77.15" r="2.08"/><circle class="cls-21" cx="193.23" cy="72.72" r="1.66"/><circle class="cls-21" cx="194.62" cy="68.92" r="1.33"/><circle class="cls-21" cx="195.79" cy="65.69" r="0.96"/><circle class="cls-21" cx="196.76" cy="63.03" r="0.57"/><circle class="cls-21" cx="197.5" cy="61.01" r="0.25"/><circle class="cls-21" cx="198.11" cy="78.29" r="2.08"/><circle class="cls-21" cx="198.11" cy="73.58" r="1.66"/><circle class="cls-21" cx="198.11" cy="69.54" r="1.33"/><circle class="cls-21" cx="198.11" cy="66.1" r="0.96"/><circle class="cls-21" cx="198.11" cy="63.27" r="0.57"/><circle class="cls-21" cx="198.11" cy="61.11" r="0.25"/><circle class="cls-21" cx="204.6" cy="77.15" r="2.08"/><circle class="cls-21" cx="202.99" cy="72.72" r="1.66"/><circle class="cls-21" cx="201.6" cy="68.92" r="1.33"/><circle class="cls-21" cx="200.43" cy="65.69" r="0.96"/><circle class="cls-21" cx="199.46" cy="63.03" r="0.57"/><circle class="cls-21" cx="198.72" cy="61.01" r="0.25"/><circle class="cls-21" cx="210.3" cy="73.85" r="2.08"/><circle class="cls-21" cx="207.28" cy="70.24" r="1.66"/><circle class="cls-21" cx="204.68" cy="67.15" r="1.33"/><circle class="cls-21" cx="202.47" cy="64.51" r="0.96"/><circle class="cls-21" cx="200.65" cy="62.34" r="0.57"/><circle class="cls-21" cx="199.26" cy="60.69" r="0.25"/><circle class="cls-21" cx="214.54" cy="68.8" r="2.08"/><circle class="cls-21" cx="210.46" cy="66.44" r="1.66"/><circle class="cls-21" cx="206.96" cy="64.42" r="1.33"/><circle class="cls-21" cx="203.98" cy="62.7" r="0.96"/><circle class="cls-21" cx="201.53" cy="61.29" r="0.57"/><circle class="cls-21" cx="199.66" cy="60.21" r="0.25"/><circle class="cls-21" cx="216.79" cy="62.6" r="2.08"/><circle class="cls-21" cx="212.15" cy="61.78" r="1.66"/><circle class="cls-21" cx="208.17" cy="61.09" r="1.33"/><circle class="cls-21" cx="204.79" cy="60.49" r="0.96"/><circle class="cls-21" cx="202" cy="60" r="0.57"/><circle class="cls-21" cx="199.88" cy="59.62" r="0.25"/><circle class="cls-21" cx="216.79" cy="56.01" r="2.08"/><circle class="cls-21" cx="212.15" cy="56.83" r="1.66"/><circle class="cls-21" cx="208.17" cy="57.53" r="1.33"/><circle class="cls-21" cx="204.79" cy="58.13" r="0.96"/><circle class="cls-21" cx="202" cy="58.62" r="0.57"/><circle class="cls-21" cx="199.87" cy="58.99" r="0.25"/><circle class="cls-21" cx="214.54" cy="49.82" r="2.08"/><circle class="cls-21" cx="210.46" cy="52.17" r="1.66"/><circle class="cls-21" cx="206.96" cy="54.19" r="1.33"/><circle class="cls-21" cx="203.99" cy="55.91" r="0.96"/><circle class="cls-21" cx="201.53" cy="57.33" r="0.57"/><circle class="cls-21" cx="199.66" cy="58.4" r="0.25"/><circle class="cls-21" cx="210.3" cy="44.77" r="2.08"/><circle class="cls-21" cx="207.27" cy="48.38" r="1.66"/><circle class="cls-21" cx="204.68" cy="51.48" r="1.33"/><circle class="cls-21" cx="202.47" cy="54.11" r="0.96"/><circle class="cls-21" cx="200.64" cy="56.28" r="0.57"/><circle class="cls-21" cx="199.26" cy="57.93" r="0.25"/><circle class="cls-21" cx="204.59" cy="41.47" r="2.08"/><circle class="cls-21" cx="202.98" cy="45.9" r="1.66"/><circle class="cls-21" cx="201.6" cy="49.7" r="1.33"/><circle class="cls-21" cx="200.42" cy="52.93" r="0.96"/><circle class="cls-21" cx="199.46" cy="55.59" r="0.57"/><circle class="cls-21" cx="198.72" cy="57.62" r="0.25"/><circle class="cls-24" cx="198.11" cy="40.33" r="2.08"/><circle class="cls-25" cx="198.11" cy="45.05" r="1.66"/><circle class="cls-26" cx="198.11" cy="49.09" r="1.33"/><circle class="cls-27" cx="198.11" cy="52.52" r="0.96"/><circle class="cls-28" cx="198.11" cy="55.35" r="0.57"/><circle class="cls-29" cx="198.11" cy="57.51" r="0.25"/><circle class="cls-24" cx="191.62" cy="41.48" r="2.08"/><circle class="cls-25" cx="193.23" cy="45.91" r="1.66"/><circle class="cls-26" cx="194.61" cy="49.7" r="1.33"/><circle class="cls-27" cx="195.79" cy="52.93" r="0.96"/><circle class="cls-28" cx="196.76" cy="55.59" r="0.57"/><circle class="cls-29" cx="197.49" cy="57.62" r="0.25"/><circle class="cls-24" cx="185.91" cy="44.77" r="2.08"/><circle class="cls-25" cx="188.94" cy="48.38" r="1.66"/><circle class="cls-26" cx="191.54" cy="51.48" r="1.33"/><circle class="cls-27" cx="193.74" cy="54.11" r="0.96"/><circle class="cls-28" cx="195.56" cy="56.28" r="0.57"/><circle class="cls-29" cx="196.95" cy="57.93" r="0.25"/><circle class="cls-24" cx="181.68" cy="49.82" r="2.08"/><circle class="cls-25" cx="185.76" cy="52.18" r="1.66"/><circle class="cls-26" cx="189.26" cy="54.2" r="1.33"/><circle class="cls-27" cx="192.23" cy="55.92" r="0.96"/><circle class="cls-28" cx="194.69" cy="57.34" r="0.57"/><circle class="cls-29" cx="196.55" cy="58.41" r="0.25"/><circle class="cls-24" cx="179.42" cy="56.02" r="2.08"/><circle class="cls-25" cx="184.06" cy="56.84" r="1.66"/><circle class="cls-26" cx="188.04" cy="57.54" r="1.33"/><circle class="cls-27" cx="191.43" cy="58.14" r="0.96"/><circle class="cls-28" cx="194.22" cy="58.63" r="0.57"/><circle class="cls-29" cx="196.34" cy="59" r="0.25"/><circle class="cls-24" cx="179.42" cy="62.61" r="2.08"/><circle class="cls-25" cx="184.06" cy="61.79" r="1.66"/><circle class="cls-26" cx="188.04" cy="61.09" r="1.33"/><circle class="cls-27" cx="191.43" cy="60.49" r="0.96"/><circle class="cls-28" cx="194.22" cy="60" r="0.57"/><circle class="cls-29" cx="196.34" cy="59.63" r="0.25"/><circle class="cls-24" cx="181.67" cy="68.81" r="2.08"/><circle class="cls-25" cx="185.76" cy="66.45" r="1.66"/><circle class="cls-26" cx="189.25" cy="64.43" r="1.33"/><circle class="cls-27" cx="192.23" cy="62.71" r="0.96"/><circle class="cls-28" cx="194.68" cy="61.3" r="0.57"/><circle class="cls-29" cx="196.55" cy="60.22" r="0.25"/><circle class="cls-24" cx="185.91" cy="73.85" r="2.08"/><circle class="cls-25" cx="188.94" cy="70.24" r="1.66"/><circle class="cls-26" cx="191.54" cy="67.15" r="1.33"/><circle class="cls-27" cx="193.75" cy="64.52" r="0.96"/><circle class="cls-28" cx="195.57" cy="62.35" r="0.57"/><circle class="cls-29" cx="196.96" cy="60.69" r="0.25"/><circle class="cls-24" cx="191.62" cy="77.15" r="2.08"/><circle class="cls-25" cx="193.23" cy="72.72" r="1.66"/><circle class="cls-26" cx="194.62" cy="68.92" r="1.33"/><circle class="cls-27" cx="195.79" cy="65.7" r="0.96"/><circle class="cls-28" cx="196.76" cy="63.03" r="0.57"/><circle class="cls-29" cx="197.5" cy="61.01" r="0.25"/><circle class="cls-24" cx="198.11" cy="78.29" r="2.08"/><circle class="cls-25" cx="198.11" cy="73.58" r="1.66"/><circle class="cls-26" cx="198.11" cy="69.54" r="1.33"/><circle class="cls-27" cx="198.11" cy="66.1" r="0.96"/><circle class="cls-28" cx="198.11" cy="63.27" r="0.57"/><circle class="cls-29" cx="198.11" cy="61.12" r="0.25"/><circle class="cls-24" cx="204.6" cy="77.15" r="2.08"/><circle class="cls-25" cx="202.99" cy="72.72" r="1.66"/><circle class="cls-26" cx="201.61" cy="68.92" r="1.33"/><circle class="cls-27" cx="200.43" cy="65.69" r="0.96"/><circle class="cls-28" cx="199.46" cy="63.03" r="0.57"/><circle class="cls-29" cx="198.72" cy="61.01" r="0.25"/><circle class="cls-24" cx="210.31" cy="73.85" r="2.08"/><circle class="cls-25" cx="207.28" cy="70.24" r="1.66"/><circle class="cls-26" cx="204.68" cy="67.15" r="1.33"/><circle class="cls-27" cx="202.47" cy="64.51" r="0.96"/><circle class="cls-28" cx="200.65" cy="62.34" r="0.57"/><circle class="cls-29" cx="199.27" cy="60.69" r="0.25"/><circle class="cls-24" cx="214.54" cy="68.8" r="2.08"/><circle class="cls-25" cx="210.46" cy="66.44" r="1.66"/><circle class="cls-26" cx="206.96" cy="64.42" r="1.33"/><circle class="cls-27" cx="203.98" cy="62.71" r="0.96"/><circle class="cls-28" cx="201.53" cy="61.29" r="0.57"/><circle class="cls-29" cx="199.66" cy="60.21" r="0.25"/><circle class="cls-24" cx="216.8" cy="62.61" r="2.08"/><circle class="cls-25" cx="212.15" cy="61.79" r="1.66"/><circle class="cls-26" cx="208.17" cy="61.09" r="1.33"/><circle class="cls-27" cx="204.79" cy="60.49" r="0.96"/><circle class="cls-28" cx="202" cy="60" r="0.57"/><circle class="cls-29" cx="199.88" cy="59.62" r="0.25"/><circle class="cls-24" cx="216.8" cy="56.01" r="2.08"/><circle class="cls-25" cx="212.15" cy="56.83" r="1.66"/><circle class="cls-26" cx="208.17" cy="57.53" r="1.33"/><circle class="cls-27" cx="204.79" cy="58.13" r="0.96"/><circle class="cls-28" cx="202" cy="58.62" r="0.57"/><circle class="cls-29" cx="199.88" cy="59" r="0.25"/><circle class="cls-24" cx="214.54" cy="49.82" r="2.08"/><circle class="cls-25" cx="210.46" cy="52.17" r="1.66"/><circle class="cls-26" cx="206.96" cy="54.19" r="1.33"/><circle class="cls-27" cx="203.99" cy="55.91" r="0.96"/><circle class="cls-28" cx="201.53" cy="57.33" r="0.57"/><circle class="cls-29" cx="199.67" cy="58.41" r="0.25"/><circle class="cls-24" cx="210.3" cy="44.77" r="2.08"/><circle class="cls-25" cx="207.27" cy="48.38" r="1.66"/><circle class="cls-26" cx="204.68" cy="51.48" r="1.33"/><circle class="cls-27" cx="202.47" cy="54.11" r="0.96"/><circle class="cls-28" cx="200.65" cy="56.28" r="0.57"/><circle class="cls-29" cx="199.26" cy="57.93" r="0.25"/><circle class="cls-24" cx="204.59" cy="41.48" r="2.08"/><circle class="cls-25" cx="202.98" cy="45.91" r="1.66"/><circle class="cls-26" cx="201.6" cy="49.7" r="1.33"/><circle class="cls-27" cx="200.43" cy="52.93" r="0.96"/><circle class="cls-28" cx="199.46" cy="55.59" r="0.57"/><circle class="cls-29" cx="198.72" cy="57.62" r="0.25"/></svg>