<?xml version="1.0" encoding="utf-8"?>
<!-- Generator: Adobe Illustrator 21.1.0, SVG Export Plug-In . SVG Version: 6.00 Build 0)  -->
<svg version="1.1" id="Layer_1" xmlns="http://www.w3.org/2000/svg" xmlns:xlink="http://www.w3.org/1999/xlink" x="0px" y="0px"
	 viewBox="0 0 76.2 37.1" style="enable-background:new 0 0 76.2 37.1;" xml:space="preserve">
<style type="text/css">
	.st0{fill:#FFFFFF;}
	.st1{opacity:0.66;fill:#63C29D;enable-background:new    ;}
	.st2{opacity:0.3;fill:#B4D334;enable-background:new    ;}
	.st3{opacity:0.41;fill:#F15E22;enable-background:new    ;}
	.st4{opacity:0.24;fill:#465B65;enable-background:new    ;}
	.st5{fill:#F99D1C;}
	.st6{fill:#AAB0D9;}
	.st7{fill:url(#Fill-21_1_);}
	.st8{fill:url(#Fill-24_1_);}
	.st9{fill:#466EB5;}
	.st10{fill:none;}
	.st11{fill:#58C7DC;}
	.st12{fill:url(#Fill-21-2_1_);}
	.st13{fill:url(#Fill-24-2_1_);}
	.st14{fill:#F47D3A;}
	.st15{clip-path:url(#SVGID_2_);}
	.st16{clip-path:url(#SVGID_4_);}
	.st17{fill:#DAA96A;}
	.st18{clip-path:url(#SVGID_6_);}
	.st19{clip-path:url(#SVGID_8_);}
	.st20{clip-path:url(#SVGID_10_);}
	.st21{clip-path:url(#SVGID_12_);}
	.st22{clip-path:url(#SVGID_14_);}
	.st23{clip-path:url(#SVGID_16_);}
	.st24{clip-path:url(#SVGID_18_);}
	.st25{clip-path:url(#SVGID_20_);}
	.st26{clip-path:url(#SVGID_22_);}
	.st27{clip-path:url(#SVGID_24_);}
	.st28{clip-path:url(#SVGID_26_);}
	.st29{clip-path:url(#SVGID_28_);}
	.st30{clip-path:url(#SVGID_30_);}
	.st31{clip-path:url(#SVGID_32_);}
	.st32{fill:#4655A5;}
	.st33{clip-path:url(#SVGID_34_);}
	.st34{clip-path:url(#SVGID_36_);}
	.st35{fill:#B4D334;}
	.st36{clip-path:url(#SVGID_38_);}
	.st37{clip-path:url(#SVGID_40_);}
	.st38{fill:#63C29D;}
	.st39{clip-path:url(#SVGID_42_);}
	.st40{clip-path:url(#SVGID_44_);}
	.st41{clip-path:url(#SVGID_46_);}
	.st42{clip-path:url(#SVGID_48_);}
	.st43{fill:#5BC7D4;}
	.st44{clip-path:url(#SVGID_50_);}
	.st45{clip-path:url(#SVGID_52_);}
	.st46{fill:#EF3859;}
	.st47{clip-path:url(#SVGID_54_);}
	.st48{clip-path:url(#SVGID_58_);}
	.st49{clip-path:url(#SVGID_59_);}
	.st50{clip-path:url(#SVGID_60_);fill:none;}
	.st51{clip-path:url(#SVGID_62_);}
	.st52{clip-path:url(#SVGID_64_);fill:#DAA869;}
	.st53{clip-path:url(#SVGID_66_);}
	.st54{clip-path:url(#SVGID_68_);fill:#DAA869;}
	.st55{clip-path:url(#SVGID_70_);}
	.st56{clip-path:url(#SVGID_72_);fill:#DAA869;}
	.st57{clip-path:url(#SVGID_74_);}
	.st58{clip-path:url(#SVGID_76_);fill:#DAA869;}
	.st59{clip-path:url(#SVGID_78_);}
	.st60{clip-path:url(#SVGID_80_);fill:#DAA869;}
	.st61{clip-path:url(#SVGID_82_);}
	.st62{clip-path:url(#SVGID_84_);fill:#DAA869;}
	.st63{clip-path:url(#SVGID_86_);}
	.st64{clip-path:url(#SVGID_88_);fill:#DAA869;}
	.st65{clip-path:url(#SVGID_90_);}
	.st66{clip-path:url(#SVGID_92_);fill:#3F51B5;}
	.st67{clip-path:url(#SVGID_94_);}
	.st68{clip-path:url(#SVGID_96_);fill:#B3ED00;}
	.st69{clip-path:url(#SVGID_98_);}
	.st70{clip-path:url(#SVGID_100_);fill:#0FEAAC;}
	.st71{clip-path:url(#SVGID_102_);}
	.st72{clip-path:url(#SVGID_104_);fill:#0FEAAC;}
	.st73{clip-path:url(#SVGID_106_);}
	.st74{clip-path:url(#SVGID_108_);fill:#1CE3E8;}
	.st75{clip-path:url(#SVGID_110_);}
	.st76{clip-path:url(#SVGID_112_);fill:#FF2E56;}
	.st77{clip-path:url(#SVGID_114_);}
	.st78{clip-path:url(#SVGID_116_);fill:#FF9D00;}
	.st79{clip-path:url(#SVGID_118_);}
	.st80{opacity:0.72;clip-path:url(#SVGID_120_);fill:#FFB902;}
	.st81{clip-path:url(#SVGID_122_);}
	.st82{opacity:0.7;clip-path:url(#SVGID_124_);fill:#FF5B00;}
	.st83{clip-path:url(#SVGID_126_);}
	.st84{opacity:0.68;clip-path:url(#SVGID_128_);fill:#4555A5;}
	.st85{clip-path:url(#SVGID_130_);}
	.st86{opacity:0.48;clip-path:url(#SVGID_132_);fill:#0FEAAC;}
</style>
<title>rewards_for_pages</title>
<g id="mask-8">
	<g id="mask-12-2">
		<path id="path-11-2" class="st0" d="M25.1,30.7c0,0-3.3,0.6-3.3,5.7h-1.5l-1.5-5.7H25.1"/>
	</g>
</g>
<g id="mask-7-3">
	<g id="mask-9-2">
		<polyline id="path-8-2" class="st0" points="25.1,30.7 23.6,36.4 20.2,36.4 18.8,30.7 25.1,30.7 		"/>
	</g>
</g>
<g id="mask-6">
	<g id="mask-7-2">
		<path id="path-6-2" class="st0" d="M26,14.8c-1-0.4-0.8,1.6-1.3,3.2c-0.5,1.5-4.9,0.6-3,4.4s-2.4,1.3-1.1,4.5
			c1.3,3.2,0.1,6.7,1.5,5.9s0.8-4.9,2.2-5.5s1.6-1.1,0.2-2.4c-1.4-1.3,3.7-2.6,2.5-5.3S27.2,15.2,26,14.8"/>
	</g>
</g>
<g id="mask-5-2">
	<g id="mask-5-3">
		<path id="path-4-2" class="st0" d="M15.2,7.9c0.8-0.4,1.6,2.3,1.6,2.3c1.4,1.9,3.5-0.6,3.3,2.2c-0.3,4.9,5.7,1.6,2.9,6.8
			s2.5,3,0.7,7.2c-1.7,4.2,0.5,9.2-2.1,7.1c0,0-2.3-5.1-4.7-6.6c-2.4-1.5,1.4-3.4,0.7-5.6c-1.1-3.1-3.7-3-1.7-6.3S12.3,9.3,15.2,7.9
			"/>
	</g>
</g>
<g id="mask-4">
	<g id="mask-12">
		<path id="path-11" class="st0" d="M58.2,31.2c0,0-2.9,0.5-2.9,4.9H54l-1.3-4.9H58.2"/>
	</g>
</g>
<g id="mask-3">
	<g id="mask-9">
		<polyline id="path-8" class="st0" points="58.2,31.2 56.9,36.1 54,36.1 52.7,31.2 58.2,31.2 		"/>
	</g>
</g>
<g id="mask-2">
	<g id="mask-7">
		<path id="path-6" class="st0" d="M59,17.2c-0.9-0.3-0.7,1.5-1.1,2.7c-0.4,1.3-4.3,0.6-2.7,3.8s-2.1,1.1-1,3.9s0.1,5.9,1.3,5.1
			c1.2-0.8,0.7-4.4,1.9-4.8c1.3-0.4,1.5-0.9,0.2-2.1c-1.2-1.2,3.3-2.3,2.1-4.6S60.1,17.6,59,17.2"/>
	</g>
</g>
<g id="mask">
	<g id="mask-5">
		<path id="path-4" class="st0" d="M49.7,11.3c0.7-0.3,1.5,2,1.5,2c1.3,1.6,3-0.5,2.9,1.9c-0.3,4.4,4.9,1.4,2.6,5.9s2.2,2.6,0.6,6.2
			s0.4,8-1.8,6.2c0,0-2-4.4-4.1-5.8c-2.1-1.4,1.3-3,0.6-4.9c-0.9-2.7-3.3-2.6-1.6-5.5C51.9,14.6,47.1,12.5,49.7,11.3"/>
	</g>
</g>
<path class="st1" d="M56.4,35.3c0,0.4,0.3,0.7,0.7,0.7l0,0h3.7v-3.7h-4.5V35.3z M62.4,36h3.7c0.4,0,0.7-0.3,0.7-0.7l0,0v-3h-4.5
	L62.4,36z M66.8,28.5h-1c0.2-0.3,0.2-0.6,0.2-0.9c0-1.1-0.9-2-2-2c-1,0-1.6,0.5-2.4,1.6c-0.8-1.1-1.4-1.6-2.4-1.6
	c-1.1,0-2,0.9-2,2.1c0,0.3,0.1,0.6,0.2,0.9h-1.1c-0.4,0-0.7,0.3-0.7,0.7l0,0l0,0v1.9c0,0.2,0.2,0.4,0.4,0.4h11.2
	c0.2,0,0.4-0.2,0.4-0.4v0v-1.8C67.7,28.9,67.4,28.6,66.8,28.5C66.9,28.5,66.9,28.5,66.8,28.5L66.8,28.5z M59.2,28.5
	c-0.5,0.1-1-0.3-1.1-0.8c-0.1-0.5,0.3-1,0.8-1.1c0.1,0,0.2,0,0.2,0c0.5,0,0.8,0,2,1.9H59.2z M64,28.5h-2c1.2-1.8,1.5-1.9,2-1.9
	c0.5,0.1,0.9,0.5,0.8,1.1C64.8,28.1,64.5,28.5,64,28.5L64,28.5z"/>
<rect x="26.5" y="17.1" class="st2" width="23.7" height="10.7"/>
<rect x="26.5" y="29.9" class="st3" width="23.7" height="3.8"/>
<rect x="7.8" y="35.9" class="st4" width="60.4" height="0.7"/>
<g id="Group-9">
	<path id="Fill-7" class="st5" d="M49.7,11.3c0.7-0.3,1.5,2,1.5,2c1.3,1.6,3-0.5,2.9,1.9c-0.3,4.4,4.9,1.4,2.6,5.9s2.2,2.6,0.6,6.2
		s0.4,8-1.8,6.2c0,0-2-4.4-4.1-5.8c-2.1-1.4,1.3-3,0.6-4.9c-0.9-2.7-3.3-2.6-1.6-5.5C51.9,14.6,47.1,12.5,49.7,11.3"/>
</g>
<path id="Fill-10" class="st0" d="M56.1,31.9c-1-0.7-2.2-5.6-2.2-8.5c0-1-0.3-1.9-0.9-2.7c-0.5-0.5-0.7-1.3-0.5-2
	c0.3-1,0.1-2.1-0.6-2.8l0.1-0.1c0.7,0.8,1,1.9,0.6,3c-0.2,0.7,0,1.4,0.5,1.9c0.6,0.8,0.9,1.7,0.9,2.7c0,3.1,1.3,7.7,2.2,8.3
	L56.1,31.9"/>
<g id="Group-19">
	<path id="Fill-17" class="st6" d="M59,17.2c-0.9-0.3-0.7,1.5-1.1,2.7c-0.4,1.3-4.3,0.6-2.7,3.8s-2.1,1.1-1,3.9s0.1,5.9,1.3,5.1
		c1.2-0.8,0.7-4.4,1.9-4.8c1.3-0.4,1.5-0.9,0.2-2.1c-1.2-1.2,3.3-2.3,2.1-4.6S60.1,17.6,59,17.2"/>
</g>
<path id="Fill-20" class="st0" d="M56.2,32.7c-0.1-0.5-1.1-4.8-0.2-5.3c0.9-0.5,0.8-2.2,0.7-3.9c-0.1-1.7,1.8-2.2,1.9-2.2v0.1
	c0,0-1.9,0.7-1.8,2.1c0.1,1.6,0.2,3.5-0.7,4C55.2,28,56,31.4,56.2,32.7L56.2,32.7"/>
<g id="Group-23">
	
		<linearGradient id="Fill-21_1_" gradientUnits="userSpaceOnUse" x1="-445.2036" y1="-63.172" x2="-445.0525" y2="-63.172" gradientTransform="matrix(38.65 0 0 -34.62 17259.2793 -2153.3601)">
		<stop  offset="0" style="stop-color:#F79145"/>
		<stop  offset="1" style="stop-color:#FFCF46"/>
	</linearGradient>
	<polyline id="Fill-21" class="st7" points="58.2,31.2 56.9,36.1 54,36.1 52.7,31.2 58.2,31.2 	"/>
</g>
<g id="Group-26">
	
		<linearGradient id="Fill-24_1_" gradientUnits="userSpaceOnUse" x1="-445.2036" y1="-63.1723" x2="-445.0525" y2="-63.1723" gradientTransform="matrix(38.65 0 0 -34.62 17259.2793 -2153.3601)">
		<stop  offset="0" style="stop-color:#C87331"/>
		<stop  offset="1" style="stop-color:#FFCF46"/>
	</linearGradient>
	<path id="Fill-24" class="st8" d="M58.2,31.2c0,0-2.9,0.5-2.9,4.9H54l-1.3-4.9H58.2"/>
</g>
<path class="st9" d="M49,15.1h-3c0.7-2.2-0.4-4.6-2.6-5.3c-1.8-0.6-3.7,0-4.8,1.6l-0.7,0.9l-0.7-0.9c-1.3-1.9-3.9-2.4-5.8-1.1
	c-1.6,1.1-2.2,3-1.6,4.8h-3c-1.5,0-2.8,1.2-2.8,2.7c0,0,0,0,0,0l0,0v15.4c0,1.5,1.2,2.8,2.8,2.8h22.3c1.5,0,2.8-1.2,2.8-2.8l0,0
	V17.9C51.7,16.4,50.5,15.1,49,15.1L49,15.1z M42,12.4c0.8,0,1.4,0.6,1.4,1.4c0,0.8-0.6,1.4-1.4,1.4c-0.8,0-1.4-0.6-1.4-1.4
	C40.6,13,41.2,12.4,42,12.4z M33.7,12.4c0.8,0,1.4,0.6,1.4,1.4s-0.6,1.4-1.4,1.4s-1.4-0.6-1.4-1.4l0,0C32.3,13,32.9,12.4,33.7,12.4z
	 M49,33.2H26.7v-2.8H49V33.2z M49,26.3H26.7v-8.4h7.1l-3,4l2.3,1.6l3.3-4.5l1.4-1.9l1.4,1.9l3.3,4.5l2.3-1.6l-2.8-4h7.1L49,26.3z"/>
<path class="st10" d="M21.5,6.5h33.4v33.4H21.5V6.5z"/>
<g id="Group-9-2">
	<path id="Fill-7-2" class="st11" d="M15.2,7.9c0.8-0.4,1.6,2.3,1.6,2.3c1.4,1.9,3.5-0.6,3.3,2.2c-0.3,4.9,5.7,1.6,2.9,6.8
		s2.5,3,0.7,7.2c-1.7,4.2,0.5,9.2-2.1,7.1c0,0-2.3-5.1-4.7-6.6c-2.4-1.5,1.4-3.4,0.7-5.6c-1.1-3.1-3.7-3-1.7-6.3S12.3,9.3,15.2,7.9"
		/>
</g>
<path id="Fill-10-2" class="st0" d="M22.6,31.6c-1.1-0.8-2.5-6.4-2.6-9.7c0-1.1-0.3-2.2-1-3c-0.6-0.6-0.8-1.5-0.6-2.3
	c0.4-1.1,0.1-2.4-0.7-3.3l0.1-0.2c0.8,0.9,1.1,2.2,0.8,3.4c-0.2,0.8,0,1.6,0.5,2.2c0.7,0.9,1.1,2,1,3.2c0.1,3.6,1.5,8.8,2.5,9.5
	L22.6,31.6"/>
<g id="Group-19-2">
	<path id="Fill-17-2" class="st6" d="M26,14.8c-1-0.4-0.8,1.6-1.3,3.2c-0.5,1.5-4.9,0.6-3,4.4s-2.4,1.3-1.1,4.5
		c1.3,3.2,0.1,6.7,1.5,5.9s0.8-4.9,2.2-5.5s1.6-1.1,0.2-2.4c-1.4-1.3,3.7-2.6,2.5-5.3S27.2,15.2,26,14.8"/>
</g>
<path id="Fill-20-2" class="st0" d="M22.7,32.5c-0.1-0.6-1.3-5.5-0.1-6.1c1.1-0.6,0.9-2.6,0.8-4.5s2.1-2.5,2.1-2.5v0.2
	c0,0-2.2,0.8-2.1,2.3c0.2,2,0.2,4.1-0.8,4.6s0,4.4,0.3,5.9L22.7,32.5"/>
<g id="Group-23-2">
	
		<linearGradient id="Fill-21-2_1_" gradientUnits="userSpaceOnUse" x1="-446.0784" y1="-63.1698" x2="-445.9113" y2="-63.1698" gradientTransform="matrix(38.65 0 0 -34.62 17259.2793 -2153.3601)">
		<stop  offset="0" style="stop-color:#F79145"/>
		<stop  offset="1" style="stop-color:#FFCF46"/>
	</linearGradient>
	<polyline id="Fill-21-2" class="st12" points="25.1,30.7 23.6,36.4 20.2,36.4 18.8,30.7 25.1,30.7 	"/>
</g>
<g id="Group-26-2">
	
		<linearGradient id="Fill-24-2_1_" gradientUnits="userSpaceOnUse" x1="-446.0784" y1="-63.1698" x2="-445.9113" y2="-63.1698" gradientTransform="matrix(38.65 0 0 -34.62 17259.2793 -2153.3601)">
		<stop  offset="0" style="stop-color:#C87331"/>
		<stop  offset="1" style="stop-color:#FFCF46"/>
	</linearGradient>
	<path id="Fill-24-2" class="st13" d="M25.1,30.7c0,0-3.3,0.6-3.3,5.7h-1.5l-1.5-5.7H25.1"/>
</g>
<path class="st14" d="M12,35.4c0,0.3,0.2,0.5,0.5,0.5h2.7v-2.7H12L12,35.4z M16.2,35.9h2.7c0.3,0,0.5-0.2,0.5-0.5v-2.1h-3.2
	L16.2,35.9z M19.4,30.6h-0.7c0.1-0.2,0.2-0.4,0.2-0.7c0-0.8-0.7-1.4-1.5-1.4c-0.7,0-1.1,0.4-1.6,1.1c-0.6-0.8-1-1.1-1.6-1.1
	c-0.8,0-1.5,0.7-1.5,1.5l0,0c0,0.2,0.1,0.5,0.2,0.7H12c-0.3,0-0.5,0.2-0.5,0.5v1.3c0,0.1,0.1,0.3,0.3,0.3c0,0,0,0,0,0h8
	c0.1,0,0.3-0.1,0.3-0.3l0,0v-1.3c0-0.3-0.2-0.6-0.5-0.6c0,0,0,0,0,0L19.4,30.6L19.4,30.6z M14,30.6c-0.4,0-0.7-0.3-0.7-0.7
	c0-0.4,0.3-0.7,0.7-0.7c0.3,0,0.6,0,1.4,1.3H14z M17.4,30.6H16c0.9-1.3,1.1-1.3,1.4-1.3c0.4,0,0.7,0.3,0.7,0.7
	C18.1,30.3,17.8,30.6,17.4,30.6L17.4,30.6L17.4,30.6z"/>
<g>
	<defs>
		<path id="SVGID_1_" d="M70.5,12.8L70.5,12.8L70.5,12.8z"/>
	</defs>
	<clipPath id="SVGID_2_">
		<use xlink:href="#SVGID_1_"  style="overflow:visible;"/>
	</clipPath>
	<g class="st15">
		<g>
			<defs>
				<rect id="SVGID_3_" x="-97.6" y="-76.5" width="271.8" height="169.9"/>
			</defs>
			<clipPath id="SVGID_4_">
				<use xlink:href="#SVGID_3_"  style="overflow:visible;"/>
			</clipPath>
			<g class="st16">
				<rect x="69.4" y="11.7" class="st17" width="2.1" height="2.2"/>
			</g>
		</g>
		<g>
			<defs>
				<path id="SVGID_5_" d="M70.5,12.3v0.5c0-0.1,0.1-0.2,0.1-0.3C70.6,12.5,70.5,12.4,70.5,12.3z"/>
			</defs>
			<clipPath id="SVGID_6_">
				<use xlink:href="#SVGID_5_"  style="overflow:visible;"/>
			</clipPath>
			<g class="st18">
				<g>
					<defs>
						<rect id="SVGID_7_" x="-97.6" y="-76.5" width="271.8" height="169.9"/>
					</defs>
					<clipPath id="SVGID_8_">
						<use xlink:href="#SVGID_7_"  style="overflow:visible;"/>
					</clipPath>
					<g class="st19">
						<rect x="69.4" y="11.3" class="st17" width="2.3" height="2.6"/>
					</g>
				</g>
				<g>
					<defs>
						<path id="SVGID_9_" d="M72.6,16.8L72.6,16.8z"/>
					</defs>
					<clipPath id="SVGID_10_">
						<use xlink:href="#SVGID_9_"  style="overflow:visible;"/>
					</clipPath>
					<g class="st20">
						<g>
							<defs>
								<rect id="SVGID_11_" x="-97.6" y="-76.5" width="271.8" height="169.9"/>
							</defs>
							<clipPath id="SVGID_12_">
								<use xlink:href="#SVGID_11_"  style="overflow:visible;"/>
							</clipPath>
							<g class="st21">
								<rect x="71.6" y="15.7" class="st17" width="2.1" height="2.1"/>
							</g>
						</g>
						<g>
							<defs>
								<path id="SVGID_13_" d="M72.4,16.5c0.1,0.1,0.2,0.2,0.2,0.3v-0.5C72.6,16.3,72.5,16.4,72.4,16.5z"/>
							</defs>
							<clipPath id="SVGID_14_">
								<use xlink:href="#SVGID_13_"  style="overflow:visible;"/>
							</clipPath>
							<g class="st22">
								<g>
									<defs>
										<rect id="SVGID_15_" x="-97.6" y="-76.5" width="271.8" height="169.9"/>
									</defs>
									<clipPath id="SVGID_16_">
										<use xlink:href="#SVGID_15_"  style="overflow:visible;"/>
									</clipPath>
									<g class="st23">
										<rect x="71.4" y="15.2" class="st17" width="2.3" height="2.6"/>
									</g>
								</g>
								<g>
									<defs>
										<path id="SVGID_17_" d="M70.6,18c0,0.1,0,0.2,0,0.4l0,0C70.6,18.2,70.6,18.1,70.6,18z"/>
									</defs>
									<clipPath id="SVGID_18_">
										<use xlink:href="#SVGID_17_"  style="overflow:visible;"/>
									</clipPath>
									<g class="st24">
										<g>
											<defs>
												<rect id="SVGID_19_" x="-97.6" y="-76.5" width="271.8" height="169.9"/>
											</defs>
											<clipPath id="SVGID_20_">
												<use xlink:href="#SVGID_19_"  style="overflow:visible;"/>
											</clipPath>
											<g class="st25">
												<rect x="69.6" y="16.9" class="st17" width="2.1" height="2.5"/>
											</g>
										</g>
										<g>
											<defs>
												<path id="SVGID_21_" d="M70.6,18L70.6,18c0,0.1,0,0.2,0,0.3l0,0l0,0c0,0,0,0,0,0s0-0.1,0-0.1l0,0
													C70.6,18.1,70.6,18,70.6,18z"/>
											</defs>
											<clipPath id="SVGID_22_">
												<use xlink:href="#SVGID_21_"  style="overflow:visible;"/>
											</clipPath>
											<g class="st26">
												<g>
													<defs>
														<rect id="SVGID_23_" x="-97.6" y="-76.5" width="271.8" height="169.9"/>
													</defs>
													<clipPath id="SVGID_24_">
														<use xlink:href="#SVGID_23_"  style="overflow:visible;"/>
													</clipPath>
													<g class="st27">
														<rect x="69.6" y="16.9" class="st17" width="2.2" height="2.5"/>
													</g>
												</g>
												<g>
													<defs>
														<path id="SVGID_25_" d="M70.6,18.3L70.6,18.3c0,0.1,0,0.3,0,0.4C70.6,18.6,70.6,18.5,70.6,18.3v-0.2
															C70.6,18.1,70.6,18.1,70.6,18.3L70.6,18.3z"/>
													</defs>
													<clipPath id="SVGID_26_">
														<use xlink:href="#SVGID_25_"  style="overflow:visible;"/>
													</clipPath>
													<g class="st28">
														<g>
															<defs>
																<rect id="SVGID_27_" x="-97.6" y="-76.5" width="271.8" height="169.9"/>
															</defs>
															<clipPath id="SVGID_28_">
																<use xlink:href="#SVGID_27_"  style="overflow:visible;"/>
															</clipPath>
															<g class="st29">
																<rect x="69.6" y="17" class="st17" width="2.2" height="2.7"/>
															</g>
														</g>
														<g>
															<defs>
																<polygon id="SVGID_29_" points="74.9,27.1 76.2,28.6 75.4,29.1 74.2,27.6 																"/>
															</defs>
															<clipPath id="SVGID_30_">
																<use xlink:href="#SVGID_29_"  style="overflow:visible;"/>
															</clipPath>
															<g class="st30">
																<g>
																	<defs>
																		<rect id="SVGID_31_" x="-97.6" y="-76.5" width="271.8" height="169.9"/>
																	</defs>
																	<clipPath id="SVGID_32_">
																		<use xlink:href="#SVGID_31_"  style="overflow:visible;"/>
																	</clipPath>
																	<g class="st31">
																		<rect x="73.2" y="26" class="st32" width="4.1" height="4.2"/>
																	</g>
																</g>
																<g>
																	<defs>
																		<polygon id="SVGID_33_" points="61.4,15.9 61.5,13.9 62.4,14 62.3,15.9 																		"/>
																	</defs>
																	<clipPath id="SVGID_34_">
																		<use xlink:href="#SVGID_33_"  style="overflow:visible;"/>
																	</clipPath>
																	<g class="st33">
																		<g>
																			<defs>
																				<rect id="SVGID_35_" x="-97.6" y="-76.5" width="271.8" height="169.9"/>
																			</defs>
																			<clipPath id="SVGID_36_">
																				<use xlink:href="#SVGID_35_"  style="overflow:visible;"/>
																			</clipPath>
																			<g class="st34">
																				<rect x="60.3" y="12.8" class="st35" width="3.1" height="4.2"/>
																			</g>
																		</g>
																		<g>
																			<defs>
																				<polygon id="SVGID_37_" points="59.2,2.7 59.1,0.8 60,0.8 60.1,2.6 																				"/>
																			</defs>
																			<clipPath id="SVGID_38_">
																				<use xlink:href="#SVGID_37_"  style="overflow:visible;"/>
																			</clipPath>
																			<g class="st36">
																				<g>
																					<defs>
																						<rect id="SVGID_39_" x="-97.6" y="-76.5" width="271.8" height="169.9"/>
																					</defs>
																					<clipPath id="SVGID_40_">
																						<use xlink:href="#SVGID_39_"  style="overflow:visible;"/>
																					</clipPath>
																					<g class="st37">
																						
																							<rect x="57.6" y="-0.4" transform="matrix(0.7771 -0.6293 0.6293 0.7771 12.2101 37.88)" class="st38" width="3.9" height="4.2"/>
																					</g>
																				</g>
																				<g>
																					<defs>
																						<polygon id="SVGID_41_" points="0.6,27.4 2.5,27.2 2.6,28.1 0.7,28.3 																						"/>
																					</defs>
																					<clipPath id="SVGID_42_">
																						<use xlink:href="#SVGID_41_"  style="overflow:visible;"/>
																					</clipPath>
																					<g class="st39">
																						<g>
																							<defs>
																								<rect id="SVGID_43_" x="-97.6" y="-76.5" width="271.8" height="169.9"/>
																							</defs>
																							<clipPath id="SVGID_44_">
																								<use xlink:href="#SVGID_43_"  style="overflow:visible;"/>
																							</clipPath>
																							<g class="st40">
																								<rect x="-0.5" y="26.1" class="st38" width="4.1" height="3.2"/>
																							</g>
																						</g>
																						<g>
																							<defs>
																								<polygon id="SVGID_45_" points="21.3,2.6 19.9,1.2 20.6,0.6 21.9,2 																								"/>
																							</defs>
																							<clipPath id="SVGID_46_">
																								<use xlink:href="#SVGID_45_"  style="overflow:visible;"/>
																							</clipPath>
																							<g class="st41">
																								<g>
																									<defs>
																										<rect id="SVGID_47_" x="-97.6" y="-76.5" width="271.8" height="169.9"/>
																									</defs>
																									<clipPath id="SVGID_48_">
																										<use xlink:href="#SVGID_47_"  style="overflow:visible;"/>
																									</clipPath>
																									<g class="st42">
																										<rect x="18.8" y="-0.5" class="st43" width="4.1" height="4.1"/>
																									</g>
																								</g>
																								<g>
																									<defs>
																										<polygon id="SVGID_49_" points="46.6,3.3 48,4.7 47.4,5.3 46,4 																										"/>
																									</defs>
																									<clipPath id="SVGID_50_">
																										<use xlink:href="#SVGID_49_"  style="overflow:visible;"/>
																									</clipPath>
																									<g class="st44">
																										<g>
																											<defs>
																												<rect id="SVGID_51_" x="-97.6" y="-76.5" width="271.8" height="169.9"/>
																											</defs>
																											<clipPath id="SVGID_52_">
																												<use xlink:href="#SVGID_51_"  style="overflow:visible;"/>
																											</clipPath>
																											<g class="st45">
																												<rect x="44.9" y="2.3" class="st46" width="4.2" height="4.1"/>
																											</g>
																										</g>
																										<g>
																											<defs>
																												<polygon id="SVGID_53_" points="10.6,15 9.9,13.2 10.7,12.9 11.4,14.7 																												"/>
																											</defs>
																											<clipPath id="SVGID_54_">
																												<use xlink:href="#SVGID_53_"  style="overflow:visible;"/>
																											</clipPath>
																											<g class="st47">
																												<g>
																													<defs>
																														<circle id="SVGID_55_" cx="6.9" cy="23" r="1.5"/>
																													</defs>
																													<defs>
																														<polygon id="SVGID_56_" points="1.9,8.8 4.8,10.5 3.1,13.4 0.2,11.7 																														
																															"/>
																													</defs>
																													<defs>
																														<polygon id="SVGID_57_" points="68.1,10.2 73.2,8.2 68.9,4.6 																														"/>
																													</defs>
																													<clipPath id="SVGID_58_">
																														<use xlink:href="#SVGID_55_"  style="overflow:visible;"/>
																													</clipPath>
																													<clipPath id="SVGID_59_" class="st48">
																														<use xlink:href="#SVGID_56_"  style="overflow:visible;"/>
																													</clipPath>
																													<clipPath id="SVGID_60_" class="st49">
																														<use xlink:href="#SVGID_57_"  style="overflow:visible;"/>
																													</clipPath>
																													<polygon class="st50" points="69,9 69.4,6 71.7,7.8 																													"/>
																												</g>
																											</g>
																										</g>
																									</g>
																								</g>
																							</g>
																						</g>
																					</g>
																				</g>
																			</g>
																		</g>
																	</g>
																</g>
															</g>
														</g>
													</g>
												</g>
											</g>
										</g>
									</g>
								</g>
							</g>
						</g>
					</g>
				</g>
			</g>
		</g>
	</g>
</g>
<rect x="-97.6" y="-76.5" class="st10" width="271.8" height="169.9"/>
<circle class="st10" cx="70.2" cy="16.9" r="1.9"/>
<g>
	<g>
		<defs>
			<path id="SVGID_61_" d="M70.6,12.6L70.6,12.6C70.6,12.6,70.6,12.6,70.6,12.6L70.6,12.6z"/>
		</defs>
		<clipPath id="SVGID_62_">
			<use xlink:href="#SVGID_61_"  style="overflow:visible;"/>
		</clipPath>
		<g class="st51">
			<defs>
				<rect id="SVGID_63_" x="-98" y="-77" width="272.7" height="170.4"/>
			</defs>
			<clipPath id="SVGID_64_">
				<use xlink:href="#SVGID_63_"  style="overflow:visible;"/>
			</clipPath>
			<rect x="69.5" y="11.5" class="st52" width="2.1" height="2.2"/>
		</g>
	</g>
	<g>
		<defs>
			<path id="SVGID_65_" d="M70.6,12.1c0,0.2,0,0.3,0,0.5v0v0v0.1c0-0.1,0.1-0.2,0.1-0.3C70.6,12.3,70.6,12.2,70.6,12.1z"/>
		</defs>
		<clipPath id="SVGID_66_">
			<use xlink:href="#SVGID_65_"  style="overflow:visible;"/>
		</clipPath>
		<g class="st53">
			<defs>
				<rect id="SVGID_67_" x="-98" y="-77" width="272.7" height="170.4"/>
			</defs>
			<clipPath id="SVGID_68_">
				<use xlink:href="#SVGID_67_"  style="overflow:visible;"/>
			</clipPath>
			<rect x="69.5" y="11.1" class="st54" width="2.3" height="2.7"/>
		</g>
	</g>
	<g>
		<defs>
			<path id="SVGID_69_" d="M72.7,16.6L72.7,16.6L72.7,16.6z"/>
		</defs>
		<clipPath id="SVGID_70_">
			<use xlink:href="#SVGID_69_"  style="overflow:visible;"/>
		</clipPath>
		<g class="st55">
			<defs>
				<rect id="SVGID_71_" x="-98" y="-77" width="272.7" height="170.4"/>
			</defs>
			<clipPath id="SVGID_72_">
				<use xlink:href="#SVGID_71_"  style="overflow:visible;"/>
			</clipPath>
			<rect x="71.6" y="15.5" class="st56" width="2.1" height="2.1"/>
		</g>
	</g>
	<g>
		<defs>
			<path id="SVGID_73_" d="M72.5,16.3c0.1,0.1,0.2,0.2,0.2,0.3v0c0-0.2,0-0.3,0-0.5v0C72.7,16.2,72.6,16.3,72.5,16.3z"/>
		</defs>
		<clipPath id="SVGID_74_">
			<use xlink:href="#SVGID_73_"  style="overflow:visible;"/>
		</clipPath>
		<g class="st57">
			<defs>
				<rect id="SVGID_75_" x="-98" y="-77" width="272.7" height="170.4"/>
			</defs>
			<clipPath id="SVGID_76_">
				<use xlink:href="#SVGID_75_"  style="overflow:visible;"/>
			</clipPath>
			<rect x="71.5" y="15" class="st58" width="2.3" height="2.7"/>
		</g>
	</g>
	<g>
		<defs>
			<path id="SVGID_77_" d="M70.7,17.8c0,0.1,0,0.2,0,0.4c0,0,0,0,0,0C70.7,18,70.7,17.9,70.7,17.8z"/>
		</defs>
		<clipPath id="SVGID_78_">
			<use xlink:href="#SVGID_77_"  style="overflow:visible;"/>
		</clipPath>
		<g class="st59">
			<defs>
				<rect id="SVGID_79_" x="-98" y="-77" width="272.7" height="170.4"/>
			</defs>
			<clipPath id="SVGID_80_">
				<use xlink:href="#SVGID_79_"  style="overflow:visible;"/>
			</clipPath>
			<rect x="69.6" y="16.7" class="st60" width="2.1" height="2.5"/>
		</g>
	</g>
	<g>
		<defs>
			<path id="SVGID_81_" d="M70.7,17.8C70.7,17.8,70.7,17.8,70.7,17.8c0,0.1,0,0.2,0,0.3c0,0,0,0,0,0c0,0,0,0,0,0c0,0,0,0,0-0.1
				c0,0,0-0.1,0-0.1v0C70.7,17.9,70.7,17.8,70.7,17.8z"/>
		</defs>
		<clipPath id="SVGID_82_">
			<use xlink:href="#SVGID_81_"  style="overflow:visible;"/>
		</clipPath>
		<g class="st61">
			<defs>
				<rect id="SVGID_83_" x="-98" y="-77" width="272.7" height="170.4"/>
			</defs>
			<clipPath id="SVGID_84_">
				<use xlink:href="#SVGID_83_"  style="overflow:visible;"/>
			</clipPath>
			<rect x="69.6" y="16.7" class="st62" width="2.2" height="2.5"/>
		</g>
	</g>
	<g>
		<defs>
			<path id="SVGID_85_" d="M70.7,18.1C70.7,18.1,70.7,18.1,70.7,18.1c0,0.1,0,0.3,0,0.4c0-0.1,0-0.2,0-0.3c0-0.1,0-0.2,0-0.3
				C70.7,18,70.7,18,70.7,18.1C70.7,18.1,70.7,18.1,70.7,18.1z"/>
		</defs>
		<clipPath id="SVGID_86_">
			<use xlink:href="#SVGID_85_"  style="overflow:visible;"/>
		</clipPath>
		<g class="st63">
			<defs>
				<rect id="SVGID_87_" x="-98" y="-77" width="272.7" height="170.4"/>
			</defs>
			<clipPath id="SVGID_88_">
				<use xlink:href="#SVGID_87_"  style="overflow:visible;"/>
			</clipPath>
			<rect x="69.6" y="16.9" class="st64" width="2.2" height="2.7"/>
		</g>
	</g>
	<g>
		<defs>
			<polygon id="SVGID_89_" points="75,27 76.2,28.5 75.5,29 74.3,27.5 			"/>
		</defs>
		<clipPath id="SVGID_90_">
			<use xlink:href="#SVGID_89_"  style="overflow:visible;"/>
		</clipPath>
		<g class="st65">
			<defs>
				<rect id="SVGID_91_" x="-98" y="-77" width="272.7" height="170.4"/>
			</defs>
			<clipPath id="SVGID_92_">
				<use xlink:href="#SVGID_91_"  style="overflow:visible;"/>
			</clipPath>
			<rect x="73.3" y="25.9" class="st66" width="4.1" height="4.2"/>
		</g>
	</g>
	<g>
		<defs>
			<polygon id="SVGID_93_" points="61.5,15.7 61.6,13.7 62.5,13.8 62.3,15.7 			"/>
		</defs>
		<clipPath id="SVGID_94_">
			<use xlink:href="#SVGID_93_"  style="overflow:visible;"/>
		</clipPath>
		<g class="st67">
			<defs>
				<rect id="SVGID_95_" x="-98" y="-77" width="272.7" height="170.4"/>
			</defs>
			<clipPath id="SVGID_96_">
				<use xlink:href="#SVGID_95_"  style="overflow:visible;"/>
			</clipPath>
			<rect x="60.4" y="12.6" class="st68" width="3.1" height="4.2"/>
		</g>
	</g>
	<g>
		<defs>
			<polygon id="SVGID_97_" points="59.3,2.5 59.1,0.5 60,0.5 60.2,2.4 			"/>
		</defs>
		<clipPath id="SVGID_98_">
			<use xlink:href="#SVGID_97_"  style="overflow:visible;"/>
		</clipPath>
		<g class="st69">
			<defs>
				<rect id="SVGID_99_" x="-98" y="-77" width="272.7" height="170.4"/>
			</defs>
			<clipPath id="SVGID_100_">
				<use xlink:href="#SVGID_99_"  style="overflow:visible;"/>
			</clipPath>
			
				<rect x="57.7" y="-0.6" transform="matrix(0.7771 -0.6293 0.6293 0.7771 12.3556 37.8559)" class="st70" width="3.9" height="4.3"/>
		</g>
	</g>
	<g>
		<defs>
			<polygon id="SVGID_101_" points="0.4,27.3 2.4,27.1 2.4,28 0.5,28.2 			"/>
		</defs>
		<clipPath id="SVGID_102_">
			<use xlink:href="#SVGID_101_"  style="overflow:visible;"/>
		</clipPath>
		<g class="st71">
			<defs>
				<rect id="SVGID_103_" x="-98" y="-77" width="272.7" height="170.4"/>
			</defs>
			<clipPath id="SVGID_104_">
				<use xlink:href="#SVGID_103_"  style="overflow:visible;"/>
			</clipPath>
			<rect x="-0.7" y="26" class="st72" width="4.1" height="3.2"/>
		</g>
	</g>
	<g>
		<defs>
			<polygon id="SVGID_105_" points="21.2,2.4 19.8,0.9 20.5,0.4 21.8,1.7 			"/>
		</defs>
		<clipPath id="SVGID_106_">
			<use xlink:href="#SVGID_105_"  style="overflow:visible;"/>
		</clipPath>
		<g class="st73">
			<defs>
				<rect id="SVGID_107_" x="-98" y="-77" width="272.7" height="170.4"/>
			</defs>
			<clipPath id="SVGID_108_">
				<use xlink:href="#SVGID_107_"  style="overflow:visible;"/>
			</clipPath>
			<rect x="18.7" y="-0.7" class="st74" width="4.1" height="4.1"/>
		</g>
	</g>
	<g>
		<defs>
			<polygon id="SVGID_109_" points="46.6,3.1 48,4.5 47.4,5.1 46,3.8 			"/>
		</defs>
		<clipPath id="SVGID_110_">
			<use xlink:href="#SVGID_109_"  style="overflow:visible;"/>
		</clipPath>
		<g class="st75">
			<defs>
				<rect id="SVGID_111_" x="-98" y="-77" width="272.7" height="170.4"/>
			</defs>
			<clipPath id="SVGID_112_">
				<use xlink:href="#SVGID_111_"  style="overflow:visible;"/>
			</clipPath>
			<rect x="44.9" y="2.1" class="st76" width="4.2" height="4.1"/>
		</g>
	</g>
	<g>
		<defs>
			<polygon id="SVGID_113_" points="11.5,4.9 10.7,3.1 11.6,2.8 12.3,4.6 			"/>
		</defs>
		<clipPath id="SVGID_114_">
			<use xlink:href="#SVGID_113_"  style="overflow:visible;"/>
		</clipPath>
		<g class="st77">
			<defs>
				<rect id="SVGID_115_" x="-97" y="-86.9" width="272.7" height="170.4"/>
			</defs>
			<clipPath id="SVGID_116_">
				<use xlink:href="#SVGID_115_"  style="overflow:visible;"/>
			</clipPath>
			<rect x="9.7" y="1.7" class="st78" width="3.7" height="4.2"/>
		</g>
	</g>
	<g>
		<defs>
			<circle id="SVGID_117_" cx="70.3" cy="16.8" r="1.9"/>
		</defs>
		<clipPath id="SVGID_118_">
			<use xlink:href="#SVGID_117_"  style="overflow:visible;"/>
		</clipPath>
		<g class="st79">
			<defs>
				<rect id="SVGID_119_" x="-98" y="-77" width="272.7" height="170.4"/>
			</defs>
			<clipPath id="SVGID_120_">
				<use xlink:href="#SVGID_119_"  style="overflow:visible;"/>
			</clipPath>
			<rect x="67.3" y="13.8" class="st80" width="6" height="6"/>
		</g>
	</g>
	<g>
		<defs>
			<circle id="SVGID_121_" cx="5.5" cy="19.9" r="1.5"/>
		</defs>
		<clipPath id="SVGID_122_">
			<use xlink:href="#SVGID_121_"  style="overflow:visible;"/>
		</clipPath>
		<g class="st81">
			<defs>
				<rect id="SVGID_123_" x="-99.3" y="-80" width="272.7" height="170.4"/>
			</defs>
			<clipPath id="SVGID_124_">
				<use xlink:href="#SVGID_123_"  style="overflow:visible;"/>
			</clipPath>
			<rect x="3" y="17.3" class="st82" width="5.1" height="5.1"/>
		</g>
	</g>
	<g>
		<defs>
			<polygon id="SVGID_125_" points="4.2,3 7.1,4.7 5.4,7.6 2.5,5.9 			"/>
		</defs>
		<clipPath id="SVGID_126_">
			<use xlink:href="#SVGID_125_"  style="overflow:visible;"/>
		</clipPath>
		<g class="st83">
			<defs>
				<rect id="SVGID_127_" x="-95.5" y="-82.6" width="272.7" height="170.4"/>
			</defs>
			<clipPath id="SVGID_128_">
				<use xlink:href="#SVGID_127_"  style="overflow:visible;"/>
			</clipPath>
			<rect x="2.1" y="2.5" transform="matrix(0.5 -0.866 0.866 0.5 -2.1596 6.8166)" class="st84" width="5.5" height="5.5"/>
		</g>
	</g>
	<g>
		<defs>
			<path id="SVGID_129_" d="M69.1,8.8l0.4-2.9l2.3,1.8L69.1,8.8z M68.2,9.9l5.1-2.1L69,4.4L68.2,9.9z"/>
		</defs>
		<clipPath id="SVGID_130_">
			<use xlink:href="#SVGID_129_"  style="overflow:visible;"/>
		</clipPath>
		<g class="st85">
			<defs>
				<rect id="SVGID_131_" x="-98" y="-77" width="272.7" height="170.4"/>
			</defs>
			<clipPath id="SVGID_132_">
				<use xlink:href="#SVGID_131_"  style="overflow:visible;"/>
			</clipPath>
			<rect x="67.1" y="3.3" class="st86" width="7.2" height="7.7"/>
		</g>
	</g>
</g>
</svg>
