<?xml version="1.0" encoding="utf-8"?>
<!-- Generator: Adobe Illustrator 24.0.0, SVG Export Plug-In . SVG Version: 6.00 Build 0)  -->
<svg version="1.1" id="Layer_1" xmlns="http://www.w3.org/2000/svg" xmlns:xlink="http://www.w3.org/1999/xlink" x="0px" y="0px"
	 viewBox="0 0 341 166.8" style="enable-background:new 0 0 341 166.8;" xml:space="preserve">
<style type="text/css">
	.st0{clip-path:url(#SVGID_2_);}
	.st1{opacity:0.2;fill-rule:evenodd;clip-rule:evenodd;fill:#20279C;enable-background:new    ;}
	.st2{fill:#A53C2A;}
	.st3{opacity:0.1;fill:#02111E;enable-background:new    ;}
	.st4{clip-path:url(#SVGID_4_);}
	.st5{fill:#3F51B5;}
	.st6{opacity:0.38;fill:#617AE2;enable-background:new    ;}
	.st7{opacity:0.13;}
	.st8{fill:#FFFFFF;}
</style>
<g>
	<g>
		<defs>
			<path id="SVGID_1_" d="M8.9-141.9h1150.2c5.3,0,9.6,4.3,9.6,9.6V-36c0,5.3-4.3,9.6-9.6,9.6H8.9c-5.3,0-9.6-4.3-9.6-9.6v-96.3
				C-0.7-137.6,3.6-141.9,8.9-141.9z"/>
		</defs>
		<clipPath id="SVGID_2_">
			<use xlink:href="#SVGID_1_"  style="overflow:visible;"/>
		</clipPath>
		<g class="st0">
			<path class="st1" d="M238-13c0-4.5-50.2-8.2-112.2-8.2S13.6-17.6,13.6-13c0,2.5,14.9,4.7,38.5,6.2C61.2-6.2,70.3-4,78.7-0.2
				c6,2.6,12.1,4.8,18.4,6.4c20.9,5.5,39.1,5.1,40.7-0.9c0.4-1.5-0.3-3.1-1.7-4.8c-1.2-1.3-1.1-3.4,0.3-4.6c0.6-0.5,1.3-0.8,2.1-0.8
				C194.5-5.4,238-8.9,238-13z"/>
			<path class="st2" d="M121.2-21.3c0,0,0.1,4.7-1.7,7.1s-4.7,1.5-4.3,6.1s3.4,2.3,4,12.4c-0.6,1.3,1.3,1.7,1.3,1.7s9.6,2.1,10,0.6
				s-2.4-1-3-2.1s-2.3-11-2.3-12.9s1.4-5.9,1.4-5.9l-1.8-8.7"/>
			<path class="st2" d="M119.1,5.1c0-0.2,0-0.5,0-0.7C119,4.6,119,4.9,119.1,5.1z"/>
			<path class="st3" d="M124.3-22.7l-3.1,1.5c0,0,0.1,4.7-1.7,7.1s-4.7,1.5-4.3,6.1s3.4,2.3,4,12.4C118.8-7.4,119.4-8,120.4-10
				C121.2-11.8,123.6-14.3,124.3-22.7z"/>
		</g>
	</g>
</g>
<g>
	<g>
		<defs>
			<path id="SVGID_3_" d="M6.2,0h328.5c3.5,0,6.3,2.8,6.3,6.3v156.1c0,3.5-2.8,6.3-6.3,6.3H6.2c-3.5,0-6.3-2.8-6.3-6.3V6.2
				C0,2.8,2.8,0,6.2,0z"/>
		</defs>
		<clipPath id="SVGID_4_">
			<use xlink:href="#SVGID_3_"  style="overflow:visible;"/>
		</clipPath>
		<g class="st4">
			<path class="st5" d="M6.2,0h330.3c3.4,0,6.2,2.8,6.2,6.2v154.4c0,3.4-2.8,6.2-6.2,6.2H6.2c-3.4,0-6.2-2.8-6.2-6.2V6.2
				C0,2.8,2.8,0,6.2,0z"/>
			<path class="st6" d="M62.3,166.8L342.8,3.1l-0.4,162.7L62.3,166.8z"/>
			<g class="st7">
				<ellipse class="st8" cx="57.4" cy="14.2" rx="5.2" ry="5.2"/>
				<ellipse class="st8" cx="57.4" cy="26.6" rx="4.3" ry="4.3"/>
				<ellipse class="st8" cx="57.4" cy="37" rx="3.3" ry="3.3"/>
				<ellipse class="st8" cx="57.4" cy="46" rx="2.4" ry="2.4"/>
				<ellipse class="st8" cx="57.4" cy="53.2" rx="1.4" ry="1.4"/>
				<circle class="st8" cx="57.4" cy="58.9" r="0.5"/>
				<ellipse class="st8" cx="40.8" cy="17.1" rx="5.2" ry="5.2"/>
				<ellipse class="st8" cx="45.1" cy="28.9" rx="4.3" ry="4.3"/>
				<ellipse class="st8" cx="48.4" cy="38.4" rx="3.3" ry="3.3"/>
				<ellipse class="st8" cx="51.7" cy="47" rx="2.4" ry="2.4"/>
				<ellipse class="st8" cx="54.1" cy="54.1" rx="1.4" ry="1.4"/>
				<circle class="st8" cx="56" cy="59.3" r="0.5"/>
				<ellipse class="st8" cx="25.6" cy="25.6" rx="5.2" ry="5.2"/>
				<ellipse class="st8" cx="33.7" cy="35.1" rx="4.3" ry="4.3"/>
				<ellipse class="st8" cx="40.3" cy="43.2" rx="3.3" ry="3.3"/>
				<ellipse class="st8" cx="46" cy="49.8" rx="2.4" ry="2.4"/>
				<ellipse class="st8" cx="50.8" cy="55.5" rx="1.4" ry="1.4"/>
				<circle class="st8" cx="54.6" cy="59.8" r="0.5"/>
				<ellipse class="st8" cx="15.2" cy="37.5" rx="5.2" ry="5.2"/>
				<ellipse class="st8" cx="25.6" cy="43.7" rx="4.3" ry="4.3"/>
				<ellipse class="st8" cx="35.1" cy="48.9" rx="3.3" ry="3.3"/>
				<ellipse class="st8" cx="42.2" cy="54.6" rx="2.4" ry="2.4"/>
				<ellipse class="st8" cx="48.4" cy="58.4" rx="1.4" ry="1.4"/>
				<circle class="st8" cx="53.6" cy="61.2" r="0.5"/>
				<ellipse class="st8" cx="9" cy="55.1" rx="5.2" ry="5.2"/>
				<ellipse class="st8" cx="20.8" cy="57" rx="4.3" ry="4.3"/>
				<ellipse class="st8" cx="31.3" cy="58.9" rx="3.3" ry="3.3"/>
				<ellipse class="st8" cx="40.3" cy="60.8" rx="2.4" ry="2.4"/>
				<ellipse class="st8" cx="47.4" cy="61.7" rx="1.4" ry="1.4"/>
				<circle class="st8" cx="53.1" cy="62.7" r="0.5"/>
				<ellipse class="st8" cx="9" cy="72.2" rx="5.2" ry="5.2"/>
				<ellipse class="st8" cx="20.8" cy="70.3" rx="4.3" ry="4.3"/>
				<ellipse class="st8" cx="31.3" cy="68.4" rx="3.3" ry="3.3"/>
				<ellipse class="st8" cx="40.3" cy="66.5" rx="2.4" ry="2.4"/>
				<ellipse class="st8" cx="47.4" cy="65.5" rx="1.4" ry="1.4"/>
				<circle class="st8" cx="53.1" cy="64.6" r="0.5"/>
				<ellipse class="st8" cx="14.7" cy="88.3" rx="5.2" ry="5.2"/>
				<ellipse class="st8" cx="25.6" cy="82.2" rx="4.3" ry="4.3"/>
				<ellipse class="st8" cx="34.7" cy="76.9" rx="3.3" ry="3.3"/>
				<ellipse class="st8" cx="42.2" cy="72.7" rx="2.4" ry="2.4"/>
				<ellipse class="st8" cx="48.4" cy="68.8" rx="1.4" ry="1.4"/>
				<circle class="st8" cx="53.6" cy="66" r="0.5"/>
				<ellipse class="st8" cx="25.6" cy="101.6" rx="5.2" ry="5.2"/>
				<ellipse class="st8" cx="33.7" cy="92.1" rx="4.3" ry="4.3"/>
				<ellipse class="st8" cx="40.3" cy="84.1" rx="3.3" ry="3.3"/>
				<ellipse class="st8" cx="46" cy="77.4" rx="2.4" ry="2.4"/>
				<ellipse class="st8" cx="50.8" cy="71.7" rx="1.4" ry="1.4"/>
				<circle class="st8" cx="54.6" cy="67.4" r="0.5"/>
				<ellipse class="st8" cx="40.8" cy="110.2" rx="5.2" ry="5.2"/>
				<ellipse class="st8" cx="44.6" cy="98.8" rx="4.3" ry="4.3"/>
				<ellipse class="st8" cx="48.4" cy="88.8" rx="3.3" ry="3.3"/>
				<ellipse class="st8" cx="50.8" cy="79.8" rx="2.4" ry="2.4"/>
				<ellipse class="st8" cx="54.1" cy="73.1" rx="1.4" ry="1.4"/>
				<circle class="st8" cx="56" cy="67.9" r="0.5"/>
				<ellipse class="st8" cx="57.4" cy="113" rx="5.2" ry="5.2"/>
				<ellipse class="st8" cx="57.4" cy="100.7" rx="4.3" ry="4.3"/>
				<ellipse class="st8" cx="57.4" cy="90.2" rx="3.3" ry="3.3"/>
				<ellipse class="st8" cx="57.4" cy="81.2" rx="2.4" ry="2.4"/>
				<ellipse class="st8" cx="57.4" cy="74.1" rx="1.4" ry="1.4"/>
				<circle class="st8" cx="57.4" cy="68.4" r="0.5"/>
				<ellipse class="st8" cx="74.4" cy="110.2" rx="5.2" ry="5.2"/>
				<ellipse class="st8" cx="70.2" cy="98.8" rx="4.3" ry="4.3"/>
				<ellipse class="st8" cx="66.4" cy="88.8" rx="3.3" ry="3.3"/>
				<ellipse class="st8" cx="63.5" cy="80.3" rx="2.4" ry="2.4"/>
				<ellipse class="st8" cx="61.2" cy="73.1" rx="1.4" ry="1.4"/>
				<circle class="st8" cx="59.3" cy="67.9" r="0.5"/>
				<ellipse class="st8" cx="89.2" cy="101.6" rx="5.2" ry="5.2"/>
				<ellipse class="st8" cx="81.5" cy="92.1" rx="4.3" ry="4.3"/>
				<ellipse class="st8" cx="74.4" cy="84.1" rx="3.3" ry="3.3"/>
				<ellipse class="st8" cx="70.2" cy="78.8" rx="2.4" ry="2.4"/>
				<ellipse class="st8" cx="64" cy="71.7" rx="1.4" ry="1.4"/>
				<circle class="st8" cx="60.7" cy="67.4" r="0.5"/>
				<ellipse class="st8" cx="100.1" cy="88.3" rx="5.2" ry="5.2"/>
				<ellipse class="st8" cx="89.7" cy="82.2" rx="4.3" ry="4.3"/>
				<ellipse class="st8" cx="80.6" cy="76.9" rx="3.3" ry="3.3"/>
				<ellipse class="st8" cx="72.5" cy="72.7" rx="2.4" ry="2.4"/>
				<ellipse class="st8" cx="66.4" cy="68.8" rx="1.4" ry="1.4"/>
				<circle class="st8" cx="61.6" cy="66" r="0.5"/>
				<ellipse class="st8" cx="103.9" cy="73.6" rx="5.2" ry="5.2"/>
				<ellipse class="st8" cx="93.9" cy="70.3" rx="4.3" ry="4.3"/>
				<ellipse class="st8" cx="83.4" cy="68.4" rx="3.3" ry="3.3"/>
				<ellipse class="st8" cx="74.9" cy="66.5" rx="2.4" ry="2.4"/>
				<ellipse class="st8" cx="67.8" cy="65.5" rx="1.4" ry="1.4"/>
				<circle class="st8" cx="62.1" cy="64.6" r="0.5"/>
				<ellipse class="st8" cx="106.2" cy="55.1" rx="5.2" ry="5.2"/>
				<ellipse class="st8" cx="93.9" cy="57" rx="4.3" ry="4.3"/>
				<ellipse class="st8" cx="83.4" cy="58.9" rx="3.3" ry="3.3"/>
				<ellipse class="st8" cx="74.9" cy="60.8" rx="2.4" ry="2.4"/>
				<ellipse class="st8" cx="67.8" cy="61.7" rx="1.4" ry="1.4"/>
				<circle class="st8" cx="62.1" cy="62.7" r="0.5"/>
				<ellipse class="st8" cx="102" cy="39.4" rx="5.2" ry="5.2"/>
				<ellipse class="st8" cx="91.1" cy="45.6" rx="4.3" ry="4.3"/>
				<ellipse class="st8" cx="82" cy="50.8" rx="3.3" ry="3.3"/>
				<ellipse class="st8" cx="72.5" cy="54.6" rx="2.4" ry="2.4"/>
				<ellipse class="st8" cx="66.4" cy="58.4" rx="1.4" ry="1.4"/>
				<circle class="st8" cx="61.6" cy="61.2" r="0.5"/>
				<ellipse class="st8" cx="89.2" cy="25.6" rx="5.2" ry="5.2"/>
				<ellipse class="st8" cx="81" cy="35.1" rx="4.3" ry="4.3"/>
				<ellipse class="st8" cx="74.4" cy="43.2" rx="3.3" ry="3.3"/>
				<ellipse class="st8" cx="68.8" cy="50.3" rx="2.4" ry="2.4"/>
				<ellipse class="st8" cx="64" cy="55.5" rx="1.4" ry="1.4"/>
				<circle class="st8" cx="60.7" cy="59.8" r="0.5"/>
				<ellipse class="st8" cx="74.4" cy="17.1" rx="5.2" ry="5.2"/>
				<ellipse class="st8" cx="70.2" cy="28.5" rx="4.3" ry="4.3"/>
				<ellipse class="st8" cx="66.4" cy="38.4" rx="3.3" ry="3.3"/>
				<ellipse class="st8" cx="63.5" cy="47" rx="2.4" ry="2.4"/>
				<ellipse class="st8" cx="61.2" cy="54.1" rx="1.4" ry="1.4"/>
				<circle class="st8" cx="59.3" cy="59.3" r="0.5"/>
			</g>
		</g>
	</g>
</g>
</svg>
