<svg id="Layer_1" data-name="Layer 1" xmlns="http://www.w3.org/2000/svg" viewBox="0 0 227 158"><defs><style>.cls-1{fill:#eef5f8;}.cls-2{fill:#bbcdda;}.cls-3{fill:#ff5b00;fill-opacity:0.58;}.cls-4{fill:#ffd400;fill-opacity:0.5;}.cls-5{fill:#3f51b5;}.cls-11,.cls-5,.cls-6{opacity:0.48;}.cls-10,.cls-6{fill:#25b48b;}.cls-7{fill:#fff;}.cls-8{fill:none;}.cls-9{opacity:0.83;}.cls-11{fill:#1ce3e8;}</style></defs><g id="Registration-Page---Material"><g id="Verify-Email"><g id="Group-2"><g id="Group"><ellipse id="Oval" class="cls-1" cx="110.6" cy="79" rx="78.9" ry="79"/><path id="Rectangle" class="cls-2" d="M59.3,11.8H94a1.79,1.79,0,0,1,1.8,1.8h0A1.79,1.79,0,0,1,94,15.4H59.3a1.79,1.79,0,0,1-1.8-1.8h0A1.79,1.79,0,0,1,59.3,11.8Z"/><path id="Rectangle-2" data-name="Rectangle" class="cls-2" d="M49.8,0H65.3a1.79,1.79,0,0,1,1.8,1.8h0a1.79,1.79,0,0,1-1.8,1.8H49.8A1.79,1.79,0,0,1,48,1.8h0A1.68,1.68,0,0,1,49.8,0Z"/><path id="Rectangle-3" data-name="Rectangle" class="cls-2" d="M11.4,67.2H46A1.79,1.79,0,0,1,47.8,69h0A1.79,1.79,0,0,1,46,70.8H11.4A1.79,1.79,0,0,1,9.6,69h0A1.79,1.79,0,0,1,11.4,67.2Z"/><path id="Rectangle-4" data-name="Rectangle" class="cls-2" d="M1.8,55.4H17.3a1.79,1.79,0,0,1,1.8,1.8h0A1.79,1.79,0,0,1,17.3,59H1.8A1.79,1.79,0,0,1,0,57.2H0A1.79,1.79,0,0,1,1.8,55.4Z"/><path id="Rectangle-5" data-name="Rectangle" class="cls-2" d="M179.5,61.3h27.3a1.79,1.79,0,0,1,1.8,1.8h0a1.79,1.79,0,0,1-1.8,1.8H179.5a1.79,1.79,0,0,1-1.8-1.8h0A1.68,1.68,0,0,1,179.5,61.3Z"/><path id="Rectangle-6" data-name="Rectangle" class="cls-2" d="M175,114.4h21.4a1.79,1.79,0,0,1,1.8,1.8h0a1.79,1.79,0,0,1-1.8,1.8H175a1.79,1.79,0,0,1-1.8-1.8h0A1.86,1.86,0,0,1,175,114.4Z"/><path id="Rectangle-7" data-name="Rectangle" class="cls-2" d="M19.5,98.9H40.9a1.79,1.79,0,0,1,1.8,1.8h0a1.79,1.79,0,0,1-1.8,1.8H19.5a1.79,1.79,0,0,1-1.8-1.8h0A1.86,1.86,0,0,1,19.5,98.9Z"/><path id="Rectangle-8" data-name="Rectangle" class="cls-2" d="M191.3,125.5H206a1.79,1.79,0,0,1,1.8,1.8h0a1.79,1.79,0,0,1-1.8,1.8H191.3a1.79,1.79,0,0,1-1.8-1.8h0A1.68,1.68,0,0,1,191.3,125.5Z"/><circle id="Oval-2" data-name="Oval" class="cls-3" cx="37.2" cy="33.6" r="18.1"/><circle id="Oval-3" data-name="Oval" class="cls-4" cx="210.8" cy="94.5" r="16.2"/><circle id="Oval-4" data-name="Oval" class="cls-5" cx="29.8" cy="138.4" r="10.7"/><circle id="Oval-5" data-name="Oval" class="cls-6" cx="201.03" cy="18.8" r="5.84"/></g></g></g></g><path class="cls-7" d="M110.86,31.17,68.28,50.1V78.49c0,26.26,18.17,50.82,42.58,56.78,24.42-6,42.59-30.52,42.59-56.78V50.1Z"/><path class="cls-8" d="M60.5,29h105V134H60.5Z"/><path class="cls-8" d="M157.47,16.4h18v18h-18Z"/><path class="cls-8" d="M80.22,49.63H142.9v62.69H80.22Z"/><g class="cls-9"><path class="cls-10" d="M129.15,74.25v31.43H92.24V74.25h36.91m.56-6.51h-38a5.94,5.94,0,0,0-6,5.94v32.56a5.94,5.94,0,0,0,6,5.94h38a5.94,5.94,0,0,0,5.95-5.94V73.68a6,6,0,0,0-6-5.94Z"/><path class="cls-10" d="M110.7,52.13a9,9,0,0,1,9,9v5.38h-18V61.15a9,9,0,0,1,9-9m0-6.51h0A15.53,15.53,0,0,0,95.17,61.15V73h31.06V61.15A15.54,15.54,0,0,0,110.7,45.62Z"/></g><rect class="cls-8" x="176.45" y="129.96" width="18" height="18"/><path class="cls-11" d="M102.55,89.16a8.47,8.47,0,0,1,2.78-6.24l2.53,2.53V79.08h-6.37l2.34,2.34A10.57,10.57,0,0,0,110,99.71V97.57A8.49,8.49,0,0,1,102.55,89.16Zm19.09,0a10.6,10.6,0,0,0-9.54-10.55v2.14a8.45,8.45,0,0,1,4.64,14.65l-2.52-2.53v6.37h6.36l-2.33-2.34A10.53,10.53,0,0,0,121.64,89.16Z"/><polygon class="cls-10" points="117.04 86.54 109.54 94.04 105.05 89.54 106.54 88.05 109.54 91.05 115.55 85.05 117.04 86.54"/></svg>