<?xml version="1.0" encoding="UTF-8"?>
<svg width="161px" height="174px" viewBox="0 0 161 174" version="1.1" xmlns="http://www.w3.org/2000/svg" xmlns:xlink="http://www.w3.org/1999/xlink">
    <!-- Generator: Sketch 61.2 (89653) - https://sketch.com -->
    <title>thank_you_img</title>
    <desc>Created with Sketch.</desc>
    <g id="thank_you_img" stroke="none" stroke-width="1" fill="none" fill-rule="evenodd">
        <path d="M13.0013553,33 C20.239237,33 26,38.7613636 26,46 C26,53.2386364 20.239237,59 13.0013553,59 C5.76347366,59 0.00271068103,53.2386364 0.00271068103,46 L0.00271068103,46 C-0.14500119,38.7613636 5.76347366,33 13.0013553,33 Z" id="Path-3" fill="#7986C7"></path>
        <g id="Icon-24px" transform="translate(25.000000, 35.000000)">
            <polygon id="Shape" points="0 0 148 0 148 148 0 148"></polygon>
            <path d="M129.5,37 L117.166667,37 L117.166667,92.5 L37,92.5 L37,104.833333 C37,108.225 39.775,111 43.1666667,111 L111,111 L135.666667,135.666667 L135.666667,43.1666667 C135.666667,39.775 132.891667,37 129.5,37 L129.5,37 Z" id="Path" fill="#FFE66D"></path>
            <path d="M104.833333,74 L104.833333,18.5 C104.833333,15.1083333 102.058333,12.3333333 98.6666667,12.3333333 L18.5,12.3333333 C15.1083333,12.3333333 12.3333333,15.1083333 12.3333333,18.5 L12.3333333,104.833333 L37,80.1666667 L98.6666667,80.1666667 C102.058333,80.1666667 104.833333,77.3916667 104.833333,74 L104.833333,74 Z" id="Path" fill="#FF8C4C"></path>
        </g>
        <circle id="Oval" fill="#FFFFFF" cx="61.5" cy="81.5" r="6.5"></circle>
        <circle id="Oval" fill="#FFFFFF" cx="85.5" cy="76.5" r="6.5"></circle>
        <circle id="Oval" fill="#FFFFFF" cx="107.5" cy="76.5" r="6.5"></circle>
        <path d="M47.5,1 C58.2695526,1 67,9.73044738 67,20.5 C67,31.2695526 58.2695526,40 47.5,40 C36.7304474,40 28,31.2695526 28,20.5 C28,9.73044738 36.7304474,1 47.5,1 Z M47.5,7.825 C40.4997908,7.825 34.825,13.4997908 34.825,20.5 C34.825,27.5002092 40.4997908,33.175 47.5,33.175 C54.5002092,33.175 60.175,27.5002092 60.175,20.5 C60.175,13.4997908 54.5002092,7.825 47.5,7.825 Z" id="Combined-Shape" fill="#FFE66D"></path>
    </g>
</svg>