<?xml version="1.0" encoding="UTF-8"?>
<svg width="227px" height="158px" viewBox="0 0 227 158" version="1.1" xmlns="http://www.w3.org/2000/svg" xmlns:xlink="http://www.w3.org/1999/xlink">
    <!-- Generator: Sketch 61.2 (89653) - https://sketch.com -->
    <title>Group 2</title>
    <desc>Created with Sketch.</desc>
    <defs>
        <polygon id="path-1" points="0 0.16786563 2.98460538 0.16786563 2.98460538 3.10708183 0 3.10708183"></polygon>
        <polygon id="path-3" points="0.074210206 0.0539411875 3.05861538 0.0539411875 3.05861538 2.99316419 0.074210206 2.99316419"></polygon>
    </defs>
    <g id="Registration-Page---Material" stroke="none" stroke-width="1" fill="none" fill-rule="evenodd">
        <g id="Verify-Email" transform="translate(-527.000000, -324.000000)">
            <g id="Group-2" transform="translate(527.000000, 324.000000)">
                <g id="Group">
                    <ellipse id="Oval" fill="#EEF5F8" cx="110.551948" cy="79" rx="78.8603896" ry="79"></ellipse>
                    <g id="Group-11" transform="translate(58.224026, 15.504673)">
                        <path d="M3.55406551,42.7791661 L47.6955649,5.56219927 C51.4856389,2.36667894 57.0447767,2.4303032 60.7607222,5.71172983 L102.749093,42.7902501 C104.898681,44.6884793 106.12987,47.4182225 106.12987,50.2859749 L106.12987,104.439252 C106.12987,109.9621 101.652718,114.439252 96.1298701,114.439252 L10,114.439252 C4.4771525,114.439252 6.76353751e-16,109.9621 0,104.439252 L0,50.4244214 C-3.07199322e-15,47.4767438 1.30049067,44.6792199 3.55406551,42.7791661 Z" id="Rectangle" fill="#FDBE59"></path>
                        <path d="M21.4793886,9.59813084 L86.4850077,9.59813084 C92.0078552,9.59813084 96.4850077,14.0752833 96.4850077,19.5981308 C96.4850077,19.6192946 96.4849405,19.6404583 96.4848061,19.6616216 L96.2746836,52.7559139 L96.2746836,52.7559139 L59.9126252,79.8234724 C56.4333022,82.4134462 51.6810198,82.4651343 48.1461869,79.9514499 L11.0551948,53.5753654 L11.0551948,53.5753654 L11.480165,19.4735226 C11.5483786,13.9997013 16.0051424,9.59813084 21.4793886,9.59813084 Z" id="Rectangle" fill="#FFFFFF"></path>
                        <g id="Group-10" transform="translate(0.000000, 46.514019)">
                            <line x1="1.61002242" y1="0.13803332" x2="47.1688312" y2="31.7476636" id="Line" stroke="#EEF5F8" stroke-width="5" stroke-linecap="square"></line>
                            <line x1="104.587473" y1="0.201785997" x2="61.1720779" y2="31.7476636" id="Line" stroke="#EEF5F8" stroke-width="5" stroke-linecap="square"></line>
                            <path d="M0,60.5668318 L48.5481869,30.6087251 C51.8098335,28.5960287 55.9349075,28.6245862 59.1683755,30.6822474 L106.12987,60.5668318 L106.12987,60.5668318 C106.12987,64.6307649 102.835401,67.9252336 98.7714683,67.9252336 L7.35840181,67.9252336 C3.29446871,67.9252336 4.97688266e-16,64.6307649 0,60.5668318 L0,60.5668318 L0,60.5668318 Z" id="Rectangle" fill="#FF9D00"></path>
                        </g>
                    </g>
                    <rect id="Rectangle" fill="#BBCDDA" x="57.487013" y="11.8130841" width="38.3246753" height="3.69158879" rx="1.84579439"></rect>
                    <rect id="Rectangle" fill="#BBCDDA" x="47.9058442" y="0" width="19.1623377" height="3.69158879" rx="1.84579439"></rect>
                    <rect id="Rectangle" fill="#BBCDDA" x="9.58116883" y="67.1869159" width="38.3246753" height="3.69158879" rx="1.84579439"></rect>
                    <rect id="Rectangle" fill="#BBCDDA" x="0" y="55.3738318" width="19.1623377" height="3.69158879" rx="1.84579439"></rect>
                    <rect id="Rectangle" fill="#BBCDDA" x="177.62013" y="61.2803738" width="30.9545455" height="3.69158879" rx="1.84579439"></rect>
                    <rect id="Rectangle" fill="#BBCDDA" x="173.198052" y="114.439252" width="25.0584416" height="3.69158879" rx="1.84579439"></rect>
                    <rect id="Rectangle" fill="#BBCDDA" x="17.6883117" y="98.9345794" width="25.0584416" height="3.69158879" rx="1.84579439"></rect>
                    <rect id="Rectangle" fill="#BBCDDA" x="189.412338" y="125.514019" width="18.4253247" height="3.69158879" rx="1.84579439"></rect>
                    <ellipse id="Oval" fill-opacity="0.583615603" fill="#FF5B00" cx="37.2191558" cy="33.5934579" rx="18.0568182" ry="18.088785"></ellipse>
                    <g id="Group-5" transform="translate(151.087662, 7.383178)">
                        <polygon id="Fill-1" fill="#94C3C4" points="8.10714286 10.0084196 17.4423728 26.5794393 62.6461039 0"></polygon>
                        <polygon id="Fill-2" fill="#76ABAC" points="15.4772727 13.659024 17.6641222 26.5794393 61.9090909 0.738317757"></polygon>
                        <polygon id="Fill-3" fill="#D1F8F9" points="15.4772727 13.6307792 39.7357291 24.364486 62.6461039 0"></polygon>
                        <polygon id="Fill-4" fill="#D1F8F9" points="0 7.72687502 8.28159329 10.3364486 62.6461039 0"></polygon>
                    </g>
                    <ellipse id="Oval" fill-opacity="0.496230332" fill="#FFD400" cx="210.785714" cy="94.5046729" rx="16.2142857" ry="16.2429907"></ellipse>
                    <ellipse id="Oval" fill="#D1F8F9" cx="29.849026" cy="138.434579" rx="10.6866883" ry="10.7056075"></ellipse>
                </g>
                <g id="LP-icon" transform="translate(98.000000, 41.000000)">
                    <g id="Group-219">
                        <path d="M13.4222077,1.46977273 C13.4222077,0.658181818 14.0905154,0 14.9145923,0 C15.7386692,0 16.4069769,0.658181818 16.4069769,1.46977273 C16.4069769,2.28136364 15.7386692,2.93931818 14.9145923,2.93931818 C14.0905154,2.93931818 13.4222077,2.28136364 13.4222077,1.46977273" id="Fill-1" fill="#FF5B00"></path>
                        <path d="M13.7208,4.80463636 C13.7208,4.15531818 14.2550308,3.62895455 14.9145692,3.62895455 C15.5738769,3.62895455 16.1083385,4.15531818 16.1083385,4.80463636 C16.1083385,5.45395455 15.5738769,5.98031818 14.9145692,5.98031818 C14.2550308,5.98031818 13.7208,5.45395455 13.7208,4.80463636" id="Fill-3" fill="#FF9D00"></path>
                        <path d="M13.9594615,7.66206818 C13.9594615,7.14252273 14.3873077,6.72138636 14.9146154,6.72138636 C15.4421538,6.72138636 15.8695385,7.14252273 15.8695385,7.66206818 C15.8695385,8.18161364 15.4421538,8.60252273 14.9146154,8.60252273 C14.3873077,8.60252273 13.9594615,8.18161364 13.9594615,7.66206818" id="Fill-5" fill="#FFD400"></path>
                        <path d="M14.2258385,10.0923864 C14.2258385,9.71784091 14.5341462,9.41397727 14.9144538,9.41397727 C15.2949923,9.41397727 15.6033,9.71784091 15.6033,10.0923864 C15.6033,10.4669318 15.2949923,10.7707955 14.9144538,10.7707955 C14.5341462,10.7707955 14.2258385,10.4669318 14.2258385,10.0923864" id="Fill-7" fill="#B3ED00"></path>
                        <path d="M14.5064077,12.0956591 C14.5064077,11.8736136 14.6891769,11.6936136 14.9146385,11.6936136 C15.1398692,11.6936136 15.3226385,11.8736136 15.3226385,12.0956591 C15.3226385,12.3177045 15.1398692,12.4977045 14.9146385,12.4977045 C14.6891769,12.4977045 14.5064077,12.3177045 14.5064077,12.0956591" id="Fill-9" fill="#0FEAAC"></path>
                        <path d="M14.7360462,13.6214318 C14.7360462,13.5243864 14.8158923,13.44575 14.9144308,13.44575 C15.0132,13.44575 15.0930462,13.5243864 15.0930462,13.6214318 C15.0930462,13.7187045 15.0132,13.7973409 14.9144308,13.7973409 C14.8158923,13.7973409 14.7360462,13.7187045 14.7360462,13.6214318" id="Fill-11" fill="#1CE3E8"></path>
                        <path d="M8.84986154,2.78190909 C8.56786154,2.01940909 8.96732308,1.17622727 9.74132308,0.898727273 C10.5157846,0.621227273 11.3719385,1.01440909 11.6534769,1.77690909 C11.9354769,2.53940909 11.5362462,3.38259091 10.7620154,3.66009091 C9.98778462,3.93759091 9.13163077,3.54440909 8.84986154,2.78190909" id="Fill-13" fill="#FF5B00"></path>
                        <path d="M10.2883385,5.81513636 C10.0628769,5.20513636 10.3822615,4.53059091 11.0016462,4.30854545 C11.6210308,4.0865 12.3059538,4.40104545 12.5314154,5.01104545 C12.7566462,5.62104545 12.4374923,6.29559091 11.8181077,6.51763636 C11.1984923,6.73968182 10.5138,6.42513636 10.2883385,5.81513636" id="Fill-15" fill="#FF9D00"></path>
                        <path d="M11.5050692,8.41990909 C11.3246077,7.93195455 11.5800692,7.39240909 12.0757615,7.21468182 C12.5712231,7.03718182 13.1190692,7.28854545 13.2993,7.7765 C13.4797615,8.26468182 13.2243,8.80422727 12.7288385,8.98195455 C12.2331462,9.15945455 11.6853,8.90786364 11.5050692,8.41990909" id="Fill-17" fill="#FFD400"></path>
                        <path d="M12.5989615,10.6140682 C12.4690385,10.2620227 12.6531923,9.87270455 13.0106538,9.74452273 C13.3681154,9.61634091 13.7634231,9.79793182 13.8933462,10.1499773 C14.0235,10.5020227 13.8393462,10.8913409 13.4816538,11.0195227 C13.1241923,11.1477045 12.7288846,10.9661136 12.5989615,10.6140682" id="Fill-19" fill="#B3ED00"></path>
                        <path d="M13.5585462,12.4019545 C13.4814692,12.1933182 13.5906231,11.9626364 13.8024692,11.8867273 C14.0143154,11.8108182 14.2483154,11.9185455 14.3253923,12.1271818 C14.4024692,12.3355909 14.2933154,12.5662727 14.0814692,12.6421818 C13.8698538,12.7180909 13.6356231,12.6103636 13.5585462,12.4019545" id="Fill-21" fill="#0FEAAC"></path>
                        <path d="M14.3040462,13.7583636 C14.2703538,13.6672273 14.3181231,13.5663182 14.4108923,13.5331364 C14.5034308,13.4997273 14.6058923,13.5467727 14.6395846,13.6383636 C14.6735077,13.7295 14.6257385,13.8301818 14.5327385,13.8635909 C14.4402,13.8967727 14.3377385,13.8497273 14.3040462,13.7583636" id="Fill-23" fill="#1CE3E8"></path>
                        <path d="M5.00836154,5.55559091 C4.47851538,4.93377273 4.56113077,4.00695455 5.19228462,3.48513636 C5.82343846,2.96331818 6.76474615,3.04445455 7.29459231,3.66627273 C7.82420769,4.28809091 7.74205385,5.21490909 7.11043846,5.73672727 C6.47928462,6.25854545 5.53797692,6.17740909 5.00836154,5.55559091" id="Fill-25" fill="#FF5B00"></path>
                        <path d="M7.41341538,7.92129545 C6.98972308,7.42379545 7.05549231,6.68220455 7.56064615,6.26493182 C8.06556923,5.84743182 8.8188,5.91243182 9.24249231,6.40993182 C9.66641538,6.90720455 9.60041538,7.64879545 9.09526154,8.06606818 C8.59033846,8.48356818 7.83733846,8.41856818 7.41341538,7.92129545" id="Fill-27" fill="#FF9D00"></path>
                        <path d="M9.46149231,9.95909091 C9.12226154,9.56113636 9.17510769,8.96795455 9.57918462,8.63386364 C9.98326154,8.3 10.5855692,8.35204545 10.9245692,8.75 C11.2638,9.14772727 11.2109538,9.74113636 10.8068769,10.075 C10.4028,10.4088636 9.80049231,10.3568182 9.46149231,9.95909091" id="Fill-29" fill="#FFD400"></path>
                        <path d="M11.2515231,11.6522045 C11.0069077,11.3651591 11.0449846,10.9374318 11.3364462,10.6965227 C11.6279077,10.4558409 12.0624462,10.4931136 12.3068308,10.7801591 C12.5514462,11.0672045 12.5133692,11.4951591 12.2219077,11.7358409 C11.9304462,11.97675 11.4961385,11.93925 11.2515231,11.6522045" id="Fill-31" fill="#B3ED00"></path>
                        <path d="M12.7740692,13.0090909 C12.6291462,12.8390909 12.6517615,12.5856818 12.8243769,12.4429545 C12.9969923,12.3002273 13.2545308,12.3225 13.3994538,12.4925 C13.5443769,12.6625 13.5217615,12.9161364 13.3489154,13.0588636 C13.1763,13.2015909 12.9189923,13.1793182 12.7740692,13.0090909" id="Fill-33" fill="#0FEAAC"></path>
                        <path d="M13.9457077,14.0327045 C13.8824769,13.9583864 13.8924,13.8474773 13.9678615,13.7849773 C14.0433231,13.7227045 14.1559385,13.73225 14.2194,13.8067955 C14.2828615,13.8811136 14.2729385,13.9920227 14.1974769,14.0545227 C14.1220154,14.1167955 14.0091692,14.1070227 13.9457077,14.0327045" id="Fill-35" fill="#1CE3E8"></path>
                        <path d="M2.36566154,9.45684091 C1.65212308,9.05115909 1.40750769,8.15229545 1.81966154,7.44956818 C2.23158462,6.74684091 3.14404615,6.50593182 3.85758462,6.91184091 C4.57135385,7.31752273 4.81596923,8.21615909 4.40381538,8.91888636 C3.99166154,9.62184091 3.0792,9.86275 2.36566154,9.45684091" id="Fill-37" fill="#FF5B00"></path>
                        <path d="M5.44737692,10.86975 C4.87645385,10.5452045 4.68099231,9.82611364 5.0103,9.26406818 C5.34006923,8.70156818 6.06999231,8.50906818 6.64091538,8.83361364 C7.21183846,9.15838636 7.40753077,9.87725 7.07776154,10.4395227 C6.74845385,11.0017955 6.0183,11.1942955 5.44737692,10.86975" id="Fill-39" fill="#FF9D00"></path>
                        <path d="M8.07934615,12.0948864 C7.62265385,11.8351136 7.46619231,11.2601136 7.72973077,10.8103409 C7.9935,10.3603409 8.57757692,10.20625 9.0345,10.4660227 C9.49096154,10.7257955 9.64742308,11.3007955 9.38365385,11.7505682 C9.12011538,12.2003409 8.53603846,12.3546591 8.07934615,12.0948864" id="Fill-41" fill="#FFD400"></path>
                        <path d="M10.3496308,13.083 C10.0200923,12.8957273 9.90724615,12.4809545 10.0974,12.1564091 C10.2875538,11.8320909 10.7089385,11.7207273 11.0382462,11.9082273 C11.3677846,12.0955 11.4806308,12.5102727 11.2904769,12.8348182 C11.1003231,13.1593636 10.6791692,13.2702727 10.3496308,13.083" id="Fill-43" fill="#B3ED00"></path>
                        <path d="M12.2514462,13.8453636 C12.0562154,13.7344545 11.9892923,13.4885455 12.1021385,13.2962727 C12.2147538,13.104 12.4644462,13.0380909 12.6596769,13.1492273 C12.8546769,13.2601364 12.9216,13.5060455 12.8089846,13.6983182 C12.6963692,13.8903636 12.4466769,13.9562727 12.2514462,13.8453636" id="Fill-45" fill="#0FEAAC"></path>
                        <path d="M13.7079692,14.4124545 C13.6228154,14.3638182 13.5935077,14.2563182 13.6428923,14.1722273 C13.6920462,14.0881364 13.8012,14.0592727 13.8865846,14.1079091 C13.9722,14.1565455 14.0012769,14.2640455 13.9521231,14.3481364 C13.9027385,14.4322273 13.7933538,14.4610909 13.7079692,14.4124545" id="Fill-47" fill="#1CE3E8"></path>
                        <g id="Group-51" transform="translate(0.000000, 10.928636)">
                            <mask id="mask-2" fill="white">
                                <use xlink:href="#path-1"></use>
                            </mask>
                            <g id="Clip-50"></g>
                            <path d="M1.23323077,3.08452273 C0.421615385,2.94361364 -0.120230769,2.18134091 0.0228461538,1.38225 C0.165923077,0.583159091 0.939923077,0.0495227273 1.75130769,0.190431818 C2.56292308,0.331340909 3.10476923,1.09338636 2.96169231,1.89270455 C2.81861538,2.69156818 2.04461538,3.22543182 1.23323077,3.08452273" id="Fill-49" fill="#FF5B00" mask="url(#mask-2)"></path>
                        </g>
                        <path d="M4.61960769,14.3027955 C3.97045385,14.1900682 3.53706923,13.5802955 3.65153077,12.9409773 C3.76599231,12.3016591 4.38491538,11.8746136 5.0343,11.9873409 C5.68322308,12.1002955 6.11683846,12.7098409 6.00237692,13.3493864 C5.88791538,13.9884773 5.26876154,14.4155227 4.61960769,14.3027955" id="Fill-52" fill="#FF9D00"></path>
                        <path d="M7.51843846,14.5673636 C6.99920769,14.4773636 6.65236154,13.9894091 6.74397692,13.4780455 C6.83559231,12.9664545 7.33082308,12.6248636 7.85005385,12.7153182 C8.36951538,12.8053182 8.71613077,13.2932727 8.62474615,13.8046364 C8.5329,14.3162273 8.0379,14.6575909 7.51843846,14.5673636" id="Fill-54" fill="#FFD400"></path>
                        <path d="M9.99491538,14.7313864 C9.62037692,14.6663864 9.37022308,14.3145682 9.43622308,13.9454773 C9.50222308,13.5766136 9.85945385,13.33025 10.2342231,13.39525 C10.6087615,13.46025 10.8589154,13.8122955 10.7929154,14.1811591 C10.7269154,14.5500227 10.3694538,14.7963864 9.99491538,14.7313864" id="Fill-56" fill="#B3ED00"></path>
                        <path d="M12.0468231,14.8070682 C11.8248231,14.7684318 11.6766692,14.5600227 11.7156692,14.3413864 C11.7549,14.12275 11.9665154,13.9768409 12.1885154,14.0154773 C12.4105154,14.0541136 12.5589,14.2625227 12.5196692,14.4809318 C12.4804385,14.6995682 12.2688231,14.8454773 12.0468231,14.8070682" id="Fill-58" fill="#0FEAAC"></path>
                        <path d="M13.6126385,14.8494545 C13.5154846,14.8326364 13.4506385,14.7412727 13.4677154,14.6458182 C13.4847923,14.5501364 13.5775615,14.4860455 13.6747154,14.5030909 C13.7716385,14.5199091 13.8364846,14.6110455 13.8194077,14.7067273 C13.8021,14.8024091 13.7095615,14.8660455 13.6126385,14.8494545" id="Fill-60" fill="#1CE3E8"></path>
                        <path d="M1.75144615,18.6760227 C0.939830769,18.8169318 0.166061538,18.2832955 0.0229846154,17.4842045 C-0.120092308,16.6848864 0.421753846,15.9228409 1.23313846,15.7819318 C2.04475385,15.6410227 2.81852308,16.1746591 2.9616,16.97375 C3.10467692,17.7728409 2.56283077,18.5351136 1.75144615,18.6760227" id="Fill-62" fill="#FF5B00"></path>
                        <path d="M5.03427692,17.8075682 C4.38512308,17.9202955 3.76596923,17.49325 3.65150769,16.8541591 C3.53704615,16.2146136 3.97066154,15.6050682 4.61981538,15.4921136 C5.26896923,15.3793864 5.88789231,15.8064318 6.00235385,16.44575 C6.11681538,17.0850682 5.68343077,17.6948409 5.03427692,17.8075682" id="Fill-64" fill="#FF9D00"></path>
                        <path d="M7.85016923,17.0797955 C7.33070769,17.1697955 6.83570769,16.8286591 6.74386154,16.3170682 C6.65247692,15.8057045 6.99909231,15.31775 7.51855385,15.22775 C8.03778462,15.1372955 8.53324615,15.4788864 8.62463077,15.9904773 C8.71624615,16.5018409 8.36963077,16.9897955 7.85016923,17.0797955" id="Fill-66" fill="#FFD400"></path>
                        <path d="M10.2342462,16.39975 C9.85947692,16.46475 9.50224615,16.2183864 9.43624615,15.8495227 C9.37024615,15.4804318 9.6204,15.1286136 9.99493846,15.0636136 C10.3697077,14.9986136 10.7269385,15.2449773 10.7929385,15.6138409 C10.8589385,15.9827045 10.6087846,16.33475 10.2342462,16.39975" id="Fill-68" fill="#B3ED00"></path>
                        <path d="M12.1885846,15.7796364 C11.9665846,15.8182727 11.7549692,15.6721364 11.7157385,15.4535 C11.6767385,15.2350909 11.8248923,15.0266818 12.0468923,14.9880455 C12.2688923,14.9496364 12.4805077,15.0953182 12.5197385,15.3139545 C12.5587385,15.5325909 12.4105846,15.741 12.1885846,15.7796364" id="Fill-70" fill="#0FEAAC"></path>
                        <path d="M13.6746,15.2920227 C13.5774462,15.3088409 13.4849077,15.2449773 13.4678308,15.1492955 C13.4505231,15.0536136 13.5156,14.9624773 13.6125231,14.9456591 C13.7096769,14.9286136 13.8024462,14.9927045 13.8195231,15.0883864 C13.8366,15.1838409 13.7717538,15.2752045 13.6746,15.2920227" id="Fill-72" fill="#1CE3E8"></path>
                        <path d="M3.85564615,22.88525 C3.14210769,23.2909318 2.22964615,23.05025 1.81749231,22.3475227 C1.40556923,21.6445682 1.64995385,20.7459318 2.36372308,20.34025 C3.07726154,19.9345682 3.98972308,20.17525 4.40187692,20.8779773 C4.8138,21.5809318 4.56941538,22.4795682 3.85564615,22.88525" id="Fill-74" fill="#FF5B00"></path>
                        <path d="M6.63906923,20.9634091 C6.06791538,21.2879545 5.33799231,21.0952273 5.00845385,20.5329545 C4.67891538,19.9709091 4.87460769,19.2518182 5.4453,18.9272727 C6.01622308,18.6025 6.74637692,18.7952273 7.07591538,19.3577273 C7.40545385,19.9197727 7.20999231,20.6386364 6.63906923,20.9634091" id="Fill-76" fill="#FF9D00"></path>
                        <path d="M9.0324,19.331 C8.57570769,19.5907727 7.99163077,19.4366818 7.72809231,18.9866818 C7.46409231,18.5369091 7.62078462,17.9619091 8.07724615,17.7021364 C8.53416923,17.4423636 9.11801538,17.5964545 9.38201538,18.0464545 C9.64555385,18.4962273 9.48909231,19.0712273 9.0324,19.331" id="Fill-78" fill="#FFD400"></path>
                        <path d="M11.0363077,17.8887955 C10.707,18.0760682 10.2856154,17.9649318 10.0954615,17.6406136 C9.90530769,17.3160682 10.0181538,16.9012955 10.3476923,16.7140227 C10.677,16.52675 11.0983846,16.6376591 11.2885385,16.9622045 C11.4786923,17.28675 11.3658462,17.7015227 11.0363077,17.8887955" id="Fill-80" fill="#B3ED00"></path>
                        <path d="M12.6575538,16.6478864 C12.4623231,16.7587955 12.2128615,16.6928864 12.1000154,16.5008409 C11.9874,16.3085682 12.0543231,16.0626591 12.2493231,15.95175 C12.4445538,15.8406136 12.6942462,15.9065227 12.8068615,16.0987955 C12.9197077,16.2910682 12.8527846,16.5369773 12.6575538,16.6478864" id="Fill-82" fill="#0FEAAC"></path>
                        <path d="M13.8846462,15.6890909 C13.7992615,15.7377273 13.6898769,15.7088636 13.6407231,15.6247727 C13.5913385,15.5406818 13.6206462,15.4331818 13.7062615,15.3845455 C13.7916462,15.3359091 13.9005692,15.3647727 13.9499538,15.4488636 C13.9993385,15.5329545 13.9700308,15.6404545 13.8846462,15.6890909" id="Fill-84" fill="#1CE3E8"></path>
                        <path d="M7.29826154,26.1260909 C6.76841538,26.7476818 5.82733846,26.8290455 5.19595385,26.3072273 C4.56456923,25.7854091 4.48218462,24.8585909 5.01203077,24.2367727 C5.54187692,23.6149545 6.48295385,23.5340455 7.11433846,24.0556364 C7.74549231,24.5774545 7.82787692,25.5042727 7.29826154,26.1260909" id="Fill-86" fill="#FF5B00"></path>
                        <path d="M9.24604615,23.3826136 C8.82235385,23.8798864 8.06935385,23.9448864 7.5642,23.5273864 C7.05904615,23.1101136 6.99327692,22.3685227 7.4172,21.87125 C7.84089231,21.3735227 8.59389231,21.30875 9.09881538,21.72625 C9.6042,22.1435227 9.66996923,22.8851136 9.24604615,23.3826136" id="Fill-88" fill="#FF9D00"></path>
                        <path d="M10.9281462,21.0424318 C10.5891462,21.4403864 9.98683846,21.4922045 9.58276154,21.1583409 C9.17868462,20.8244773 9.12583846,20.2312955 9.46506923,19.8333409 C9.80406923,19.4353864 10.4063769,19.3833409 10.8104538,19.7174318 C11.2145308,20.0512955 11.2673769,20.6444773 10.9281462,21.0424318" id="Fill-90" fill="#FFD400"></path>
                        <path d="M12.3105,19.0120682 C12.0658846,19.2991136 11.6315769,19.3366136 11.3401154,19.0957045 C11.0486538,18.8550227 11.0105769,18.4270682 11.2551923,18.1400227 C11.4995769,17.8529773 11.9341154,17.8154773 12.2255769,18.0563864 C12.5170385,18.2970682 12.5551154,18.7250227 12.3105,19.0120682" id="Fill-92" fill="#B3ED00"></path>
                        <path d="M13.4030538,17.2999773 C13.2581308,17.4699773 13.0008231,17.49225 12.8279769,17.3495227 C12.6553615,17.2067955 12.6327462,16.9533864 12.7776692,16.7831591 C12.9225923,16.6131591 13.1799,16.5908864 13.3527462,16.7336136 C13.5253615,16.8763409 13.5479769,17.12975 13.4030538,17.2999773" id="Fill-94" fill="#0FEAAC"></path>
                        <path d="M14.2231385,15.9856136 C14.1596769,16.0599318 14.0470615,16.0697045 13.9713692,16.0074318 C13.8959077,15.9449318 13.8859846,15.8340227 13.9494462,15.7597045 C14.0129077,15.6851591 14.1255231,15.6756136 14.2009846,15.7378864 C14.2764462,15.8003864 14.2863692,15.9112955 14.2231385,15.9856136" id="Fill-96" fill="#1CE3E8"></path>
                        <path d="M11.6574,28.0155227 C11.3754,28.7777955 10.5192462,29.1712045 9.74524615,28.8934773 C8.97078462,28.6162045 8.57178462,27.7730227 8.85355385,27.0102955 C9.13532308,26.2480227 9.99147692,25.8548409 10.7657077,26.1323409 C11.5399385,26.4098409 11.9391692,27.2530227 11.6574,28.0155227" id="Fill-98" fill="#FF5B00"></path>
                        <path d="M12.5351769,24.7813182 C12.3094846,25.3913182 11.6247923,25.7056364 11.0054077,25.4838182 C10.3860231,25.2617727 10.0666385,24.5872273 10.2918692,23.9772273 C10.5175615,23.3672273 11.2024846,23.0529091 11.8216385,23.2747273 C12.4412538,23.4967727 12.7606385,24.1710909 12.5351769,24.7813182" id="Fill-100" fill="#FF9D00"></path>
                        <path d="M13.3032,22.0156591 C13.1227385,22.5036136 12.5748923,22.7554318 12.0792,22.5779318 C11.5839692,22.3999773 11.3282769,21.8604318 11.5087385,21.3724773 C11.6889692,20.8842955 12.2370462,20.6329318 12.7322769,20.8104318 C13.2279692,20.9881591 13.4834308,21.5279318 13.3032,22.0156591" id="Fill-102" fill="#FFD400"></path>
                        <path d="M13.8972692,19.6423864 C13.7671154,19.9944318 13.3718077,20.1760227 13.0143462,20.0478409 C12.6568846,19.9196591 12.4725,19.5303409 12.6028846,19.1782955 C12.7328077,18.82625 13.1281154,18.6446591 13.4855769,18.7728409 C13.8430385,18.9010227 14.0271923,19.2903409 13.8972692,19.6423864" id="Fill-104" fill="#B3ED00"></path>
                        <path d="M14.3290615,17.6652955 C14.2519846,17.8739318 14.0177538,17.9814318 13.8059077,17.9055227 C13.5942923,17.8296136 13.4851385,17.5989318 13.5622154,17.3905227 C13.6392923,17.1818864 13.8732923,17.0741591 14.0851385,17.1500682 C14.2969846,17.2262045 14.4061385,17.4568864 14.3290615,17.6652955" id="Fill-106" fill="#0FEAAC"></path>
                        <path d="M14.6432077,16.1540682 C14.6095154,16.2454318 14.5070538,16.2924773 14.4145154,16.2592955 C14.3217462,16.2258864 14.2739769,16.1252045 14.3079,16.0340682 C14.3413615,15.9424773 14.4440538,15.8956591 14.5365923,15.9288409 C14.6291308,15.9620227 14.6769,16.0629318 14.6432077,16.1540682" id="Fill-108" fill="#1CE3E8"></path>
                        <path d="M16.4104846,28.3227045 C16.4104846,29.1342955 15.7421769,29.79225 14.9181,29.79225 C14.0940231,29.79225 13.4257154,29.1342955 13.4257154,28.3227045 C13.4257154,27.5111136 14.0940231,26.8529318 14.9181,26.8529318 C15.7421769,26.8529318 16.4104846,27.5111136 16.4104846,28.3227045" id="Fill-110" fill="#FF5B00"></path>
                        <path d="M16.1121,24.9877273 C16.1121,25.6370455 15.5776385,26.1636364 14.9181,26.1636364 C14.2587923,26.1636364 13.7243308,25.6370455 13.7243308,24.9877273 C13.7243308,24.3386364 14.2587923,23.8120455 14.9181,23.8120455 C15.5776385,23.8120455 16.1121,24.3386364 16.1121,24.9877273" id="Fill-112" fill="#FF9D00"></path>
                        <path d="M15.8732308,22.1304091 C15.8732308,22.6497273 15.4456154,23.0710909 14.9180769,23.0710909 C14.3907692,23.0710909 13.9631538,22.6497273 13.9631538,22.1304091 C13.9631538,21.6108636 14.3907692,21.1897273 14.9180769,21.1897273 C15.4456154,21.1897273 15.8732308,21.6108636 15.8732308,22.1304091" id="Fill-114" fill="#FFD400"></path>
                        <path d="M15.6070615,19.7000909 C15.6070615,20.0746364 15.2985231,20.3782727 14.9182154,20.3782727 C14.5376769,20.3782727 14.2293692,20.0746364 14.2293692,19.7000909 C14.2293692,19.3255455 14.5376769,19.0216818 14.9182154,19.0216818 C15.2985231,19.0216818 15.6070615,19.3255455 15.6070615,19.7000909" id="Fill-116" fill="#B3ED00"></path>
                        <path d="M15.3262615,17.6968182 C15.3262615,17.9188636 15.1434923,18.0988636 14.9180308,18.0988636 C14.6928,18.0988636 14.5100308,17.9188636 14.5100308,17.6968182 C14.5100308,17.4745455 14.6928,17.2947727 14.9180308,17.2947727 C15.1434923,17.2947727 15.3262615,17.4745455 15.3262615,17.6968182" id="Fill-118" fill="#0FEAAC"></path>
                        <path d="M15.0968538,16.1709318 C15.0968538,16.2679773 15.0167769,16.3466136 14.9182385,16.3466136 C14.8197,16.3466136 14.7396231,16.2679773 14.7396231,16.1709318 C14.7396231,16.0736591 14.8197,15.9950227 14.9182385,15.9950227 C15.0167769,15.9950227 15.0968538,16.0736591 15.0968538,16.1709318" id="Fill-120" fill="#1CE3E8"></path>
                        <path d="M20.9781,27.0092273 C21.2598692,27.7715 20.8606385,28.6146818 20.0864077,28.8921818 C19.3121769,29.1699091 18.4560231,28.7767273 18.1742538,28.0142273 C17.8924846,27.2515 18.2914846,26.4085455 19.0659462,26.1310455 C19.8399462,25.8535455 20.6961,26.2467273 20.9781,27.0092273" id="Fill-122" fill="#FF5B00"></path>
                        <path d="M19.5396231,23.9758864 C19.7650846,24.5861136 19.4457,25.2604318 18.8260846,25.4824773 C18.2069308,25.7045227 17.5220077,25.3899773 17.2963154,24.7799773 C17.0710846,24.1699773 17.3904692,23.4954318 18.0098538,23.2733864 C18.6292385,23.0515682 19.3139308,23.3658864 19.5396231,23.9758864" id="Fill-124" fill="#FF9D00"></path>
                        <path d="M18.3228923,21.3711136 C18.5031231,21.8590682 18.2476615,22.3986136 17.7522,22.5765682 C17.2567385,22.7540682 16.7088923,22.5024773 16.5284308,22.0145227 C16.3479692,21.5265682 16.6036615,20.9870227 17.0991231,20.8090682 C17.5945846,20.6315682 18.1426615,20.8833864 18.3228923,21.3711136" id="Fill-126" fill="#FFD400"></path>
                        <path d="M17.2287692,19.1769545 C17.3589231,19.5292273 17.1747692,19.9183182 16.8173077,20.0465 C16.4598462,20.1746818 16.0645385,19.9930909 15.9343846,19.6410455 C15.8042308,19.289 15.9886154,18.8996818 16.3460769,18.7717273 C16.7035385,18.6433182 17.0988462,18.8249091 17.2287692,19.1769545" id="Fill-128" fill="#B3ED00"></path>
                        <path d="M16.2694154,17.3891818 C16.3464923,17.5978182 16.2371077,17.8285 16.0254923,17.9044091 C15.8136462,17.9803182 15.5796462,17.8725909 15.5025692,17.6639545 C15.4254923,17.4555455 15.5344154,17.2248636 15.7462615,17.1489545 C15.9581077,17.0730455 16.1923385,17.1805455 16.2694154,17.3891818" id="Fill-130" fill="#0FEAAC"></path>
                        <path d="M15.5236846,16.0326591 C15.5573769,16.1237955 15.5096077,16.2249318 15.4170692,16.2578864 C15.3245308,16.2912955 15.2218385,16.24425 15.1883769,16.1528864 C15.1544538,16.06175 15.2022231,15.9608409 15.2949923,15.9274318 C15.3875308,15.8944773 15.4899923,15.9415227 15.5236846,16.0326591" id="Fill-132" fill="#1CE3E8"></path>
                        <path d="M24.8195769,24.2355682 C25.3491923,24.8571591 25.2668077,25.7842045 24.6356538,26.3057955 C24.0042692,26.8276136 23.0631923,26.7467045 22.5333462,26.1248864 C22.0035,25.5030682 22.0858846,24.5760227 22.7172692,24.0544318 C23.3486538,23.5326136 24.2897308,23.61375 24.8195769,24.2355682" id="Fill-134" fill="#FF5B00"></path>
                        <path d="M22.4143154,21.8698409 C22.8382385,22.3671136 22.7722385,23.1087045 22.2670846,23.5262045 C21.7621615,23.9434773 21.0091615,23.8787045 20.5852385,23.3812045 C20.1615462,22.8839318 20.2273154,22.1423409 20.7324692,21.7248409 C21.2373923,21.3073409 21.9906231,21.3725682 22.4143154,21.8698409" id="Fill-136" fill="#FF9D00"></path>
                        <path d="M20.3664692,19.8319318 C20.7054692,20.2298864 20.6528538,20.8230682 20.2487769,21.1571591 C19.8447,21.4910227 19.2423923,21.4389773 18.9031615,21.0410227 C18.5641615,20.6432955 18.6170077,20.0501136 19.0210846,19.7160227 C19.4251615,19.3821591 20.0274692,19.4342045 20.3664692,19.8319318" id="Fill-138" fill="#FFD400"></path>
                        <path d="M18.5762077,18.1389318 C18.8208231,18.4259773 18.7829769,18.8537045 18.4915154,19.0943864 C18.2000538,19.3352955 17.7655154,19.2980227 17.5211308,19.0109773 C17.2765154,18.7239318 17.3143615,18.2959773 17.6058231,18.0552955 C17.8972846,17.8143864 18.3315923,17.8516591 18.5762077,18.1389318" id="Fill-140" fill="#B3ED00"></path>
                        <path d="M17.0538923,16.7819545 C17.1988154,16.9519545 17.1762,17.2053636 17.0033538,17.3480909 C16.8307385,17.4908182 16.5734308,17.4685455 16.4285077,17.2985455 C16.2835846,17.1285455 16.3062,16.8749091 16.4788154,16.7324091 C16.6514308,16.5896818 16.9089692,16.6119545 17.0538923,16.7819545" id="Fill-142" fill="#0FEAAC"></path>
                        <path d="M15.8820231,15.7583409 C15.9452538,15.8326591 15.9355615,15.9435682 15.8598692,16.0060682 C15.7844077,16.0685682 15.6717923,16.0587955 15.6083308,15.9844773 C15.5451,15.9099318 15.5550231,15.79925 15.6304846,15.7365227 C15.7059462,15.67425 15.8187923,15.6840227 15.8820231,15.7583409" id="Fill-144" fill="#1CE3E8"></path>
                        <path d="M27.4621615,20.3341818 C28.1759308,20.7398636 28.4200846,21.6387273 28.0081615,22.3414545 C27.5962385,23.0444091 26.6837769,23.2850909 25.9700077,22.8791818 C25.2564692,22.4735 25.0120846,21.5748636 25.4240077,20.8721364 C25.8359308,20.1691818 26.7483923,19.9285 27.4621615,20.3341818" id="Fill-146" fill="#FF5B00"></path>
                        <path d="M24.3805846,18.9212727 C24.9515077,19.2460455 25.1469692,19.9649091 24.8174308,20.5269545 C24.4878923,21.0894545 23.7577385,21.2821818 23.1868154,20.9574091 C22.6161231,20.6326364 22.4204308,19.9137727 22.7499692,19.3517273 C23.0795077,18.7894545 23.8094308,18.5967273 24.3805846,18.9212727" id="Fill-148" fill="#FF9D00"></path>
                        <path d="M21.7483846,17.6961364 C22.2050769,17.9559091 22.3615385,18.5311364 22.098,18.9806818 C21.8342308,19.4306818 21.2503846,19.5847727 20.7934615,19.325 C20.3367692,19.0652273 20.1803077,18.4902273 20.4440769,18.0404545 C20.7076154,17.5906818 21.2916923,17.4363636 21.7483846,17.6961364" id="Fill-150" fill="#FFD400"></path>
                        <path d="M19.4783077,16.7080455 C19.8076154,16.8953182 19.9204615,17.3100909 19.7303077,17.6346364 C19.5401538,17.9591818 19.1187692,18.0703182 18.7894615,17.8830455 C18.4599231,17.6957727 18.3473077,17.2807727 18.5374615,16.9564545 C18.7276154,16.6319091 19.1487692,16.5207727 19.4783077,16.7080455" id="Fill-152" fill="#B3ED00"></path>
                        <path d="M17.5762615,15.9458864 C17.7714923,16.0567955 17.8384154,16.3024773 17.7255692,16.49475 C17.6129538,16.6870227 17.3634923,16.7529318 17.1680308,16.6420227 C16.9730308,16.5308864 16.9063385,16.2852045 17.0189538,16.0927045 C17.1315692,15.9006591 17.3810308,15.8349773 17.5762615,15.9458864" id="Fill-154" fill="#0FEAAC"></path>
                        <path d="M16.1197615,15.3785909 C16.2051462,15.4272273 16.2344538,15.5347273 16.1850692,15.6188182 C16.1356846,15.7029091 16.0267615,15.7317727 15.9413769,15.6831364 C15.8557615,15.6347273 15.8264538,15.527 15.8758385,15.4429091 C15.9252231,15.3588182 16.0343769,15.3299545 16.1197615,15.3785909" id="Fill-156" fill="#1CE3E8"></path>
                        <g id="Group-160" transform="translate(26.769231, 15.701364)">
                            <mask id="mask-4" fill="white">
                                <use xlink:href="#path-3"></use>
                            </mask>
                            <g id="Clip-159"></g>
                            <path d="M1.82536154,0.0765 C2.63697692,0.217409091 3.17882308,0.979681818 3.03574615,1.77877273 C2.89266923,2.57809091 2.11866923,3.1115 1.30728462,2.97059091 C0.495669231,2.82968182 -0.0459461538,2.06786364 0.0971307692,1.26854545 C0.240207692,0.469454545 1.01374615,-0.0644090909 1.82536154,0.0765" id="Fill-158" fill="#FF5B00" mask="url(#mask-4)"></path>
                        </g>
                        <path d="M25.2081,15.4882273 C25.8572538,15.6009545 26.2908692,16.2107273 26.1764077,16.8500455 C26.0619462,17.4895909 25.4430231,17.9164091 24.7936385,17.8036818 C24.1444846,17.6907273 23.7111,17.0811818 23.8255615,16.4418636 C23.9397923,15.8025455 24.5589462,15.3755 25.2081,15.4882273" id="Fill-161" fill="#FF9D00"></path>
                        <path d="M22.3092923,15.2236591 C22.8287538,15.3136591 23.1756,15.8016136 23.0837538,16.3129773 C22.9923692,16.8245682 22.4969077,17.1661591 21.9776769,17.0757045 C21.4582154,16.9857045 21.1116,16.49775 21.2032154,15.9863864 C21.2948308,15.4747955 21.7900615,15.1334318 22.3092923,15.2236591" id="Fill-163" fill="#FFD400"></path>
                        <path d="M19.8328154,15.0596364 C20.2075846,15.1246364 20.4577385,15.4766818 20.3917385,15.8455455 C20.3257385,16.2144091 19.9682769,16.4607727 19.5937385,16.3957727 C19.2192,16.3307727 18.9690462,15.9789545 19.0350462,15.6098636 C19.1010462,15.241 19.4582769,14.9946364 19.8328154,15.0596364" id="Fill-165" fill="#B3ED00"></path>
                        <path d="M17.7809077,14.9839545 C18.0029077,15.0225909 18.1510615,15.231 18.1120615,15.4496364 C18.0730615,15.6682727 17.8614462,15.8141818 17.6394462,15.7755455 C17.4174462,15.7371364 17.2690615,15.5285 17.3082923,15.3100909 C17.3472923,15.0914545 17.5591385,14.9455455 17.7809077,14.9839545" id="Fill-167" fill="#0FEAAC"></path>
                        <path d="M16.2153231,14.9417955 C16.3124769,14.9586136 16.3773231,15.0499773 16.3602462,15.1454318 C16.3431692,15.2408864 16.2504,15.3049773 16.1532462,15.2879318 C16.0563231,15.2711136 15.9912462,15.1799773 16.0085538,15.0842955 C16.0256308,14.9886136 16.1181692,14.9249773 16.2153231,14.9417955" id="Fill-169" fill="#1CE3E8"></path>
                        <path d="M28.0764923,11.115 C28.8881077,10.9740909 29.6616462,11.5077273 29.8047231,12.3070455 C29.9478,13.1061364 29.4061846,13.8681818 28.5945692,14.0090909 C27.7831846,14.15 27.0091846,13.6165909 26.8661077,12.8172727 C26.7230308,12.0181818 27.2648769,11.2559091 28.0764923,11.115" id="Fill-171" fill="#FF5B00"></path>
                        <path d="M24.7936615,11.9835909 C25.4428154,11.8708636 26.0617385,12.2976818 26.1762,12.9372273 C26.2906615,13.5763182 25.8572769,14.1860909 25.2081231,14.2988182 C24.5587385,14.4115455 23.9398154,13.9847273 23.8253538,13.3454091 C23.7108923,12.7058636 24.1445077,12.0963182 24.7936615,11.9835909" id="Fill-173" fill="#FF9D00"></path>
                        <path d="M21.9777923,12.7112273 C22.4970231,12.6212273 22.9922538,12.9625909 23.0838692,13.4739545 C23.1754846,13.9855455 22.8288692,14.4732727 22.3094077,14.5635 C21.7901769,14.6537273 21.2947154,14.3121364 21.2033308,13.8007727 C21.1114846,13.2891818 21.4583308,12.8012273 21.9777923,12.7112273" id="Fill-175" fill="#FFD400"></path>
                        <path d="M19.5936923,13.3912727 C19.9682308,13.3262727 20.3254615,13.5726364 20.3914615,13.9417273 C20.4576923,14.3105909 20.2075385,14.6624091 19.8327692,14.7274091 C19.4582308,14.7924091 19.101,14.5460455 19.035,14.1771818 C18.9687692,13.8083182 19.2189231,13.4565 19.5936923,13.3912727" id="Fill-177" fill="#B3ED00"></path>
                        <path d="M17.6391462,14.0113864 C17.8611462,13.9729773 18.0729923,14.1188864 18.1119923,14.3375227 C18.1512231,14.5559318 18.0028385,14.7643409 17.7808385,14.8029773 C17.5588385,14.8416136 17.3472231,14.6957045 17.3079923,14.4770682 C17.2689923,14.2584318 17.4171462,14.0500227 17.6391462,14.0113864" id="Fill-179" fill="#0FEAAC"></path>
                        <path d="M16.1533385,14.499 C16.2504923,14.4821818 16.3428,14.5460455 16.3601077,14.6417273 C16.3771846,14.7374091 16.3123385,14.8285455 16.2154154,14.8453636 C16.1182615,14.8624091 16.0254923,14.7983182 16.0084154,14.7026364 C15.9913385,14.6071818 16.0561846,14.5158182 16.1533385,14.499" id="Fill-181" fill="#1CE3E8"></path>
                        <path d="M25.9720846,6.90579545 C26.6858538,6.50011364 27.5983154,6.74079545 28.0102385,7.44375 C28.4221615,8.14647727 28.1777769,9.04511364 27.4642385,9.45102273 C26.7504692,9.85670455 25.8380077,9.61579545 25.4260846,8.91306818 C25.0141615,8.21034091 25.2585462,7.31170455 25.9720846,6.90579545" id="Fill-183" fill="#FF5B00"></path>
                        <path d="M23.1888692,8.82772727 C23.7597923,8.50318182 24.4899462,8.69568182 24.8192538,9.25795455 C25.1490231,9.82022727 24.9533308,10.5393182 24.3824077,10.8638636 C23.8114846,11.1884091 23.0815615,10.9959091 22.7517923,10.4334091 C22.4224846,9.87136364 22.6179462,9.15227273 23.1888692,8.82772727" id="Fill-185" fill="#FF9D00"></path>
                        <path d="M20.7955385,10.4601364 C21.2522308,10.2003636 21.8363077,10.3544545 22.0998462,10.8042273 C22.3636154,11.2542273 22.2071538,11.8292273 21.7504615,12.089 C21.2935385,12.3487727 20.7096923,12.1944545 20.4459231,11.7446818 C20.1823846,11.2949091 20.3388462,10.7199091 20.7955385,10.4601364" id="Fill-187" fill="#FFD400"></path>
                        <path d="M18.7914231,11.9022273 C19.1209615,11.7149545 19.5421154,11.8260909 19.7322692,12.1504091 C19.9224231,12.4749545 19.8095769,12.8899545 19.4802692,13.0772273 C19.1509615,13.2645 18.7293462,13.1533636 18.5391923,12.8288182 C18.3490385,12.5042727 18.4618846,12.0895 18.7914231,11.9022273" id="Fill-189" fill="#B3ED00"></path>
                        <path d="M17.1701769,13.1431364 C17.3654077,13.0322273 17.6151,13.0981364 17.7277154,13.2901818 C17.8403308,13.4824545 17.7734077,13.7283636 17.5784077,13.8392727 C17.3831769,13.9504091 17.1337154,13.8845 17.0211,13.6922273 C16.9080231,13.4999545 16.9749462,13.2542727 17.1701769,13.1431364" id="Fill-191" fill="#0FEAAC"></path>
                        <path d="M15.9433154,14.1019545 C16.0287,14.0533182 16.1378538,14.0821818 16.1872385,14.1662727 C16.2366231,14.2503636 16.2073154,14.3580909 16.1217,14.4065 C16.0363154,14.4551364 15.9271615,14.4262727 15.8780077,14.3421818 C15.8286231,14.2580909 15.8579308,14.1505909 15.9433154,14.1019545" id="Fill-193" fill="#1CE3E8"></path>
                        <path d="M22.5297,3.66504545 C23.0593154,3.04322727 24.0006231,2.96209091 24.6317769,3.48390909 C25.2633923,4.00572727 25.3455462,4.93254545 24.8159308,5.55436364 C24.2860846,6.17618182 23.3447769,6.25709091 22.7136231,5.7355 C22.0824692,5.21368182 21.9998538,4.28686364 22.5297,3.66504545" id="Fill-195" fill="#FF5B00"></path>
                        <path d="M20.5816846,6.40852273 C21.0056077,5.91125 21.7586077,5.84625 22.2635308,6.26375 C22.7686846,6.68102273 22.8346846,7.42261364 22.4107615,7.91988636 C21.9868385,8.41738636 21.2338385,8.48238636 20.7289154,8.06488636 C20.2237615,7.64761364 20.1579923,6.90602273 20.5816846,6.40852273" id="Fill-197" fill="#FF9D00"></path>
                        <path d="M18.8995846,8.74861364 C19.2388154,8.35088636 19.8411231,8.29884091 20.2449692,8.63270455 C20.6490462,8.96656818 20.7018923,9.55997727 20.3628923,9.95770455 C20.0236615,10.3556591 19.4213538,10.4077045 19.0172769,10.0738409 C18.6134308,9.73975 18.5605846,9.14656818 18.8995846,8.74861364" id="Fill-199" fill="#FFD400"></path>
                        <path d="M17.5172308,10.7789773 C17.7618462,10.4919318 18.1961538,10.4544318 18.4876154,10.6953409 C18.7790769,10.93625 18.8171538,11.3639773 18.5725385,11.6510227 C18.3281538,11.9380682 17.8936154,11.9755682 17.6021538,11.7346591 C17.3106923,11.4939773 17.2726154,11.0660227 17.5172308,10.7789773" id="Fill-201" fill="#B3ED00"></path>
                        <path d="M16.4249077,12.4911818 C16.5698308,12.3211818 16.8271385,12.2989091 16.9997538,12.4416364 C17.1726,12.5843636 17.1949846,12.838 17.0502923,13.008 C16.9053692,13.178 16.6478308,13.2002727 16.4752154,13.0575455 C16.3026,12.9148182 16.2799846,12.6614091 16.4249077,12.4911818" id="Fill-203" fill="#0FEAAC"></path>
                        <path d="M15.6048231,13.8054318 C15.6680538,13.7311136 15.7809,13.7213409 15.8563615,13.7836136 C15.9318231,13.8463409 15.9417462,13.9570227 15.8785154,14.0315682 C15.8150538,14.1058864 15.7024385,14.1156591 15.6269769,14.0531591 C15.5512846,13.9906591 15.5415923,13.87975 15.6048231,13.8054318" id="Fill-205" fill="#1CE3E8"></path>
                        <path d="M18.1705385,1.77561364 C18.4523077,1.01311364 19.3084615,0.619931818 20.0826923,0.897431818 C20.8569231,1.17493182 21.2561538,2.01811364 20.9741538,2.78061364 C20.6926154,3.54311364 19.8364615,3.93629545 19.062,3.65879545 C18.288,3.38129545 17.8885385,2.53811364 18.1705385,1.77561364" id="Fill-207" fill="#FF5B00"></path>
                        <path d="M17.2927615,5.00981818 C17.5182231,4.39981818 18.2029154,4.08527273 18.8225308,4.30731818 C19.4419154,4.52936364 19.7610692,5.20390909 19.5358385,5.81390909 C19.3103769,6.42390909 18.6254538,6.73822727 18.0060692,6.51640909 C17.3866846,6.29436364 17.0673,5.61981818 17.2927615,5.00981818" id="Fill-209" fill="#FF9D00"></path>
                        <path d="M16.5247385,7.77536364 C16.7049692,7.28740909 17.2528154,7.03581818 17.7485077,7.21331818 C18.2439692,7.39104545 18.4996615,7.93059091 18.3189692,8.41854545 C18.1387385,8.90672727 17.5908923,9.15809091 17.0954308,8.98059091 C16.5997385,8.80286364 16.3445077,8.26331818 16.5247385,7.77536364" id="Fill-211" fill="#FFD400"></path>
                        <path d="M15.9306923,10.14875 C16.0606154,9.79670455 16.4559231,9.61511364 16.8133846,9.74329545 C17.1708462,9.87147727 17.3552308,10.2607955 17.2250769,10.6128409 C17.0951538,10.9648864 16.6998462,11.14625 16.3423846,11.0182955 C15.9846923,10.8901136 15.8007692,10.5007955 15.9306923,10.14875" id="Fill-213" fill="#B3ED00"></path>
                        <path d="M15.4986692,12.1257273 C15.5757462,11.9173182 15.8102077,11.8095909 16.0218231,11.8855 C16.2336692,11.9614091 16.3425923,12.1920909 16.2655154,12.4005 C16.1884385,12.6091364 15.9544385,12.7168636 15.7428231,12.6409545 C15.5309769,12.5650455 15.4215923,12.3341364 15.4986692,12.1257273" id="Fill-215" fill="#0FEAAC"></path>
                        <path d="M15.1845231,13.6369773 C15.2182154,13.5458409 15.3206769,13.4987955 15.4132154,13.53175 C15.5062154,13.5651591 15.5539846,13.6660682 15.5200615,13.7572045 C15.4863692,13.8485682 15.3839077,13.8956136 15.2913692,13.8622045 C15.1986,13.8290227 15.1508308,13.7281136 15.1845231,13.6369773" id="Fill-217" fill="#1CE3E8"></path>
                    </g>
                </g>
            </g>
        </g>
    </g>
</svg>