<svg id="Image" xmlns="http://www.w3.org/2000/svg" xmlns:xlink="http://www.w3.org/1999/xlink" viewBox="0 0 404 214.17"><defs><style>.cls-1,.cls-13,.cls-15,.cls-28{fill:none;}.cls-2{fill:#e9e9f6;}.cls-3{fill:#aad8ce;}.cls-4{fill:#5dc1d2;}.cls-22,.cls-5{fill:#8288c2;}.cls-5{opacity:0.59;}.cls-11,.cls-12,.cls-22,.cls-5{isolation:isolate;}.cls-6{clip-path:url(#clip-path);}.cls-7{fill:#1d1e1b;}.cls-11,.cls-8{fill:#b1cb08;}.cls-9{fill:#7d3e24;}.cls-10{fill:#ffdb83;}.cls-11,.cls-22{opacity:0.5;}.cls-12{fill:#f18948;opacity:0.7;}.cls-13{stroke:#8288c2;}.cls-13,.cls-15,.cls-16,.cls-28{stroke-miterlimit:10;}.cls-13,.cls-15{stroke-width:5.1px;}.cls-14{fill:#e9510e;}.cls-15{stroke:#ea9210;}.cls-16,.cls-21{fill:#fff;}.cls-16,.cls-28{stroke:#fff;}.cls-16{stroke-width:0.5px;}.cls-17{fill:#f59b1a;}.cls-18{fill:#ea9210;}.cls-19{fill:#a86915;}.cls-20{fill:#38378d;}.cls-23{clip-path:url(#clip-path-2);}.cls-24{fill:#d24516;}.cls-25{fill:#1d1d1b;}.cls-26{fill:#dc9f66;}.cls-27{fill:#c08f64;}.cls-28{stroke-width:3px;}</style><clipPath id="clip-path"><circle class="cls-1" cx="278.93" cy="149.47" r="55.95"/></clipPath><clipPath id="clip-path-2"><circle class="cls-1" cx="142" cy="65.57" r="55.97"/></clipPath></defs><circle class="cls-2" cx="215.46" cy="105.99" r="94.69"/><circle class="cls-3" cx="214.8" cy="105.65" r="68.6"/><circle class="cls-4" cx="327.32" cy="173.7" r="9.42" transform="translate(103.43 468.97) rotate(-80.78)"/><circle class="cls-5" cx="278.93" cy="149.47" r="55.95"/><g class="cls-6"><path class="cls-7" d="M265.47,128.72A14.77,14.77,0,1,1,250.65,114h0A14.77,14.77,0,0,1,265.47,128.72Z"/><path class="cls-7" d="M279.93,160.74c-5,.22-9.35-1.23-11.92-3.78-6.95-6.87-10.06-23.43.2-32.94,12.92-13.26,36-9.59,38.91,5.65C309.41,138.18,285.74,160.49,279.93,160.74Z"/><path class="cls-8" d="M318,211.17c-3.43-8.24-14.3-14.45-21.69-32.13l-17.6.2c-12,4.36-17.86,23-18.48,31.93Z"/><path class="cls-9" d="M312.31,149.09c-.8-4.94-4.22-13.1-5.1-19.45C303,126.72,296.44,125,290,131c-3.14,2.94-5.12,7.92-7.23,14.44-1.62-1.16-3.37-1.55-4.78-.85-2.52,1.25-3,5.51-1,9.51a15.43,15.43,0,0,0,2.63,3.91l-.12,21.21c5.79,1.93,11.3,2.35,16.92,0V168.45h4.08a5.88,5.88,0,0,0,4.1-1.59,5.44,5.44,0,0,0,1.69-3.94L308,152.35S312.49,152.6,312.31,149.09Z"/><path class="cls-10" d="M280,176.52a8.63,8.63,0,1,1,8.63-8.63A8.63,8.63,0,0,1,280,176.52Zm0-15.4a6.77,6.77,0,1,0,6.76,6.78h0a6.77,6.77,0,0,0-6.76-6.77Z"/><path class="cls-10" d="M281.33,158a1.78,1.78,0,1,1-1.78-1.78h0a1.77,1.77,0,0,1,1.77,1.77Z"/></g><circle class="cls-11" cx="136.38" cy="159.21" r="17.22"/><circle class="cls-12" cx="190.53" cy="169.41" r="9.47"/><circle class="cls-13" cx="226.08" cy="197.63" r="9.47"/><circle class="cls-14" cx="74.36" cy="48.02" r="6.54"/><circle class="cls-4" cx="97.2" cy="23.03" r="18.27"/><circle class="cls-15" cx="86.4" cy="76.61" r="8.72"/><path class="cls-16" d="M197.38,89.59h-.09a.29.29,0,0,1-.2-.37h0a.7.7,0,0,1,.13-.24l.05-.09h0v-.06a.86.86,0,0,1,0-.32,2,2,0,0,1,.1-.21.31.31,0,0,1,.42-.09.29.29,0,0,1,.11.4l0,0v.13a.86.86,0,0,1,0,.32,1.41,1.41,0,0,1-.13.24l-.05.09A.3.3,0,0,1,197.38,89.59Z"/><path class="cls-16" d="M229.15,86.66h-.08l-.4-.08-.25-.1h-.12l-.24-.13-.1-.07h-.1a.3.3,0,0,1-.24-.34v0a.3.3,0,0,1,.36-.23h0a.81.81,0,0,1,.22.07.72.72,0,0,1,.19.11l.11.07.17.07.15.06.33.07h.07a.57.57,0,0,1,.26,0h.17a.31.31,0,0,1,.18.4.3.3,0,0,1-.31.2h-.14A.75.75,0,0,1,229.15,86.66ZM198.68,86h-.08a.32.32,0,0,1-.22-.38h0a.66.66,0,0,1,.3-.49h0l.09-.18.06-.14.12-.2.07-.12.06-.14a1.19,1.19,0,0,1,.08-.2h0a.31.31,0,0,1,.39-.17.31.31,0,0,1,.18.4h0v.08a1,1,0,0,0-.07.15.62.62,0,0,1-.07.19l-.11.18-.08.13-.06.14-.09.19a.72.72,0,0,1-.24.25h0v.11h0a.29.29,0,0,1-.37.2ZM232,85.17h-.09a.29.29,0,0,1-.2-.37h0v-.07a.89.89,0,0,1,.07-.28.58.58,0,0,1,.24-.25h0v-.08a1,1,0,0,1,0-.25.38.38,0,0,0,0-.15v-.19a.66.66,0,0,1,.11-.24V83.2a.3.3,0,0,1,.56.22.76.76,0,0,1-.09.18v.08a.33.33,0,0,0,0,.14.35.35,0,0,1-.06.23c-.06.08,0,.07,0,.11a.66.66,0,0,1,0,.28.59.59,0,0,1-.26.28h0v.06a.61.61,0,0,1,0,.19.3.3,0,0,1-.29.23Zm-6.38-.73a.28.28,0,0,1-.27-.17h0v-.09l-.08-.08-.17-.19a.6.6,0,0,1-.14-.21l-.06-.1h-.06a.69.69,0,0,1-.28-.2,1.27,1.27,0,0,1-.13-.19l-.08-.12-.06-.1a.3.3,0,1,1,.51-.33v.06a1.74,1.74,0,0,1,.11.18L225,83h.06a.53.53,0,0,1,.28.18.74.74,0,0,1,.13.21l.06.1.16.17.09.09a.72.72,0,0,1,.14.24.29.29,0,0,1-.13.4h0a.31.31,0,0,1-.19,0ZM201,81.89h-.1a.31.31,0,0,1-.19-.39v-.07a.82.82,0,0,1,.1-.26.14.14,0,0,1,.07-.14l.11-.18a.63.63,0,0,1,.28-.23h.05l.13-.18.05-.09v-.06a.79.79,0,0,1,.08-.3.31.31,0,0,1,.41-.12h0a.28.28,0,0,1,.11.39h0v.07a.63.63,0,0,1-.09.33l-.07.1-.13.2a.76.76,0,0,1-.28.22h-.05a.54.54,0,0,0-.07.13l-.1.17v.2a.32.32,0,0,1-.37.18Zm31.94-1.18a.31.31,0,0,1-.3-.27v-.57a.89.89,0,0,1,0-.23h0a.74.74,0,0,1,0-.21v-.26a.74.74,0,0,1,0-.21V78.9a.74.74,0,0,1,0-.21v-.06a.29.29,0,0,1,.34-.25.3.3,0,0,1,.26.34h0v.55h0a.74.74,0,0,1,0,.21v.24a1,1,0,0,1,0,.25h0v.36a.3.3,0,0,1-.26.33Zm-9.9-.17a.31.31,0,0,1-.22-.09h-.05a.63.63,0,0,1-.19-.24.49.49,0,0,1,0-.24v-.16h0l-.06-.08a1.09,1.09,0,0,1-.14-.23.67.67,0,0,1-.06-.28.14.14,0,0,0,0-.09h0a.88.88,0,0,1-.18-.25.31.31,0,0,1,.18-.4h0a.31.31,0,0,1,.39.17h.05a.88.88,0,0,1,.18.25,1.22,1.22,0,0,1,0,.27.14.14,0,0,0,0,.09l.06.09a.6.6,0,0,1,.14.21.69.69,0,0,1,.05.24v.1h0l.07.06a.3.3,0,0,1,0,.42h0A.3.3,0,0,1,223,80.54Zm-19.41-2.49a.33.33,0,0,1-.19-.06.3.3,0,0,1-.06-.42h0l.06-.1a1.37,1.37,0,0,1,.13-.2.87.87,0,0,1,.28-.19h0a.54.54,0,0,1,.47-.49h.06l.13-.13h0a.3.3,0,0,1,.42,0h0a.3.3,0,0,1,0,.43h0a.93.93,0,0,0-.14.14.62.62,0,0,1-.33.17h0a.71.71,0,0,1-.14.32.65.65,0,0,1-.27.17H204l-.06.1-.11.17A.28.28,0,0,1,203.59,78.05Zm18-1.9a.31.31,0,0,1-.29-.24v-.09a1.14,1.14,0,0,1-.09-.26.17.17,0,0,1,0-.1.67.67,0,0,1,0-.2v-.13a.71.71,0,0,1-.13-.31v-.06a1,1,0,0,1,0-.25V74.2a.11.11,0,0,0,0-.08.29.29,0,0,1,.3-.3h0a.32.32,0,0,1,.3.32v.3a1,1,0,0,1,0,.24v.07h0a.85.85,0,0,1,.13.31.11.11,0,0,1,0,.08.67.67,0,0,1,0,.2v.08a.14.14,0,0,0,0,.09.9.9,0,0,1,.08.23.3.3,0,0,1-.23.36h0Zm10.51-.07a.3.3,0,0,1-.23-.11.46.46,0,0,1-.13-.21l-.06-.07a1.09,1.09,0,0,1-.14-.23.66.66,0,0,1-.06-.2v-.13l-.07-.14a1,1,0,0,1-.1-.17l-.06-.13-.09-.19a.46.46,0,0,1-.06-.23v-.14a.31.31,0,0,1,.61.07v0l.09.19.06.12.06.11.12.21a.29.29,0,0,0,.07.23v.13l.06.07a.79.79,0,0,1,.15.25h0a.3.3,0,0,1,0,.43.35.35,0,0,1-.19.1Zm-25.28-1.33a.34.34,0,0,1-.17,0,.3.3,0,0,1-.08-.42h0a.69.69,0,0,1,.11-.13v-.07a1,1,0,0,1,.18-.23.7.7,0,0,1,.34-.12h0a.72.72,0,0,1,.2-.29l.17-.12.13-.09a.47.47,0,0,0,.1-.1.3.3,0,0,1,.44.42h0l-.15.14-.16.11-.12.09V74a.75.75,0,0,1-.18.28.7.7,0,0,1-.35.12h0v.06a1.84,1.84,0,0,1-.17.22.33.33,0,0,1-.25.12Zm22.6-2.65-.17-.14a.85.85,0,0,1-.17-.25v-.07H229a1,1,0,0,1-.23-.13l-.12-.07-.18-.12-.15-.09-.15-.1A.57.57,0,0,1,228,71a.3.3,0,1,1,.48-.36h0l.11.07.2.13.11.07.21.13h.09a.72.72,0,0,1,.24.14.8.8,0,0,1,.18.27v.07l.1.08Zm-18.85,0a.29.29,0,0,1-.13,0,.29.29,0,0,1-.15-.38v0h0a.7.7,0,0,1,.24-.3.57.57,0,0,0,.13-.08l.19-.11a1.14,1.14,0,0,1,.26-.09h.1l.23-.09a.21.21,0,0,0,.11,0l.14-.07.19-.11H212a.3.3,0,1,1,.28.54h-.09l-.16.09-.15.08-.22.08-.12,0a.79.79,0,0,1-.26.08h-.09l-.16.1-.12.07v0h0a.29.29,0,0,1-.28.07Zm10.81-.47a.24.24,0,0,1-.12,0,.3.3,0,0,1-.15-.4h0v-.06a.63.63,0,0,1-.06-.27v-.07a.65.65,0,0,1,.16-.32h0a.89.89,0,0,1-.07-.28v-.1a.6.6,0,0,1,.21-.31h0a.32.32,0,0,1,.33-.25.33.33,0,0,1,.28.34V70a.55.55,0,0,1-.2.3h0a.67.67,0,0,1,.06.28v.08a.73.73,0,0,1-.17.31h0a.63.63,0,0,1,.06.27v.07a1.13,1.13,0,0,1-.08.24.28.28,0,0,1-.18,0ZM215,70h-.17a.29.29,0,0,1-.3-.3h0a.31.31,0,0,1,.3-.31H215l.15,0,.2-.08h.1a.9.9,0,0,1,.24-.12.65.65,0,0,1,.34,0h.17a.92.92,0,0,1,.23-.09h0a.32.32,0,0,1,.37.23.3.3,0,0,1-.23.36h-.13l-.21.08a.62.62,0,0,1-.33,0h-.15a1.51,1.51,0,0,1-.22.11.47.47,0,0,0-.15.06l-.19.07A.58.58,0,0,1,215,70Zm10.76-.35h-.19l-.16-.05h-.13l-.21-.06a.33.33,0,0,0-.14,0h-.28a.76.76,0,0,1-.3,0h-.41a.3.3,0,0,1-.23-.37.32.32,0,0,1,.37-.23h.45a.81.81,0,0,1,.31,0h.37l.23.08h.12l.14,0h.11a.29.29,0,0,1,.2.37h0a.3.3,0,0,1-.28.21Zm-6.37-.56a.31.31,0,0,1-.25-.36.3.3,0,0,1,.25-.25h.11a1.05,1.05,0,0,1,.24-.06h.34a.76.76,0,0,1,.3-.1h.72a.32.32,0,0,1,.28.34.32.32,0,0,1-.33.27h-.71a.62.62,0,0,1-.3.09.89.89,0,0,1-.23,0h-.44Zm3.23-1.91h-.13a.3.3,0,0,1-.15-.4h0a.75.75,0,0,1,.22-.25h.06v-.11a2,2,0,0,1,.1-.21V66.1a1,1,0,0,1,.09-.24v-.07a.84.84,0,0,1,.08-.31.68.68,0,0,1,.29-.24h0a.31.31,0,0,1,.31.53h-.09a.79.79,0,0,1-.08.3v.12a1.43,1.43,0,0,1-.08.22l-.09.18-.06.14a.64.64,0,0,1-.22.24h0a.3.3,0,0,1-.33.22Zm0-.31Zm2.49-3.6H225a.31.31,0,0,1-.19-.39.88.88,0,0,1,.12-.21l.17-.16a.43.43,0,0,0,.1-.09.76.76,0,0,1,.23-.17l.08,0a.61.61,0,0,0,.07-.1.78.78,0,0,1,.16-.2v-.09a.76.76,0,0,1,.17-.23.63.63,0,0,1,.32-.15.3.3,0,1,1,.1.6h0v.06a1.07,1.07,0,0,1-.15.22.41.41,0,0,0-.07.11.65.65,0,0,1-.15.18.72.72,0,0,1-.22.17h-.08l-.15.14-.11.1h0a.32.32,0,0,1-.33.27Z"/><path class="cls-16" d="M228.65,60.15a.31.31,0,0,1-.26-.14.31.31,0,0,1,.09-.42l.1-.06v-.06a.93.93,0,0,1,.21-.23.62.62,0,0,1,.35-.1h.06a.31.31,0,0,1,.32.52.73.73,0,0,1-.35.09h0a.74.74,0,0,1-.2.23l-.12.08A.38.38,0,0,1,228.65,60.15Z"/><path class="cls-17" d="M315.28,5.32,223.49,28.85a5.74,5.74,0,0,1-3.43.18L199.8,23.94a.77.77,0,0,1-.53-.94.76.76,0,0,1,.6-.54L315.2,4.91a.21.21,0,0,1,.23.19A.22.22,0,0,1,315.28,5.32Z"/><path class="cls-18" d="M315.59,6,231.73,61a2.16,2.16,0,0,1-3-.62,2.18,2.18,0,0,1-.3-.7L221.57,30a.68.68,0,0,1,.49-.81L315.13,4.94A.58.58,0,0,1,315.59,6Z"/><path class="cls-19" d="M303,14.24,231.56,61.07a1.12,1.12,0,0,1-1.56-.34,1.14,1.14,0,0,1-.15-.88L236,35.44a2.22,2.22,0,0,1,1.37-1.53L301.1,10.47a2.12,2.12,0,0,1,1.9,3.77Z"/><path class="cls-17" d="M315.54,6.19,276,46.4c-.75.75-1.6.55-2.61.22L238,35c-.92-.31-1.13-.92-.22-1.26L314.87,5C315.75,4.71,316.2,5.53,315.54,6.19Z"/><circle class="cls-20" cx="136.58" cy="171.82" r="27.88"/><path class="cls-21" d="M143.88,187.87a19.78,19.78,0,0,1-9.72,2.19c-9,0-16.56-6.56-16.56-17.05,0-11.26,7.81-21,19.94-21,9.51,0,15.9,6.66,15.9,15.79,0,8.19-4.58,13-9.72,13-2.19,0-4.21-1.47-4-4.81h-.22c-1.92,3.23-4.43,4.81-7.71,4.81s-5.9-2.57-5.9-6.88A12.91,12.91,0,0,1,138.77,161h0a14.5,14.5,0,0,1,5.85,1.14L142.79,172c-.82,4.15-.16,6.06,1.64,6.11,2.79.06,5.9-3.66,5.9-10,0-7.93-4.75-13.61-13.22-13.61-8.91,0-16.4,7.05-16.4,18.14,0,9.13,6,14.75,14,14.75a17,17,0,0,0,8.24-1.87Zm-3-23.6a9.06,9.06,0,0,0-2.73-.39c-4.81,0-8.69,4.54-8.69,9.84,0,2.4,1.2,4.15,3.6,4.15,3.17,0,6.07-4,6.67-7.43Z"/><circle class="cls-22" cx="142" cy="65.57" r="55.97"/><g class="cls-23"><path class="cls-24" d="M182.83,124.84l-1.43-14.18c0-7.87-7.24-14.22-16.17-14.22h-55c-12-.28-19.83,9-19.75,18.49l-.14,9.91Z"/></g><path class="cls-25" d="M160.1,47.31c21.58-10.57-3-31.15-18.88-15.83-1.3,1.83-7.18,7.66-12,7.66-7.92-.28-15.06,5.32-12.22,15.1l7.3,17.41C140.62,70.25,151.22,59.16,160.1,47.31Z"/><path class="cls-26" d="M165.82,65.57c-2.88-4.51-5.47-13.27-5.72-17.77H147.23c-1.09,0-2-.06-2.78.78a3,3,0,0,0-1,2.55V63.64l-19,7.68L124,96.85a19,19,0,0,0,25.64-.08V88.09c7.37-.22,11.14-5.65,10.84-12v-5.7c0-1.62.36-2.1,2-2.5C164.79,67.7,166.19,67.08,165.82,65.57Z"/><path class="cls-27" d="M144.2,72a3.79,3.79,0,0,1-2.37-1.19,3.44,3.44,0,0,1-.93-2.47V63h-6.74V79.61c0,5.12,6.1,9.28,13.34,9.28s13.09-4.16,13.09-9.28V72Z"/><path class="cls-21" d="M146.18,62.65a8.88,8.88,0,1,1-8.88-8.88h0A8.89,8.89,0,0,1,146.18,62.65Z"/><path class="cls-21" d="M137.31,58.94a1.47,1.47,0,0,1-.5,1.94l-1.94.77c-.61.24-1.37-.23-1.7-1.06l-8.49-20.88a1.45,1.45,0,0,1,.51-1.94l1.93-.77c.61-.25,1.38.23,1.71,1.06Z"/><rect class="cls-28" x="170.75" y="75.6" width="85.02" height="57.65"/><polyline class="cls-28" points="170.75 75.6 214.72 112.74 255.76 75.6"/><line class="cls-28" x1="170.75" y1="133.26" x2="201.53" y2="102.96"/><line class="cls-28" x1="256.25" y1="133.75" x2="225.47" y2="103.45"/></svg>