<svg id="Layer_1" data-name="Layer 1" xmlns="http://www.w3.org/2000/svg" viewBox="0 0 45 45"><defs><style>.cls-1{fill:#4f6b80;}.cls-2{fill:#090909;}.cls-3{fill:#f68b50;}</style></defs><title>SurveyIcons_2-05 - Together with Child</title><circle class="cls-1" cx="13.33" cy="7.48" r="3.45"/><circle class="cls-1" cx="29.21" cy="7.48" r="3.45"/><circle class="cls-2" cx="21.97" cy="18.31" r="2.87"/><path class="cls-3" d="M24.58,23.13H19.37A2.35,2.35,0,0,0,17,25.48h0v5.21A2.35,2.35,0,0,0,19.37,33h.12v6.34a1.15,1.15,0,0,0,1.15,1.15h2.67a1.15,1.15,0,0,0,1.15-1.15h0V33h.12a2.35,2.35,0,0,0,2.35-2.35h0V25.48a2.35,2.35,0,0,0-2.34-2.35Z"/><circle class="cls-3" cx="21.97" cy="18.31" r="2.87"/><path class="cls-1" d="M15.11,30.7V25.48a4.27,4.27,0,0,1,3.18-4.12A4.78,4.78,0,0,1,20,14a3.29,3.29,0,0,0-2.3-1H9.28A3.29,3.29,0,0,0,6,16.29H6v11.3a1.84,1.84,0,0,0,3.67,0V39a1.84,1.84,0,0,0,3.67.15V39a1.84,1.84,0,0,0,3.67.15V34.24A4.26,4.26,0,0,1,15.11,30.7Z"/><path class="cls-1" d="M38.64,26.16h0l-3-8.06c-1.63-4.32-3-5.09-5-5.09H26.2a3.28,3.28,0,0,0-2.31,1,4.78,4.78,0,0,1,1.81,7.35,4.27,4.27,0,0,1,3.19,4.12V30.7a4.27,4.27,0,0,1-2.47,3.87v4.82a3,3,0,0,1-.2,1.09,1.71,1.71,0,0,0,1.32.61h0a1.72,1.72,0,0,0,1.72-1.72h0A1.72,1.72,0,0,0,31,41.09h0a1.72,1.72,0,0,0,1.72-1.72h0V31.83h2.2a1.53,1.53,0,0,0,1.37-2.12l-.82-1.84a1.83,1.83,0,0,0,3.19-1.71Z"/></svg>