<svg id="Layer_1" data-name="Layer 1" xmlns="http://www.w3.org/2000/svg" xmlns:xlink="http://www.w3.org/1999/xlink" viewBox="0 0 45 45"><defs><style>.cls-1{fill:#fff;}.cls-2{fill:#f05d22;opacity:0.7;}.cls-3{mask:url(#mask);}.cls-4{fill:#4d6a80;}</style><mask id="mask" x="6.67" y="4" width="31.79" height="36.92" maskUnits="userSpaceOnUse"><g id="mask-2"><polygon id="path-1" class="cls-1" points="6.67 4 38.46 4 38.46 40.92 6.67 40.92 6.67 4"/></g></mask></defs><title>SurveyIcons_2-02-Continuous Diary</title><g id="Symbols"><g id="ongoing"><g id="continouse-diary"><g id="Group-6"><path id="Fill-1" class="cls-2" d="M32.3,38.87V31.68a2.05,2.05,0,0,1,4.1,0v7.19a2.05,2.05,0,0,1-4.1,0Z"/><g id="Group-5"><g class="cls-3"><path id="Fill-3" class="cls-4" d="M9,20a1,1,0,0,1,0-1.31.89.89,0,0,1,.64-.28h2.83A10.77,10.77,0,1,1,23,29.44a10.71,10.71,0,0,1-7.48-3.19L17.83,24a7.51,7.51,0,0,0,10.74,0,7.76,7.76,0,0,0,0-10.88,7.51,7.51,0,0,0-10.74,0,7.71,7.71,0,0,0-2.22,5.29h3A.93.93,0,0,1,19.22,20l-4.49,4.55a.92.92,0,0,1-1.29,0ZM12.23,33.7H36.46a2,2,0,0,0,2-2V6a2,2,0,0,0-2-2H12.23A5.6,5.6,0,0,0,6.67,9.63V35.28a5.6,5.6,0,0,0,5.56,5.63H36.46a2,2,0,0,0,0-4H12.23a1.59,1.59,0,0,1,0-3.17Z"/></g></g></g></g></g></g></svg>