<svg id="Layer_1" data-name="Layer 1" xmlns="http://www.w3.org/2000/svg" xmlns:xlink="http://www.w3.org/1999/xlink" viewBox="0 0 45 45"><defs><style>.cls-1{fill:none;}.cls-2{clip-path:url(#clip-path);}.cls-3{clip-path:url(#clip-path-2);}.cls-4{fill:#4e6b82;}.cls-5{clip-path:url(#clip-path-3);}.cls-6{fill:#ed8851;}.cls-7{clip-path:url(#clip-path-5);}.cls-8{fill:#fff;}</style><clipPath id="clip-path"><path class="cls-1" d="M40.92,26.68H36.78v4.23h1.45a.58.58,0,0,1,.62.53V32.5a.58.58,0,0,1-.62.53h-32a.58.58,0,0,1-.62-.53V31.44a.58.58,0,0,1,.62-.53H7.72V26.68H3.58A2.09,2.09,0,0,0,1.5,28.79v6.35a2.09,2.09,0,0,0,2.08,2.12H40.92A2.09,2.09,0,0,0,43,35.14V28.79A2.09,2.09,0,0,0,40.92,26.68Z"/></clipPath><clipPath id="clip-path-2"><rect class="cls-1" x="-69.22" y="-283.3" width="244.77" height="574.22"/></clipPath><clipPath id="clip-path-3"><path class="cls-1" d="M35,30.91V10.14A2.1,2.1,0,0,0,32.85,8H12.08A2.1,2.1,0,0,0,10,10.14V30.91Z"/></clipPath><clipPath id="clip-path-5"><path class="cls-1" d="M15.26,18.87l1.64-1.66a.68.68,0,0,1,1,0l2.65,2.73,6.12-6.19a.68.68,0,0,1,1,0l1.63,1.67a.71.71,0,0,1,0,1L21,24.78a.68.68,0,0,1-1,0l-4.76-4.9A.71.71,0,0,1,15.26,18.87Z"/></clipPath></defs><title>SurveyIcons_2-18 - PoliticalSurveys</title><g class="cls-2"><g class="cls-3"><rect class="cls-4" x="-0.62" y="24.56" width="45.73" height="14.82"/></g></g><g class="cls-5"><g class="cls-3"><rect class="cls-6" x="7.85" y="5.93" width="29.22" height="27.1"/></g></g><g class="cls-7"><g class="cls-3"><rect class="cls-8" x="12.93" y="11.43" width="18.63" height="15.67"/></g></g></svg>