<svg id="Layer_1" data-name="Layer 1" xmlns="http://www.w3.org/2000/svg" viewBox="0 0 45 45"><defs><style>.cls-1{fill:#f68b50;}.cls-2{fill:#4e6b82;}.cls-3{fill:#fff;}</style></defs><title>SurveyIcons_2-19 - MyLifestyle</title><path class="cls-1" d="M33.4,19.6H9.2a4.73,4.73,0,0,0-4.72,4.72H5.59a3.61,3.61,0,0,1,3.6-3.6H33.4Z"/><path class="cls-2" d="M22.59,41.62a23.63,23.63,0,0,0,3,.6,7.12,7.12,0,0,0,3.48-1c4.75-2.42,7.43-7.55,7.43-7.55a17,17,0,0,0,2-10.79c-.3-1.82-.82-4.93-3.48-7.07a9.88,9.88,0,0,0-6.35-2c-2.74.17-3.23,1.56-5.87,1.44-2.22-.1-2.38-1.11-4.79-1.44a10.51,10.51,0,0,0-6.71,1.44,10.92,10.92,0,0,0-4.44,6.59C5.28,27.66,8.26,32.72,9.41,34.66c.44.75,4.79,8.12,9,7.55C19.51,42.07,20.6,41.36,22.59,41.62Z"/><path class="cls-2" d="M23.83,13.86c.21-.48,0-.94-.24-1.8-.73-2.18-.61-2-.78-2.34a4.41,4.41,0,0,0-1.56-2,2.39,2.39,0,0,0-1.8-.42c-.06,0-1,.24-1.08.84-.08.36.16.7.54,1.14,1.29,1.5,1.86,1.48,2.76,2.64a5.8,5.8,0,0,1,1.14,1.8c.09.31.15.67.36.72S23.69,14.17,23.83,13.86Z"/><path class="cls-1" d="M24.72,10.91a3.84,3.84,0,0,1-1.26-3.12,3.29,3.29,0,0,1,1.44-2C27.61,3.73,31.78,3.17,33.53,3a17.32,17.32,0,0,1-2,6.83c-1.36,2.47-2.37,2.79-2.76,2.88a4.12,4.12,0,0,1-3.3-1l3.42-3.48Z"/><path class="cls-1" d="M39.86,19a4,4,0,0,0-5.4.39l-.57.59-.57-.59a4,4,0,0,0-5.4-.39,4.16,4.16,0,0,0-.29,6l5.6,5.79a.91.91,0,0,0,1.31,0L40.14,25a4.16,4.16,0,0,0-.28-6Z"/><path class="cls-3" d="M33.88,31.76a1.6,1.6,0,0,1-1.16-.49l-5.6-5.79a4.86,4.86,0,0,1-1.34-3.6,4.78,4.78,0,0,1,1.68-3.44,4.43,4.43,0,0,1,3.26-1,4.87,4.87,0,0,1,3.1,1.48l.07.07.07-.07a4.88,4.88,0,0,1,3.1-1.48,4.43,4.43,0,0,1,3.26,1h0A4.78,4.78,0,0,1,42,21.88a4.85,4.85,0,0,1-1.35,3.6L35,31.26A1.6,1.6,0,0,1,33.88,31.76Zm-3.54-13a3,3,0,0,0-2,.72,3.39,3.39,0,0,0-1.19,2.44,3.45,3.45,0,0,0,1,2.56l5.6,5.79a.21.21,0,0,0,.31,0l5.6-5.79a3.45,3.45,0,0,0,1-2.56,3.39,3.39,0,0,0-1.19-2.44h0a3,3,0,0,0-2.24-.71A3.48,3.48,0,0,0,35,19.85L33.88,21l-1.07-1.11a3.47,3.47,0,0,0-2.21-1.06Z"/><path class="cls-3" d="M27,28.45V37H7.62a2.29,2.29,0,0,1-1.79-.88A4.84,4.84,0,0,1,5,33.31q-.06-3,0-6.23,0-1.69,0-3.33a6.15,6.15,0,0,0,1.26,3.44,3,3,0,0,0,2,1C10.37,28.41,17.46,28.54,27,28.45Z"/><path class="cls-1" d="M27.5,37.44H7.62a2.76,2.76,0,0,1-2.15-1.05,5.08,5.08,0,0,1-.92-3.07c0-2.07-.05-4.17,0-6.24,0-1.11,0-2.24,0-3.34l.94,0a5.5,5.5,0,0,0,1.14,3.17,2.59,2.59,0,0,0,1.74.83c1.86.2,8.35.37,18.66.27h.47ZM5.44,26.86v.23c0,2.06,0,4.16,0,6.22a4.25,4.25,0,0,0,.71,2.5,1.83,1.83,0,0,0,1.42.7H26.56V28.93c-8.76.08-16.07,0-18.3-.28a3.51,3.51,0,0,1-2.33-1.13A4.19,4.19,0,0,1,5.44,26.86Z"/><path class="cls-1" d="M27.5,27.93H9.2a3.61,3.61,0,0,1-3.6-3.6H4.47A4.73,4.73,0,0,0,9.2,29H27.5Z"/><rect class="cls-1" x="22.25" y="28.65" width="1.44" height="4.26"/><rect class="cls-1" x="17.68" y="28.65" width="1.44" height="4.26"/><rect class="cls-1" x="12.56" y="28.65" width="1.44" height="4.26"/><rect class="cls-1" x="8" y="28.65" width="1.44" height="4.26"/></svg>