<svg id="Layer_1" data-name="Layer 1" xmlns="http://www.w3.org/2000/svg" viewBox="0 0 45 45"><defs><style>.cls-1{fill:#f68b50;}.cls-2{fill:#4f6b80;}</style></defs><title>SurveyIcons_2-07- Recall</title><path class="cls-1" d="M38.37,26l-1.45-2.86A6.77,6.77,0,0,0,33,10.38L32.59,7.2A10,10,0,0,1,38.37,26Z"/><path class="cls-1" d="M32.57,13.48,28.48,9.39a.83.83,0,0,1,0-1.17h0l4.09-4.1A.83.83,0,0,1,34,4.69v8.19a.83.83,0,0,1-1.42.59Z"/><path class="cls-2" d="M32.2,19.53l-1.62,7.09H14.77L13.3,19.53H32.2m3-4H8.38l3.14,15.1h21A1.57,1.57,0,0,0,34,29.41l2.72-11.95a1.57,1.57,0,0,0-1.54-1.92Z"/><path class="cls-2" d="M30.72,36.15H13.88a2,2,0,0,1-2-1.6L8,15.54H3.28a2,2,0,0,1,0-4h6.4a2,2,0,0,1,2,1.6l3.87,19H30.73a2,2,0,1,1,0,4Z"/><circle class="cls-1" cx="15.39" cy="38.11" r="2.74"/><circle class="cls-1" cx="29.79" cy="38.11" r="2.74"/></svg>