<svg id="Layer_1" data-name="Layer 1" xmlns="http://www.w3.org/2000/svg" xmlns:xlink="http://www.w3.org/1999/xlink" viewBox="0 0 45 45"><defs><style>.cls-1{fill:none;}.cls-2{fill:#4e6b82;}.cls-3{fill:#fff;}.cls-4{fill:#f68b50;}.cls-5{clip-path:url(#clip-path);}</style><clipPath id="clip-path"><path class="cls-1" d="M154.13,8.28a4,4,0,0,0-5.46.4l-.58.6-.58-.6a4,4,0,0,0-5.46-.4,4.28,4.28,0,0,0-.29,6.15l5.66,5.91a.91.91,0,0,0,1.33,0l5.66-5.91A4.28,4.28,0,0,0,154.13,8.28Z"/></clipPath></defs><title>SurveyIcons_2-08 - Technical Issues Fixed</title><path class="cls-2" d="M40.8,19.29c0-.42-.14-.56-.58-.56H36.81c-.19,0-.28,0-.33-.24a13.57,13.57,0,0,0-1.33-3.22.28.28,0,0,1,0-.4l0,0c.79-.77,1.57-1.57,2.36-2.36.35-.35.35-.54,0-.89l-4.39-4.4c-.31-.31-.54-.31-.84,0-.8.8-1.61,1.61-2.41,2.43a.23.23,0,0,1-.33.05h0a14.06,14.06,0,0,0-3.27-1.36c-.17-.05-.23-.12-.21-.28V4.57c0-.4-.16-.54-.54-.54H19.23c-.42,0-.56.14-.58.56V8.05c0,.14,0,.21-.17.24a14.44,14.44,0,0,0-3.32,1.36.25.25,0,0,1-.35,0h0C14,8.8,13.2,8,12.4,7.19c-.31-.31-.52-.31-.84,0L7.14,11.62c-.31.31-.31.52,0,.86.8.8,1.61,1.59,2.39,2.39a.26.26,0,0,1,.07.37l0,0a14.2,14.2,0,0,0-1.35,3.23c-.05.21-.14.24-.33.24H4.48c-.4,0-.54.14-.54.54V25.6c0,.4.14.56.56.56H8c.14,0,.21,0,.26.17A13.2,13.2,0,0,0,9.6,29.65a.25.25,0,0,1-.05.33h0c-.82.8-1.63,1.63-2.45,2.43-.3.3-.3.52,0,.8l4.44,4.44c.33.33.52.33.86,0,.8-.8,1.61-1.61,2.41-2.43a.22.22,0,0,1,.31-.05,0,0,0,0,1,0,0,14.06,14.06,0,0,0,3.27,1.36c.17.05.23.12.23.3,0,1.15,0,2.31,0,3.46,0,.38.16.52.54.52h6.31c.44,0,.58-.14.58-.58V36.81c0-.12,0-.23.16-.26a13.6,13.6,0,0,0,3.34-1.38.23.23,0,0,1,.33,0,0,0,0,0,0,0,0c.8.8,1.61,1.61,2.41,2.43.33.33.52.33.86,0,1.47-1.47,3-2.94,4.42-4.42.31-.31.31-.52,0-.84-.8-.8-1.61-1.61-2.43-2.41a.23.23,0,0,1-.05-.33v0a14.06,14.06,0,0,0,1.36-3.27c.05-.17.12-.21.28-.21h3.43c.44,0,.59-.14.59-.58Z"/><path class="cls-3" d="M25.31,32.27H19.43v-6.9h-6.9V19.48h6.9v-6.9h5.89v6.9h6.9v5.89h-6.9Zm-4.49-1.4h3.09V24h6.9V20.88h-6.9V14H20.82v6.9h-6.9V24h6.9Z"/><polygon class="cls-4" points="31.54 24.67 24.63 24.67 24.63 31.57 20.14 31.57 20.14 24.67 13.24 24.67 13.24 20.18 20.14 20.18 20.14 13.28 24.63 13.28 24.63 20.18 31.54 20.18 31.54 24.67"/></svg>