<svg id="Layer_1" data-name="Layer 1" xmlns="http://www.w3.org/2000/svg" viewBox="0 0 45 45"><defs><style>.cls-1,.cls-2{fill:#f05e25;opacity:0.7;isolation:isolate;}.cls-2{stroke:#f05e25;stroke-miterlimit:10;}.cls-3{fill:#4f6b80;}</style></defs><title>SurveyIcons_2-03 - Diary Daily</title><path class="cls-1" d="M33.81,40.79a2,2,0,0,1-2-2V31.66a2,2,0,1,1,4,0v7.11a2,2,0,0,1-2,2Z"/><path class="cls-2" d="M23.47,18.12a1.36,1.36,0,0,0-.6.13l-1.42.68a.45.45,0,0,0-.26.58h0l0,.19a.4.4,0,0,0,.46.33h0l.14,0,.67-.31v6.88a.43.43,0,0,0,.39.46h.46a.42.42,0,0,0,.46-.46v-8C23.82,18.29,23.69,18.12,23.47,18.12Z"/><path class="cls-3" d="M12,33.67H36.48a2,2,0,0,0,2-2h0V6a2,2,0,0,0-2-2H12A5.63,5.63,0,0,0,6.33,9.64v25.6A5.63,5.63,0,0,0,12,40.84H36.48a2,2,0,1,0,0-4H12a1.58,1.58,0,0,1,0-3.16Zm20.73-6.45a2.3,2.3,0,0,1-2.3,2.3H15.77a2.3,2.3,0,0,1-2.3-2.3h0v-11a.45.45,0,0,1,.45-.45H32.24a.45.45,0,0,1,.45.45h0ZM13.47,12.49a2.3,2.3,0,0,1,2.3-2.3h1.74V8a.45.45,0,0,1,.42-.45h1.85a.45.45,0,0,1,.45.45h0v2.21h5.52V8a.45.45,0,0,1,.45-.45h1.85a.45.45,0,0,1,.46.44h0v2.21h1.84a2.3,2.3,0,0,1,2.3,2.29h0v1.39a.45.45,0,0,1-.45.45H14a.45.45,0,0,1-.45-.45h0Z"/></svg>