<svg id="Layer_1" data-name="Layer 1" xmlns="http://www.w3.org/2000/svg" viewBox="0 0 45 45"><defs><style>.cls-1{fill:#fff;opacity:0;}.cls-2{fill:#4d6a81;}.cls-3{fill:#ff8c4c;}</style></defs><rect class="cls-1" width="45" height="45"/><circle class="cls-2" cx="10.83" cy="18.87" r="2.81"/><circle class="cls-2" cx="29.65" cy="32.51" r="2.81"/><circle class="cls-2" cx="34.08" cy="18.83" r="2.81"/><circle class="cls-2" cx="15.25" cy="32.5" r="2.81"/><circle class="cls-2" cx="22.4" cy="10.41" r="2.81"/><path class="cls-3" d="M34.08,14.8a4,4,0,0,1,1.23,7.87,3.61,3.61,0,0,1-.65.15c0,.27,0,.54,0,.81a3.65,3.65,0,0,0,7.26.66A19.6,19.6,0,0,0,37.37,10h0l-.11-.14-.09-.1a19.51,19.51,0,0,0-4-3.46c0,.13.09.26.12.4a4.87,4.87,0,0,1-3.64,6.05A13.28,13.28,0,0,1,31,14c.3.3.78.77,1.06,1.1l.13.17a4.11,4.11,0,0,1,.61-.25,4,4,0,0,1,1.24-.2h0"/><path class="cls-3" d="M38.27,28.8a4.61,4.61,0,0,1-1.52-.25,4.85,4.85,0,0,1-2.54-1.93.76.76,0,0,1-.12-.19,12,12,0,0,1-1.31,2.8l-.29.42a4.15,4.15,0,0,1,.43.51,4,4,0,0,1-6.54,4.71A4.28,4.28,0,0,1,26,34.3l-.79.21a3.64,3.64,0,0,0,1.61,7.1,19.6,19.6,0,0,0,12.31-8.85,3.33,3.33,0,0,0,.25-.5c.19-.33.37-.67.54-1a19.39,19.39,0,0,0,1.32-3.5A4.85,4.85,0,0,1,38.27,28.8Z"/><path class="cls-3" d="M22.64,41.49a4.82,4.82,0,0,1-1.42-3.44,5,5,0,0,1,1.06-3l.13-.16h0a12.42,12.42,0,0,1-2.61-.28l-.17-.05a7.59,7.59,0,0,1-.78-.22,3.36,3.36,0,0,1-.35.57,4.05,4.05,0,0,1-3.24,1.64A4,4,0,0,1,12,30.1a4.14,4.14,0,0,1,.44-.5,7.15,7.15,0,0,1-.44-.68,3.64,3.64,0,0,0-6.28,3.7,19.51,19.51,0,0,0,12.2,9h0l.1,0a19.44,19.44,0,0,0,4.34.48l1,0A5.81,5.81,0,0,1,22.64,41.49Z"/><path class="cls-3" d="M4.25,29.29l.08-.23a4.84,4.84,0,0,1,3.07-2.9,5,5,0,0,1,1.48-.22h0a5,5,0,0,1,1.87.37,12.7,12.7,0,0,1-.53-3.46,3.81,3.81,0,0,1-.65-.15,4,4,0,0,1-2.33-2A4,4,0,0,1,7,17.61a4,4,0,0,1,3.82-2.77h0a4.1,4.1,0,0,1,1.26.2,4.26,4.26,0,0,1,.62.26,7.79,7.79,0,0,1,.51-.63,3.64,3.64,0,0,0-5.48-4.8,19.31,19.31,0,0,0-3.83,6.72A19.57,19.57,0,0,0,3,24.27c0,.05,0,.1,0,.15H3A22.79,22.79,0,0,0,4.25,29.29Z"/><path class="cls-3" d="M30,4.65a19.66,19.66,0,0,0-15.16,0A5.26,5.26,0,0,0,14.1,5a19.45,19.45,0,0,0-3.81,2.44h.16a4.88,4.88,0,0,1,4.86,5.07,2.46,2.46,0,0,1,0,.28,13,13,0,0,1,3.08-1.68l.05,0a4.65,4.65,0,0,1-.05-.66,4,4,0,0,1,8.06,0,3.71,3.71,0,0,1-.06.67c.26.08.52.18.77.28A3.64,3.64,0,0,0,30,4.65Z"/></svg>