<svg id="Layer_1" data-name="Layer 1" xmlns="http://www.w3.org/2000/svg" viewBox="0 0 45 45"><defs><style>.cls-1{fill:#fff;}.cls-2{fill:#4f6b80;}.cls-3,.cls-5{opacity:0.7;}.cls-4,.cls-5{fill:#f05e25;}.cls-5{isolation:isolate;}</style></defs><title>SurveyIcons_2-01 - Product Test</title><g id="mask-2-2"><g id="mask-4"><polygon id="path-3" class="cls-1" points="24.1 17.93 44.83 17.93 44.83 38.67 24.1 38.67 24.1 17.93"/></g></g><g id="mask"><g id="mask-2"><polygon id="path-1" class="cls-1" points="18.43 5.67 34.47 5.67 34.47 10.31 18.43 10.31 18.43 5.67"/></g></g><g id="Symbols"><g id="regular-survey"><g id="product-test"><g id="Group-13"><g id="Group-3"><path id="Fill-1" class="cls-2" d="M33.87,10.09,28.31,5.81a.72.72,0,0,0-.44-.15H19.29a.72.72,0,0,0-.72.72v3a.72.72,0,0,0,.72.72Z"/></g><path id="Fill-4" class="cls-2" d="M15.6,5.67H7.11a.72.72,0,0,0-.44.15l-5.5,4.27H15.6a.72.72,0,0,0,.72-.71h0v-3a.72.72,0,0,0-.72-.72h0"/><g id="Group-8" class="cls-3"><path id="Fill-6" class="cls-4" d="M33.87,17.36a9.89,9.89,0,1,0,9.88,9.9h0a9.91,9.91,0,0,0-9.88-9.89m0,2.09a7.8,7.8,0,1,1-7.8,7.8h0a7.8,7.8,0,0,1,7.8-7.8"/></g><path id="Fill-9" class="cls-5" d="M33,31.88l-3.81-3.52a1,1,0,1,1,1.4-1.54l2.26,2.06,4.43-5.36a1,1,0,0,1,1.59,1.34Z"/><path id="Fill-11" class="cls-2" d="M22.59,27.25A11.29,11.29,0,0,1,33.87,16V13a.72.72,0,0,0-.72-.72H9.59a.72.72,0,0,0-.72.72v3.38h0L6.25,19a.72.72,0,0,1-1,0h0l-2.6-2.6V13a.72.72,0,0,0-.72-.72h0A.72.72,0,0,0,1.2,13v22.2A3.74,3.74,0,0,0,4.94,39h25.2a3.72,3.72,0,0,0,2-.57,11.29,11.29,0,0,1-9.53-11.14"/></g></g></g></g></svg>