<svg id="Layer_1" data-name="Layer 1" xmlns="http://www.w3.org/2000/svg" xmlns:xlink="http://www.w3.org/1999/xlink" viewBox="0 0 45 45"><defs><style>.cls-1{fill:none;}.cls-2{clip-path:url(#clip-path);}.cls-3{fill:#f68b50;}.cls-4{fill:#4f6b80;}</style><clipPath id="clip-path"><path class="cls-1" d="M-170.87,8.28a4,4,0,0,0-5.46.4l-.58.6-.58-.6a4,4,0,0,0-5.46-.4,4.28,4.28,0,0,0-.29,6.15l5.66,5.91a.91.91,0,0,0,1.33,0l5.66-5.91A4.28,4.28,0,0,0-170.87,8.28Z"/></clipPath></defs><title>SurveyIcons_2-13 - MyTelco</title><path class="cls-3" d="M.67,17l3.85,3.67L8.35,17v8.23H6.87V20.55L4.53,22.73,2.16,20.56v4.73H.68Z"/><path class="cls-3" d="M11.22,25.56a1.19,1.19,0,0,0,1.19,1.19h.08a1.21,1.21,0,0,0,1.22-1.18v-.42a3.11,3.11,0,0,1-1.22.23A2.52,2.52,0,0,1,9.82,23s0-.06,0-.09V19.63h1.47v3.09c0,.9.5,1.42,1.21,1.42s1.22-.52,1.22-1.42v-3.1h1.51v5.93A2.54,2.54,0,0,1,12.6,28h-.07A2.46,2.46,0,0,1,9.9,25.73q0-.08,0-.17Z"/><path class="cls-4" d="M18.22,18.62H15.88V17.21H22.1v1.42H19.73v6.65H18.22Z"/><path class="cls-4" d="M28,24.62a3.41,3.41,0,0,1-2.17.76,3.05,3.05,0,0,1-3.2-2.89v0a2.94,2.94,0,0,1,2.94-2.94h.13a2.82,2.82,0,0,1,2.93,2.71q0,.12,0,.23v.42H24.09a1.79,1.79,0,0,0,1.72,1.28,1.7,1.7,0,0,0,1.3-.55Zm-.92-3a1.47,1.47,0,0,0-1.38-.91,1.6,1.6,0,0,0-1.46.91Z"/><path class="cls-4" d="M29.56,17.21H31v8.06H29.57Z"/><path class="cls-4" d="M37.64,24.06A3.36,3.36,0,0,1,35,25.37a3,3,0,0,1-3.18-2.8s0-.09,0-.14a3,3,0,0,1,3.06-2.94h.06a3.39,3.39,0,0,1,2.66,1.31l-1.18.84a1.73,1.73,0,0,0-1.48-.85,1.65,1.65,0,0,0-1.69,1.61v0h0a1.7,1.7,0,0,0,1.72,1.64,1.85,1.85,0,0,0,1.5-.8Z"/><path class="cls-4" d="M41.53,19.49a3,3,0,1,1-.15,0Zm0,4.64a1.7,1.7,0,1,0-1.77-1.69A1.76,1.76,0,0,0,41.53,24.13Z"/></svg>