<svg id="Layer_1" data-name="Layer 1" xmlns="http://www.w3.org/2000/svg" viewBox="0 0 45 45"><defs><style>.cls-1{fill:#f68b50;}.cls-2{fill:#4f6b80;}</style></defs><title>SurveyIcons_2-06 - Only Available Today</title><path class="cls-1" d="M34.88,8.52H31.79V4.81A.76.76,0,0,0,31,4H27.92a.76.76,0,0,0-.76.76h0V8.52H17.91V4.81a.76.76,0,0,0-.76-.76H14a.76.76,0,0,0-.76.76h0V8.52H10.36A3.85,3.85,0,0,0,6.5,12.36h0V14.7a.76.76,0,0,0,.76.76H38a.76.76,0,0,0,.75-.76V12.37a3.86,3.86,0,0,0-3.87-3.85Z"/><path class="cls-2" d="M38,17.94H7.26a.76.76,0,0,0-.76.76h0V37.06a3.85,3.85,0,0,0,3.85,3.85H34.88a3.85,3.85,0,0,0,3.85-3.85V18.7A.76.76,0,0,0,38,17.94ZM23.85,36a.7.7,0,0,1-.62.77h-.79a.71.71,0,0,1-.79-.77V24.44L20.54,25a.67.67,0,0,1-1-.47l-.09-.32a.76.76,0,0,1,.4-1h0L22.27,22a2.29,2.29,0,0,1,1-.21c.36,0,.58.28.58.77Z"/></svg>