<svg id="Layer_1" data-name="Layer 1" xmlns="http://www.w3.org/2000/svg" xmlns:xlink="http://www.w3.org/1999/xlink" viewBox="0 0 45 45"><defs><style>.cls-1{fill:none;}.cls-2{clip-path:url(#clip-path);}.cls-3{fill:#4e6b82;}.cls-4{fill:#f68b50;}.cls-5{fill:#fff;}</style><clipPath id="clip-path"><path class="cls-1" d="M-105.87,8.28a4,4,0,0,0-5.46.4l-.58.6-.58-.6a4,4,0,0,0-5.46-.4,4.28,4.28,0,0,0-.29,6.15l5.66,5.91a.91.91,0,0,0,1.33,0l5.66-5.91A4.28,4.28,0,0,0-105.87,8.28Z"/></clipPath></defs><title>SurveyIcons_2-12- HealthProfiler</title><path class="cls-3" d="M33,8.75H27.25a4.58,4.58,0,0,0-9.17,0H12.35a3.44,3.44,0,0,0-3.44,3.44V37.4a3.44,3.44,0,0,0,3.44,3.44H33a3.44,3.44,0,0,0,3.44-3.44V12.19A3.44,3.44,0,0,0,33,8.75ZM22.67,7a1.72,1.72,0,1,1-1.72,1.72A1.71,1.71,0,0,1,22.67,7Zm6.88,8a.57.57,0,0,1-.57.57H16.36a.57.57,0,0,1-.57-.57V13.91a.57.57,0,0,1,.57-.57H29a.57.57,0,0,1,.57.57Z"/><path class="cls-4" d="M29.54,28.8a.57.57,0,0,1-.57.57H25v4a.57.57,0,0,1-.57.57H20.95a.57.57,0,0,1-.57-.57v-4h-4a.57.57,0,0,1-.57-.57V25.36a.57.57,0,0,1,.57-.57h4v-4a.57.57,0,0,1,.57-.57h3.44a.57.57,0,0,1,.57.57v4h4a.57.57,0,0,1,.57.57Z"/><path class="cls-5" d="M24.39,34.46H20.95a1.08,1.08,0,0,1-1.08-1.08V29.88H16.36a1.08,1.08,0,0,1-1.08-1.08V25.36a1.08,1.08,0,0,1,1.08-1.08h3.51V20.78a1.08,1.08,0,0,1,1.08-1.08h3.44a1.08,1.08,0,0,1,1.08,1.08v3.51H29A1.08,1.08,0,0,1,30,25.36V28.8A1.08,1.08,0,0,1,29,29.88H25.46v3.51A1.08,1.08,0,0,1,24.39,34.46Zm-8-9.17a.07.07,0,0,0-.07.07V28.8a.07.07,0,0,0,.07.07h4.51v4.51a.07.07,0,0,0,.07.07h3.44a.07.07,0,0,0,.07-.07V28.87H29A.07.07,0,0,0,29,28.8V25.36a.07.07,0,0,0-.07-.07H24.46V20.78a.07.07,0,0,0-.07-.07H20.95a.07.07,0,0,0-.07.07v4.51Z"/></svg>