<svg id="Layer_1" data-name="Layer 1" xmlns="http://www.w3.org/2000/svg" xmlns:xlink="http://www.w3.org/1999/xlink" viewBox="0 0 45 45"><defs><style>.cls-1{fill:none;}.cls-2{clip-path:url(#clip-path);}.cls-3{clip-path:url(#clip-path-2);}.cls-4{clip-path:url(#clip-path-3);}.cls-5{fill:#ed8851;}.cls-6{fill:#4e6b82;}</style><clipPath id="clip-path"><path class="cls-1" d="M-89.08,26.68h-4.15v4.23h1.45a.58.58,0,0,1,.62.53V32.5a.58.58,0,0,1-.62.53h-32a.58.58,0,0,1-.62-.53V31.44a.58.58,0,0,1,.62-.53h1.45V26.68h-4.15a2.09,2.09,0,0,0-2.08,2.12v6.35a2.09,2.09,0,0,0,2.08,2.12h37.35A2.09,2.09,0,0,0-87,35.14V28.79A2.09,2.09,0,0,0-89.08,26.68Z"/></clipPath><clipPath id="clip-path-2"><path class="cls-1" d="M-95,30.91V10.14A2.1,2.1,0,0,0-97.15,8h-20.78a2.1,2.1,0,0,0-2.11,2.1V30.91Z"/></clipPath><clipPath id="clip-path-3"><path class="cls-1" d="M-114.74,18.87l1.64-1.66a.68.68,0,0,1,1,0l2.65,2.73,6.12-6.19a.68.68,0,0,1,1,0l1.63,1.67a.71.71,0,0,1,0,1L-109,24.78a.68.68,0,0,1-1,0l-4.76-4.9A.71.71,0,0,1-114.74,18.87Z"/></clipPath></defs><title>SurveyIcons_2-17 - SocialSurveys</title><circle class="cls-5" cx="22.71" cy="20.44" r="8.04"/><path class="cls-6" d="M12.27,20.44a10.4,10.4,0,0,1,.54-3.31A7.61,7.61,0,0,1,7,15.78a.71.71,0,0,0-.68-.09l-.89.36c-.24.1-.48.21-.71.32a4.81,4.81,0,0,0-1.24.87l-.17.17a1.67,1.67,0,0,0-.48.82h0a9,9,0,0,0-.46,2.26c0,.37-.05.75-.09,1.12a1.87,1.87,0,0,0,1.58,2.06h9A10.38,10.38,0,0,1,12.27,20.44Z"/><path class="cls-5" d="M36,36.34a13.12,13.12,0,0,0-.67-3.29h0a2.46,2.46,0,0,0-.7-1.2l-.26-.25a7,7,0,0,0-1.8-1.27c-.34-.18-.68-.33-1-.48l-1.29-.52a1,1,0,0,0-1,.13,11.12,11.12,0,0,1-13.12,0,1,1,0,0,0-1-.13l-1.29.52c-.35.14-.69.3-1,.48A7.07,7.07,0,0,0,11,31.6l-.26.25a2.46,2.46,0,0,0-.7,1.2h0a13.12,13.12,0,0,0-.67,3.29c-.06.54-.08,1.1-.13,1.65,0,1.66,1,3,2.3,3H33.85c1.27,0,2.3-1.34,2.3-3C36.1,37.44,36.08,36.89,36,36.34Z"/><circle class="cls-6" cx="33.84" cy="9.6" r="5.52"/><circle class="cls-6" cx="11.47" cy="9.6" r="5.52"/><path class="cls-6" d="M43,20.51a9.06,9.06,0,0,0-.46-2.26h0a1.68,1.68,0,0,0-.48-.82l-.18-.17a4.83,4.83,0,0,0-1.24-.87,6.52,6.52,0,0,0-.71-.32L39,15.71a.71.71,0,0,0-.68.09,7.63,7.63,0,0,1-5.72,1.37,10.42,10.42,0,0,1,0,6.55h8.85a1.87,1.87,0,0,0,1.58-2.06C43,21.26,43,20.88,43,20.51Z"/></svg>