<svg id="Layer_1" data-name="Layer 1" xmlns="http://www.w3.org/2000/svg" xmlns:xlink="http://www.w3.org/1999/xlink" viewBox="0 0 45 45"><defs><style>.cls-1{fill:none;}.cls-2{fill:#f68b50;}.cls-3{fill:#4f6b80;}.cls-4{clip-path:url(#clip-path);}.cls-5{clip-path:url(#clip-path-2);}.cls-6{fill:#fff;}</style><clipPath id="clip-path"><path class="cls-1" d="M24.13,8.28a4,4,0,0,0-5.46.4l-.58.6-.58-.6a4,4,0,0,0-5.46-.4,4.28,4.28,0,0,0-.29,6.15l5.66,5.91a.91.91,0,0,0,1.33,0l5.66-5.91A4.28,4.28,0,0,0,24.13,8.28Z"/></clipPath><clipPath id="clip-path-2"><rect class="cls-1" x="-120.45" y="-51.91" width="360.73" height="846.27"/></clipPath></defs><title>SurveyIcons_2-10 - Engagement</title><path class="cls-2" d="M37.4,11.29H35.55V26.06a1.85,1.85,0,0,1-1.85,1.85H11.55v1.85a3.7,3.7,0,0,0,3.69,3.69H33.71l7.39,7.39V15A3.7,3.7,0,0,0,37.4,11.29Z"/><path class="cls-3" d="M31.86,20.52V7.59A3.7,3.7,0,0,0,28.17,3.9H7.85A3.7,3.7,0,0,0,4.16,7.59v24l7.39-7.39H28.17A3.7,3.7,0,0,0,31.86,20.52Z"/><g class="cls-4"><g class="cls-5"><rect class="cls-6" x="7.48" y="4.25" width="21.22" height="19.49"/></g></g></svg>