<svg id="Layer_1" data-name="Layer 1" xmlns="http://www.w3.org/2000/svg" viewBox="0 0 45 45"><defs><style>.cls-1{fill:#4e6b82;}.cls-2{fill:#f68b50;}.cls-3{fill:#fff;}</style></defs><title>SurveyIcons_2-20 - ConsentIcon</title><path class="cls-1" d="M23.77,13V3.67h-15A2.15,2.15,0,0,0,6.59,5.82V38.74a2.15,2.15,0,0,0,2.15,2.15H33.07a2.15,2.15,0,0,0,2.15-2.15V15.12h-9.3A2.15,2.15,0,0,1,23.77,13Z"/><path class="cls-1" d="M34.59,10.2l-5.9-5.9a2.15,2.15,0,0,0-1.52-.63h-.54v8.59h8.59v-.54A2.15,2.15,0,0,0,34.59,10.2Z"/><path class="cls-2" d="M39.27,27l-6.72-2.8a1.69,1.69,0,0,0-1.29,0L24.53,27a1.68,1.68,0,0,0-1,1.55c0,6.95,4,11.75,7.76,13.32a1.69,1.69,0,0,0,1.29,0c3-1.25,7.76-5.57,7.76-13.32A1.68,1.68,0,0,0,39.27,27Z"/><path class="cls-3" d="M31.9,42.63a2.31,2.31,0,0,1-.89-.18,12.7,12.7,0,0,1-5.57-4.87,16.49,16.49,0,0,1-2.57-9,2.3,2.3,0,0,1,1.42-2.13L31,23.63a2.3,2.3,0,0,1,1.77,0l6.72,2.8a2.3,2.3,0,0,1,1.42,2.13A16.2,16.2,0,0,1,38.06,38a12.71,12.71,0,0,1-5.27,4.44A2.31,2.31,0,0,1,31.9,42.63Zm0-17.92a1.06,1.06,0,0,0-.41.08l-6.72,2.8a1,1,0,0,0-.65,1c0,6.64,3.82,11.26,7.37,12.74a1.07,1.07,0,0,0,.81,0,11.81,11.81,0,0,0,4.73-4,15,15,0,0,0,2.64-8.73,1,1,0,0,0-.65-1h0l-6.72-2.8A1.06,1.06,0,0,0,31.9,24.7Z"/><path class="cls-2" d="M31.9,39.7V26.36l6.16,2.57c-.12,5.3-2.87,9.14-6.16,10.77Z"/><path class="cls-3" d="M37,29.94l-.77-.78a.41.41,0,0,0-.58,0L30.81,34l-2-2.06a.41.41,0,0,0-.58,0l-.78.77a.41.41,0,0,0,0,.58l3.11,3.13a.41.41,0,0,0,.58,0L37,30.52a.41.41,0,0,0,0-.58Z"/></svg>