<svg id="Layer_1" data-name="Layer 1" xmlns="http://www.w3.org/2000/svg" xmlns:xlink="http://www.w3.org/1999/xlink" viewBox="0 0 45 45"><defs><style>.cls-1{fill:none;}.cls-2{clip-path:url(#clip-path);}.cls-3{clip-path:url(#clip-path-2);}.cls-4{clip-path:url(#clip-path-3);}.cls-5{fill:#4e6b82;}.cls-6{fill:#ed8851;}</style><clipPath id="clip-path"><path class="cls-1" d="M-24.08,26.68h-4.15v4.23h1.45a.58.58,0,0,1,.62.53V32.5a.58.58,0,0,1-.62.53h-32a.58.58,0,0,1-.62-.53V31.44a.58.58,0,0,1,.62-.53h1.45V26.68h-4.15a2.09,2.09,0,0,0-2.08,2.12v6.35a2.09,2.09,0,0,0,2.08,2.12h37.35A2.09,2.09,0,0,0-22,35.14V28.79A2.09,2.09,0,0,0-24.08,26.68Z"/></clipPath><clipPath id="clip-path-2"><path class="cls-1" d="M-30,30.91V10.14A2.1,2.1,0,0,0-32.15,8H-52.92A2.1,2.1,0,0,0-55,10.14V30.91Z"/></clipPath><clipPath id="clip-path-3"><path class="cls-1" d="M-49.74,18.87l1.64-1.66a.68.68,0,0,1,1,0l2.65,2.73,6.12-6.19a.68.68,0,0,1,1,0l1.63,1.67a.71.71,0,0,1,0,1L-44,24.78a.68.68,0,0,1-1,0l-4.76-4.9A.71.71,0,0,1-49.74,18.87Z"/></clipPath></defs><title>SurveyIcons_2-16 - mC+</title><path class="cls-5" d="M1.88,24.1V22.46L3.8,20.86l.11,1.92H4a5.48,5.48,0,0,1,4.55-2.2A3.76,3.76,0,0,1,12.14,23h-.49a5,5,0,0,1,1.42-1.55,6.4,6.4,0,0,1,3.37-.84c1.68,0,3.63,1,3.63,5.18v7H17.81V26c0-2.3-.89-3.68-2.76-3.68a3,3,0,0,0-2.74,2,3.37,3.37,0,0,0-.18,1.09V32.8H9.85V25.66c0-1.9-.9-3.28-2.66-3.28a3.12,3.12,0,0,0-2.87,2.17,2.84,2.84,0,0,0-.19,1.06v7.22H1.88Z"/><path class="cls-6" d="M36.21,23l-3,3h1a5.8,5.8,0,0,1-.93,2,3.79,3.79,0,0,1-3.17,1.39,4.13,4.13,0,0,1-3.35-1.62,7.61,7.61,0,0,1-1.31-4.88,8.69,8.69,0,0,1,1.25-5,3.94,3.94,0,0,1,3.4-1.79,4,4,0,0,1,3.2,1.26,5.13,5.13,0,0,1,.88,1.76h-1l3,3,3-3h-1A7.17,7.17,0,0,0,37,15.8q-2.25-3.2-7.07-3.2A8,8,0,0,0,24,15q-2.69,2.74-2.69,7.81a10.79,10.79,0,0,0,2.36,7.38,8.19,8.19,0,0,0,6.5,2.69,7.74,7.74,0,0,0,5.48-2A8.62,8.62,0,0,0,38.21,26h1Z"/><rect class="cls-6" x="38.6" y="21.51" width="5.15" height="1.45"/><rect class="cls-6" x="40.45" y="19.66" width="1.45" height="5.15"/></svg>