<svg id="Layer_1" data-name="Layer 1" xmlns="http://www.w3.org/2000/svg" viewBox="0 0 45 45"><defs><style>.cls-1{fill:#4f6b80;}.cls-2{fill:#f68b50;}</style></defs><title>SurveyIcons_2-04 - Teens</title><path class="cls-1" d="M23.08,26.14A11.06,11.06,0,1,1,34.14,15.08h0A11.06,11.06,0,0,1,23.08,26.14Zm0-20.36a9.28,9.28,0,1,0,9.32,9.28,9.28,9.28,0,0,0-9.32-9.28Z"/><path class="cls-1" d="M39.34,35a16.5,16.5,0,0,0-.83-4h0a3.18,3.18,0,0,0-.86-1.49l-.31-.31a9,9,0,0,0-2.24-1.57,13.67,13.67,0,0,0-1.28-.58c-1.73-.7-3.47-1.39-5.2-2h-.15a.22.22,0,0,0,0,.09V27c0,2.55-2.57,4.61-5.74,4.61S17,29.61,17,27a4.18,4.18,0,0,1,.2-1.23,2.51,2.51,0,0,1,0-.35v-.37l0-.17H17.1c-1.73.67-3.47,1.36-5.2,2-.43.18-.86.37-1.28.58A8.63,8.63,0,0,0,8.39,29a2.91,2.91,0,0,0-.31.31,3,3,0,0,0-.88,1.56h0a15.81,15.81,0,0,0-.83,4c-.08.67-.09,1.36-.15,2,0,2,1.27,3.72,2.83,3.72H36.66c1.58,0,2.83-1.66,2.83-3.7C39.44,36.38,39.41,35.69,39.34,35Z"/><path class="cls-2" d="M13.14,15.06H34.25A11.06,11.06,0,0,0,14.39,8.37a1.94,1.94,0,0,0-.48-.09h-.81c-2.91,0-7.76.44-7.76,3.41,0,2.66,3.91,3.29,6.81,3.4h1ZM26.46,8.4a4.86,4.86,0,0,1,4.85,4.87H21.62A4.88,4.88,0,0,1,26.46,8.4Z"/></svg>