<svg id="Layer_1" data-name="Layer 1" xmlns="http://www.w3.org/2000/svg" xmlns:xlink="http://www.w3.org/1999/xlink" viewBox="0 0 45 45"><defs><style>.cls-1{fill:none;}.cls-2{fill:#4e6b82;}.cls-3{fill:#fff;}.cls-4{fill:#f68b50;}.cls-5{clip-path:url(#clip-path);}.cls-6{clip-path:url(#clip-path-2);}.cls-7{clip-path:url(#clip-path-3);}</style><clipPath id="clip-path"><path class="cls-1" d="M105.92,26.68h-4.15v4.23h1.45a.58.58,0,0,1,.62.53V32.5a.58.58,0,0,1-.62.53h-32a.58.58,0,0,1-.62-.53V31.44a.58.58,0,0,1,.62-.53h1.45V26.68H68.58a2.09,2.09,0,0,0-2.08,2.12v6.35a2.09,2.09,0,0,0,2.08,2.12h37.35A2.09,2.09,0,0,0,108,35.14V28.79A2.09,2.09,0,0,0,105.92,26.68Z"/></clipPath><clipPath id="clip-path-2"><path class="cls-1" d="M100,30.91V10.14A2.1,2.1,0,0,0,97.85,8H77.08A2.1,2.1,0,0,0,75,10.14V30.91Z"/></clipPath><clipPath id="clip-path-3"><path class="cls-1" d="M80.26,18.87l1.64-1.66a.68.68,0,0,1,1,0l2.65,2.73,6.12-6.19a.68.68,0,0,1,1,0l1.63,1.67a.71.71,0,0,1,0,1L86,24.78a.68.68,0,0,1-1,0l-4.76-4.9A.71.71,0,0,1,80.26,18.87Z"/></clipPath></defs><title>SurveyIcons_2-15 - PurchaseDiary(VISA)</title><path class="cls-2" d="M38.5,30V6a1.71,1.71,0,0,0-1.71-1.71H13.39a6.85,6.85,0,0,0-6.85,6.85V34a6.85,6.85,0,0,0,6.85,6.85h23.4a1.71,1.71,0,0,0,1.71-1.71V38a1.73,1.73,0,0,0-.63-1.33,15.91,15.91,0,0,1,0-5.33A1.7,1.7,0,0,0,38.5,30Z"/><path class="cls-3" d="M33.75,36.27H13.39a2.28,2.28,0,0,1,0-4.57H33.75A25.68,25.68,0,0,0,33.75,36.27Z"/><path class="cls-4" d="M24.88,20.88a1.72,1.72,0,0,0-.34-1.17,3.66,3.66,0,0,0-1.27-.84A11.24,11.24,0,0,1,20,17a3.44,3.44,0,0,1-1-2.72,3.52,3.52,0,0,1,1.13-2.64,4.67,4.67,0,0,1,2.92-1.17l0-2,1.51,0,0,2A4.09,4.09,0,0,1,28.21,15l0,0L25,15a2.49,2.49,0,0,0-.38-1.55,1.29,1.29,0,0,0-1.06-.53,1.18,1.18,0,0,0-1,.4,1.69,1.69,0,0,0-.34,1.06,1.59,1.59,0,0,0,.33,1.07,3.69,3.69,0,0,0,1.29.85,12,12,0,0,1,3.22,1.93,3.43,3.43,0,0,1,1,2.7A3.54,3.54,0,0,1,27,23.56a4.57,4.57,0,0,1-2.83,1.15l0,1.91-1.51,0,0-1.92a5.17,5.17,0,0,1-3-1.34,4.07,4.07,0,0,1-1.13-3.27l0-.06,3.13.05a2.35,2.35,0,0,0,.49,1.71,1.8,1.8,0,0,0,1.33.54,1.31,1.31,0,0,0,1-.38A1.53,1.53,0,0,0,24.88,20.88Z"/><path class="cls-3" d="M24.57,27.06l-2.37,0,0-2a5.5,5.5,0,0,1-2.91-1.4A4.5,4.5,0,0,1,18.06,20V20l.2-.38,3.83.06v.43a2,2,0,0,0,.37,1.4,1.37,1.37,0,0,0,1,.41.9.9,0,0,0,.72-.24,1.11,1.11,0,0,0,.26-.76,1.32,1.32,0,0,0-.24-.89,3.18,3.18,0,0,0-1.12-.72,11.51,11.51,0,0,1-3.36-1.95,3.87,3.87,0,0,1-1.12-3,4,4,0,0,1,1.27-2.94,5,5,0,0,1,2.79-1.24l0-2.06,2.37,0,0,2.12a4.58,4.58,0,0,1,2.59,1.53,4.71,4.71,0,0,1,1,3.27v.08l-.16.39L24.6,15.4V15a2.11,2.11,0,0,0-.29-1.29.86.86,0,0,0-.72-.36.73.73,0,0,0-.66.24,1.27,1.27,0,0,0-.25.8,1.17,1.17,0,0,0,.23.79,3.21,3.21,0,0,0,1.13.73,12.39,12.39,0,0,1,3.33,2,3.85,3.85,0,0,1,1.13,3,4,4,0,0,1-1.22,3,4.84,4.84,0,0,1-2.7,1.22Zm-1.5-.88h.66l0-1.87.39,0a4.17,4.17,0,0,0,2.57-1,3.11,3.11,0,0,0,1-2.34,3,3,0,0,0-.86-2.38,11.6,11.6,0,0,0-3.1-1.86,4,4,0,0,1-1.44-1,2,2,0,0,1-.43-1.35A2.12,2.12,0,0,1,22.26,13a1.6,1.6,0,0,1,1.35-.56,1.73,1.73,0,0,1,1.39.7,2.53,2.53,0,0,1,.45,1.39l2.32,0A3.68,3.68,0,0,0,27,12.27,3.79,3.79,0,0,0,24.53,11l-.37-.06,0-2h-.66l0,2-.39,0A4.28,4.28,0,0,0,20.46,12a3.08,3.08,0,0,0-1,2.33,3,3,0,0,0,.84,2.4,10.9,10.9,0,0,0,3.12,1.79h0a4,4,0,0,1,1.42.95,2.14,2.14,0,0,1,.44,1.46,2,2,0,0,1-.48,1.32,1.72,1.72,0,0,1-1.37.52,2.22,2.22,0,0,1-1.63-.67,2.47,2.47,0,0,1-.6-1.58l-2.32,0a3.45,3.45,0,0,0,1,2.58,4.77,4.77,0,0,0,2.8,1.23l.39,0Z"/><rect class="cls-4" x="22.78" y="23.37" width="1.34" height="2.99" transform="translate(0.41 -0.38) rotate(0.93)"/><rect class="cls-4" x="23.16" y="8.63" width="1.34" height="2.99" transform="translate(0.17 -0.39) rotate(0.93)"/><path class="cls-4" d="M15.24,39.33V33.28a.63.63,0,0,1,.63-.63h3.76a.63.63,0,0,1,.63.63v6.05l-2.51-1.46Z"/></svg>