<svg id="Layer_1" data-name="Layer 1" xmlns="http://www.w3.org/2000/svg" viewBox="0 0 45 45"><defs><style>.cls-1,.cls-4{fill:#f68b50;}.cls-2{fill:#4e6b82;}.cls-3{fill:#fff;}.cls-4{opacity:0.88;}</style></defs><title>SurveyIcons_2-14 - MyPersonalRoutine</title><rect class="cls-1" x="23.74" y="4.08" width="11.7" height="2.07"/><rect class="cls-1" x="26.41" y="5.19" width="3.56" height="5.27"/><path class="cls-2" d="M24.78,10.16h6.67a1.11,1.11,0,0,1,1.11,1.11v1a0,0,0,0,1,0,0H23.67a0,0,0,0,1,0,0v-1A1.11,1.11,0,0,1,24.78,10.16Z"/><rect class="cls-2" x="17.66" y="11.79" width="20.67" height="29.04" rx="5.22" ry="5.22"/><rect class="cls-3" x="23.52" y="18.97" width="9.33" height="14.56" rx="4.67" ry="4.67"/><rect class="cls-2" x="13.44" y="25.58" width="5.45" height="4.73"/><path class="cls-3" d="M19.34,30.76H13V25.13h6.35Zm-5.45-.9h4.55V26H13.89Z"/><path class="cls-2" d="M13.44,30.31h5.45v10c0,.49-.68.88-1.51.88H14.95c-.83,0-1.5-.39-1.5-.88v-10Z"/><path class="cls-3" d="M17.38,41.67H14.95c-1.11,0-1.95-.57-2-1.32V29.86h6.34V40.34C19.33,41.1,18.49,41.67,17.38,41.67ZM13.89,30.76v9.58c0,.14.41.43,1.06.43h2.43c.65,0,1.06-.28,1.06-.43V30.76Z"/><path class="cls-1" d="M20.75,19.67c.8-2.54-1.2-5.18-4.25-5.36h-.68c-3,.18-5.06,2.82-4.25,5.36l1.86,5.83H18.9Z"/><path class="cls-3" d="M19.22,25.95H13.12l-2-6.14a4.26,4.26,0,0,1,.57-3.73,5.23,5.23,0,0,1,4.07-2.21,4.11,4.11,0,0,1,.56,0h.17a5.22,5.22,0,0,1,4.06,2.19,4.29,4.29,0,0,1,.59,3.75h0Zm-5.45-.9h4.8l1.76-5.52a3.36,3.36,0,0,0-.47-3,4.33,4.33,0,0,0-3.36-1.8h-.17a3.38,3.38,0,0,0-.45,0h0a4.34,4.34,0,0,0-3.39,1.82,3.32,3.32,0,0,0-.46,3Z"/><path class="cls-2" d="M6.85,34.75h4.92v5.69a.37.37,0,0,1-.37.37H7.23a.37.37,0,0,1-.37-.37v-5.7Z"/><ellipse class="cls-1" cx="9.02" cy="24.32" rx="1.79" ry="0.77" transform="translate(-14.56 13.5) rotate(-45)"/><path class="cls-4" d="M10.29,23.06a5,5,0,0,1,.7,2.5v4.28H7.65V25.49"/><rect class="cls-2" x="6.48" y="32.91" width="5.67" height="1.84" rx="0.34" ry="0.34"/><path class="cls-2" d="M7.64,29.37H11a.34.34,0,0,1,.37.3v2.62H7.27V29.67A.34.34,0,0,1,7.64,29.37Z"/></svg>