<svg id="Layer_1" data-name="Layer 1" xmlns="http://www.w3.org/2000/svg" viewBox="0 0 136.06 119.06"><defs><style>.cls-1{fill:#e8e9f6;}.cls-2{fill:#fff;}.cls-3{fill:#5dc1d2;opacity:0.5;}.cls-3,.cls-4{isolation:isolate;}.cls-4{fill:#ec68a3;opacity:0.4;}.cls-5{fill:#e71482;}.cls-6{fill:#494b9a;}.cls-7{fill:#1d1d1b;}.cls-8{fill:#38378d;}.cls-9{fill:#3a3b8c;}</style></defs><g id="Bob_2" data-name="Bob 2"><path class="cls-1" d="M129.06,58.22c-3.2-15.37-7.74-21.41-16.7-23.77-6.92-1.84-14,.17-20.25-3-4.48-2.35-10.18-7.13-15.67-9.36-9.64-4-20.68-4.09-32.56-2.9C8.83,22.77,2.57,52.38,5.35,68.92,7.9,81.3,13.09,90.3,22.05,92.65c6.91,1.85,14-.17,20.25,3,4.51,2.35,10.18,7.15,15.7,9.4,9.62,4,20.67,4.14,32.55,2.92C125.58,104.36,131.83,74.75,129.06,58.22Z"/></g><rect class="cls-2" x="53.16" y="79.99" width="28.71" height="34.5" transform="translate(-39.27 148.32) rotate(-80.79)"/><rect class="cls-2" x="58.93" y="20.09" width="18.9" height="12.41" transform="translate(-4.4 17.9) rotate(-14.45)"/><rect class="cls-2" x="28.9" y="13.79" width="2.73" height="1.02" rx="0.43" transform="translate(-3.2 14.94) rotate(-26.38)"/><rect class="cls-2" x="18.45" y="40.51" width="2.73" height="1.02" rx="0.43" transform="translate(-16.16 13.08) rotate(-26.38)"/><rect class="cls-2" x="72.47" y="7.73" width="1.02" height="2.73" rx="0.43" transform="translate(9.8 46.74) rotate(-37.89)"/><rect class="cls-2" x="51.66" y="6.59" width="2.73" height="1.02" rx="0.43" transform="translate(12.64 42.19) rotate(-48.61)"/><rect class="cls-2" x="78.9" y="4.96" width="2.73" height="1.02" rx="0.43" transform="translate(23.13 62.11) rotate(-48.65)"/><rect class="cls-2" x="33.15" y="18.05" width="1.02" height="2.73" rx="0.43" transform="translate(8.78 49.27) rotate(-80.16)"/><rect class="cls-2" x="61.43" y="15.12" width="1.02" height="2.73" rx="0.43" transform="translate(3.14 42.01) rotate(-38.37)"/><rect class="cls-2" x="66.14" y="4.55" width="2.73" height="1.02" rx="0.43" transform="translate(21.09 54.34) rotate(-51)"/><rect class="cls-2" x="45.24" y="8.91" width="1.02" height="2.73" rx="0.43" transform="translate(-1.12 8.93) rotate(-11.02)"/><rect class="cls-2" x="10.93" y="7.64" width="1.02" height="2.73" rx="0.43" transform="translate(-3.08 10.13) rotate(-42.64)"/><rect class="cls-2" x="92.83" y="11.55" width="2.73" height="1.02" rx="0.43" transform="matrix(0.94, -0.34, 0.34, 0.94, 1.51, 32.77)"/><rect class="cls-2" x="106.66" y="13.78" width="2.74" height="1.02" rx="0.43" transform="translate(53.93 108.89) rotate(-67.77)"/><rect class="cls-2" x="88.98" y="4.01" width="2.73" height="1.02" rx="0.43" transform="translate(52.07 86.48) rotate(-67.83)"/><rect class="cls-2" x="103.79" y="7.73" width="1.02" height="2.73" rx="0.43" transform="translate(2.07 31.66) rotate(-17.43)"/><rect class="cls-2" x="97.83" y="4.3" width="1.02" height="2.73" rx="0.43" transform="translate(20.67 66.25) rotate(-41.25)"/><rect class="cls-2" x="32.25" y="5.26" width="1.02" height="2.73" rx="0.43" transform="translate(-0.65 5.71) rotate(-9.86)"/><rect class="cls-2" x="29.76" y="40.95" width="1.02" height="2.73" rx="0.43" transform="translate(-21.09 50.63) rotate(-63.62)"/><rect class="cls-2" x="52.52" y="48.17" width="1.02" height="2.73" rx="0.43" transform="translate(-19.5 47.43) rotate(-41.39)"/><rect class="cls-2" x="78.12" y="47.97" width="1.02" height="2.73" rx="0.43" transform="translate(-12.98 64.31) rotate(-41.39)"/><rect class="cls-2" x="60.58" y="39.63" width="2.73" height="1.02" rx="0.43" transform="translate(-7.98 63.79) rotate(-51.63)"/><rect class="cls-2" x="67.86" y="47.8" width="1.02" height="2.73" rx="0.43" transform="translate(-15.71 53.98) rotate(-39)"/><path class="cls-2" d="M45.56,47.72a.44.44,0,0,0,.51-.35l.35-1.75A.51.51,0,0,0,46,45h0a.51.51,0,0,0-.59.39h0l-.33,1.68a.5.5,0,0,0,.4.6Z"/><path class="cls-2" d="M89.81,69.23a.45.45,0,0,0,.51-.34l.34-1.76a.52.52,0,0,0-.4-.6h0a.52.52,0,0,0-.6.4h0l-.33,1.68a.52.52,0,0,0,.4.6Z"/><rect class="cls-2" x="8.78" y="45.7" width="2.73" height="1.02" rx="0.43" transform="translate(-30.72 22.37) rotate(-47.36)"/><rect class="cls-2" x="16.25" y="47.51" width="1.02" height="2.73" rx="0.43" transform="matrix(0.68, -0.74, 0.74, 0.68, -30.54, 28.1)"/><rect class="cls-2" x="85.02" y="38.61" width="1.02" height="2.73" rx="0.43" transform="translate(18.84 106.8) rotate(-70.11)"/><rect class="cls-2" x="100.22" y="49.74" width="1.02" height="2.73" rx="0.43" transform="translate(18.4 128.43) rotate(-70.11)"/><rect class="cls-2" x="96.02" y="39.08" width="1.02" height="2.74" rx="0.43" transform="translate(-8.13 39.52) rotate(-22.23)"/><rect class="cls-2" x="89.84" y="50.73" width="1.02" height="2.73" rx="0.43" transform="translate(-12.98 37.95) rotate(-22.17)"/><rect class="cls-2" x="96.61" y="32.64" width="2.73" height="1.02" rx="0.43" transform="translate(8.37 84.8) rotate(-48.65)"/><rect class="cls-2" x="42.75" y="17.9" width="2.73" height="1.02" rx="0.43" transform="translate(1.19 39.44) rotate(-48.75)"/><rect class="cls-2" x="32.31" y="52.9" width="2.74" height="1.02" rx="0.43" transform="translate(-24.65 77.57) rotate(-80.26)"/><rect class="cls-2" x="83.29" y="28.4" width="1.02" height="2.73" rx="0.43" transform="translate(19.9 91.62) rotate(-63.62)"/><rect class="cls-2" x="89.71" y="19.78" width="2.73" height="1.02" rx="0.43" transform="translate(1.47 46.31) rotate(-28.75)"/><rect class="cls-2" x="43.37" y="25.66" width="2.73" height="1.02" rx="0.43" transform="translate(-3.39 45.4) rotate(-52.11)"/><rect class="cls-2" x="64.18" y="22.8" width="1.02" height="2.73" rx="0.43" transform="translate(0.18 48.81) rotate(-41.39)"/><rect class="cls-2" x="35.86" y="26.51" width="1.02" height="2.73" rx="0.43" transform="translate(-9.35 31.01) rotate(-41.39)"/><rect class="cls-2" x="66.34" y="34.45" width="2.73" height="1.02" rx="0.43" transform="translate(-4.98 12.08) rotate(-9.84)"/><rect class="cls-2" x="54.4" y="33.05" width="2.73" height="1.02" rx="0.43" transform="translate(-5.16 56.45) rotate(-51.63)"/><rect class="cls-2" x="48.76" y="22.52" width="1.02" height="2.73" rx="0.43" transform="translate(-4.05 36.33) rotate(-39)"/><rect class="cls-2" x="70.6" y="26.83" width="2.73" height="1.02" rx="0.43" transform="translate(31.37 92.75) rotate(-78.98)"/><rect class="cls-2" x="106.2" y="26.98" width="2.73" height="1.02" rx="0.43" transform="translate(14.48 88) rotate(-47.36)"/><rect class="cls-2" x="22.1" y="30.15" width="1.02" height="2.73" rx="0.43" transform="translate(-14.71 42.06) rotate(-70.11)"/><rect class="cls-2" x="24.12" y="7.03" width="1.02" height="2.73" rx="0.43" transform="translate(8.36 28.7) rotate(-70.11)"/><rect class="cls-2" x="101.45" y="21.46" width="1.02" height="2.73" rx="0.43" transform="translate(45.81 110.94) rotate(-70.11)"/><rect class="cls-2" x="9.53" y="30.37" width="1.02" height="2.73" rx="0.43" transform="translate(-11.23 6.14) rotate(-22.17)"/><rect class="cls-2" x="26.86" y="20.22" width="1.02" height="2.73" rx="0.43" transform="translate(-6.12 11.92) rotate(-22.17)"/><rect class="cls-2" x="18.49" y="13.25" width="1.02" height="2.73" rx="0.43" transform="translate(-4.11 8.25) rotate(-22.17)"/><rect class="cls-2" x="18.01" y="22.22" width="2.73" height="1.02" rx="0.43" transform="translate(-10.49 22.31) rotate(-48.75)"/><rect class="cls-2" x="77.13" y="22.96" width="2.74" height="1.02" rx="0.43" transform="translate(42.09 96.87) rotate(-80.26)"/><rect class="cls-2" x="129.1" y="14.63" width="2.73" height="1.02" rx="0.43" transform="translate(6.86 59.55) rotate(-26.38)"/><rect class="cls-2" x="106.32" y="37.89" width="2.73" height="1.02" rx="0.43" transform="translate(-5.85 51.85) rotate(-26.38)"/><rect class="cls-2" x="37.81" y="41.93" width="1.02" height="2.72" rx="0.43" transform="translate(-18.61 33.25) rotate(-38.48)"/><rect class="cls-2" x="113.98" y="7.64" width="1.02" height="2.73" rx="0.43" transform="translate(24.17 79.94) rotate(-42.64)"/><rect class="cls-2" x="33.84" y="38.17" width="2.73" height="1.02" rx="0.43" transform="translate(-16.98 42.27) rotate(-51.63)"/><rect class="cls-2" x="107.9" y="46.66" width="2.73" height="1.02" rx="0.43" transform="translate(0.55 95.6) rotate(-47.36)"/><rect class="cls-2" x="120.12" y="47.24" width="1.02" height="2.73" rx="0.43" transform="translate(3.16 104.42) rotate(-47.36)"/><rect class="cls-2" x="126.01" y="47.52" width="2.73" height="1.02" rx="0.43" transform="translate(58.24 165.3) rotate(-80.14)"/><rect class="cls-2" x="119.55" y="28.97" width="2.73" height="1.02" rx="0.43" transform="translate(23.39 106.8) rotate(-52.11)"/><rect class="cls-2" x="121.4" y="38.32" width="1.02" height="2.73" rx="0.43" transform="translate(2.19 85.57) rotate(-39)"/><rect class="cls-2" x="125.18" y="30.14" width="1.02" height="2.73" rx="0.43" transform="translate(53.3 138.98) rotate(-70.11)"/><rect class="cls-2" x="127.15" y="7.07" width="1.02" height="2.73" rx="0.43" transform="translate(76.3 125.61) rotate(-70.11)"/><rect class="cls-2" x="113.11" y="30.18" width="1.02" height="2.74" rx="0.43" transform="translate(-3.49 45.32) rotate(-22.23)"/><rect class="cls-2" x="129.91" y="20.21" width="1.02" height="2.73" rx="0.43" transform="translate(1.5 50.81) rotate(-22.17)"/><rect class="cls-2" x="121.54" y="13.24" width="1.02" height="2.73" rx="0.43" transform="translate(3.51 47.14) rotate(-22.17)"/><rect class="cls-2" x="72.37" y="19.34" width="1.02" height="2.73" rx="0.43" transform="translate(-2.42 29.03) rotate(-22.17)"/><rect class="cls-2" x="121.06" y="22.22" width="2.73" height="1.02" rx="0.43" transform="translate(24.62 99.79) rotate(-48.75)"/><rect class="cls-2" x="29.76" y="87.49" width="1.02" height="2.73" rx="0.43" transform="translate(-62.78 76.49) rotate(-63.62)"/><rect class="cls-2" x="19.31" y="60.79" width="1.02" height="2.73" rx="0.43" transform="translate(-44.67 52.29) rotate(-63.62)"/><rect class="cls-2" x="73.5" y="87.25" width="2.73" height="1.02" rx="0.43" transform="translate(-40.37 92.95) rotate(-52.11)"/><rect class="cls-2" x="56.11" y="94.7" width="1.02" height="2.73" rx="0.43" transform="translate(-49.38 61.43) rotate(-41.39)"/><rect class="cls-2" x="83.44" y="88.66" width="1.02" height="2.73" rx="0.43" transform="translate(-38.55 77.99) rotate(-41.39)"/><rect class="cls-2" x="32.3" y="83.24" width="2.73" height="1.02" rx="0.43" transform="translate(-13.82 6.98) rotate(-9.84)"/><rect class="cls-2" x="47.78" y="39.61" width="2.73" height="1.02" rx="0.43" transform="translate(-6.13 8.99) rotate(-9.84)"/><rect class="cls-2" x="60.59" y="86.16" width="2.73" height="1.02" rx="0.43" transform="translate(-44.46 81.44) rotate(-51.63)"/><rect class="cls-2" x="68.17" y="95.68" width="1.02" height="2.73" rx="0.43" transform="translate(-45.76 64.85) rotate(-39)"/><rect class="cls-2" x="44.39" y="92.38" width="2.73" height="1.02" rx="0.43" transform="translate(-54.17 120.04) rotate(-78.98)"/><rect class="cls-2" x="10.07" y="93.65" width="2.73" height="1.02" rx="0.43" transform="translate(-65.58 38.79) rotate(-47.36)"/><rect class="cls-2" x="96.8" y="89.6" width="1.02" height="2.73" rx="0.43" transform="matrix(0.34, -0.94, 0.94, 0.34, -21.33, 151.52)"/><rect class="cls-2" x="112.82" y="83.24" width="1.02" height="2.73" rx="0.43" transform="translate(-23.55 49.02) rotate(-22.17)"/><rect class="cls-2" x="89.84" y="97.27" width="1.02" height="2.73" rx="0.43" transform="translate(-30.54 41.39) rotate(-22.17)"/><rect class="cls-2" x="104.16" y="88.52" width="2.73" height="1.02" rx="0.43" transform="matrix(0.3, -0.95, 0.95, 0.3, -11.02, 163.04)"/><rect class="cls-2" x="72.81" y="53.13" width="2.73" height="1.02" rx="0.43" transform="translate(0.78 108.34) rotate(-72.57)"/><rect class="cls-2" x="100.28" y="98.14" width="2.73" height="1.02" rx="0.43" transform="translate(-39.54 110.03) rotate(-48.75)"/><rect class="cls-2" x="31.4" y="96.03" width="2.73" height="1.02" rx="0.43" transform="translate(-67.96 112.29) rotate(-80.14)"/><rect class="cls-2" x="27.79" y="57.45" width="2.73" height="1.02" rx="0.43" transform="translate(-22.72 18.99) rotate(-26.38)"/><rect class="cls-2" x="134.07" y="72.28" width="1.02" height="2.73" rx="0.43" transform="translate(-16.85 98.18) rotate(-37.89)"/><rect class="cls-2" x="61.43" y="61.66" width="1.02" height="2.73" rx="0.43" transform="translate(-25.75 52.06) rotate(-38.37)"/><rect class="cls-2" x="45.94" y="66.27" width="1.02" height="2.73" rx="0.43" transform="translate(-12.07 10.13) rotate(-11.02)"/><rect class="cls-2" x="9.64" y="55.59" width="1.02" height="2.73" rx="0.43" transform="translate(-35.9 21.93) rotate(-42.64)"/><rect class="cls-2" x="15.4" y="53.78" width="2.73" height="1.02" rx="0.43" transform="translate(-32.34 25.71) rotate(-42.64)"/><rect class="cls-2" x="81.58" y="62.39" width="2.73" height="1.02" rx="0.43" transform="translate(-16.45 31.97) rotate(-19.89)"/><rect class="cls-2" x="58.61" y="53.58" width="2.73" height="1.02" rx="0.43" transform="translate(-14.82 23.63) rotate(-19.89)"/><rect class="cls-2" x="94.67" y="62.12" width="2.73" height="1.02" rx="0.43" transform="translate(1.8 127.93) rotate(-67.83)"/><rect class="cls-2" x="97.46" y="68.87" width="1.02" height="2.73" rx="0.43" transform="translate(-21.99 82.03) rotate(-41.25)"/><rect class="cls-2" x="94.09" y="24.66" width="1.02" height="2.73" rx="0.43" transform="translate(6.32 68.83) rotate(-41.25)"/><rect class="cls-2" x="27.29" y="45.66" width="1.02" height="2.73" rx="0.43" transform="translate(-7.64 5.46) rotate(-9.86)"/><rect class="cls-2" x="82.44" y="72.9" width="2.73" height="1.02" rx="0.43" transform="translate(-23.89 44.88) rotate(-26.38)"/><rect class="cls-2" x="90.57" y="81.5" width="1.02" height="2.73" rx="0.43" transform="translate(-25.38 122.86) rotate(-61.25)"/><rect class="cls-2" x="44.23" y="75.64" width="1.02" height="2.73" rx="0.43" transform="translate(-37.86 43.71) rotate(-37.89)"/><rect class="cls-2" x="63.32" y="78.48" width="2.73" height="1.02" rx="0.43" transform="translate(-37.35 75.29) rotate(-48.61)"/><rect class="cls-2" x="35" y="74.78" width="2.73" height="1.02" rx="0.43" transform="translate(-44.17 52.79) rotate(-48.61)"/><rect class="cls-2" x="67.19" y="66.86" width="1.02" height="2.73" rx="0.43" transform="translate(-11.09 123.27) rotate(-80.16)"/><rect class="cls-2" x="55.25" y="68.25" width="1.02" height="2.73" rx="0.43" transform="translate(-31.17 49.65) rotate(-38.37)"/><rect class="cls-2" x="47.91" y="78.77" width="2.73" height="1.02" rx="0.43" transform="translate(-43.35 67.69) rotate(-51)"/><rect class="cls-2" x="107.06" y="74.32" width="1.02" height="2.73" rx="0.43" transform="translate(-22.83 92.88) rotate(-42.64)"/><rect class="cls-2" x="21.27" y="71.14" width="2.73" height="1.02" rx="0.43" transform="translate(-23.03 11.98) rotate(-19.89)"/><rect class="cls-2" x="23.27" y="94.27" width="2.73" height="1.02" rx="0.43" transform="translate(-30.78 14.03) rotate(-19.89)"/><rect class="cls-2" x="100.6" y="79.83" width="2.73" height="1.02" rx="0.43" transform="translate(-21.25 39.48) rotate(-19.89)"/><rect class="cls-2" x="8.67" y="70.93" width="2.73" height="1.02" rx="0.43" transform="translate(-59.91 53.78) rotate(-67.83)"/><rect class="cls-2" x="26" y="81.07" width="2.73" height="1.02" rx="0.43" transform="translate(-58.51 76.14) rotate(-67.83)"/><rect class="cls-2" x="17.64" y="88.06" width="2.73" height="1.02" rx="0.43" transform="translate(-70.19 72.74) rotate(-67.83)"/><rect class="cls-2" x="18.87" y="79.07" width="1.02" height="2.73" rx="0.43" transform="translate(-48.23 32.74) rotate(-41.25)"/><rect class="cls-2" x="77.98" y="77.93" width="1.02" height="2.73" rx="0.43" transform="translate(-12.42 14.61) rotate(-9.86)"/><rect class="cls-2" x="127.16" y="88.22" width="1.02" height="2.73" rx="0.43" transform="translate(-9.31 164.15) rotate(-63.62)"/><rect class="cls-2" x="107.18" y="63.4" width="1.02" height="2.73" rx="0.43" transform="translate(1.82 132.46) rotate(-63.62)"/><rect class="cls-2" x="73.51" y="62.92" width="1.02" height="2.73" rx="0.43" transform="translate(-16.45 102.04) rotate(-63.62)"/><rect class="cls-2" x="43.75" y="55.43" width="2.73" height="1.02" rx="0.43" transform="translate(-26.75 56.59) rotate(-51.63)"/><rect class="cls-2" x="116.96" y="90.96" width="2.73" height="1.02" rx="0.43" transform="translate(-29.11 116.55) rotate(-47.36)"/><rect class="cls-2" x="34.69" y="63.12" width="1.02" height="2.73" rx="0.43" transform="translate(-32.43 35.78) rotate(-38.37)"/><rect class="cls-2" x="116.24" y="62.14" width="1.02" height="2.73" rx="0.43" transform="translate(-12.15 95.87) rotate(-42.64)"/><rect class="cls-2" x="74.1" y="40.63" width="1.02" height="2.73" rx="0.43" transform="translate(-8.72 61.64) rotate(-42.64)"/><rect class="cls-2" x="121.56" y="60.47" width="2.73" height="1.02" rx="0.43" transform="translate(-8.81 99.39) rotate(-42.64)"/><rect class="cls-2" x="126.88" y="53.78" width="1.02" height="2.73" rx="0.43" transform="translate(-7.56 22.63) rotate(-9.86)"/><rect class="cls-2" x="120.4" y="72.32" width="1.02" height="2.73" rx="0.43" transform="translate(-19.77 89.79) rotate(-37.89)"/><rect class="cls-2" x="114.38" y="53" width="2.73" height="1.02" rx="0.43" transform="translate(1.32 109.78) rotate(-51)"/><rect class="cls-2" x="124.3" y="69.95" width="2.73" height="1.02" rx="0.43" transform="translate(-16.48 46.96) rotate(-19.89)"/><rect class="cls-2" x="121.87" y="97.76" width="2.73" height="1.02" rx="0.43" transform="translate(-26.08 47.79) rotate(-19.89)"/><rect class="cls-2" x="111.73" y="70.93" width="2.73" height="1.02" rx="0.43" transform="translate(4.26 149.22) rotate(-67.83)"/><rect class="cls-2" x="129.07" y="81.08" width="2.73" height="1.02" rx="0.43" transform="translate(5.65 171.59) rotate(-67.83)"/><rect class="cls-2" x="106.14" y="55.34" width="2.73" height="1.02" rx="0.43" transform="translate(15.22 134.33) rotate(-67.83)"/><rect class="cls-2" x="121.93" y="79.07" width="1.02" height="2.73" rx="0.43" transform="translate(-22.65 100.69) rotate(-41.25)"/><circle class="cls-3" cx="113.11" cy="44.89" r="19.89"/><circle class="cls-4" cx="24.23" cy="92.53" r="11.44"/><path class="cls-5" d="M92.58,86.65,81.26,84.86A.19.19,0,0,0,81,85a.2.2,0,0,0,0,.11l4,10.52a.2.2,0,0,1-.09.25.18.18,0,0,1-.23,0c-1.23-1.22-3.87-3.71-4.73-3.47S78.46,96,78.19,97.51a.19.19,0,0,1-.23.14.18.18,0,0,1-.14-.14l-4-10.67-4,25.21,18.28,3a.21.21,0,0,0,.23-.17l4.42-27.94a.21.21,0,0,0-.15-.24Z"/><path class="cls-5" d="M61.1,95a.19.19,0,0,1-.27,0,.19.19,0,0,1-.07-.16c0-1.35,0-4.58-.66-5s-3.57.78-5,1.45a.2.2,0,0,1-.25-.09.18.18,0,0,1,0-.23l7-8.88a.2.2,0,0,0,0-.28l-.07,0L50.49,80a.19.19,0,0,0-.22.16h0L45.85,108.1a.2.2,0,0,0,.16.23l18.21,2.88L68.2,86Z"/><path class="cls-6" d="M56.2,40.35a.94.94,0,0,0-.1-.23A2.47,2.47,0,0,0,53,39a2,2,0,0,0-1.18,2.57,1.22,1.22,0,0,0,.07.17L68.52,74.25Z"/><path class="cls-6" d="M25.69,70.93h-.27a2.17,2.17,0,0,0-2.5,1.8v0A2.26,2.26,0,0,0,25,75l39,4.2Z"/><path class="cls-6" d="M117.36,85.75l-39-4.2,38.34,8.3.27.05a2.18,2.18,0,0,0,2.5-1.81v0A2.23,2.23,0,0,0,117.36,85.75Z"/><path class="cls-6" d="M101.88,49.62a2,2,0,0,0-.4-2.8l-.18-.12a2.44,2.44,0,0,0-3.22.42L75.68,75.4l26-25.59A.91.91,0,0,0,101.88,49.62Z"/><path class="cls-6" d="M43.19,59.79a1.8,1.8,0,0,0,.37,2.52,1.37,1.37,0,0,0,.2.13L67.11,77.36,46.36,59.55a2.18,2.18,0,0,0-3.08.14Z"/><path class="cls-6" d="M101.35,68.43,76,78.8,102.9,72a1.4,1.4,0,0,0,.29-.09,1.78,1.78,0,0,0,1.11-2.26,2,2,0,0,0-.11-.26A2.27,2.27,0,0,0,101.35,68.43Z"/><path class="cls-6" d="M76.16,48.79a2,2,0,0,0-2.25,1.69l-2,25.29L78,51.16a2.74,2.74,0,0,0,0-.28A2.06,2.06,0,0,0,76.16,48.79Z"/><polygon class="cls-6" points="31.33 55.69 34.64 55.4 36.87 57.7 37.48 54.76 40.53 53.63 37.6 52.1 37.25 49.1 34.83 51.09 31.57 50.37 33 53.13 31.33 55.69"/><polygon class="cls-6" points="113.73 69.27 116.58 67.78 119.62 69.1 118.85 66.15 121.08 63.98 117.75 63.64 116.09 60.98 114.81 63.72 111.54 64.25 114.08 66.28 113.73 69.27"/><polygon class="cls-6" points="79.96 35.59 78.93 32.69 77.04 35.12 73.7 35.02 75.73 37.47 74.7 40.3 77.85 39.39 80.55 41.24 80.46 38.23 83.16 36.54 79.96 35.59"/><path class="cls-7" d="M50.91,33.83a1.68,1.68,0,0,0,1.16-2.07,1.72,1.72,0,0,0-.07-.21,2.11,2.11,0,0,0-2.56-1.07,1.68,1.68,0,0,0-1.19,2.06,2,2,0,0,0,.08.22A2.12,2.12,0,0,0,50.91,33.83Z"/><path class="cls-6" d="M107.94,42.39a1.68,1.68,0,0,0-.15-2.37l-.18-.14a2.1,2.1,0,0,0-2.77.21,1.67,1.67,0,0,0,.13,2.36l.2.15A2.12,2.12,0,0,0,107.94,42.39Z"/><path class="cls-6" d="M15.27,69.56A1.78,1.78,0,0,0,14.39,73a1.67,1.67,0,0,0,.31,0,1.78,1.78,0,0,0,.88-3.45A1.67,1.67,0,0,0,15.27,69.56Z"/><path class="cls-6" d="M127.69,87.72a1.79,1.79,0,1,0,1.67,2.07A1.89,1.89,0,0,0,127.69,87.72Z"/><path class="cls-5" d="M91.68,14.06a.19.19,0,0,0-.24-.14h0L78.89,17.3a.2.2,0,0,1-.22-.18.27.27,0,0,1,0-.12,14.67,14.67,0,0,0,1.19-1.3c1.94-2.37,2.63-4.9,2-7.07-.48-1.77-2-4.08-3.51-4.82a7.2,7.2,0,0,0-5-.47,9.5,9.5,0,0,0-4.61,3c-3,3.4-3.14,9.68-3.14,9.68S62.2,10.39,58,9.23A10.21,10.21,0,0,0,52.56,9a7.26,7.26,0,0,0-4.26,3.26,9.32,9.32,0,0,0-.6,6.3,6.35,6.35,0,0,0,1.88,3.06,9.66,9.66,0,0,0,4.15,2.15.19.19,0,0,1,.15.24.23.23,0,0,1-.15.15l-11.47,3a.19.19,0,0,0-.14.24h0l3,11a.19.19,0,0,0,.24.14h0L67.1,32.7,63.9,20.82l5.69-1.54,3.2,11.89,21.76-5.86a.2.2,0,0,0,.14-.25ZM64.23,20.22c-4.65.72-7.86.5-9.87-.12a6,6,0,0,1-2.31-1.22,4.23,4.23,0,0,1-.69-4.8,3.69,3.69,0,0,1,2.1-1.66h0a5.82,5.82,0,0,1,3.38.21c1.82.6,4,3,5.57,4.73A16.17,16.17,0,0,1,64.32,20a.2.2,0,0,1-.09.27Zm4.77-1a.2.2,0,0,1-.27-.09.29.29,0,0,1,0-.09,20.23,20.23,0,0,1,.77-5.63,14.34,14.34,0,0,1,2-4.69A5.72,5.72,0,0,1,74.3,6.84h0A3.62,3.62,0,0,1,76.83,7a3.16,3.16,0,0,1,1.44,1.86,5.41,5.41,0,0,1-1.19,4.49C75.73,15,73.18,17.09,69,19.17Z"/><circle class="cls-8" cx="118.84" cy="60.85" r="15.57"/><rect class="cls-9" x="111.54" y="55.63" width="14.86" height="14.85"/><path class="cls-2" d="M126.42,60.42h-4a.06.06,0,0,0,0,.08s0,0,0,0L124.27,64a.07.07,0,0,1,0,.09h-.07c-.49-.36-1.55-1.08-1.83-1S122,64.45,122,65a.07.07,0,0,1-.09,0,.08.08,0,0,1,0,0l-2-3.49v9h6.5a.07.07,0,0,0,.07-.07v-10Zm1.25-4.75a.07.07,0,0,0-.07-.07h-4.44a.07.07,0,0,1,0-.09.08.08,0,0,1,0,0,4.45,4.45,0,0,0,.51-.33A2.71,2.71,0,0,0,125,53a2.84,2.84,0,0,0-.73-1.9,2.48,2.48,0,0,0-1.62-.6,3.22,3.22,0,0,0-1.78.57,5.94,5.94,0,0,0-1.9,2.91,5.76,5.76,0,0,0-1.9-2.91,3.54,3.54,0,0,0-1.78-.57,2.43,2.43,0,0,0-1.69.69,3.15,3.15,0,0,0-.76,2,2.11,2.11,0,0,0,.35,1.17,3.31,3.31,0,0,0,1.18,1.08c.06,0,0,.13,0,.13h-4.06a.07.07,0,0,0-.07.07v3.88a.07.07,0,0,0,.07.06H118v-4.2h2v4.2h7.69a.07.07,0,0,0,.07-.06Zm-9.6-.41a7.7,7.7,0,0,1-3.24-.92,2.23,2.23,0,0,1-.66-.6,1.46,1.46,0,0,1,.22-1.65,1.24,1.24,0,0,1,.83-.36h0a2,2,0,0,1,1.1.37,5.73,5.73,0,0,1,1.41,2,4.54,4.54,0,0,1,.4,1,.09.09,0,0,1-.06.16Zm1.67.08s-.07,0-.08-.06v0a5.55,5.55,0,0,1,.82-1.78,5.61,5.61,0,0,1,1-1.37,2,2,0,0,1,1.09-.37h0a1.24,1.24,0,0,1,.8.3,1,1,0,0,1,.31.74,1.89,1.89,0,0,1-.79,1.37A8.51,8.51,0,0,1,119.74,55.34Zm-3.81,9.71a.07.07,0,0,1-.09,0,.08.08,0,0,1,0,0c-.06-.47-.24-1.6-.5-1.71s-1.2.46-1.65.77a.08.08,0,0,1-.1,0,.09.09,0,0,1,0-.07l2-3.47a.07.07,0,0,0,0-.09h-4a.07.07,0,0,0-.07.07v10a.07.07,0,0,0,.07.07H118v-9Z"/><circle class="cls-8" cx="18.18" cy="40.43" r="15.57"/><path class="cls-2" d="M18.86,33.5A16.18,16.18,0,0,1,20.1,32a2.86,2.86,0,0,1,4-.16l.16.16a2.8,2.8,0,0,1-.21,3.57l-.45.45a5,5,0,0,0,2.86-1c.49-.52.09-.94-.18-1.42l1.08-.89c1.44,1.65,1,3.11-1.51,4.35l1.29.41c-.8.22-1.5.38-2.17.62a3.22,3.22,0,0,1-2.1-.08,2.8,2.8,0,0,0-1,0,11.21,11.21,0,0,0-1.92.25l2.19.62c-1.3.34-2.44.7-3.61.93-.37.08-.8-.17-1.21-.27a17.24,17.24,0,0,1-2-.64L18.08,38a2.41,2.41,0,0,0-2.27-.4c-.54.22-1.14.3-1.69.48a2.74,2.74,0,0,1-1.83,0c-.75-.26-1.53-.43-2.44-.67l3.51-1c-2.09-.58-4.38-.59-5.08,1.15L7,37.21a3.29,3.29,0,0,1,3-2.48c.94,0,1.89.05,2.84.08h.46c-.33-.49-.66-.92-.93-1.4a2.36,2.36,0,0,1,0-2.87,2.75,2.75,0,0,1,2.93-.91,4,4,0,0,1,2.55,2C18.27,32.29,18.55,32.91,18.86,33.5Zm-1,1.63a7.65,7.65,0,0,0-1.61-3.25,3,3,0,0,0-1.43-.81,1.74,1.74,0,0,0-1.25.45c-.36.3-.17.82.08,1.14.63.78,1.32,1.5,2,2.25a1.62,1.62,0,0,0,2.19.22Zm1.8.06A2.42,2.42,0,0,0,22.5,35a1.6,1.6,0,0,0,.87-1.6.85.85,0,0,0-.68-.81,1.46,1.46,0,0,0-1.69.52c-.5.67-.91,1.4-1.36,2.08Z"/><path class="cls-2" d="M19.14,50.68V41c0-.15.1-.41.21-.44,1.12-.33,2.25-.63,3.43-.95v9.67c0,.17-.1.45-.21.49C21.45,50.06,20.32,50.35,19.14,50.68Z"/><path class="cls-2" d="M9.9,38.35c1,.28,2,.54,3,.85.13,0,.24.39.24.59v9.58c-1.08-.29-2.1-.56-3.12-.86a.45.45,0,0,1-.24-.37V38.55C9.78,33.74,9.86,38.45,9.9,38.35Z"/><path class="cls-2" d="M17.9,50.65c-1.13-.3-2.17-.56-3.2-.88-.14-.05-.27-.38-.27-.58v-9.6c1.15.31,2.22.59,3.29.91.1,0,.18.34.18.52v9.63Z"/><path class="cls-2" d="M24.05,49.34V39.21l3.23-.88V48c0,.35-.06.54-.46.63C25.9,48.79,25,49.08,24.05,49.34Z"/><path class="cls-8" d="M17.84,35.13a1.61,1.61,0,0,1-2.23-.22c-.66-.75-1.35-1.47-2-2.25-.25-.32-.44-.84-.08-1.14a1.74,1.74,0,0,1,1.25-.45,3,3,0,0,1,1.43.81A7.58,7.58,0,0,1,17.84,35.13Z"/><path class="cls-8" d="M19.64,35.19a21.22,21.22,0,0,1,1.36-2,1.46,1.46,0,0,1,1.69-.52.85.85,0,0,1,.68.81A1.59,1.59,0,0,1,22.5,35,2.42,2.42,0,0,1,19.64,35.19Z"/></svg>